<svg xmlns="http://www.w3.org/2000/svg" height="400.0000" stroke-opacity="1" viewBox="0 0 454 400" font-size="1" width="454.3396" xmlns:xlink="http://www.w3.org/1999/xlink" stroke="rgb(0,0,0)" version="1.1"><defs></defs><g stroke-opacity="1.0" fill-opacity="1.0" stroke="rgb(55,126,184)" stroke-width="1.0" fill="rgb(103,146,193)"><defs><clipPath id="myClip1"><path d="M 341.1321,347.1698 l -0.0000,-301.8868 h -301.8868 l -0.0000,301.8868 Z"/></clipPath></defs><g clip-path="url(#myClip1)"><path d="M 166.3913,347.1698 h 13.5985 v -39.2061 h -13.5985 Z"/></g></g><g stroke-opacity="1.0" fill-opacity="1.0" stroke="rgb(55,126,184)" stroke-width="1.0" fill="rgb(103,146,193)"><defs><clipPath id="myClip2"><path d="M 341.1321,347.1698 l -0.0000,-301.8868 h -301.8868 l -0.0000,301.8868 Z"/></clipPath></defs><g clip-path="url(#myClip2)"><path d="M 132.3950,347.1698 h 13.5985 v -274.4425 h -13.5985 Z"/></g></g><g stroke-opacity="1.0" fill-opacity="1.0" stroke="rgb(55,126,184)" stroke-width="1.0" fill="rgb(103,146,193)"><defs><clipPath id="myClip3"><path d="M 341.1321,347.1698 l -0.0000,-301.8868 h -301.8868 l -0.0000,301.8868 Z"/></clipPath></defs><g clip-path="url(#myClip3)"><path d="M 98.3988,347.1698 h 13.5985 v -156.8243 h -13.5985 Z"/></g></g><g stroke-opacity="1.0" fill-opacity="1.0" stroke="rgb(55,126,184)" stroke-width="1.0" fill="rgb(103,146,193)"><defs><clipPath id="myClip4"><path d="M 341.1321,347.1698 l -0.0000,-301.8868 h -301.8868 l -0.0000,301.8868 Z"/></clipPath></defs><g clip-path="url(#myClip4)"><path d="M 64.4025,347.1698 h 13.5985 v -196.0304 h -13.5985 Z"/></g></g><g stroke-opacity="1.0" fill-opacity="1.0" stroke="rgb(228,26,28)" stroke-width="1.0" fill="rgb(231,93,93)"><defs><clipPath id="myClip5"><path d="M 341.1321,347.1698 l -0.0000,-301.8868 h -301.8868 l -0.0000,301.8868 Z"/></clipPath></defs><g clip-path="url(#myClip5)"><path d="M 302.3763,347.1698 h 13.5985 v -78.4122 h -13.5985 Z"/></g></g><g stroke-opacity="1.0" fill-opacity="1.0" stroke="rgb(228,26,28)" stroke-width="1.0" fill="rgb(231,93,93)"><defs><clipPath id="myClip6"><path d="M 341.1321,347.1698 l -0.0000,-301.8868 h -301.8868 l -0.0000,301.8868 Z"/></clipPath></defs><g clip-path="url(#myClip6)"><path d="M 268.3801,347.1698 h 13.5985 v -78.4122 h -13.5985 Z"/></g></g><g stroke-opacity="1.0" fill-opacity="1.0" stroke="rgb(228,26,28)" stroke-width="1.0" fill="rgb(231,93,93)"><defs><clipPath id="myClip7"><path d="M 341.1321,347.1698 l -0.0000,-301.8868 h -301.8868 l -0.0000,301.8868 Z"/></clipPath></defs><g clip-path="url(#myClip7)"><path d="M 234.3838,347.1698 h 13.5985 v -196.0304 h -13.5985 Z"/></g></g><g stroke-opacity="1.0" fill-opacity="1.0" stroke="rgb(228,26,28)" stroke-width="1.0" fill="rgb(231,93,93)"><defs><clipPath id="myClip8"><path d="M 341.1321,347.1698 l -0.0000,-301.8868 h -301.8868 l -0.0000,301.8868 Z"/></clipPath></defs><g clip-path="url(#myClip8)"><path d="M 200.3876,347.1698 h 13.5985 v -274.4425 h -13.5985 Z"/></g></g><g stroke-width="0.8"><path d="M 39.2453,347.1698 h 301.8868 M 39.2453,268.7577 h 301.8868 M 39.2453,190.3455 h 301.8868 M 39.2453,111.9333 h 301.8868 "/></g><g stroke-linecap="square"><path d="M 39.2453,347.1698 v -301.8868 M 341.1321,347.1698 v -301.8868 "/></g><g stroke-width="0.4"><path d="M 341.1321,347.1698 h 3.7736 M 341.1321,268.7577 h 3.7736 M 341.1321,190.3455 h 3.7736 M 341.1321,111.9333 h 3.7736 "/></g><g stroke-width="0.4"><path d="M 35.4717,347.1698 h 3.7736 M 35.4717,268.7577 h 3.7736 M 35.4717,190.3455 h 3.7736 M 35.4717,111.9333 h 3.7736 "/></g><g fill-opacity="1.0" font-size="11.0px" fill="rgb(0,0,0)"><text dominant-baseline="middle" transform="matrix(1.0000,0.0000,0.0000,1.0000,30.1887,111.9333)" stroke="none" text-anchor="end">6</text></g><g fill-opacity="1.0" font-size="11.0px" fill="rgb(0,0,0)"><text dominant-baseline="middle" transform="matrix(1.0000,0.0000,0.0000,1.0000,30.1887,190.3455)" stroke="none" text-anchor="end">4</text></g><g fill-opacity="1.0" font-size="11.0px" fill="rgb(0,0,0)"><text dominant-baseline="middle" transform="matrix(1.0000,0.0000,0.0000,1.0000,30.1887,268.7577)" stroke="none" text-anchor="end">2</text></g><g fill-opacity="1.0" font-size="11.0px" fill="rgb(0,0,0)"><text dominant-baseline="middle" transform="matrix(1.0000,0.0000,0.0000,1.0000,30.1887,347.1698)" stroke="none" text-anchor="end">0</text></g><g stroke-linecap="square"><path d="M 39.2453,347.1698 h 301.8868 M 39.2453,45.2830 h 301.8868 "/></g><g stroke-width="0.4"><path d="M 71.2018,45.2830 v -3.7736 M 105.1980,45.2830 v -3.7736 M 139.1943,45.2830 v -3.7736 M 173.1905,45.2830 v -3.7736 M 207.1868,45.2830 v -3.7736 M 241.1831,45.2830 v -3.7736 M 275.1793,45.2830 v -3.7736 M 309.1756,45.2830 v -3.7736 "/></g><g stroke-width="0.4"><path d="M 71.2018,350.9434 v -3.7736 M 105.1980,350.9434 v -3.7736 M 139.1943,350.9434 v -3.7736 M 173.1905,350.9434 v -3.7736 M 207.1868,350.9434 v -3.7736 M 241.1831,350.9434 v -3.7736 M 275.1793,350.9434 v -3.7736 M 309.1756,350.9434 v -3.7736 "/></g><g fill-opacity="1.0" font-size="11.0px" fill="rgb(0,0,0)"><text dominant-baseline="text-before-edge" transform="matrix(1.0000,0.0000,0.0000,1.0000,190.1887,369.8113)" stroke="none" text-anchor="middle">breakfast item</text></g><g fill-opacity="1.0" font-size="11.0px" fill="rgb(0,0,0)"><text dominant-baseline="text-before-edge" transform="matrix(1.0000,0.0000,0.0000,1.0000,309.1756,356.2264)" stroke="none" text-anchor="middle">beans</text></g><g fill-opacity="1.0" font-size="11.0px" fill="rgb(0,0,0)"><text dominant-baseline="text-before-edge" transform="matrix(1.0000,0.0000,0.0000,1.0000,275.1793,356.2264)" stroke="none" text-anchor="middle">sausage</text></g><g fill-opacity="1.0" font-size="11.0px" fill="rgb(0,0,0)"><text dominant-baseline="text-before-edge" transform="matrix(1.0000,0.0000,0.0000,1.0000,241.1831,356.2264)" stroke="none" text-anchor="middle">bacon</text></g><g fill-opacity="1.0" font-size="11.0px" fill="rgb(0,0,0)"><text dominant-baseline="text-before-edge" transform="matrix(1.0000,0.0000,0.0000,1.0000,207.1868,356.2264)" stroke="none" text-anchor="middle">eggs</text></g><g fill-opacity="1.0" font-size="11.0px" fill="rgb(0,0,0)"><text dominant-baseline="text-before-edge" transform="matrix(1.0000,0.0000,0.0000,1.0000,173.1905,356.2264)" stroke="none" text-anchor="middle">beans</text></g><g fill-opacity="1.0" font-size="11.0px" fill="rgb(0,0,0)"><text dominant-baseline="text-before-edge" transform="matrix(1.0000,0.0000,0.0000,1.0000,139.1943,356.2264)" stroke="none" text-anchor="middle">sausage</text></g><g fill-opacity="1.0" font-size="11.0px" fill="rgb(0,0,0)"><text dominant-baseline="text-before-edge" transform="matrix(1.0000,0.0000,0.0000,1.0000,105.1980,356.2264)" stroke="none" text-anchor="middle">bacon</text></g><g fill-opacity="1.0" font-size="11.0px" fill="rgb(0,0,0)"><text dominant-baseline="text-before-edge" transform="matrix(1.0000,0.0000,0.0000,1.0000,71.2018,356.2264)" stroke="none" text-anchor="middle">eggs</text></g><g fill-opacity="1.0" font-size="11.0px" fill="rgb(0,0,0)"><text dominant-baseline="text-after-edge" transform="matrix(1.0000,0.0000,0.0000,1.0000,190.1887,30.1887)" stroke="none" text-anchor="middle"></text></g><g fill-opacity="0.0" fill="rgb(0,0,0)"><path d="M 420.3774,75.4717 l -0.0000,-30.1887 h -64.1509 l -0.0000,30.1887 Z"/></g><g fill-opacity="1.0" font-size="11.0px" fill="rgb(0,0,0)"><text dominant-baseline="middle" transform="matrix(1.0000,0.0000,0.0000,1.0000,378.8679,67.9245)" stroke="none" text-anchor="start">boys</text></g><g stroke-opacity="1.0" fill-opacity="1.0" stroke="rgb(55,126,184)" stroke-width="0.6037735849056605" fill="rgb(103,146,193)"><path d="M 371.6981,71.6981 l -0.0000,-7.5472 h -3.0189 l -0.0000,7.5472 Z"/></g><g stroke-opacity="1.0" fill-opacity="1.0" stroke="rgb(55,126,184)" stroke-width="0.6037735849056605" fill="rgb(103,146,193)"><path d="M 366.4151,71.6981 l -0.0000,-5.2830 h -3.0189 l -0.0000,5.2830 Z"/></g><g fill-opacity="1.0" font-size="11.0px" fill="rgb(0,0,0)"><text dominant-baseline="middle" transform="matrix(1.0000,0.0000,0.0000,1.0000,378.8679,52.8302)" stroke="none" text-anchor="start">girls</text></g><g stroke-opacity="1.0" fill-opacity="1.0" stroke="rgb(228,26,28)" stroke-width="0.6037735849056605" fill="rgb(231,93,93)"><path d="M 371.6981,56.6038 l -0.0000,-7.5472 h -3.0189 l -0.0000,7.5472 Z"/></g><g stroke-opacity="1.0" fill-opacity="1.0" stroke="rgb(228,26,28)" stroke-width="0.6037735849056605" fill="rgb(231,93,93)"><path d="M 366.4151,56.6038 l -0.0000,-5.2830 h -3.0189 l -0.0000,5.2830 Z"/></g></svg>