<svg xmlns="http://www.w3.org/2000/svg" height="622.6700" stroke-opacity="1" viewBox="0 0 600 623" font-size="1" width="600.0000" xmlns:xlink="http://www.w3.org/1999/xlink" stroke="rgb(0,0,0)" version="1.1"><defs></defs><g stroke-opacity="1.0" fill-opacity="1.0" stroke="rgb(228,26,28)" stroke-width="1.0" fill="rgb(231,93,93)"><path d="M 449.7555,544.0806 h 44.4510 v -103.0456 h -44.4510 Z"/></g><g stroke-opacity="1.0" fill-opacity="1.0" stroke="rgb(228,26,28)" stroke-width="1.0" fill="rgb(231,93,93)"><path d="M 338.6279,544.0806 h 44.4510 v -309.1367 h -44.4510 Z"/></g><g stroke-opacity="1.0" fill-opacity="1.0" stroke="rgb(228,26,28)" stroke-width="1.0" fill="rgb(231,93,93)"><path d="M 227.5004,544.0806 h 44.4510 v -171.7426 h -44.4510 Z"/></g><g stroke-opacity="1.0" fill-opacity="1.0" stroke="rgb(228,26,28)" stroke-width="1.0" fill="rgb(231,93,93)"><path d="M 116.3728,544.0806 h 44.4510 v -412.1823 h -44.4510 Z"/></g><g stroke-width="0.1"><path d="M 78.5894,544.0806 h 453.4005 M 78.5894,475.3836 h 453.4005 M 78.5894,406.6865 h 453.4005 M 78.5894,337.9895 h 453.4005 M 78.5894,269.2924 h 453.4005 M 78.5894,200.5954 h 453.4005 M 78.5894,131.8983 h 453.4005 "/></g><g stroke-linecap="square"><path d="M 78.5894,544.0806 v -453.4005 M 531.9899,544.0806 v -453.4005 "/></g><g stroke-width="0.4"><path d="M 531.9899,526.9063 h 4.5340 M 531.9899,509.7321 h 4.5340 M 531.9899,492.5578 h 4.5340 M 531.9899,458.2093 h 4.5340 M 531.9899,441.0350 h 4.5340 M 531.9899,423.8608 h 4.5340 M 531.9899,389.5123 h 4.5340 M 531.9899,372.3380 h 4.5340 M 531.9899,355.1637 h 4.5340 M 531.9899,320.8152 h 4.5340 M 531.9899,303.6409 h 4.5340 M 531.9899,286.4667 h 4.5340 M 531.9899,252.1182 h 4.5340 M 531.9899,234.9439 h 4.5340 M 531.9899,217.7696 h 4.5340 M 531.9899,183.4211 h 4.5340 M 531.9899,166.2469 h 4.5340 M 531.9899,149.0726 h 4.5340 M 531.9899,114.7241 h 4.5340 M 531.9899,97.5498 h 4.5340 "/></g><g stroke-width="0.4"><path d="M 531.9899,544.0806 h 7.5567 M 531.9899,475.3836 h 7.5567 M 531.9899,406.6865 h 7.5567 M 531.9899,337.9895 h 7.5567 M 531.9899,269.2924 h 7.5567 M 531.9899,200.5954 h 7.5567 M 531.9899,131.8983 h 7.5567 "/></g><g stroke-width="0.4"><path d="M 74.0554,526.9063 h 4.5340 M 74.0554,509.7321 h 4.5340 M 74.0554,492.5578 h 4.5340 M 74.0554,458.2093 h 4.5340 M 74.0554,441.0350 h 4.5340 M 74.0554,423.8608 h 4.5340 M 74.0554,389.5123 h 4.5340 M 74.0554,372.3380 h 4.5340 M 74.0554,355.1637 h 4.5340 M 74.0554,320.8152 h 4.5340 M 74.0554,303.6409 h 4.5340 M 74.0554,286.4667 h 4.5340 M 74.0554,252.1182 h 4.5340 M 74.0554,234.9439 h 4.5340 M 74.0554,217.7696 h 4.5340 M 74.0554,183.4211 h 4.5340 M 74.0554,166.2469 h 4.5340 M 74.0554,149.0726 h 4.5340 M 74.0554,114.7241 h 4.5340 M 74.0554,97.5498 h 4.5340 "/></g><g stroke-width="0.4"><path d="M 71.0327,544.0806 h 7.5567 M 71.0327,475.3836 h 7.5567 M 71.0327,406.6865 h 7.5567 M 71.0327,337.9895 h 7.5567 M 71.0327,269.2924 h 7.5567 M 71.0327,200.5954 h 7.5567 M 71.0327,131.8983 h 7.5567 "/></g><g fill-opacity="1.0" font-size="11.0px" fill="rgb(0,0,0)"><text dominant-baseline="middle" transform="matrix(1.0000,0.0000,0.0000,1.0000,60.4534,131.8983)" stroke="none" text-anchor="end">12.0</text></g><g fill-opacity="1.0" font-size="11.0px" fill="rgb(0,0,0)"><text dominant-baseline="middle" transform="matrix(1.0000,0.0000,0.0000,1.0000,60.4534,200.5954)" stroke="none" text-anchor="end">10.0</text></g><g fill-opacity="1.0" font-size="11.0px" fill="rgb(0,0,0)"><text dominant-baseline="middle" transform="matrix(1.0000,0.0000,0.0000,1.0000,60.4534,269.2924)" stroke="none" text-anchor="end">8.0</text></g><g fill-opacity="1.0" font-size="11.0px" fill="rgb(0,0,0)"><text dominant-baseline="middle" transform="matrix(1.0000,0.0000,0.0000,1.0000,60.4534,337.9895)" stroke="none" text-anchor="end">6.0</text></g><g fill-opacity="1.0" font-size="11.0px" fill="rgb(0,0,0)"><text dominant-baseline="middle" transform="matrix(1.0000,0.0000,0.0000,1.0000,60.4534,406.6865)" stroke="none" text-anchor="end">4.0</text></g><g fill-opacity="1.0" font-size="11.0px" fill="rgb(0,0,0)"><text dominant-baseline="middle" transform="matrix(1.0000,0.0000,0.0000,1.0000,60.4534,475.3836)" stroke="none" text-anchor="end">2.0</text></g><g fill-opacity="1.0" font-size="11.0px" fill="rgb(0,0,0)"><text dominant-baseline="middle" transform="matrix(1.0000,0.0000,0.0000,1.0000,60.4534,544.0806)" stroke="none" text-anchor="end">0.0</text></g><g stroke-width="0.1"><path d="M 138.5983,544.0806 v -453.4005 M 249.7259,544.0806 v -453.4005 M 360.8535,544.0806 v -453.4005 M 471.9810,544.0806 v -453.4005 "/></g><g stroke-linecap="square"><path d="M 78.5894,544.0806 h 453.4005 M 78.5894,90.6801 h 453.4005 "/></g><g stroke-width="0.4"><path d="M 138.5983,90.6801 v -7.5567 M 249.7259,90.6801 v -7.5567 M 360.8535,90.6801 v -7.5567 M 471.9810,90.6801 v -7.5567 "/></g><g stroke-width="0.4"><path d="M 138.5983,551.6373 v -7.5567 M 249.7259,551.6373 v -7.5567 M 360.8535,551.6373 v -7.5567 M 471.9810,551.6373 v -7.5567 "/></g><g fill-opacity="1.0" font-size="11.0px" fill="rgb(0,0,0)"><text dominant-baseline="text-before-edge" transform="matrix(1.0000,0.0000,0.0000,1.0000,471.9810,562.2166)" stroke="none" text-anchor="middle">beans</text></g><g fill-opacity="1.0" font-size="11.0px" fill="rgb(0,0,0)"><text dominant-baseline="text-before-edge" transform="matrix(1.0000,0.0000,0.0000,1.0000,360.8535,562.2166)" stroke="none" text-anchor="middle">sausage</text></g><g fill-opacity="1.0" font-size="11.0px" fill="rgb(0,0,0)"><text dominant-baseline="text-before-edge" transform="matrix(1.0000,0.0000,0.0000,1.0000,249.7259,562.2166)" stroke="none" text-anchor="middle">bacon</text></g><g fill-opacity="1.0" font-size="11.0px" fill="rgb(0,0,0)"><text dominant-baseline="text-before-edge" transform="matrix(1.0000,0.0000,0.0000,1.0000,138.5983,562.2166)" stroke="none" text-anchor="middle">eggs</text></g><g fill-opacity="1.0" font-size="16.0px" fill="rgb(0,0,0)"><text dominant-baseline="text-after-edge" transform="matrix(1.0000,0.0000,0.0000,1.0000,305.2897,60.4534)" stroke="none" text-anchor="middle"></text></g></svg>