<svg xmlns="http://www.w3.org/2000/svg" height="484.0637" stroke-opacity="1" viewBox="0 0 600 484" font-size="1" width="600.0000" xmlns:xlink="http://www.w3.org/1999/xlink" stroke="rgb(0,0,0)" version="1.1"><defs></defs><g stroke-opacity="1.0" fill-opacity="1.0" stroke="rgb(55,126,184)" stroke-width="1.0" fill="rgb(103,146,193)"><path d="M 355.6831,412.3506 h 35.1535 v -108.6563 h -35.1535 Z"/></g><g stroke-opacity="1.0" fill-opacity="1.0" stroke="rgb(55,126,184)" stroke-width="1.0" fill="rgb(103,146,193)"><path d="M 267.7994,412.3506 h 35.1535 v -253.5313 h -35.1535 Z"/></g><g stroke-opacity="1.0" fill-opacity="1.0" stroke="rgb(55,126,184)" stroke-width="1.0" fill="rgb(103,146,193)"><path d="M 179.9156,412.3506 h 35.1535 v -144.8750 h -35.1535 Z"/></g><g stroke-opacity="1.0" fill-opacity="1.0" stroke="rgb(55,126,184)" stroke-width="1.0" fill="rgb(103,146,193)"><path d="M 92.0319,412.3506 h 35.1535 v -135.8204 h -35.1535 Z"/></g><g stroke-opacity="1.0" fill-opacity="1.0" stroke="rgb(228,26,28)" stroke-width="1.0" fill="rgb(231,93,93)"><path d="M 355.6831,303.6943 h 35.1535 v -217.3126 h -35.1535 Z"/></g><g stroke-opacity="1.0" fill-opacity="1.0" stroke="rgb(228,26,28)" stroke-width="1.0" fill="rgb(231,93,93)"><path d="M 267.7994,158.8193 h 35.1535 v -72.4375 h -35.1535 Z"/></g><g stroke-opacity="1.0" fill-opacity="1.0" stroke="rgb(228,26,28)" stroke-width="1.0" fill="rgb(231,93,93)"><path d="M 179.9156,267.4756 h 35.1535 v -181.0938 h -35.1535 Z"/></g><g stroke-opacity="1.0" fill-opacity="1.0" stroke="rgb(228,26,28)" stroke-width="1.0" fill="rgb(231,93,93)"><path d="M 92.0319,276.5302 h 35.1535 v -190.1485 h -35.1535 Z"/></g><g stroke-width="0.1"><path d="M 62.1514,412.3506 h 358.5657 M 62.1514,347.1568 h 358.5657 M 62.1514,281.9631 h 358.5657 M 62.1514,216.7693 h 358.5657 M 62.1514,151.5755 h 358.5657 M 62.1514,86.3817 h 358.5657 "/></g><g stroke-linecap="square"><path d="M 62.1514,412.3506 v -358.5657 M 420.7171,412.3506 v -358.5657 "/></g><g stroke-width="0.4"><path d="M 420.7171,412.3506 h 5.9761 M 420.7171,347.1568 h 5.9761 M 420.7171,281.9631 h 5.9761 M 420.7171,216.7693 h 5.9761 M 420.7171,151.5755 h 5.9761 M 420.7171,86.3817 h 5.9761 "/></g><g stroke-width="0.4"><path d="M 56.1753,412.3506 h 5.9761 M 56.1753,347.1568 h 5.9761 M 56.1753,281.9631 h 5.9761 M 56.1753,216.7693 h 5.9761 M 56.1753,151.5755 h 5.9761 M 56.1753,86.3817 h 5.9761 "/></g><g fill-opacity="1.0" font-size="11.0px" fill="rgb(0,0,0)"><text dominant-baseline="middle" transform="matrix(1.0000,0.0000,0.0000,1.0000,47.8088,86.3817)" stroke="none" text-anchor="end">10</text></g><g fill-opacity="1.0" font-size="11.0px" fill="rgb(0,0,0)"><text dominant-baseline="middle" transform="matrix(1.0000,0.0000,0.0000,1.0000,47.8088,151.5755)" stroke="none" text-anchor="end">8</text></g><g fill-opacity="1.0" font-size="11.0px" fill="rgb(0,0,0)"><text dominant-baseline="middle" transform="matrix(1.0000,0.0000,0.0000,1.0000,47.8088,216.7693)" stroke="none" text-anchor="end">6</text></g><g fill-opacity="1.0" font-size="11.0px" fill="rgb(0,0,0)"><text dominant-baseline="middle" transform="matrix(1.0000,0.0000,0.0000,1.0000,47.8088,281.9631)" stroke="none" text-anchor="end">4</text></g><g fill-opacity="1.0" font-size="11.0px" fill="rgb(0,0,0)"><text dominant-baseline="middle" transform="matrix(1.0000,0.0000,0.0000,1.0000,47.8088,347.1568)" stroke="none" text-anchor="end">2</text></g><g fill-opacity="1.0" font-size="11.0px" fill="rgb(0,0,0)"><text dominant-baseline="middle" transform="matrix(1.0000,0.0000,0.0000,1.0000,47.8088,412.3506)" stroke="none" text-anchor="end">0</text></g><g stroke-linecap="square"><path d="M 62.1514,412.3506 h 358.5657 M 62.1514,53.7849 h 358.5657 "/></g><g stroke-width="0.4"><path d="M 109.6086,53.7849 v -5.9761 M 197.4924,53.7849 v -5.9761 M 285.3761,53.7849 v -5.9761 M 373.2599,53.7849 v -5.9761 "/></g><g stroke-width="0.4"><path d="M 109.6086,418.3267 v -5.9761 M 197.4924,418.3267 v -5.9761 M 285.3761,418.3267 v -5.9761 M 373.2599,418.3267 v -5.9761 "/></g><g fill-opacity="1.0" font-size="8.0px" fill="rgb(0,0,0)"><text dominant-baseline="text-before-edge" transform="matrix(1.0000,0.0000,0.0000,1.0000,241.4343,436.2550)" stroke="none" text-anchor="middle">breakfast item</text></g><g fill-opacity="1.0" font-size="11.0px" fill="rgb(0,0,0)"><text dominant-baseline="text-before-edge" transform="matrix(1.0000,0.0000,0.0000,1.0000,373.2599,426.6932)" stroke="none" text-anchor="middle">beans</text></g><g fill-opacity="1.0" font-size="11.0px" fill="rgb(0,0,0)"><text dominant-baseline="text-before-edge" transform="matrix(1.0000,0.0000,0.0000,1.0000,285.3761,426.6932)" stroke="none" text-anchor="middle">sausage</text></g><g fill-opacity="1.0" font-size="11.0px" fill="rgb(0,0,0)"><text dominant-baseline="text-before-edge" transform="matrix(1.0000,0.0000,0.0000,1.0000,197.4924,426.6932)" stroke="none" text-anchor="middle">bacon</text></g><g fill-opacity="1.0" font-size="11.0px" fill="rgb(0,0,0)"><text dominant-baseline="text-before-edge" transform="matrix(1.0000,0.0000,0.0000,1.0000,109.6086,426.6932)" stroke="none" text-anchor="middle">eggs</text></g><g><path d="M 516.3347,101.5936 l -0.0000,-47.8088 h -71.7131 l -0.0000,47.8088 Z"/></g><g fill-opacity="1.0" font-size="8.0px" fill="rgb(0,0,0)"><text dominant-baseline="middle" transform="matrix(1.0000,0.0000,0.0000,1.0000,480.4781,89.6414)" stroke="none" text-anchor="start">boys</text></g><g stroke-opacity="1.0" fill-opacity="1.0" stroke="rgb(55,126,184)" stroke-width="0.9561752988047809" fill="rgb(103,146,193)"><path d="M 469.1235,95.6175 l -0.0000,-11.9522 h -4.7809 l -0.0000,11.9522 Z"/></g><g stroke-opacity="1.0" fill-opacity="1.0" stroke="rgb(55,126,184)" stroke-width="0.9561752988047809" fill="rgb(103,146,193)"><path d="M 460.7570,95.6175 l -0.0000,-8.3665 h -4.7809 l -0.0000,8.3665 Z"/></g><g fill-opacity="1.0" font-size="8.0px" fill="rgb(0,0,0)"><text dominant-baseline="middle" transform="matrix(1.0000,0.0000,0.0000,1.0000,480.4781,65.7371)" stroke="none" text-anchor="start">girls</text></g><g stroke-opacity="1.0" fill-opacity="1.0" stroke="rgb(228,26,28)" stroke-width="0.9561752988047809" fill="rgb(231,93,93)"><path d="M 469.1235,71.7131 l -0.0000,-11.9522 h -4.7809 l -0.0000,11.9522 Z"/></g><g stroke-opacity="1.0" fill-opacity="1.0" stroke="rgb(228,26,28)" stroke-width="0.9561752988047809" fill="rgb(231,93,93)"><path d="M 460.7570,71.7131 l -0.0000,-8.3665 h -4.7809 l -0.0000,8.3665 Z"/></g></svg>