<svg xmlns="http://www.w3.org/2000/svg" height="600.0000" stroke-opacity="1" viewBox="0 0 600 600" font-size="1" width="600.0000" xmlns:xlink="http://www.w3.org/1999/xlink" stroke="rgb(0,0,0)" version="1.1"><defs></defs><g stroke-opacity="1.0" fill-opacity="1.0" stroke="rgb(228,26,28)" stroke-width="1.0" fill="rgb(231,93,93)"><path d="M 456.4232,521.4106 h 37.7834 v -68.6970 h -37.7834 Z"/></g><g stroke-opacity="1.0" fill-opacity="1.0" stroke="rgb(228,26,28)" stroke-width="1.0" fill="rgb(231,93,93)"><path d="M 418.6398,521.4106 h 37.7834 v -27.4788 h -37.7834 Z"/></g><g stroke-opacity="1.0" fill-opacity="1.0" stroke="rgb(228,26,28)" stroke-width="1.0" fill="rgb(231,93,93)"><path d="M 380.8564,521.4106 h 37.7834 v -137.3941 h -37.7834 Z"/></g><g stroke-opacity="1.0" fill-opacity="1.0" stroke="rgb(228,26,28)" stroke-width="1.0" fill="rgb(231,93,93)"><path d="M 343.0730,521.4106 h 37.7834 v -247.3094 h -37.7834 Z"/></g><g stroke-opacity="1.0" fill-opacity="1.0" stroke="rgb(228,26,28)" stroke-width="1.0" fill="rgb(231,93,93)"><path d="M 305.2897,521.4106 h 37.7834 v -274.7882 h -37.7834 Z"/></g><g stroke-opacity="1.0" fill-opacity="1.0" stroke="rgb(228,26,28)" stroke-width="1.0" fill="rgb(231,93,93)"><path d="M 267.5063,521.4106 h 37.7834 v -412.1823 h -37.7834 Z"/></g><g stroke-opacity="1.0" fill-opacity="1.0" stroke="rgb(228,26,28)" stroke-width="1.0" fill="rgb(231,93,93)"><path d="M 229.7229,521.4106 h 37.7834 v -274.7882 h -37.7834 Z"/></g><g stroke-opacity="1.0" fill-opacity="1.0" stroke="rgb(228,26,28)" stroke-width="1.0" fill="rgb(231,93,93)"><path d="M 191.9395,521.4106 h 37.7834 v -398.4429 h -37.7834 Z"/></g><g stroke-opacity="1.0" fill-opacity="1.0" stroke="rgb(228,26,28)" stroke-width="1.0" fill="rgb(231,93,93)"><path d="M 154.1562,521.4106 h 37.7834 v -164.8729 h -37.7834 Z"/></g><g stroke-opacity="1.0" fill-opacity="1.0" stroke="rgb(228,26,28)" stroke-width="1.0" fill="rgb(231,93,93)"><path d="M 116.3728,521.4106 h 37.7834 v -54.9576 h -37.7834 Z"/></g><g stroke-width="0.1"><path d="M 78.5894,521.4106 h 453.4005 M 78.5894,466.4529 h 453.4005 M 78.5894,411.4953 h 453.4005 M 78.5894,356.5377 h 453.4005 M 78.5894,301.5800 h 453.4005 M 78.5894,246.6224 h 453.4005 M 78.5894,191.6648 h 453.4005 M 78.5894,136.7071 h 453.4005 M 78.5894,81.7495 h 453.4005 "/></g><g stroke-linecap="square"><path d="M 78.5894,521.4106 v -453.4005 M 531.9899,521.4106 v -453.4005 "/></g><g stroke-width="0.4"><path d="M 531.9899,507.6712 h 4.5340 M 531.9899,493.9318 h 4.5340 M 531.9899,480.1924 h 4.5340 M 531.9899,452.7135 h 4.5340 M 531.9899,438.9741 h 4.5340 M 531.9899,425.2347 h 4.5340 M 531.9899,397.7559 h 4.5340 M 531.9899,384.0165 h 4.5340 M 531.9899,370.2771 h 4.5340 M 531.9899,342.7983 h 4.5340 M 531.9899,329.0589 h 4.5340 M 531.9899,315.3194 h 4.5340 M 531.9899,287.8406 h 4.5340 M 531.9899,274.1012 h 4.5340 M 531.9899,260.3618 h 4.5340 M 531.9899,232.8830 h 4.5340 M 531.9899,219.1436 h 4.5340 M 531.9899,205.4042 h 4.5340 M 531.9899,177.9253 h 4.5340 M 531.9899,164.1859 h 4.5340 M 531.9899,150.4465 h 4.5340 M 531.9899,122.9677 h 4.5340 M 531.9899,109.2283 h 4.5340 M 531.9899,95.4889 h 4.5340 "/></g><g stroke-width="0.4"><path d="M 531.9899,521.4106 h 7.5567 M 531.9899,466.4529 h 7.5567 M 531.9899,411.4953 h 7.5567 M 531.9899,356.5377 h 7.5567 M 531.9899,301.5800 h 7.5567 M 531.9899,246.6224 h 7.5567 M 531.9899,191.6648 h 7.5567 M 531.9899,136.7071 h 7.5567 M 531.9899,81.7495 h 7.5567 "/></g><g stroke-width="0.4"><path d="M 74.0554,507.6712 h 4.5340 M 74.0554,493.9318 h 4.5340 M 74.0554,480.1924 h 4.5340 M 74.0554,452.7135 h 4.5340 M 74.0554,438.9741 h 4.5340 M 74.0554,425.2347 h 4.5340 M 74.0554,397.7559 h 4.5340 M 74.0554,384.0165 h 4.5340 M 74.0554,370.2771 h 4.5340 M 74.0554,342.7983 h 4.5340 M 74.0554,329.0589 h 4.5340 M 74.0554,315.3194 h 4.5340 M 74.0554,287.8406 h 4.5340 M 74.0554,274.1012 h 4.5340 M 74.0554,260.3618 h 4.5340 M 74.0554,232.8830 h 4.5340 M 74.0554,219.1436 h 4.5340 M 74.0554,205.4042 h 4.5340 M 74.0554,177.9253 h 4.5340 M 74.0554,164.1859 h 4.5340 M 74.0554,150.4465 h 4.5340 M 74.0554,122.9677 h 4.5340 M 74.0554,109.2283 h 4.5340 M 74.0554,95.4889 h 4.5340 "/></g><g stroke-width="0.4"><path d="M 71.0327,521.4106 h 7.5567 M 71.0327,466.4529 h 7.5567 M 71.0327,411.4953 h 7.5567 M 71.0327,356.5377 h 7.5567 M 71.0327,301.5800 h 7.5567 M 71.0327,246.6224 h 7.5567 M 71.0327,191.6648 h 7.5567 M 71.0327,136.7071 h 7.5567 M 71.0327,81.7495 h 7.5567 "/></g><g fill-opacity="1.0" font-size="11.0px" fill="rgb(0,0,0)"><text dominant-baseline="middle" transform="matrix(1.0000,0.0000,0.0000,1.0000,60.4534,81.7495)" stroke="none" text-anchor="end">80.0</text></g><g fill-opacity="1.0" font-size="11.0px" fill="rgb(0,0,0)"><text dominant-baseline="middle" transform="matrix(1.0000,0.0000,0.0000,1.0000,60.4534,136.7071)" stroke="none" text-anchor="end">70.0</text></g><g fill-opacity="1.0" font-size="11.0px" fill="rgb(0,0,0)"><text dominant-baseline="middle" transform="matrix(1.0000,0.0000,0.0000,1.0000,60.4534,191.6648)" stroke="none" text-anchor="end">60.0</text></g><g fill-opacity="1.0" font-size="11.0px" fill="rgb(0,0,0)"><text dominant-baseline="middle" transform="matrix(1.0000,0.0000,0.0000,1.0000,60.4534,246.6224)" stroke="none" text-anchor="end">50.0</text></g><g fill-opacity="1.0" font-size="11.0px" fill="rgb(0,0,0)"><text dominant-baseline="middle" transform="matrix(1.0000,0.0000,0.0000,1.0000,60.4534,301.5800)" stroke="none" text-anchor="end">40.0</text></g><g fill-opacity="1.0" font-size="11.0px" fill="rgb(0,0,0)"><text dominant-baseline="middle" transform="matrix(1.0000,0.0000,0.0000,1.0000,60.4534,356.5377)" stroke="none" text-anchor="end">30.0</text></g><g fill-opacity="1.0" font-size="11.0px" fill="rgb(0,0,0)"><text dominant-baseline="middle" transform="matrix(1.0000,0.0000,0.0000,1.0000,60.4534,411.4953)" stroke="none" text-anchor="end">20.0</text></g><g fill-opacity="1.0" font-size="11.0px" fill="rgb(0,0,0)"><text dominant-baseline="middle" transform="matrix(1.0000,0.0000,0.0000,1.0000,60.4534,466.4529)" stroke="none" text-anchor="end">10.0</text></g><g fill-opacity="1.0" font-size="11.0px" fill="rgb(0,0,0)"><text dominant-baseline="middle" transform="matrix(1.0000,0.0000,0.0000,1.0000,60.4534,521.4106)" stroke="none" text-anchor="end">0.0</text></g><g stroke-width="0.1"><path d="M 106.9270,521.4106 v -453.4005 M 201.3854,521.4106 v -453.4005 M 295.8438,521.4106 v -453.4005 M 390.3023,521.4106 v -453.4005 M 484.7607,521.4106 v -453.4005 "/></g><g stroke-linecap="square"><path d="M 78.5894,521.4106 h 453.4005 M 78.5894,68.0101 h 453.4005 "/></g><g stroke-width="0.4"><path d="M 83.3123,68.0101 v -4.5340 M 130.5416,68.0101 v -4.5340 M 154.1562,68.0101 v -4.5340 M 177.7708,68.0101 v -4.5340 M 225.0000,68.0101 v -4.5340 M 248.6146,68.0101 v -4.5340 M 272.2292,68.0101 v -4.5340 M 319.4584,68.0101 v -4.5340 M 343.0730,68.0101 v -4.5340 M 366.6877,68.0101 v -4.5340 M 413.9169,68.0101 v -4.5340 M 437.5315,68.0101 v -4.5340 M 461.1461,68.0101 v -4.5340 M 508.3753,68.0101 v -4.5340 "/></g><g stroke-width="0.4"><path d="M 106.9270,68.0101 v -7.5567 M 201.3854,68.0101 v -7.5567 M 295.8438,68.0101 v -7.5567 M 390.3023,68.0101 v -7.5567 M 484.7607,68.0101 v -7.5567 "/></g><g stroke-width="0.4"><path d="M 83.3123,525.9446 v -4.5340 M 130.5416,525.9446 v -4.5340 M 154.1562,525.9446 v -4.5340 M 177.7708,525.9446 v -4.5340 M 225.0000,525.9446 v -4.5340 M 248.6146,525.9446 v -4.5340 M 272.2292,525.9446 v -4.5340 M 319.4584,525.9446 v -4.5340 M 343.0730,525.9446 v -4.5340 M 366.6877,525.9446 v -4.5340 M 413.9169,525.9446 v -4.5340 M 437.5315,525.9446 v -4.5340 M 461.1461,525.9446 v -4.5340 M 508.3753,525.9446 v -4.5340 "/></g><g stroke-width="0.4"><path d="M 106.9270,528.9673 v -7.5567 M 201.3854,528.9673 v -7.5567 M 295.8438,528.9673 v -7.5567 M 390.3023,528.9673 v -7.5567 M 484.7607,528.9673 v -7.5567 "/></g><g fill-opacity="1.0" font-size="11.0px" fill="rgb(0,0,0)"><text dominant-baseline="text-before-edge" transform="matrix(1.0000,0.0000,0.0000,1.0000,484.7607,539.5466)" stroke="none" text-anchor="middle">8.0</text></g><g fill-opacity="1.0" font-size="11.0px" fill="rgb(0,0,0)"><text dominant-baseline="text-before-edge" transform="matrix(1.0000,0.0000,0.0000,1.0000,390.3023,539.5466)" stroke="none" text-anchor="middle">7.0</text></g><g fill-opacity="1.0" font-size="11.0px" fill="rgb(0,0,0)"><text dominant-baseline="text-before-edge" transform="matrix(1.0000,0.0000,0.0000,1.0000,295.8438,539.5466)" stroke="none" text-anchor="middle">6.0</text></g><g fill-opacity="1.0" font-size="11.0px" fill="rgb(0,0,0)"><text dominant-baseline="text-before-edge" transform="matrix(1.0000,0.0000,0.0000,1.0000,201.3854,539.5466)" stroke="none" text-anchor="middle">5.0</text></g><g fill-opacity="1.0" font-size="11.0px" fill="rgb(0,0,0)"><text dominant-baseline="text-before-edge" transform="matrix(1.0000,0.0000,0.0000,1.0000,106.9270,539.5466)" stroke="none" text-anchor="middle">4.0</text></g></svg>