<svg xmlns="http://www.w3.org/2000/svg" height="350.0000" stroke-opacity="1" viewBox="0 0 350 350" font-size="1" width="349.9663" xmlns:xlink="http://www.w3.org/1999/xlink" stroke="rgb(0,0,0)" version="1.1"><defs></defs><g stroke-opacity="1.0" fill-opacity="1.0" stroke="rgb(152,78,163)" stroke-width="1.0" fill="rgb(166,114,175)"><defs><clipPath id="myClip1"><path d="M 368.6462,368.6773 l -0.0000,-387.3181 h -387.3181 l -0.0000,387.3181 Z"/></clipPath></defs><g clip-path="url(#myClip1)"><path d="M 255.2145,175.0183 h 80.2274 c 0.0000,-62.8184 -36.6579,-119.8591 -93.7994 -145.9548l -33.3277,72.9774 c 28.5708,13.0478 46.8997,41.5682 46.8997 72.9774Z"/></g></g><g stroke-opacity="1.0" fill-opacity="1.0" stroke="rgb(77,175,74)" stroke-width="1.0" fill="rgb(114,185,112)"><defs><clipPath id="myClip2"><path d="M 368.6462,368.6773 l -0.0000,-387.3181 h -387.3181 l -0.0000,387.3181 Z"/></clipPath></defs><g clip-path="url(#myClip2)"><path d="M 208.3148,102.0409 l 33.3277,-72.9774 c -80.6086,-36.8127 -175.7974,-1.3091 -212.6101 79.2995c -29.5800,64.7712 -12.9346,141.2889 40.8793 187.9189l 52.5378,-60.6318 c -33.4860,-29.0158 -37.1099,-79.6835 -8.0940 -113.1696c 23.3150,-26.9069 61.5739,-35.2296 93.9595 -20.4396Z"/></g></g><g stroke-opacity="1.0" fill-opacity="1.0" stroke="rgb(55,126,184)" stroke-width="1.0" fill="rgb(103,146,193)"><defs><clipPath id="myClip3"><path d="M 368.6462,368.6773 l -0.0000,-387.3181 h -387.3181 l -0.0000,387.3181 Z"/></clipPath></defs><g clip-path="url(#myClip3)"><path d="M 122.4494,235.6501 l -52.5378,60.6318 c 66.9720,58.0316 168.3075,50.7840 226.3391 -16.1881c 5.0037,-5.7746 9.5885,-11.8992 13.7195 -18.3271l -67.4916,-43.3742 c -23.9549,37.2746 -73.5912,48.0723 -110.8658 24.1174c -3.2140,-2.0655 -6.2763,-4.3579 -9.1636 -6.8598Z"/></g></g><g stroke-opacity="1.0" fill-opacity="1.0" stroke="rgb(228,26,28)" stroke-width="1.0" fill="rgb(231,93,93)"><defs><clipPath id="myClip4"><path d="M 368.6462,368.6773 l -0.0000,-387.3181 h -387.3181 l -0.0000,387.3181 Z"/></clipPath></defs><g clip-path="url(#myClip4)"><path d="M 242.4787,218.3925 l 67.4916,43.3742 c 16.6300,-25.8769 25.4716,-55.9885 25.4716 -86.7484l -80.2274,-0.0000 c -0.0000,15.3799 -4.4208,30.4358 -12.7358 43.3742Z"/></g></g></svg>