<svg xmlns="http://www.w3.org/2000/svg" height="400.0000" stroke-opacity="1" viewBox="0 0 400 400" font-size="1" width="400.0000" xmlns:xlink="http://www.w3.org/1999/xlink" stroke="rgb(0,0,0)" version="1.1"><defs></defs><g fill-opacity="1.0" stroke-width="0.0" fill="rgb(253,231,37)"><path d="M 400.0000,120.0000 l -0.0000,-120.0000 h -120.0000 l -0.0000,120.0000 Z"/></g><g fill-opacity="1.0" stroke-width="0.0" fill="rgb(171,220,50)"><path d="M 320.0000,120.0000 l -0.0000,-120.0000 h -120.0000 l -0.0000,120.0000 Z"/></g><g fill-opacity="1.0" stroke-width="0.0" fill="rgb(93,201,99)"><path d="M 240.0000,120.0000 l -0.0000,-120.0000 h -120.0000 l -0.0000,120.0000 Z"/></g><g fill-opacity="1.0" stroke-width="0.0" fill="rgb(40,174,128)"><path d="M 160.0000,120.0000 l -0.0000,-120.0000 h -120.0000 l -0.0000,120.0000 Z"/></g><g fill-opacity="1.0" stroke-width="0.0" fill="rgb(33,144,140)"><path d="M 80.0000,120.0000 l -0.0000,-120.0000 h -80.0000 l -0.0000,120.0000 Z"/></g><g fill-opacity="1.0" stroke-width="0.0" fill="rgb(171,220,50)"><path d="M 400.0000,200.0000 l -0.0000,-120.0000 h -120.0000 l -0.0000,120.0000 Z"/></g><g fill-opacity="1.0" stroke-width="0.0" fill="rgb(93,201,99)"><path d="M 320.0000,200.0000 l -0.0000,-120.0000 h -120.0000 l -0.0000,120.0000 Z"/></g><g fill-opacity="1.0" stroke-width="0.0" fill="rgb(40,174,128)"><path d="M 240.0000,200.0000 l -0.0000,-120.0000 h -120.0000 l -0.0000,120.0000 Z"/></g><g fill-opacity="1.0" stroke-width="0.0" fill="rgb(33,144,140)"><path d="M 160.0000,200.0000 l -0.0000,-120.0000 h -120.0000 l -0.0000,120.0000 Z"/></g><g fill-opacity="1.0" stroke-width="0.0" fill="rgb(44,114,142)"><path d="M 80.0000,200.0000 l -0.0000,-120.0000 h -80.0000 l -0.0000,120.0000 Z"/></g><g fill-opacity="1.0" stroke-width="0.0" fill="rgb(93,201,99)"><path d="M 400.0000,280.0000 l -0.0000,-120.0000 h -120.0000 l -0.0000,120.0000 Z"/></g><g fill-opacity="1.0" stroke-width="0.0" fill="rgb(40,174,128)"><path d="M 320.0000,280.0000 l -0.0000,-120.0000 h -120.0000 l -0.0000,120.0000 Z"/></g><g fill-opacity="1.0" stroke-width="0.0" fill="rgb(33,144,140)"><path d="M 240.0000,280.0000 l -0.0000,-120.0000 h -120.0000 l -0.0000,120.0000 Z"/></g><g fill-opacity="1.0" stroke-width="0.0" fill="rgb(44,114,142)"><path d="M 160.0000,280.0000 l -0.0000,-120.0000 h -120.0000 l -0.0000,120.0000 Z"/></g><g fill-opacity="1.0" stroke-width="0.0" fill="rgb(59,82,139)"><path d="M 80.0000,280.0000 l -0.0000,-120.0000 h -80.0000 l -0.0000,120.0000 Z"/></g><g fill-opacity="1.0" stroke-width="0.0" fill="rgb(40,174,128)"><path d="M 400.0000,360.0000 l -0.0000,-120.0000 h -120.0000 l -0.0000,120.0000 Z"/></g><g fill-opacity="1.0" stroke-width="0.0" fill="rgb(33,144,140)"><path d="M 320.0000,360.0000 l -0.0000,-120.0000 h -120.0000 l -0.0000,120.0000 Z"/></g><g fill-opacity="1.0" stroke-width="0.0" fill="rgb(44,114,142)"><path d="M 240.0000,360.0000 l -0.0000,-120.0000 h -120.0000 l -0.0000,120.0000 Z"/></g><g fill-opacity="1.0" stroke-width="0.0" fill="rgb(59,82,139)"><path d="M 160.0000,360.0000 l -0.0000,-120.0000 h -120.0000 l -0.0000,120.0000 Z"/></g><g fill-opacity="1.0" stroke-width="0.0" fill="rgb(71,45,123)"><path d="M 80.0000,360.0000 l -0.0000,-120.0000 h -80.0000 l -0.0000,120.0000 Z"/></g><g fill-opacity="1.0" stroke-width="0.0" fill="rgb(33,144,140)"><path d="M 400.0000,400.0000 l -0.0000,-80.0000 h -120.0000 l -0.0000,80.0000 Z"/></g><g fill-opacity="1.0" stroke-width="0.0" fill="rgb(44,114,142)"><path d="M 320.0000,400.0000 l -0.0000,-80.0000 h -120.0000 l -0.0000,80.0000 Z"/></g><g fill-opacity="1.0" stroke-width="0.0" fill="rgb(59,82,139)"><path d="M 240.0000,400.0000 l -0.0000,-80.0000 h -120.0000 l -0.0000,80.0000 Z"/></g><g fill-opacity="1.0" stroke-width="0.0" fill="rgb(71,45,123)"><path d="M 160.0000,400.0000 l -0.0000,-80.0000 h -120.0000 l -0.0000,80.0000 Z"/></g><g fill-opacity="1.0" stroke-width="0.0" fill="rgb(68,1,84)"><path d="M 80.0000,400.0000 l -0.0000,-80.0000 h -80.0000 l -0.0000,80.0000 Z"/></g></svg>