<svg xmlns="http://www.w3.org/2000/svg" height="484.0637" stroke-opacity="1" viewBox="0 0 600 484" font-size="1" width="600.0000" xmlns:xlink="http://www.w3.org/1999/xlink" stroke="rgb(0,0,0)" version="1.1"><defs></defs><g stroke-opacity="1.0" fill-opacity="1.0" stroke="rgb(55,126,184)" stroke-width="1.0" fill="rgb(103,146,193)"><path d="M 378.3119,412.3506 h 12.5248 v -46.5670 h -12.5248 Z"/></g><g stroke-opacity="1.0" fill-opacity="1.0" stroke="rgb(55,126,184)" stroke-width="1.0" fill="rgb(103,146,193)"><path d="M 288.8494,412.3506 h 12.5248 v -325.9689 h -12.5248 Z"/></g><g stroke-opacity="1.0" fill-opacity="1.0" stroke="rgb(55,126,184)" stroke-width="1.0" fill="rgb(103,146,193)"><path d="M 199.3869,412.3506 h 12.5248 v -186.2679 h -12.5248 Z"/></g><g stroke-opacity="1.0" fill-opacity="1.0" stroke="rgb(55,126,184)" stroke-width="1.0" fill="rgb(103,146,193)"><path d="M 109.9244,412.3506 h 12.5248 v -232.8349 h -12.5248 Z"/></g><g stroke-opacity="1.0" fill-opacity="1.0" stroke="rgb(228,26,28)" stroke-width="1.0" fill="rgb(231,93,93)"><path d="M 360.4194,412.3506 h 12.5248 v -93.1340 h -12.5248 Z"/></g><g stroke-opacity="1.0" fill-opacity="1.0" stroke="rgb(228,26,28)" stroke-width="1.0" fill="rgb(231,93,93)"><path d="M 270.9569,412.3506 h 12.5248 v -93.1340 h -12.5248 Z"/></g><g stroke-opacity="1.0" fill-opacity="1.0" stroke="rgb(228,26,28)" stroke-width="1.0" fill="rgb(231,93,93)"><path d="M 181.4944,412.3506 h 12.5248 v -232.8349 h -12.5248 Z"/></g><g stroke-opacity="1.0" fill-opacity="1.0" stroke="rgb(228,26,28)" stroke-width="1.0" fill="rgb(231,93,93)"><path d="M 92.0319,412.3506 h 12.5248 v -325.9689 h -12.5248 Z"/></g><g stroke-width="0.1"><path d="M 62.1514,412.3506 h 358.5657 M 62.1514,365.7836 h 358.5657 M 62.1514,319.2166 h 358.5657 M 62.1514,272.6497 h 358.5657 M 62.1514,226.0827 h 358.5657 M 62.1514,179.5157 h 358.5657 M 62.1514,132.9487 h 358.5657 M 62.1514,86.3817 h 358.5657 "/></g><g stroke-linecap="square"><path d="M 62.1514,412.3506 v -358.5657 M 420.7171,412.3506 v -358.5657 "/></g><g stroke-width="0.4"><path d="M 420.7171,412.3506 h 5.9761 M 420.7171,365.7836 h 5.9761 M 420.7171,319.2166 h 5.9761 M 420.7171,272.6497 h 5.9761 M 420.7171,226.0827 h 5.9761 M 420.7171,179.5157 h 5.9761 M 420.7171,132.9487 h 5.9761 M 420.7171,86.3817 h 5.9761 "/></g><g stroke-width="0.4"><path d="M 56.1753,412.3506 h 5.9761 M 56.1753,365.7836 h 5.9761 M 56.1753,319.2166 h 5.9761 M 56.1753,272.6497 h 5.9761 M 56.1753,226.0827 h 5.9761 M 56.1753,179.5157 h 5.9761 M 56.1753,132.9487 h 5.9761 M 56.1753,86.3817 h 5.9761 "/></g><g fill-opacity="1.0" font-size="11.0px" fill="rgb(0,0,0)"><text dominant-baseline="middle" transform="matrix(1.0000,0.0000,0.0000,1.0000,47.8088,86.3817)" stroke="none" text-anchor="end">7</text></g><g fill-opacity="1.0" font-size="11.0px" fill="rgb(0,0,0)"><text dominant-baseline="middle" transform="matrix(1.0000,0.0000,0.0000,1.0000,47.8088,132.9487)" stroke="none" text-anchor="end">6</text></g><g fill-opacity="1.0" font-size="11.0px" fill="rgb(0,0,0)"><text dominant-baseline="middle" transform="matrix(1.0000,0.0000,0.0000,1.0000,47.8088,179.5157)" stroke="none" text-anchor="end">5</text></g><g fill-opacity="1.0" font-size="11.0px" fill="rgb(0,0,0)"><text dominant-baseline="middle" transform="matrix(1.0000,0.0000,0.0000,1.0000,47.8088,226.0827)" stroke="none" text-anchor="end">4</text></g><g fill-opacity="1.0" font-size="11.0px" fill="rgb(0,0,0)"><text dominant-baseline="middle" transform="matrix(1.0000,0.0000,0.0000,1.0000,47.8088,272.6497)" stroke="none" text-anchor="end">3</text></g><g fill-opacity="1.0" font-size="11.0px" fill="rgb(0,0,0)"><text dominant-baseline="middle" transform="matrix(1.0000,0.0000,0.0000,1.0000,47.8088,319.2166)" stroke="none" text-anchor="end">2</text></g><g fill-opacity="1.0" font-size="11.0px" fill="rgb(0,0,0)"><text dominant-baseline="middle" transform="matrix(1.0000,0.0000,0.0000,1.0000,47.8088,365.7836)" stroke="none" text-anchor="end">1</text></g><g fill-opacity="1.0" font-size="11.0px" fill="rgb(0,0,0)"><text dominant-baseline="middle" transform="matrix(1.0000,0.0000,0.0000,1.0000,47.8088,412.3506)" stroke="none" text-anchor="end">0</text></g><g stroke-linecap="square"><path d="M 62.1514,412.3506 h 358.5657 M 62.1514,53.7849 h 358.5657 "/></g><g stroke-width="0.4"><path d="M 107.2405,53.7849 v -5.9761 M 196.7030,53.7849 v -5.9761 M 286.1655,53.7849 v -5.9761 M 375.6280,53.7849 v -5.9761 "/></g><g stroke-width="0.4"><path d="M 107.2405,418.3267 v -5.9761 M 196.7030,418.3267 v -5.9761 M 286.1655,418.3267 v -5.9761 M 375.6280,418.3267 v -5.9761 "/></g><g fill-opacity="1.0" font-size="8.0px" fill="rgb(0,0,0)"><text dominant-baseline="text-before-edge" transform="matrix(1.0000,0.0000,0.0000,1.0000,241.4343,436.2550)" stroke="none" text-anchor="middle">breakfast item</text></g><g fill-opacity="1.0" font-size="11.0px" fill="rgb(0,0,0)"><text dominant-baseline="text-before-edge" transform="matrix(1.0000,0.0000,0.0000,1.0000,375.6280,426.6932)" stroke="none" text-anchor="middle">beans</text></g><g fill-opacity="1.0" font-size="11.0px" fill="rgb(0,0,0)"><text dominant-baseline="text-before-edge" transform="matrix(1.0000,0.0000,0.0000,1.0000,286.1655,426.6932)" stroke="none" text-anchor="middle">sausage</text></g><g fill-opacity="1.0" font-size="11.0px" fill="rgb(0,0,0)"><text dominant-baseline="text-before-edge" transform="matrix(1.0000,0.0000,0.0000,1.0000,196.7030,426.6932)" stroke="none" text-anchor="middle">bacon</text></g><g fill-opacity="1.0" font-size="11.0px" fill="rgb(0,0,0)"><text dominant-baseline="text-before-edge" transform="matrix(1.0000,0.0000,0.0000,1.0000,107.2405,426.6932)" stroke="none" text-anchor="middle">eggs</text></g><g><path d="M 516.3347,101.5936 l -0.0000,-47.8088 h -71.7131 l -0.0000,47.8088 Z"/></g><g fill-opacity="1.0" font-size="8.0px" fill="rgb(0,0,0)"><text dominant-baseline="middle" transform="matrix(1.0000,0.0000,0.0000,1.0000,480.4781,89.6414)" stroke="none" text-anchor="start">boys</text></g><g stroke-opacity="1.0" fill-opacity="1.0" stroke="rgb(55,126,184)" stroke-width="0.9561752988047809" fill="rgb(103,146,193)"><path d="M 469.1235,95.6175 l -0.0000,-11.9522 h -4.7809 l -0.0000,11.9522 Z"/></g><g stroke-opacity="1.0" fill-opacity="1.0" stroke="rgb(55,126,184)" stroke-width="0.9561752988047809" fill="rgb(103,146,193)"><path d="M 460.7570,95.6175 l -0.0000,-8.3665 h -4.7809 l -0.0000,8.3665 Z"/></g><g fill-opacity="1.0" font-size="8.0px" fill="rgb(0,0,0)"><text dominant-baseline="middle" transform="matrix(1.0000,0.0000,0.0000,1.0000,480.4781,65.7371)" stroke="none" text-anchor="start">girls</text></g><g stroke-opacity="1.0" fill-opacity="1.0" stroke="rgb(228,26,28)" stroke-width="0.9561752988047809" fill="rgb(231,93,93)"><path d="M 469.1235,71.7131 l -0.0000,-11.9522 h -4.7809 l -0.0000,11.9522 Z"/></g><g stroke-opacity="1.0" fill-opacity="1.0" stroke="rgb(228,26,28)" stroke-width="0.9561752988047809" fill="rgb(231,93,93)"><path d="M 460.7570,71.7131 l -0.0000,-8.3665 h -4.7809 l -0.0000,8.3665 Z"/></g></svg>