<svg xmlns="http://www.w3.org/2000/svg" height="600.0000" stroke-opacity="1" viewBox="0 0 600 600" font-size="1" width="600.0000" xmlns:xlink="http://www.w3.org/1999/xlink" stroke="rgb(0,0,0)" version="1.1"><defs></defs><g stroke-opacity="1.0" fill-opacity="1.0" stroke="rgb(228,26,28)" stroke-width="1.0" fill="rgb(231,93,93)"><path d="M 459.8580,521.4106 h 34.3485 v -140.4473 h -34.3485 Z"/></g><g stroke-opacity="1.0" fill-opacity="1.0" stroke="rgb(228,26,28)" stroke-width="1.0" fill="rgb(231,93,93)"><path d="M 373.9867,521.4106 h 34.3485 v -219.8305 h -34.3485 Z"/></g><g stroke-opacity="1.0" fill-opacity="1.0" stroke="rgb(228,26,28)" stroke-width="1.0" fill="rgb(231,93,93)"><path d="M 288.1154,521.4106 h 34.3485 v -210.6709 h -34.3485 Z"/></g><g stroke-opacity="1.0" fill-opacity="1.0" stroke="rgb(228,26,28)" stroke-width="1.0" fill="rgb(231,93,93)"><path d="M 202.2441,521.4106 h 34.3485 v -91.5961 h -34.3485 Z"/></g><g stroke-opacity="1.0" fill-opacity="1.0" stroke="rgb(228,26,28)" stroke-width="1.0" fill="rgb(231,93,93)"><path d="M 116.3728,521.4106 h 34.3485 v -412.1823 h -34.3485 Z"/></g><g stroke-width="0.1"><path d="M 78.5894,521.4106 h 453.4005 M 78.5894,445.0805 h 453.4005 M 78.5894,368.7505 h 453.4005 M 78.5894,292.4204 h 453.4005 M 78.5894,216.0904 h 453.4005 M 78.5894,139.7603 h 453.4005 "/></g><g stroke-linecap="square"><path d="M 78.5894,521.4106 v -453.4005 M 531.9899,521.4106 v -453.4005 "/></g><g stroke-width="0.4"><path d="M 531.9899,502.3281 h 4.5340 M 531.9899,483.2456 h 4.5340 M 531.9899,464.1630 h 4.5340 M 531.9899,425.9980 h 4.5340 M 531.9899,406.9155 h 4.5340 M 531.9899,387.8330 h 4.5340 M 531.9899,349.6680 h 4.5340 M 531.9899,330.5855 h 4.5340 M 531.9899,311.5029 h 4.5340 M 531.9899,273.3379 h 4.5340 M 531.9899,254.2554 h 4.5340 M 531.9899,235.1729 h 4.5340 M 531.9899,197.0079 h 4.5340 M 531.9899,177.9253 h 4.5340 M 531.9899,158.8428 h 4.5340 M 531.9899,120.6778 h 4.5340 M 531.9899,101.5953 h 4.5340 M 531.9899,82.5128 h 4.5340 "/></g><g stroke-width="0.4"><path d="M 531.9899,521.4106 h 7.5567 M 531.9899,445.0805 h 7.5567 M 531.9899,368.7505 h 7.5567 M 531.9899,292.4204 h 7.5567 M 531.9899,216.0904 h 7.5567 M 531.9899,139.7603 h 7.5567 "/></g><g stroke-width="0.4"><path d="M 74.0554,502.3281 h 4.5340 M 74.0554,483.2456 h 4.5340 M 74.0554,464.1630 h 4.5340 M 74.0554,425.9980 h 4.5340 M 74.0554,406.9155 h 4.5340 M 74.0554,387.8330 h 4.5340 M 74.0554,349.6680 h 4.5340 M 74.0554,330.5855 h 4.5340 M 74.0554,311.5029 h 4.5340 M 74.0554,273.3379 h 4.5340 M 74.0554,254.2554 h 4.5340 M 74.0554,235.1729 h 4.5340 M 74.0554,197.0079 h 4.5340 M 74.0554,177.9253 h 4.5340 M 74.0554,158.8428 h 4.5340 M 74.0554,120.6778 h 4.5340 M 74.0554,101.5953 h 4.5340 M 74.0554,82.5128 h 4.5340 "/></g><g stroke-width="0.4"><path d="M 71.0327,521.4106 h 7.5567 M 71.0327,445.0805 h 7.5567 M 71.0327,368.7505 h 7.5567 M 71.0327,292.4204 h 7.5567 M 71.0327,216.0904 h 7.5567 M 71.0327,139.7603 h 7.5567 "/></g><g fill-opacity="1.0" font-size="11.0px" fill="rgb(0,0,0)"><text dominant-baseline="middle" transform="matrix(1.0000,0.0000,0.0000,1.0000,60.4534,139.7603)" stroke="none" text-anchor="end">12.5</text></g><g fill-opacity="1.0" font-size="11.0px" fill="rgb(0,0,0)"><text dominant-baseline="middle" transform="matrix(1.0000,0.0000,0.0000,1.0000,60.4534,216.0904)" stroke="none" text-anchor="end">10.0</text></g><g fill-opacity="1.0" font-size="11.0px" fill="rgb(0,0,0)"><text dominant-baseline="middle" transform="matrix(1.0000,0.0000,0.0000,1.0000,60.4534,292.4204)" stroke="none" text-anchor="end">7.5</text></g><g fill-opacity="1.0" font-size="11.0px" fill="rgb(0,0,0)"><text dominant-baseline="middle" transform="matrix(1.0000,0.0000,0.0000,1.0000,60.4534,368.7505)" stroke="none" text-anchor="end">5.0</text></g><g fill-opacity="1.0" font-size="11.0px" fill="rgb(0,0,0)"><text dominant-baseline="middle" transform="matrix(1.0000,0.0000,0.0000,1.0000,60.4534,445.0805)" stroke="none" text-anchor="end">2.5</text></g><g fill-opacity="1.0" font-size="11.0px" fill="rgb(0,0,0)"><text dominant-baseline="middle" transform="matrix(1.0000,0.0000,0.0000,1.0000,60.4534,521.4106)" stroke="none" text-anchor="end">0.0</text></g><g stroke-width="0.1"><path d="M 133.5471,521.4106 v -453.4005 M 219.4184,521.4106 v -453.4005 M 305.2897,521.4106 v -453.4005 M 391.1610,521.4106 v -453.4005 M 477.0323,521.4106 v -453.4005 "/></g><g stroke-linecap="square"><path d="M 78.5894,521.4106 h 453.4005 M 78.5894,68.0101 h 453.4005 "/></g><g stroke-width="0.4"><path d="M 90.6114,68.0101 v -4.5340 M 112.0792,68.0101 v -4.5340 M 155.0149,68.0101 v -4.5340 M 176.4827,68.0101 v -4.5340 M 197.9505,68.0101 v -4.5340 M 240.8862,68.0101 v -4.5340 M 262.3540,68.0101 v -4.5340 M 283.8218,68.0101 v -4.5340 M 326.7575,68.0101 v -4.5340 M 348.2253,68.0101 v -4.5340 M 369.6932,68.0101 v -4.5340 M 412.6288,68.0101 v -4.5340 M 434.0966,68.0101 v -4.5340 M 455.5645,68.0101 v -4.5340 M 498.5001,68.0101 v -4.5340 M 519.9679,68.0101 v -4.5340 "/></g><g stroke-width="0.4"><path d="M 133.5471,68.0101 v -7.5567 M 219.4184,68.0101 v -7.5567 M 305.2897,68.0101 v -7.5567 M 391.1610,68.0101 v -7.5567 M 477.0323,68.0101 v -7.5567 "/></g><g stroke-width="0.4"><path d="M 90.6114,525.9446 v -4.5340 M 112.0792,525.9446 v -4.5340 M 155.0149,525.9446 v -4.5340 M 176.4827,525.9446 v -4.5340 M 197.9505,525.9446 v -4.5340 M 240.8862,525.9446 v -4.5340 M 262.3540,525.9446 v -4.5340 M 283.8218,525.9446 v -4.5340 M 326.7575,525.9446 v -4.5340 M 348.2253,525.9446 v -4.5340 M 369.6932,525.9446 v -4.5340 M 412.6288,525.9446 v -4.5340 M 434.0966,525.9446 v -4.5340 M 455.5645,525.9446 v -4.5340 M 498.5001,525.9446 v -4.5340 M 519.9679,525.9446 v -4.5340 "/></g><g stroke-width="0.4"><path d="M 133.5471,528.9673 v -7.5567 M 219.4184,528.9673 v -7.5567 M 305.2897,528.9673 v -7.5567 M 391.1610,528.9673 v -7.5567 M 477.0323,528.9673 v -7.5567 "/></g><g fill-opacity="1.0" font-size="11.0px" fill="rgb(0,0,0)"><text dominant-baseline="text-before-edge" transform="matrix(1.0000,0.0000,0.0000,1.0000,477.0323,539.5466)" stroke="none" text-anchor="middle">5.0</text></g><g fill-opacity="1.0" font-size="11.0px" fill="rgb(0,0,0)"><text dominant-baseline="text-before-edge" transform="matrix(1.0000,0.0000,0.0000,1.0000,391.1610,539.5466)" stroke="none" text-anchor="middle">4.0</text></g><g fill-opacity="1.0" font-size="11.0px" fill="rgb(0,0,0)"><text dominant-baseline="text-before-edge" transform="matrix(1.0000,0.0000,0.0000,1.0000,305.2897,539.5466)" stroke="none" text-anchor="middle">3.0</text></g><g fill-opacity="1.0" font-size="11.0px" fill="rgb(0,0,0)"><text dominant-baseline="text-before-edge" transform="matrix(1.0000,0.0000,0.0000,1.0000,219.4184,539.5466)" stroke="none" text-anchor="middle">2.0</text></g><g fill-opacity="1.0" font-size="11.0px" fill="rgb(0,0,0)"><text dominant-baseline="text-before-edge" transform="matrix(1.0000,0.0000,0.0000,1.0000,133.5471,539.5466)" stroke="none" text-anchor="middle">1.0</text></g></svg>