<svg xmlns="http://www.w3.org/2000/svg" height="507.1111" stroke-opacity="1" viewBox="0 0 600 507" font-size="1" width="600.0000" xmlns:xlink="http://www.w3.org/1999/xlink" stroke="rgb(0,0,0)" version="1.1"><defs></defs><g><path d="M 161.7530,427.2875 l 229.0837,-234.6412 "/></g><g stroke-opacity="1.0" fill-opacity="1.0" opacity="0.7" stroke="rgb(77,175,74)" stroke-width="0.0" fill="rgb(114,185,112)"><path d="M 161.7530,459.3023 l 229.0837,-234.6412 v -64.0296 l -229.0837,234.6412 Z"/></g><g><path d="M 92.0319,337.4656 l 124.5020,-265.3256 "/></g><g stroke-opacity="1.0" fill-opacity="1.0" opacity="0.7" stroke="rgb(55,126,184)" stroke-width="0.0" fill="rgb(103,146,193)"><path d="M 92.0319,361.7968 l 124.5020,-265.3256 v -48.6625 l -124.5020,265.3256 Z"/></g><g><path d="M 141.8327,337.4656 l 249.0040,-265.3256 "/></g><g stroke-opacity="1.0" fill-opacity="1.0" opacity="0.7" stroke="rgb(228,26,28)" stroke-width="0.0" fill="rgb(231,93,93)"><path d="M 141.8327,361.7968 l 249.0040,-265.3256 v -48.6625 l -249.0040,265.3256 Z"/></g><g stroke-width="0.1"><path d="M 62.1514,412.4679 h 358.5657 M 62.1514,369.7815 h 358.5657 M 62.1514,327.0951 h 358.5657 M 62.1514,284.4087 h 358.5657 M 62.1514,241.7223 h 358.5657 M 62.1514,199.0359 h 358.5657 M 62.1514,156.3495 h 358.5657 M 62.1514,113.6631 h 358.5657 "/></g><g stroke-linecap="square"><path d="M 62.1514,433.8111 v -358.5657 M 420.7171,433.8111 v -358.5657 "/></g><g stroke-width="0.4"><path d="M 420.7171,423.1395 h 3.5857 M 420.7171,401.7963 h 3.5857 M 420.7171,391.1247 h 3.5857 M 420.7171,380.4531 h 3.5857 M 420.7171,359.1099 h 3.5857 M 420.7171,348.4383 h 3.5857 M 420.7171,337.7667 h 3.5857 M 420.7171,316.4235 h 3.5857 M 420.7171,305.7519 h 3.5857 M 420.7171,295.0803 h 3.5857 M 420.7171,273.7371 h 3.5857 M 420.7171,263.0655 h 3.5857 M 420.7171,252.3939 h 3.5857 M 420.7171,231.0507 h 3.5857 M 420.7171,220.3791 h 3.5857 M 420.7171,209.7075 h 3.5857 M 420.7171,188.3643 h 3.5857 M 420.7171,177.6927 h 3.5857 M 420.7171,167.0211 h 3.5857 M 420.7171,145.6779 h 3.5857 M 420.7171,135.0063 h 3.5857 M 420.7171,124.3347 h 3.5857 M 420.7171,102.9915 h 3.5857 M 420.7171,92.3199 h 3.5857 M 420.7171,81.6483 h 3.5857 "/></g><g stroke-width="0.4"><path d="M 420.7171,412.4679 h 5.9761 M 420.7171,369.7815 h 5.9761 M 420.7171,327.0951 h 5.9761 M 420.7171,284.4087 h 5.9761 M 420.7171,241.7223 h 5.9761 M 420.7171,199.0359 h 5.9761 M 420.7171,156.3495 h 5.9761 M 420.7171,113.6631 h 5.9761 "/></g><g stroke-width="0.4"><path d="M 58.5657,423.1395 h 3.5857 M 58.5657,401.7963 h 3.5857 M 58.5657,391.1247 h 3.5857 M 58.5657,380.4531 h 3.5857 M 58.5657,359.1099 h 3.5857 M 58.5657,348.4383 h 3.5857 M 58.5657,337.7667 h 3.5857 M 58.5657,316.4235 h 3.5857 M 58.5657,305.7519 h 3.5857 M 58.5657,295.0803 h 3.5857 M 58.5657,273.7371 h 3.5857 M 58.5657,263.0655 h 3.5857 M 58.5657,252.3939 h 3.5857 M 58.5657,231.0507 h 3.5857 M 58.5657,220.3791 h 3.5857 M 58.5657,209.7075 h 3.5857 M 58.5657,188.3643 h 3.5857 M 58.5657,177.6927 h 3.5857 M 58.5657,167.0211 h 3.5857 M 58.5657,145.6779 h 3.5857 M 58.5657,135.0063 h 3.5857 M 58.5657,124.3347 h 3.5857 M 58.5657,102.9915 h 3.5857 M 58.5657,92.3199 h 3.5857 M 58.5657,81.6483 h 3.5857 "/></g><g stroke-width="0.4"><path d="M 56.1753,412.4679 h 5.9761 M 56.1753,369.7815 h 5.9761 M 56.1753,327.0951 h 5.9761 M 56.1753,284.4087 h 5.9761 M 56.1753,241.7223 h 5.9761 M 56.1753,199.0359 h 5.9761 M 56.1753,156.3495 h 5.9761 M 56.1753,113.6631 h 5.9761 "/></g><g fill-opacity="1.0" font-size="11.0px" fill="rgb(0,0,0)"><text dominant-baseline="middle" transform="matrix(1.0000,0.0000,0.0000,1.0000,47.8088,113.6631)" stroke="none" text-anchor="end">6.0</text></g><g fill-opacity="1.0" font-size="11.0px" fill="rgb(0,0,0)"><text dominant-baseline="middle" transform="matrix(1.0000,0.0000,0.0000,1.0000,47.8088,156.3495)" stroke="none" text-anchor="end">5.5</text></g><g fill-opacity="1.0" font-size="11.0px" fill="rgb(0,0,0)"><text dominant-baseline="middle" transform="matrix(1.0000,0.0000,0.0000,1.0000,47.8088,199.0359)" stroke="none" text-anchor="end">5.0</text></g><g fill-opacity="1.0" font-size="11.0px" fill="rgb(0,0,0)"><text dominant-baseline="middle" transform="matrix(1.0000,0.0000,0.0000,1.0000,47.8088,241.7223)" stroke="none" text-anchor="end">4.5</text></g><g fill-opacity="1.0" font-size="11.0px" fill="rgb(0,0,0)"><text dominant-baseline="middle" transform="matrix(1.0000,0.0000,0.0000,1.0000,47.8088,284.4087)" stroke="none" text-anchor="end">4.0</text></g><g fill-opacity="1.0" font-size="11.0px" fill="rgb(0,0,0)"><text dominant-baseline="middle" transform="matrix(1.0000,0.0000,0.0000,1.0000,47.8088,327.0951)" stroke="none" text-anchor="end">3.5</text></g><g fill-opacity="1.0" font-size="11.0px" fill="rgb(0,0,0)"><text dominant-baseline="middle" transform="matrix(1.0000,0.0000,0.0000,1.0000,47.8088,369.7815)" stroke="none" text-anchor="end">3.0</text></g><g fill-opacity="1.0" font-size="11.0px" fill="rgb(0,0,0)"><text dominant-baseline="middle" transform="matrix(1.0000,0.0000,0.0000,1.0000,47.8088,412.4679)" stroke="none" text-anchor="end">2.5</text></g><g stroke-width="0.1"><path d="M 92.0319,433.8111 v -358.5657 M 141.8327,433.8111 v -358.5657 M 191.6335,433.8111 v -358.5657 M 241.4343,433.8111 v -358.5657 M 291.2351,433.8111 v -358.5657 M 341.0359,433.8111 v -358.5657 M 390.8367,433.8111 v -358.5657 "/></g><g stroke-linecap="square"><path d="M 62.1514,433.8111 h 358.5657 M 62.1514,75.2454 h 358.5657 "/></g><g stroke-width="0.4"><path d="M 67.1315,75.2454 v -3.5857 M 79.5817,75.2454 v -3.5857 M 104.4821,75.2454 v -3.5857 M 116.9323,75.2454 v -3.5857 M 129.3825,75.2454 v -3.5857 M 154.2829,75.2454 v -3.5857 M 166.7331,75.2454 v -3.5857 M 179.1833,75.2454 v -3.5857 M 204.0837,75.2454 v -3.5857 M 216.5339,75.2454 v -3.5857 M 228.9841,75.2454 v -3.5857 M 253.8845,75.2454 v -3.5857 M 266.3347,75.2454 v -3.5857 M 278.7849,75.2454 v -3.5857 M 303.6853,75.2454 v -3.5857 M 316.1355,75.2454 v -3.5857 M 328.5857,75.2454 v -3.5857 M 353.4861,75.2454 v -3.5857 M 365.9363,75.2454 v -3.5857 M 378.3865,75.2454 v -3.5857 M 403.2869,75.2454 v -3.5857 M 415.7371,75.2454 v -3.5857 "/></g><g stroke-width="0.4"><path d="M 92.0319,75.2454 v -5.9761 M 141.8327,75.2454 v -5.9761 M 191.6335,75.2454 v -5.9761 M 241.4343,75.2454 v -5.9761 M 291.2351,75.2454 v -5.9761 M 341.0359,75.2454 v -5.9761 M 390.8367,75.2454 v -5.9761 "/></g><g stroke-width="0.4"><path d="M 67.1315,437.3968 v -3.5857 M 79.5817,437.3968 v -3.5857 M 104.4821,437.3968 v -3.5857 M 116.9323,437.3968 v -3.5857 M 129.3825,437.3968 v -3.5857 M 154.2829,437.3968 v -3.5857 M 166.7331,437.3968 v -3.5857 M 179.1833,437.3968 v -3.5857 M 204.0837,437.3968 v -3.5857 M 216.5339,437.3968 v -3.5857 M 228.9841,437.3968 v -3.5857 M 253.8845,437.3968 v -3.5857 M 266.3347,437.3968 v -3.5857 M 278.7849,437.3968 v -3.5857 M 303.6853,437.3968 v -3.5857 M 316.1355,437.3968 v -3.5857 M 328.5857,437.3968 v -3.5857 M 353.4861,437.3968 v -3.5857 M 365.9363,437.3968 v -3.5857 M 378.3865,437.3968 v -3.5857 M 403.2869,437.3968 v -3.5857 M 415.7371,437.3968 v -3.5857 "/></g><g stroke-width="0.4"><path d="M 92.0319,439.7872 v -5.9761 M 141.8327,439.7872 v -5.9761 M 191.6335,439.7872 v -5.9761 M 241.4343,439.7872 v -5.9761 M 291.2351,439.7872 v -5.9761 M 341.0359,439.7872 v -5.9761 M 390.8367,439.7872 v -5.9761 "/></g><g fill-opacity="1.0" font-size="11.0px" fill="rgb(0,0,0)"><text dominant-baseline="text-before-edge" transform="matrix(1.0000,0.0000,0.0000,1.0000,390.8367,448.1537)" stroke="none" text-anchor="middle">3.5</text></g><g fill-opacity="1.0" font-size="11.0px" fill="rgb(0,0,0)"><text dominant-baseline="text-before-edge" transform="matrix(1.0000,0.0000,0.0000,1.0000,341.0359,448.1537)" stroke="none" text-anchor="middle">3.0</text></g><g fill-opacity="1.0" font-size="11.0px" fill="rgb(0,0,0)"><text dominant-baseline="text-before-edge" transform="matrix(1.0000,0.0000,0.0000,1.0000,291.2351,448.1537)" stroke="none" text-anchor="middle">2.5</text></g><g fill-opacity="1.0" font-size="11.0px" fill="rgb(0,0,0)"><text dominant-baseline="text-before-edge" transform="matrix(1.0000,0.0000,0.0000,1.0000,241.4343,448.1537)" stroke="none" text-anchor="middle">2.0</text></g><g fill-opacity="1.0" font-size="11.0px" fill="rgb(0,0,0)"><text dominant-baseline="text-before-edge" transform="matrix(1.0000,0.0000,0.0000,1.0000,191.6335,448.1537)" stroke="none" text-anchor="middle">1.5</text></g><g fill-opacity="1.0" font-size="11.0px" fill="rgb(0,0,0)"><text dominant-baseline="text-before-edge" transform="matrix(1.0000,0.0000,0.0000,1.0000,141.8327,448.1537)" stroke="none" text-anchor="middle">1.0</text></g><g fill-opacity="1.0" font-size="11.0px" fill="rgb(0,0,0)"><text dominant-baseline="text-before-edge" transform="matrix(1.0000,0.0000,0.0000,1.0000,92.0319,448.1537)" stroke="none" text-anchor="middle">0.5</text></g><g><path d="M 516.3347,146.9585 l -0.0000,-71.7131 h -71.7131 l -0.0000,71.7131 Z"/></g><g fill-opacity="1.0" font-size="8.0px" fill="rgb(0,0,0)"><text dominant-baseline="middle" transform="matrix(1.0000,0.0000,0.0000,1.0000,480.4781,135.0063)" stroke="none" text-anchor="start">data 3</text></g><g stroke-opacity="1.0" fill-opacity="1.0" stroke="rgb(77,175,74)" stroke-width="1.0" fill="rgb(114,185,112)"><path d="M 465.5378,137.9944 l -0.0000,-5.9761 h -5.9761 l -0.0000,5.9761 Z"/></g><g fill-opacity="1.0" font-size="8.0px" fill="rgb(0,0,0)"><text dominant-baseline="middle" transform="matrix(1.0000,0.0000,0.0000,1.0000,480.4781,111.1019)" stroke="none" text-anchor="start">data 2</text></g><g stroke-opacity="1.0" fill-opacity="1.0" stroke="rgb(55,126,184)" stroke-width="1.0" fill="rgb(103,146,193)"><path d="M 465.5378,114.0900 l -0.0000,-5.9761 h -5.9761 l -0.0000,5.9761 Z"/></g><g fill-opacity="1.0" font-size="8.0px" fill="rgb(0,0,0)"><text dominant-baseline="middle" transform="matrix(1.0000,0.0000,0.0000,1.0000,480.4781,87.1976)" stroke="none" text-anchor="start">data 1</text></g><g stroke-opacity="1.0" fill-opacity="1.0" stroke="rgb(228,26,28)" stroke-width="1.0" fill="rgb(231,93,93)"><path d="M 465.5378,90.1856 l -0.0000,-5.9761 h -5.9761 l -0.0000,5.9761 Z"/></g></svg>