<svg xmlns="http://www.w3.org/2000/svg" height="622.6700" stroke-opacity="1" viewBox="0 0 600 623" font-size="1" width="600.0000" xmlns:xlink="http://www.w3.org/1999/xlink" stroke="rgb(0,0,0)" version="1.1"><defs></defs><g stroke-opacity="1.0" fill-opacity="1.0" stroke="rgb(228,26,28)" stroke-width="1.0" fill="rgb(231,93,93)"><path d="M 116.3728,206.8406 v -74.9422 h 94.4584 v 74.9422 Z"/></g><g stroke-opacity="1.0" fill-opacity="1.0" stroke="rgb(228,26,28)" stroke-width="1.0" fill="rgb(231,93,93)"><path d="M 116.3728,300.5184 v -74.9422 h 283.3753 v 74.9422 Z"/></g><g stroke-opacity="1.0" fill-opacity="1.0" stroke="rgb(228,26,28)" stroke-width="1.0" fill="rgb(231,93,93)"><path d="M 116.3728,394.1961 v -74.9422 h 157.4307 v 74.9422 Z"/></g><g stroke-opacity="1.0" fill-opacity="1.0" stroke="rgb(228,26,28)" stroke-width="1.0" fill="rgb(231,93,93)"><path d="M 116.3728,487.8739 v -74.9422 h 377.8338 v 74.9422 Z"/></g><g stroke-width="0.1"><path d="M 78.5894,450.4028 h 453.4005 M 78.5894,356.7250 h 453.4005 M 78.5894,263.0472 h 453.4005 M 78.5894,169.3694 h 453.4005 "/></g><g stroke-linecap="square"><path d="M 78.5894,544.0806 v -453.4005 M 531.9899,544.0806 v -453.4005 "/></g><g stroke-width="0.4"><path d="M 531.9899,450.4028 h 7.5567 M 531.9899,356.7250 h 7.5567 M 531.9899,263.0472 h 7.5567 M 531.9899,169.3694 h 7.5567 "/></g><g stroke-width="0.4"><path d="M 71.0327,450.4028 h 7.5567 M 71.0327,356.7250 h 7.5567 M 71.0327,263.0472 h 7.5567 M 71.0327,169.3694 h 7.5567 "/></g><g fill-opacity="1.0" font-size="11.0px" fill="rgb(0,0,0)"><text dominant-baseline="middle" transform="matrix(1.0000,0.0000,0.0000,1.0000,60.4534,169.3694)" stroke="none" text-anchor="end">beans</text></g><g fill-opacity="1.0" font-size="11.0px" fill="rgb(0,0,0)"><text dominant-baseline="middle" transform="matrix(1.0000,0.0000,0.0000,1.0000,60.4534,263.0472)" stroke="none" text-anchor="end">sausage</text></g><g fill-opacity="1.0" font-size="11.0px" fill="rgb(0,0,0)"><text dominant-baseline="middle" transform="matrix(1.0000,0.0000,0.0000,1.0000,60.4534,356.7250)" stroke="none" text-anchor="end">bacon</text></g><g fill-opacity="1.0" font-size="11.0px" fill="rgb(0,0,0)"><text dominant-baseline="middle" transform="matrix(1.0000,0.0000,0.0000,1.0000,60.4534,450.4028)" stroke="none" text-anchor="end">eggs</text></g><g stroke-width="0.1"><path d="M 116.3728,544.0806 v -453.4005 M 195.0882,544.0806 v -453.4005 M 273.8035,544.0806 v -453.4005 M 352.5189,544.0806 v -453.4005 M 431.2343,544.0806 v -453.4005 M 509.9496,544.0806 v -453.4005 "/></g><g stroke-linecap="square"><path d="M 78.5894,544.0806 h 453.4005 M 78.5894,90.6801 h 453.4005 "/></g><g stroke-width="0.4"><path d="M 96.6940,90.6801 v -4.5340 M 136.0516,90.6801 v -4.5340 M 155.7305,90.6801 v -4.5340 M 175.4093,90.6801 v -4.5340 M 214.7670,90.6801 v -4.5340 M 234.4458,90.6801 v -4.5340 M 254.1247,90.6801 v -4.5340 M 293.4824,90.6801 v -4.5340 M 313.1612,90.6801 v -4.5340 M 332.8401,90.6801 v -4.5340 M 372.1977,90.6801 v -4.5340 M 391.8766,90.6801 v -4.5340 M 411.5554,90.6801 v -4.5340 M 450.9131,90.6801 v -4.5340 M 470.5919,90.6801 v -4.5340 M 490.2708,90.6801 v -4.5340 M 529.6285,90.6801 v -4.5340 "/></g><g stroke-width="0.4"><path d="M 116.3728,90.6801 v -7.5567 M 195.0882,90.6801 v -7.5567 M 273.8035,90.6801 v -7.5567 M 352.5189,90.6801 v -7.5567 M 431.2343,90.6801 v -7.5567 M 509.9496,90.6801 v -7.5567 "/></g><g stroke-width="0.4"><path d="M 96.6940,548.6146 v -4.5340 M 136.0516,548.6146 v -4.5340 M 155.7305,548.6146 v -4.5340 M 175.4093,548.6146 v -4.5340 M 214.7670,548.6146 v -4.5340 M 234.4458,548.6146 v -4.5340 M 254.1247,548.6146 v -4.5340 M 293.4824,548.6146 v -4.5340 M 313.1612,548.6146 v -4.5340 M 332.8401,548.6146 v -4.5340 M 372.1977,548.6146 v -4.5340 M 391.8766,548.6146 v -4.5340 M 411.5554,548.6146 v -4.5340 M 450.9131,548.6146 v -4.5340 M 470.5919,548.6146 v -4.5340 M 490.2708,548.6146 v -4.5340 M 529.6285,548.6146 v -4.5340 "/></g><g stroke-width="0.4"><path d="M 116.3728,551.6373 v -7.5567 M 195.0882,551.6373 v -7.5567 M 273.8035,551.6373 v -7.5567 M 352.5189,551.6373 v -7.5567 M 431.2343,551.6373 v -7.5567 M 509.9496,551.6373 v -7.5567 "/></g><g fill-opacity="1.0" font-size="11.0px" fill="rgb(0,0,0)"><text dominant-baseline="text-before-edge" transform="matrix(1.0000,0.0000,0.0000,1.0000,509.9496,562.2166)" stroke="none" text-anchor="middle">12.5</text></g><g fill-opacity="1.0" font-size="11.0px" fill="rgb(0,0,0)"><text dominant-baseline="text-before-edge" transform="matrix(1.0000,0.0000,0.0000,1.0000,431.2343,562.2166)" stroke="none" text-anchor="middle">10.0</text></g><g fill-opacity="1.0" font-size="11.0px" fill="rgb(0,0,0)"><text dominant-baseline="text-before-edge" transform="matrix(1.0000,0.0000,0.0000,1.0000,352.5189,562.2166)" stroke="none" text-anchor="middle">7.5</text></g><g fill-opacity="1.0" font-size="11.0px" fill="rgb(0,0,0)"><text dominant-baseline="text-before-edge" transform="matrix(1.0000,0.0000,0.0000,1.0000,273.8035,562.2166)" stroke="none" text-anchor="middle">5.0</text></g><g fill-opacity="1.0" font-size="11.0px" fill="rgb(0,0,0)"><text dominant-baseline="text-before-edge" transform="matrix(1.0000,0.0000,0.0000,1.0000,195.0882,562.2166)" stroke="none" text-anchor="middle">2.5</text></g><g fill-opacity="1.0" font-size="11.0px" fill="rgb(0,0,0)"><text dominant-baseline="text-before-edge" transform="matrix(1.0000,0.0000,0.0000,1.0000,116.3728,562.2166)" stroke="none" text-anchor="middle">0.0</text></g><g fill-opacity="1.0" font-size="16.0px" fill="rgb(0,0,0)"><text dominant-baseline="text-after-edge" transform="matrix(1.0000,0.0000,0.0000,1.0000,305.2897,60.4534)" stroke="none" text-anchor="middle"></text></g></svg>