<svg xmlns="http://www.w3.org/2000/svg" height="622.6700" stroke-opacity="1" viewBox="0 0 600 623" font-size="1" width="600.0000" xmlns:xlink="http://www.w3.org/1999/xlink" stroke="rgb(0,0,0)" version="1.1"><defs></defs><g stroke-opacity="1.0" fill-opacity="1.0" stroke="rgb(228,26,28)" stroke-width="1.0" fill="rgb(231,93,93)"><path d="M 116.3728,192.9624 v -61.0640 h 128.7434 v 61.0640 Z"/></g><g stroke-opacity="1.0" fill-opacity="1.0" stroke="rgb(228,26,28)" stroke-width="1.0" fill="rgb(231,93,93)"><path d="M 116.3728,269.2924 v -61.0640 h 201.5113 v 61.0640 Z"/></g><g stroke-opacity="1.0" fill-opacity="1.0" stroke="rgb(228,26,28)" stroke-width="1.0" fill="rgb(231,93,93)"><path d="M 116.3728,345.6225 v -61.0640 h 193.1150 v 61.0640 Z"/></g><g stroke-opacity="1.0" fill-opacity="1.0" stroke="rgb(228,26,28)" stroke-width="1.0" fill="rgb(231,93,93)"><path d="M 116.3728,421.9525 v -61.0640 h 83.9631 v 61.0640 Z"/></g><g stroke-opacity="1.0" fill-opacity="1.0" stroke="rgb(228,26,28)" stroke-width="1.0" fill="rgb(231,93,93)"><path d="M 116.3728,498.2826 v -61.0640 h 377.8338 v 61.0640 Z"/></g><g stroke-width="0.1"><path d="M 78.5894,544.0806 h 453.4005 M 78.5894,467.7506 h 453.4005 M 78.5894,391.4205 h 453.4005 M 78.5894,315.0905 h 453.4005 M 78.5894,238.7604 h 453.4005 M 78.5894,162.4303 h 453.4005 "/></g><g stroke-linecap="square"><path d="M 78.5894,544.0806 v -453.4005 M 531.9899,544.0806 v -453.4005 "/></g><g stroke-width="0.4"><path d="M 531.9899,524.9981 h 4.5340 M 531.9899,505.9156 h 4.5340 M 531.9899,486.8331 h 4.5340 M 531.9899,448.6680 h 4.5340 M 531.9899,429.5855 h 4.5340 M 531.9899,410.5030 h 4.5340 M 531.9899,372.3380 h 4.5340 M 531.9899,353.2555 h 4.5340 M 531.9899,334.1730 h 4.5340 M 531.9899,296.0079 h 4.5340 M 531.9899,276.9254 h 4.5340 M 531.9899,257.8429 h 4.5340 M 531.9899,219.6779 h 4.5340 M 531.9899,200.5954 h 4.5340 M 531.9899,181.5129 h 4.5340 M 531.9899,143.3478 h 4.5340 M 531.9899,124.2653 h 4.5340 M 531.9899,105.1828 h 4.5340 "/></g><g stroke-width="0.4"><path d="M 531.9899,544.0806 h 7.5567 M 531.9899,467.7506 h 7.5567 M 531.9899,391.4205 h 7.5567 M 531.9899,315.0905 h 7.5567 M 531.9899,238.7604 h 7.5567 M 531.9899,162.4303 h 7.5567 "/></g><g stroke-width="0.4"><path d="M 74.0554,524.9981 h 4.5340 M 74.0554,505.9156 h 4.5340 M 74.0554,486.8331 h 4.5340 M 74.0554,448.6680 h 4.5340 M 74.0554,429.5855 h 4.5340 M 74.0554,410.5030 h 4.5340 M 74.0554,372.3380 h 4.5340 M 74.0554,353.2555 h 4.5340 M 74.0554,334.1730 h 4.5340 M 74.0554,296.0079 h 4.5340 M 74.0554,276.9254 h 4.5340 M 74.0554,257.8429 h 4.5340 M 74.0554,219.6779 h 4.5340 M 74.0554,200.5954 h 4.5340 M 74.0554,181.5129 h 4.5340 M 74.0554,143.3478 h 4.5340 M 74.0554,124.2653 h 4.5340 M 74.0554,105.1828 h 4.5340 "/></g><g stroke-width="0.4"><path d="M 71.0327,544.0806 h 7.5567 M 71.0327,467.7506 h 7.5567 M 71.0327,391.4205 h 7.5567 M 71.0327,315.0905 h 7.5567 M 71.0327,238.7604 h 7.5567 M 71.0327,162.4303 h 7.5567 "/></g><g fill-opacity="1.0" font-size="11.0px" fill="rgb(0,0,0)"><text dominant-baseline="middle" transform="matrix(1.0000,0.0000,0.0000,1.0000,60.4534,162.4303)" stroke="none" text-anchor="end">5.0</text></g><g fill-opacity="1.0" font-size="11.0px" fill="rgb(0,0,0)"><text dominant-baseline="middle" transform="matrix(1.0000,0.0000,0.0000,1.0000,60.4534,238.7604)" stroke="none" text-anchor="end">4.0</text></g><g fill-opacity="1.0" font-size="11.0px" fill="rgb(0,0,0)"><text dominant-baseline="middle" transform="matrix(1.0000,0.0000,0.0000,1.0000,60.4534,315.0905)" stroke="none" text-anchor="end">3.0</text></g><g fill-opacity="1.0" font-size="11.0px" fill="rgb(0,0,0)"><text dominant-baseline="middle" transform="matrix(1.0000,0.0000,0.0000,1.0000,60.4534,391.4205)" stroke="none" text-anchor="end">2.0</text></g><g fill-opacity="1.0" font-size="11.0px" fill="rgb(0,0,0)"><text dominant-baseline="middle" transform="matrix(1.0000,0.0000,0.0000,1.0000,60.4534,467.7506)" stroke="none" text-anchor="end">1.0</text></g><g fill-opacity="1.0" font-size="11.0px" fill="rgb(0,0,0)"><text dominant-baseline="middle" transform="matrix(1.0000,0.0000,0.0000,1.0000,60.4534,544.0806)" stroke="none" text-anchor="end">0.0</text></g><g stroke-width="0.1"><path d="M 116.3728,544.0806 v -453.4005 M 186.3420,544.0806 v -453.4005 M 256.3112,544.0806 v -453.4005 M 326.2804,544.0806 v -453.4005 M 396.2497,544.0806 v -453.4005 M 466.2189,544.0806 v -453.4005 "/></g><g stroke-linecap="square"><path d="M 78.5894,544.0806 h 453.4005 M 78.5894,90.6801 h 453.4005 "/></g><g stroke-width="0.4"><path d="M 81.3882,90.6801 v -4.5340 M 98.8805,90.6801 v -4.5340 M 133.8651,90.6801 v -4.5340 M 151.3574,90.6801 v -4.5340 M 168.8497,90.6801 v -4.5340 M 203.8343,90.6801 v -4.5340 M 221.3266,90.6801 v -4.5340 M 238.8189,90.6801 v -4.5340 M 273.8035,90.6801 v -4.5340 M 291.2958,90.6801 v -4.5340 M 308.7881,90.6801 v -4.5340 M 343.7727,90.6801 v -4.5340 M 361.2650,90.6801 v -4.5340 M 378.7573,90.6801 v -4.5340 M 413.7420,90.6801 v -4.5340 M 431.2343,90.6801 v -4.5340 M 448.7266,90.6801 v -4.5340 M 483.7112,90.6801 v -4.5340 M 501.2035,90.6801 v -4.5340 M 518.6958,90.6801 v -4.5340 "/></g><g stroke-width="0.4"><path d="M 116.3728,90.6801 v -7.5567 M 186.3420,90.6801 v -7.5567 M 256.3112,90.6801 v -7.5567 M 326.2804,90.6801 v -7.5567 M 396.2497,90.6801 v -7.5567 M 466.2189,90.6801 v -7.5567 "/></g><g stroke-width="0.4"><path d="M 81.3882,548.6146 v -4.5340 M 98.8805,548.6146 v -4.5340 M 133.8651,548.6146 v -4.5340 M 151.3574,548.6146 v -4.5340 M 168.8497,548.6146 v -4.5340 M 203.8343,548.6146 v -4.5340 M 221.3266,548.6146 v -4.5340 M 238.8189,548.6146 v -4.5340 M 273.8035,548.6146 v -4.5340 M 291.2958,548.6146 v -4.5340 M 308.7881,548.6146 v -4.5340 M 343.7727,548.6146 v -4.5340 M 361.2650,548.6146 v -4.5340 M 378.7573,548.6146 v -4.5340 M 413.7420,548.6146 v -4.5340 M 431.2343,548.6146 v -4.5340 M 448.7266,548.6146 v -4.5340 M 483.7112,548.6146 v -4.5340 M 501.2035,548.6146 v -4.5340 M 518.6958,548.6146 v -4.5340 "/></g><g stroke-width="0.4"><path d="M 116.3728,551.6373 v -7.5567 M 186.3420,551.6373 v -7.5567 M 256.3112,551.6373 v -7.5567 M 326.2804,551.6373 v -7.5567 M 396.2497,551.6373 v -7.5567 M 466.2189,551.6373 v -7.5567 "/></g><g fill-opacity="1.0" font-size="11.0px" fill="rgb(0,0,0)"><text dominant-baseline="text-before-edge" transform="matrix(1.0000,0.0000,0.0000,1.0000,466.2189,562.2166)" stroke="none" text-anchor="middle">12.5</text></g><g fill-opacity="1.0" font-size="11.0px" fill="rgb(0,0,0)"><text dominant-baseline="text-before-edge" transform="matrix(1.0000,0.0000,0.0000,1.0000,396.2497,562.2166)" stroke="none" text-anchor="middle">10.0</text></g><g fill-opacity="1.0" font-size="11.0px" fill="rgb(0,0,0)"><text dominant-baseline="text-before-edge" transform="matrix(1.0000,0.0000,0.0000,1.0000,326.2804,562.2166)" stroke="none" text-anchor="middle">7.5</text></g><g fill-opacity="1.0" font-size="11.0px" fill="rgb(0,0,0)"><text dominant-baseline="text-before-edge" transform="matrix(1.0000,0.0000,0.0000,1.0000,256.3112,562.2166)" stroke="none" text-anchor="middle">5.0</text></g><g fill-opacity="1.0" font-size="11.0px" fill="rgb(0,0,0)"><text dominant-baseline="text-before-edge" transform="matrix(1.0000,0.0000,0.0000,1.0000,186.3420,562.2166)" stroke="none" text-anchor="middle">2.5</text></g><g fill-opacity="1.0" font-size="11.0px" fill="rgb(0,0,0)"><text dominant-baseline="text-before-edge" transform="matrix(1.0000,0.0000,0.0000,1.0000,116.3728,562.2166)" stroke="none" text-anchor="middle">0.0</text></g><g fill-opacity="1.0" font-size="16.0px" fill="rgb(0,0,0)"><text dominant-baseline="text-after-edge" transform="matrix(1.0000,0.0000,0.0000,1.0000,305.2897,60.4534)" stroke="none" text-anchor="middle"></text></g></svg>