<svg xmlns="http://www.w3.org/2000/svg" height="350.0000" stroke-opacity="1" viewBox="0 0 412 350" font-size="1" width="411.5234" xmlns:xlink="http://www.w3.org/1999/xlink" stroke="rgb(0,0,0)" version="1.1"><defs></defs><g stroke-opacity="1.0" fill-opacity="1.0" stroke="rgb(77,175,74)" stroke-width="1.0" fill="rgb(114,185,112)"><defs><clipPath id="myClip1"><path d="M 308.9844,314.4531 l -0.0000,-273.4375 h -273.4375 l -0.0000,273.4375 Z"/></clipPath></defs><g clip-path="url(#myClip1)"><path d="M 286.5397,135.7127 l -0.3418,-0.5920 l -0.3418,0.5920 Z"/></g></g><g stroke-opacity="1.0" fill-opacity="1.0" stroke="rgb(77,175,74)" stroke-width="1.0" fill="rgb(114,185,112)"><defs><clipPath id="myClip2"><path d="M 308.9844,314.4531 l -0.0000,-273.4375 h -273.4375 l -0.0000,273.4375 Z"/></clipPath></defs><g clip-path="url(#myClip2)"><path d="M 263.7533,291.9627 l -0.3418,-0.5920 l -0.3418,0.5920 Z"/></g></g><g stroke-opacity="1.0" fill-opacity="1.0" stroke="rgb(77,175,74)" stroke-width="1.0" fill="rgb(114,185,112)"><defs><clipPath id="myClip3"><path d="M 308.9844,314.4531 l -0.0000,-273.4375 h -273.4375 l -0.0000,273.4375 Z"/></clipPath></defs><g clip-path="url(#myClip3)"><path d="M 172.6074,129.2023 l -0.3418,-0.5920 l -0.3418,0.5920 Z"/></g></g><g stroke-opacity="1.0" fill-opacity="1.0" stroke="rgb(77,175,74)" stroke-width="1.0" fill="rgb(114,185,112)"><defs><clipPath id="myClip4"><path d="M 308.9844,314.4531 l -0.0000,-273.4375 h -273.4375 l -0.0000,273.4375 Z"/></clipPath></defs><g clip-path="url(#myClip4)"><path d="M 111.8435,285.4523 l -0.3418,-0.5920 l -0.3418,0.5920 Z"/></g></g><g stroke-opacity="1.0" fill-opacity="1.0" stroke="rgb(55,126,184)" stroke-width="1.0" fill="rgb(103,146,193)"><defs><clipPath id="myClip5"><path d="M 308.9844,314.4531 l -0.0000,-273.4375 h -273.4375 l -0.0000,273.4375 Z"/></clipPath></defs><g clip-path="url(#myClip5)"><path d="M 153.6187,64.1439 l -0.0000,-0.6836 h -0.6836 l -0.0000,0.6836 Z"/></g></g><g stroke-opacity="1.0" fill-opacity="1.0" stroke="rgb(55,126,184)" stroke-width="1.0" fill="rgb(103,146,193)"><defs><clipPath id="myClip6"><path d="M 308.9844,314.4531 l -0.0000,-273.4375 h -273.4375 l -0.0000,273.4375 Z"/></clipPath></defs><g clip-path="url(#myClip6)"><path d="M 142.2255,70.6543 l -0.0000,-0.6836 h -0.6836 l -0.0000,0.6836 Z"/></g></g><g stroke-opacity="1.0" fill-opacity="1.0" stroke="rgb(55,126,184)" stroke-width="1.0" fill="rgb(103,146,193)"><defs><clipPath id="myClip7"><path d="M 308.9844,314.4531 l -0.0000,-273.4375 h -273.4375 l -0.0000,273.4375 Z"/></clipPath></defs><g clip-path="url(#myClip7)"><path d="M 96.6526,103.2064 l -0.0000,-0.6836 h -0.6836 l -0.0000,0.6836 Z"/></g></g><g stroke-opacity="1.0" fill-opacity="1.0" stroke="rgb(55,126,184)" stroke-width="1.0" fill="rgb(103,146,193)"><defs><clipPath id="myClip8"><path d="M 308.9844,314.4531 l -0.0000,-273.4375 h -273.4375 l -0.0000,273.4375 Z"/></clipPath></defs><g clip-path="url(#myClip8)"><path d="M 58.6751,265.9668 l -0.0000,-0.6836 h -0.6836 l -0.0000,0.6836 Z"/></g></g><g stroke-opacity="1.0" fill-opacity="1.0" stroke="rgb(228,26,28)" stroke-width="1.0" fill="rgb(231,93,93)"><defs><clipPath id="myClip9"><path d="M 308.9844,314.4531 l -0.0000,-273.4375 h -273.4375 l -0.0000,273.4375 Z"/></clipPath></defs><g clip-path="url(#myClip9)"><path d="M 286.5397,63.8021 c 0.0000,-0.1888 -0.1530,-0.3418 -0.3418 -0.3418c -0.1888,-0.0000 -0.3418,0.1530 -0.3418 0.3418c -0.0000,0.1888 0.1530,0.3418 0.3418 0.3418c 0.1888,0.0000 0.3418,-0.1530 0.3418 -0.3418Z"/></g></g><g stroke-opacity="1.0" fill-opacity="1.0" stroke="rgb(228,26,28)" stroke-width="1.0" fill="rgb(231,93,93)"><defs><clipPath id="myClip10"><path d="M 308.9844,314.4531 l -0.0000,-273.4375 h -273.4375 l -0.0000,273.4375 Z"/></clipPath></defs><g clip-path="url(#myClip10)"><path d="M 263.7533,70.3125 c 0.0000,-0.1888 -0.1530,-0.3418 -0.3418 -0.3418c -0.1888,-0.0000 -0.3418,0.1530 -0.3418 0.3418c -0.0000,0.1888 0.1530,0.3418 0.3418 0.3418c 0.1888,0.0000 0.3418,-0.1530 0.3418 -0.3418Z"/></g></g><g stroke-opacity="1.0" fill-opacity="1.0" stroke="rgb(228,26,28)" stroke-width="1.0" fill="rgb(231,93,93)"><defs><clipPath id="myClip11"><path d="M 308.9844,314.4531 l -0.0000,-273.4375 h -273.4375 l -0.0000,273.4375 Z"/></clipPath></defs><g clip-path="url(#myClip11)"><path d="M 172.6074,102.8646 c 0.0000,-0.1888 -0.1530,-0.3418 -0.3418 -0.3418c -0.1888,-0.0000 -0.3418,0.1530 -0.3418 0.3418c -0.0000,0.1888 0.1530,0.3418 0.3418 0.3418c 0.1888,0.0000 0.3418,-0.1530 0.3418 -0.3418Z"/></g></g><g stroke-opacity="1.0" fill-opacity="1.0" stroke="rgb(228,26,28)" stroke-width="1.0" fill="rgb(231,93,93)"><defs><clipPath id="myClip12"><path d="M 308.9844,314.4531 l -0.0000,-273.4375 h -273.4375 l -0.0000,273.4375 Z"/></clipPath></defs><g clip-path="url(#myClip12)"><path d="M 96.6526,265.6250 c 0.0000,-0.1888 -0.1530,-0.3418 -0.3418 -0.3418c -0.1888,-0.0000 -0.3418,0.1530 -0.3418 0.3418c -0.0000,0.1888 0.1530,0.3418 0.3418 0.3418c 0.1888,0.0000 0.3418,-0.1530 0.3418 -0.3418Z"/></g></g><g stroke-width="0.8"><path d="M 35.5469,265.6250 h 273.4375 M 35.5469,200.5208 h 273.4375 M 35.5469,135.4167 h 273.4375 M 35.5469,70.3125 h 273.4375 "/></g><g stroke-linecap="square"><path d="M 35.5469,314.4531 v -273.4375 M 308.9844,314.4531 v -273.4375 "/></g><g stroke-width="0.4"><path d="M 308.9844,309.0278 h 2.0508 M 308.9844,298.1771 h 2.0508 M 308.9844,287.3264 h 2.0508 M 308.9844,276.4757 h 2.0508 M 308.9844,254.7743 h 2.0508 M 308.9844,243.9236 h 2.0508 M 308.9844,233.0729 h 2.0508 M 308.9844,222.2222 h 2.0508 M 308.9844,211.3715 h 2.0508 M 308.9844,189.6701 h 2.0508 M 308.9844,178.8194 h 2.0508 M 308.9844,167.9687 h 2.0508 M 308.9844,157.1181 h 2.0508 M 308.9844,146.2674 h 2.0508 M 308.9844,124.5660 h 2.0508 M 308.9844,113.7153 h 2.0508 M 308.9844,102.8646 h 2.0508 M 308.9844,92.0139 h 2.0508 M 308.9844,81.1632 h 2.0508 M 308.9844,59.4618 h 2.0508 M 308.9844,48.6111 h 2.0508 "/></g><g stroke-width="0.4"><path d="M 308.9844,265.6250 h 3.4180 M 308.9844,200.5208 h 3.4180 M 308.9844,135.4167 h 3.4180 M 308.9844,70.3125 h 3.4180 "/></g><g stroke-width="0.4"><path d="M 33.4961,309.0278 h 2.0508 M 33.4961,298.1771 h 2.0508 M 33.4961,287.3264 h 2.0508 M 33.4961,276.4757 h 2.0508 M 33.4961,254.7743 h 2.0508 M 33.4961,243.9236 h 2.0508 M 33.4961,233.0729 h 2.0508 M 33.4961,222.2222 h 2.0508 M 33.4961,211.3715 h 2.0508 M 33.4961,189.6701 h 2.0508 M 33.4961,178.8194 h 2.0508 M 33.4961,167.9687 h 2.0508 M 33.4961,157.1181 h 2.0508 M 33.4961,146.2674 h 2.0508 M 33.4961,124.5660 h 2.0508 M 33.4961,113.7153 h 2.0508 M 33.4961,102.8646 h 2.0508 M 33.4961,92.0139 h 2.0508 M 33.4961,81.1632 h 2.0508 M 33.4961,59.4618 h 2.0508 M 33.4961,48.6111 h 2.0508 "/></g><g stroke-width="0.4"><path d="M 32.1289,265.6250 h 3.4180 M 32.1289,200.5208 h 3.4180 M 32.1289,135.4167 h 3.4180 M 32.1289,70.3125 h 3.4180 "/></g><g fill-opacity="1.0" font-size="11.0px" fill="rgb(0,0,0)"><text dominant-baseline="middle" transform="matrix(1.0000,0.0000,0.0000,1.0000,27.3438,70.3125)" stroke="none" text-anchor="end">6.0</text></g><g fill-opacity="1.0" font-size="11.0px" fill="rgb(0,0,0)"><text dominant-baseline="middle" transform="matrix(1.0000,0.0000,0.0000,1.0000,27.3438,135.4167)" stroke="none" text-anchor="end">5.0</text></g><g fill-opacity="1.0" font-size="11.0px" fill="rgb(0,0,0)"><text dominant-baseline="middle" transform="matrix(1.0000,0.0000,0.0000,1.0000,27.3438,200.5208)" stroke="none" text-anchor="end">4.0</text></g><g fill-opacity="1.0" font-size="11.0px" fill="rgb(0,0,0)"><text dominant-baseline="middle" transform="matrix(1.0000,0.0000,0.0000,1.0000,27.3438,265.6250)" stroke="none" text-anchor="end">3.0</text></g><g stroke-width="0.8"><path d="M 58.3333,314.4531 v -273.4375 M 96.3108,314.4531 v -273.4375 M 134.2882,314.4531 v -273.4375 M 172.2656,314.4531 v -273.4375 M 210.2431,314.4531 v -273.4375 M 248.2205,314.4531 v -273.4375 M 286.1979,314.4531 v -273.4375 "/></g><g stroke-linecap="square"><path d="M 35.5469,314.4531 h 273.4375 M 35.5469,41.0156 h 273.4375 "/></g><g stroke-width="0.4"><path d="M 39.3446,41.0156 v -2.0508 M 45.6742,41.0156 v -2.0508 M 52.0038,41.0156 v -2.0508 M 64.6629,41.0156 v -2.0508 M 70.9925,41.0156 v -2.0508 M 77.3220,41.0156 v -2.0508 M 83.6516,41.0156 v -2.0508 M 89.9812,41.0156 v -2.0508 M 102.6403,41.0156 v -2.0508 M 108.9699,41.0156 v -2.0508 M 115.2995,41.0156 v -2.0508 M 121.6291,41.0156 v -2.0508 M 127.9586,41.0156 v -2.0508 M 140.6178,41.0156 v -2.0508 M 146.9473,41.0156 v -2.0508 M 153.2769,41.0156 v -2.0508 M 159.6065,41.0156 v -2.0508 M 165.9361,41.0156 v -2.0508 M 178.5952,41.0156 v -2.0508 M 184.9248,41.0156 v -2.0508 M 191.2543,41.0156 v -2.0508 M 197.5839,41.0156 v -2.0508 M 203.9135,41.0156 v -2.0508 M 216.5726,41.0156 v -2.0508 M 222.9022,41.0156 v -2.0508 M 229.2318,41.0156 v -2.0508 M 235.5613,41.0156 v -2.0508 M 241.8909,41.0156 v -2.0508 M 254.5501,41.0156 v -2.0508 M 260.8796,41.0156 v -2.0508 M 267.2092,41.0156 v -2.0508 M 273.5388,41.0156 v -2.0508 M 279.8683,41.0156 v -2.0508 M 292.5275,41.0156 v -2.0508 M 298.8571,41.0156 v -2.0508 M 305.1866,41.0156 v -2.0508 "/></g><g stroke-width="0.4"><path d="M 58.3333,41.0156 v -3.4180 M 96.3108,41.0156 v -3.4180 M 134.2882,41.0156 v -3.4180 M 172.2656,41.0156 v -3.4180 M 210.2431,41.0156 v -3.4180 M 248.2205,41.0156 v -3.4180 M 286.1979,41.0156 v -3.4180 "/></g><g stroke-width="0.4"><path d="M 39.3446,316.5039 v -2.0508 M 45.6742,316.5039 v -2.0508 M 52.0038,316.5039 v -2.0508 M 64.6629,316.5039 v -2.0508 M 70.9925,316.5039 v -2.0508 M 77.3220,316.5039 v -2.0508 M 83.6516,316.5039 v -2.0508 M 89.9812,316.5039 v -2.0508 M 102.6403,316.5039 v -2.0508 M 108.9699,316.5039 v -2.0508 M 115.2995,316.5039 v -2.0508 M 121.6291,316.5039 v -2.0508 M 127.9586,316.5039 v -2.0508 M 140.6178,316.5039 v -2.0508 M 146.9473,316.5039 v -2.0508 M 153.2769,316.5039 v -2.0508 M 159.6065,316.5039 v -2.0508 M 165.9361,316.5039 v -2.0508 M 178.5952,316.5039 v -2.0508 M 184.9248,316.5039 v -2.0508 M 191.2543,316.5039 v -2.0508 M 197.5839,316.5039 v -2.0508 M 203.9135,316.5039 v -2.0508 M 216.5726,316.5039 v -2.0508 M 222.9022,316.5039 v -2.0508 M 229.2318,316.5039 v -2.0508 M 235.5613,316.5039 v -2.0508 M 241.8909,316.5039 v -2.0508 M 254.5501,316.5039 v -2.0508 M 260.8796,316.5039 v -2.0508 M 267.2092,316.5039 v -2.0508 M 273.5388,316.5039 v -2.0508 M 279.8683,316.5039 v -2.0508 M 292.5275,316.5039 v -2.0508 M 298.8571,316.5039 v -2.0508 M 305.1866,316.5039 v -2.0508 "/></g><g stroke-width="0.4"><path d="M 58.3333,317.8711 v -3.4180 M 96.3108,317.8711 v -3.4180 M 134.2882,317.8711 v -3.4180 M 172.2656,317.8711 v -3.4180 M 210.2431,317.8711 v -3.4180 M 248.2205,317.8711 v -3.4180 M 286.1979,317.8711 v -3.4180 "/></g><g fill-opacity="1.0" font-size="11.0px" fill="rgb(0,0,0)"><text dominant-baseline="text-before-edge" transform="matrix(1.0000,0.0000,0.0000,1.0000,286.1979,322.6562)" stroke="none" text-anchor="middle">3.5</text></g><g fill-opacity="1.0" font-size="11.0px" fill="rgb(0,0,0)"><text dominant-baseline="text-before-edge" transform="matrix(1.0000,0.0000,0.0000,1.0000,248.2205,322.6562)" stroke="none" text-anchor="middle">3.0</text></g><g fill-opacity="1.0" font-size="11.0px" fill="rgb(0,0,0)"><text dominant-baseline="text-before-edge" transform="matrix(1.0000,0.0000,0.0000,1.0000,210.2431,322.6562)" stroke="none" text-anchor="middle">2.5</text></g><g fill-opacity="1.0" font-size="11.0px" fill="rgb(0,0,0)"><text dominant-baseline="text-before-edge" transform="matrix(1.0000,0.0000,0.0000,1.0000,172.2656,322.6562)" stroke="none" text-anchor="middle">2.0</text></g><g fill-opacity="1.0" font-size="11.0px" fill="rgb(0,0,0)"><text dominant-baseline="text-before-edge" transform="matrix(1.0000,0.0000,0.0000,1.0000,134.2882,322.6562)" stroke="none" text-anchor="middle">1.5</text></g><g fill-opacity="1.0" font-size="11.0px" fill="rgb(0,0,0)"><text dominant-baseline="text-before-edge" transform="matrix(1.0000,0.0000,0.0000,1.0000,96.3108,322.6562)" stroke="none" text-anchor="middle">1.0</text></g><g fill-opacity="1.0" font-size="11.0px" fill="rgb(0,0,0)"><text dominant-baseline="text-before-edge" transform="matrix(1.0000,0.0000,0.0000,1.0000,58.3333,322.6562)" stroke="none" text-anchor="middle">0.5</text></g><g fill-opacity="1.0" font-size="11.0px" fill="rgb(0,0,0)"><text dominant-baseline="text-after-edge" transform="matrix(1.0000,0.0000,0.0000,1.0000,172.2656,27.3438)" stroke="none" text-anchor="middle"></text></g><g fill-opacity="0.0" fill="rgb(0,0,0)"><path d="M 380.7617,82.0312 l -0.0000,-41.0156 h -58.1055 l -0.0000,41.0156 Z"/></g><g fill-opacity="1.0" font-size="11.0px" fill="rgb(0,0,0)"><text dominant-baseline="middle" transform="matrix(1.0000,0.0000,0.0000,1.0000,343.1641,75.1953)" stroke="none" text-anchor="start">data 3</text></g><g stroke-opacity="1.0" fill-opacity="1.0" stroke="rgb(77,175,74)" stroke-width="1.0" fill="rgb(114,185,112)"><path d="M 333.2520,75.4913 l -0.3418,-0.5920 l -0.3418,0.5920 Z"/></g><g fill-opacity="1.0" font-size="11.0px" fill="rgb(0,0,0)"><text dominant-baseline="middle" transform="matrix(1.0000,0.0000,0.0000,1.0000,343.1641,61.5234)" stroke="none" text-anchor="start">data 2</text></g><g stroke-opacity="1.0" fill-opacity="1.0" stroke="rgb(55,126,184)" stroke-width="1.0" fill="rgb(103,146,193)"><path d="M 333.2520,61.8652 l -0.0000,-0.6836 h -0.6836 l -0.0000,0.6836 Z"/></g><g fill-opacity="1.0" font-size="11.0px" fill="rgb(0,0,0)"><text dominant-baseline="middle" transform="matrix(1.0000,0.0000,0.0000,1.0000,343.1641,47.8516)" stroke="none" text-anchor="start">data 1</text></g><g stroke-opacity="1.0" fill-opacity="1.0" stroke="rgb(228,26,28)" stroke-width="1.0" fill="rgb(231,93,93)"><path d="M 333.2520,47.8516 c 0.0000,-0.1888 -0.1530,-0.3418 -0.3418 -0.3418c -0.1888,-0.0000 -0.3418,0.1530 -0.3418 0.3418c -0.0000,0.1888 0.1530,0.3418 0.3418 0.3418c 0.1888,0.0000 0.3418,-0.1530 0.3418 -0.3418Z"/></g></svg>