<svg xmlns="http://www.w3.org/2000/svg" height="75.2881" stroke-opacity="1" viewBox="0 0 600 75" font-size="1" width="600.0000" xmlns:xlink="http://www.w3.org/1999/xlink" stroke="rgb(0,0,0)" version="1.1"><defs></defs><g stroke-opacity="1.0" stroke="rgb(102,102,102)" stroke-width="3.0"><path d="M 550.5128,37.6440 h 19.8119 "/></g><g stroke-opacity="1.0" fill-opacity="1.0" stroke="rgb(255,255,255)" stroke-width="1.0" fill="rgb(102,102,102)"><path d="M 550.9090,28.5292 l 9.5097,-28.5292 l 9.5097,28.5292 l 30.0715,0.2283 l -24.1942,17.8603 l 9.0755,28.6703 l -24.4626,-17.4909 l -24.4626,17.4909 l 9.0755,-28.6703 l -24.1942,-17.8603 Z"/></g><g stroke-opacity="1.0" stroke="rgb(166,118,29)" stroke-width="3.0"><path d="M 471.3076,37.6440 h 19.8119 "/></g><g stroke-opacity="1.0" fill-opacity="1.0" stroke="rgb(255,255,255)" stroke-width="1.0" fill="rgb(166,118,29)"><path d="M 493.1007,25.7569 l -0.0000,-23.7743 h -23.7743 l -0.0000,23.7743 l -23.7743,0.0000 l -0.0000,23.7743 l 23.7743,0.0000 l -0.0000,23.7743 l 23.7743,0.0000 l 0.0000,-23.7743 l 23.7743,0.0000 l 0.0000,-23.7743 Z"/></g><g stroke-opacity="1.0" stroke="rgb(230,171,2)" stroke-width="3.0"><path d="M 398.0617,37.6440 h 19.8119 "/></g><g stroke-opacity="1.0" fill-opacity="1.0" stroke="rgb(255,255,255)" stroke-width="1.0" fill="rgb(230,171,2)"><path d="M 407.9677,20.8330 l -16.8110,-16.8110 l -16.8110,16.8110 l 16.8110,16.8110 l -16.8110,16.8110 l 16.8110,16.8110 l 16.8110,-16.8110 l 16.8110,16.8110 l 16.8110,-16.8110 l -16.8110,-16.8110 l 16.8110,-16.8110 l -16.8110,-16.8110 Z"/></g><g stroke-opacity="1.0" stroke="rgb(102,166,30)" stroke-width="3.0"><path d="M 325.8564,37.6440 h 19.8119 "/></g><g stroke-opacity="1.0" fill-opacity="1.0" stroke="rgb(255,255,255)" stroke-width="1.0" fill="rgb(102,166,30)"><path d="M 357.1593,70.5705 l 13.2240,-40.6993 l -34.6209,-25.1536 l -34.6209,25.1536 l 13.2240,40.6993 Z"/></g><g stroke-opacity="1.0" stroke="rgb(231,41,138)" stroke-width="3.0"><path d="M 251.6117,37.6440 h 19.8119 "/></g><g stroke-opacity="1.0" fill-opacity="1.0" stroke="rgb(255,255,255)" stroke-width="1.0" fill="rgb(231,41,138)"><path d="M 297.1791,37.6440 l -35.6615,-35.6615 l -35.6615,35.6615 l 35.6615,35.6615 Z"/></g><g stroke-opacity="1.0" stroke="rgb(117,112,179)" stroke-width="3.0"><path d="M 176.3263,37.6440 h 19.8119 "/></g><g stroke-opacity="1.0" fill-opacity="1.0" stroke="rgb(255,255,255)" stroke-width="1.0" fill="rgb(117,112,179)"><path d="M 221.8937,68.5278 l -35.6615,-61.7675 l -35.6615,61.7675 Z"/></g><g stroke-opacity="1.0" stroke="rgb(217,95,2)" stroke-width="3.0"><path d="M 101.0409,37.6440 h 19.8119 "/></g><g stroke-opacity="1.0" fill-opacity="1.0" stroke="rgb(255,255,255)" stroke-width="1.0" fill="rgb(217,95,2)"><path d="M 146.6084,73.3055 l -0.0000,-71.3230 h -71.3230 l -0.0000,71.3230 Z"/></g><g stroke-opacity="1.0" stroke="rgb(27,158,119)" stroke-width="3.0"><path d="M 25.7555,37.6440 h 19.8119 "/></g><g stroke-opacity="1.0" fill-opacity="1.0" stroke="rgb(255,255,255)" stroke-width="1.0" fill="rgb(27,158,119)"><path d="M 71.3230,37.6440 c 0.0000,-19.6953 -15.9662,-35.6615 -35.6615 -35.6615c -19.6953,-0.0000 -35.6615,15.9662 -35.6615 35.6615c -0.0000,19.6953 15.9662,35.6615 35.6615 35.6615c 19.6953,0.0000 35.6615,-15.9662 35.6615 -35.6615Z"/></g></svg>