<svg xmlns="http://www.w3.org/2000/svg" height="400.0000" stroke-opacity="1" viewBox="0 0 388 400" font-size="1" width="388.2812" xmlns:xlink="http://www.w3.org/1999/xlink" stroke="rgb(0,0,0)" version="1.1"><defs></defs><g stroke-opacity="1.0" fill-opacity="1.0" stroke="rgb(228,26,28)" stroke-width="1.0" fill="rgb(231,93,93)"><defs><clipPath id="myClip1"><path d="M 353.1250,359.3750 l -0.0000,-312.5000 h -312.5000 l -0.0000,312.5000 Z"/></clipPath></defs><g clip-path="url(#myClip1)"><path d="M 296.4461,359.3750 h 30.6373 v -71.0227 h -30.6373 Z"/></g></g><g stroke-opacity="1.0" fill-opacity="1.0" stroke="rgb(228,26,28)" stroke-width="1.0" fill="rgb(231,93,93)"><defs><clipPath id="myClip2"><path d="M 353.1250,359.3750 l -0.0000,-312.5000 h -312.5000 l -0.0000,312.5000 Z"/></clipPath></defs><g clip-path="url(#myClip2)"><path d="M 219.8529,359.3750 h 30.6373 v -213.0682 h -30.6373 Z"/></g></g><g stroke-opacity="1.0" fill-opacity="1.0" stroke="rgb(228,26,28)" stroke-width="1.0" fill="rgb(231,93,93)"><defs><clipPath id="myClip3"><path d="M 353.1250,359.3750 l -0.0000,-312.5000 h -312.5000 l -0.0000,312.5000 Z"/></clipPath></defs><g clip-path="url(#myClip3)"><path d="M 143.2598,359.3750 h 30.6373 v -118.3712 h -30.6373 Z"/></g></g><g stroke-opacity="1.0" fill-opacity="1.0" stroke="rgb(228,26,28)" stroke-width="1.0" fill="rgb(231,93,93)"><defs><clipPath id="myClip4"><path d="M 353.1250,359.3750 l -0.0000,-312.5000 h -312.5000 l -0.0000,312.5000 Z"/></clipPath></defs><g clip-path="url(#myClip4)"><path d="M 66.6667,359.3750 h 30.6373 v -284.0909 h -30.6373 Z"/></g></g><g stroke-width="0.8"><path d="M 40.6250,359.3750 h 312.5000 M 40.6250,300.1894 h 312.5000 M 40.6250,241.0038 h 312.5000 M 40.6250,181.8182 h 312.5000 M 40.6250,122.6326 h 312.5000 M 40.6250,63.4470 h 312.5000 "/></g><g stroke-linecap="square"><path d="M 40.6250,359.3750 v -312.5000 M 353.1250,359.3750 v -312.5000 "/></g><g stroke-width="0.4"><path d="M 353.1250,349.5107 h 2.3438 M 353.1250,339.6465 h 2.3438 M 353.1250,329.7822 h 2.3438 M 353.1250,319.9179 h 2.3438 M 353.1250,310.0537 h 2.3438 M 353.1250,290.3251 h 2.3438 M 353.1250,280.4609 h 2.3438 M 353.1250,270.5966 h 2.3438 M 353.1250,260.7323 h 2.3438 M 353.1250,250.8681 h 2.3438 M 353.1250,231.1395 h 2.3438 M 353.1250,221.2753 h 2.3438 M 353.1250,211.4110 h 2.3438 M 353.1250,201.5467 h 2.3438 M 353.1250,191.6824 h 2.3438 M 353.1250,171.9539 h 2.3438 M 353.1250,162.0896 h 2.3438 M 353.1250,152.2254 h 2.3438 M 353.1250,142.3611 h 2.3438 M 353.1250,132.4968 h 2.3438 M 353.1250,112.7683 h 2.3438 M 353.1250,102.9040 h 2.3438 M 353.1250,93.0398 h 2.3438 M 353.1250,83.1755 h 2.3438 M 353.1250,73.3112 h 2.3438 M 353.1250,53.5827 h 2.3438 "/></g><g stroke-width="0.4"><path d="M 353.1250,359.3750 h 3.9062 M 353.1250,300.1894 h 3.9062 M 353.1250,241.0038 h 3.9062 M 353.1250,181.8182 h 3.9062 M 353.1250,122.6326 h 3.9062 M 353.1250,63.4470 h 3.9062 "/></g><g stroke-width="0.4"><path d="M 38.2813,349.5107 h 2.3438 M 38.2813,339.6465 h 2.3438 M 38.2813,329.7822 h 2.3438 M 38.2813,319.9179 h 2.3438 M 38.2813,310.0537 h 2.3438 M 38.2813,290.3251 h 2.3438 M 38.2813,280.4609 h 2.3438 M 38.2813,270.5966 h 2.3438 M 38.2813,260.7323 h 2.3438 M 38.2813,250.8681 h 2.3438 M 38.2813,231.1395 h 2.3438 M 38.2813,221.2753 h 2.3438 M 38.2813,211.4110 h 2.3438 M 38.2813,201.5467 h 2.3438 M 38.2813,191.6824 h 2.3438 M 38.2813,171.9539 h 2.3438 M 38.2813,162.0896 h 2.3438 M 38.2813,152.2254 h 2.3438 M 38.2813,142.3611 h 2.3438 M 38.2813,132.4968 h 2.3438 M 38.2813,112.7683 h 2.3438 M 38.2813,102.9040 h 2.3438 M 38.2813,93.0398 h 2.3438 M 38.2813,83.1755 h 2.3438 M 38.2813,73.3112 h 2.3438 M 38.2813,53.5827 h 2.3438 "/></g><g stroke-width="0.4"><path d="M 36.7188,359.3750 h 3.9062 M 36.7188,300.1894 h 3.9062 M 36.7188,241.0038 h 3.9062 M 36.7188,181.8182 h 3.9062 M 36.7188,122.6326 h 3.9062 M 36.7188,63.4470 h 3.9062 "/></g><g fill-opacity="1.0" font-size="11.0px" fill="rgb(0,0,0)"><text dominant-baseline="middle" transform="matrix(1.0000,0.0000,0.0000,1.0000,31.2500,63.4470)" stroke="none" text-anchor="end">12.5</text></g><g fill-opacity="1.0" font-size="11.0px" fill="rgb(0,0,0)"><text dominant-baseline="middle" transform="matrix(1.0000,0.0000,0.0000,1.0000,31.2500,122.6326)" stroke="none" text-anchor="end">10.0</text></g><g fill-opacity="1.0" font-size="11.0px" fill="rgb(0,0,0)"><text dominant-baseline="middle" transform="matrix(1.0000,0.0000,0.0000,1.0000,31.2500,181.8182)" stroke="none" text-anchor="end">7.5</text></g><g fill-opacity="1.0" font-size="11.0px" fill="rgb(0,0,0)"><text dominant-baseline="middle" transform="matrix(1.0000,0.0000,0.0000,1.0000,31.2500,241.0038)" stroke="none" text-anchor="end">5.0</text></g><g fill-opacity="1.0" font-size="11.0px" fill="rgb(0,0,0)"><text dominant-baseline="middle" transform="matrix(1.0000,0.0000,0.0000,1.0000,31.2500,300.1894)" stroke="none" text-anchor="end">2.5</text></g><g fill-opacity="1.0" font-size="11.0px" fill="rgb(0,0,0)"><text dominant-baseline="middle" transform="matrix(1.0000,0.0000,0.0000,1.0000,31.2500,359.3750)" stroke="none" text-anchor="end">0.0</text></g><g stroke-linecap="square"><path d="M 40.6250,359.3750 h 312.5000 M 40.6250,46.8750 h 312.5000 "/></g><g stroke-width="0.4"><path d="M 81.9853,46.8750 v -3.9062 M 158.5784,46.8750 v -3.9062 M 235.1716,46.8750 v -3.9062 M 311.7647,46.8750 v -3.9062 "/></g><g stroke-width="0.4"><path d="M 81.9853,363.2812 v -3.9062 M 158.5784,363.2812 v -3.9062 M 235.1716,363.2812 v -3.9062 M 311.7647,363.2812 v -3.9062 "/></g><g fill-opacity="1.0" font-size="11.0px" fill="rgb(0,0,0)"><text dominant-baseline="text-before-edge" transform="matrix(1.0000,0.0000,0.0000,1.0000,311.7647,368.7500)" stroke="none" text-anchor="middle">beans</text></g><g fill-opacity="1.0" font-size="11.0px" fill="rgb(0,0,0)"><text dominant-baseline="text-before-edge" transform="matrix(1.0000,0.0000,0.0000,1.0000,235.1716,368.7500)" stroke="none" text-anchor="middle">sausage</text></g><g fill-opacity="1.0" font-size="11.0px" fill="rgb(0,0,0)"><text dominant-baseline="text-before-edge" transform="matrix(1.0000,0.0000,0.0000,1.0000,158.5784,368.7500)" stroke="none" text-anchor="middle">bacon</text></g><g fill-opacity="1.0" font-size="11.0px" fill="rgb(0,0,0)"><text dominant-baseline="text-before-edge" transform="matrix(1.0000,0.0000,0.0000,1.0000,81.9853,368.7500)" stroke="none" text-anchor="middle">eggs</text></g><g fill-opacity="1.0" font-size="11.0px" fill="rgb(0,0,0)"><text dominant-baseline="text-after-edge" transform="matrix(1.0000,0.0000,0.0000,1.0000,196.8750,31.2500)" stroke="none" text-anchor="middle"></text></g></svg>