<svg xmlns="http://www.w3.org/2000/svg" height="474.5020" stroke-opacity="1" viewBox="0 0 600 475" font-size="1" width="600.0000" xmlns:xlink="http://www.w3.org/1999/xlink" stroke="rgb(0,0,0)" version="1.1"><defs></defs><g stroke-opacity="1.0" fill-opacity="1.0" stroke="rgb(77,175,74)" stroke-width="1.0" fill="rgb(114,185,112)"><path d="M 391.4343,178.0930 l -0.5976,-1.0351 l -0.5976,1.0351 Z"/></g><g stroke-opacity="1.0" fill-opacity="1.0" stroke="rgb(77,175,74)" stroke-width="1.0" fill="rgb(114,185,112)"><path d="M 361.5538,382.9877 l -0.5976,-1.0351 l -0.5976,1.0351 Z"/></g><g stroke-opacity="1.0" fill-opacity="1.0" stroke="rgb(77,175,74)" stroke-width="1.0" fill="rgb(114,185,112)"><path d="M 242.0319,169.5557 l -0.5976,-1.0351 l -0.5976,1.0351 Z"/></g><g stroke-opacity="1.0" fill-opacity="1.0" stroke="rgb(77,175,74)" stroke-width="1.0" fill="rgb(114,185,112)"><path d="M 162.3506,374.4504 l -0.5976,-1.0351 l -0.5976,1.0351 Z"/></g><g stroke-opacity="1.0" fill-opacity="1.0" stroke="rgb(55,126,184)" stroke-width="1.0" fill="rgb(103,146,193)"><path d="M 217.1315,84.2629 l -0.0000,-1.1952 h -1.1952 l -0.0000,1.1952 Z"/></g><g stroke-opacity="1.0" fill-opacity="1.0" stroke="rgb(55,126,184)" stroke-width="1.0" fill="rgb(103,146,193)"><path d="M 202.1912,92.8002 l -0.0000,-1.1952 h -1.1952 l -0.0000,1.1952 Z"/></g><g stroke-opacity="1.0" fill-opacity="1.0" stroke="rgb(55,126,184)" stroke-width="1.0" fill="rgb(103,146,193)"><path d="M 142.4303,135.4866 l -0.0000,-1.1952 h -1.1952 l -0.0000,1.1952 Z"/></g><g stroke-opacity="1.0" fill-opacity="1.0" stroke="rgb(55,126,184)" stroke-width="1.0" fill="rgb(103,146,193)"><path d="M 92.6295,348.9186 l -0.0000,-1.1952 h -1.1952 l -0.0000,1.1952 Z"/></g><g stroke-opacity="1.0" fill-opacity="1.0" stroke="rgb(228,26,28)" stroke-width="1.0" fill="rgb(231,93,93)"><path d="M 391.4343,83.6653 c 0.0000,-0.3301 -0.2676,-0.5976 -0.5976 -0.5976c -0.3301,-0.0000 -0.5976,0.2676 -0.5976 0.5976c -0.0000,0.3301 0.2676,0.5976 0.5976 0.5976c 0.3301,0.0000 0.5976,-0.2676 0.5976 -0.5976Z"/></g><g stroke-opacity="1.0" fill-opacity="1.0" stroke="rgb(228,26,28)" stroke-width="1.0" fill="rgb(231,93,93)"><path d="M 361.5538,92.2026 c 0.0000,-0.3301 -0.2676,-0.5976 -0.5976 -0.5976c -0.3301,-0.0000 -0.5976,0.2676 -0.5976 0.5976c -0.0000,0.3301 0.2676,0.5976 0.5976 0.5976c 0.3301,0.0000 0.5976,-0.2676 0.5976 -0.5976Z"/></g><g stroke-opacity="1.0" fill-opacity="1.0" stroke="rgb(228,26,28)" stroke-width="1.0" fill="rgb(231,93,93)"><path d="M 242.0319,134.8890 c 0.0000,-0.3301 -0.2676,-0.5976 -0.5976 -0.5976c -0.3301,-0.0000 -0.5976,0.2676 -0.5976 0.5976c -0.0000,0.3301 0.2676,0.5976 0.5976 0.5976c 0.3301,0.0000 0.5976,-0.2676 0.5976 -0.5976Z"/></g><g stroke-opacity="1.0" fill-opacity="1.0" stroke="rgb(228,26,28)" stroke-width="1.0" fill="rgb(231,93,93)"><path d="M 142.4303,348.3210 c 0.0000,-0.3301 -0.2676,-0.5976 -0.5976 -0.5976c -0.3301,-0.0000 -0.5976,0.2676 -0.5976 0.5976c -0.0000,0.3301 0.2676,0.5976 0.5976 0.5976c 0.3301,0.0000 0.5976,-0.2676 0.5976 -0.5976Z"/></g><g stroke-width="0.1"><path d="M 62.1514,391.0074 h 358.5657 M 62.1514,348.3210 h 358.5657 M 62.1514,305.6346 h 358.5657 M 62.1514,262.9482 h 358.5657 M 62.1514,220.2618 h 358.5657 M 62.1514,177.5754 h 358.5657 M 62.1514,134.8890 h 358.5657 M 62.1514,92.2026 h 358.5657 "/></g><g stroke-linecap="square"><path d="M 62.1514,412.3506 v -358.5657 M 420.7171,412.3506 v -358.5657 "/></g><g stroke-width="0.4"><path d="M 420.7171,401.6790 h 3.5857 M 420.7171,380.3358 h 3.5857 M 420.7171,369.6642 h 3.5857 M 420.7171,358.9926 h 3.5857 M 420.7171,337.6494 h 3.5857 M 420.7171,326.9778 h 3.5857 M 420.7171,316.3062 h 3.5857 M 420.7171,294.9630 h 3.5857 M 420.7171,284.2914 h 3.5857 M 420.7171,273.6198 h 3.5857 M 420.7171,252.2766 h 3.5857 M 420.7171,241.6050 h 3.5857 M 420.7171,230.9334 h 3.5857 M 420.7171,209.5902 h 3.5857 M 420.7171,198.9186 h 3.5857 M 420.7171,188.2470 h 3.5857 M 420.7171,166.9038 h 3.5857 M 420.7171,156.2322 h 3.5857 M 420.7171,145.5606 h 3.5857 M 420.7171,124.2174 h 3.5857 M 420.7171,113.5458 h 3.5857 M 420.7171,102.8742 h 3.5857 M 420.7171,81.5310 h 3.5857 M 420.7171,70.8594 h 3.5857 M 420.7171,60.1878 h 3.5857 "/></g><g stroke-width="0.4"><path d="M 420.7171,391.0074 h 5.9761 M 420.7171,348.3210 h 5.9761 M 420.7171,305.6346 h 5.9761 M 420.7171,262.9482 h 5.9761 M 420.7171,220.2618 h 5.9761 M 420.7171,177.5754 h 5.9761 M 420.7171,134.8890 h 5.9761 M 420.7171,92.2026 h 5.9761 "/></g><g stroke-width="0.4"><path d="M 58.5657,401.6790 h 3.5857 M 58.5657,380.3358 h 3.5857 M 58.5657,369.6642 h 3.5857 M 58.5657,358.9926 h 3.5857 M 58.5657,337.6494 h 3.5857 M 58.5657,326.9778 h 3.5857 M 58.5657,316.3062 h 3.5857 M 58.5657,294.9630 h 3.5857 M 58.5657,284.2914 h 3.5857 M 58.5657,273.6198 h 3.5857 M 58.5657,252.2766 h 3.5857 M 58.5657,241.6050 h 3.5857 M 58.5657,230.9334 h 3.5857 M 58.5657,209.5902 h 3.5857 M 58.5657,198.9186 h 3.5857 M 58.5657,188.2470 h 3.5857 M 58.5657,166.9038 h 3.5857 M 58.5657,156.2322 h 3.5857 M 58.5657,145.5606 h 3.5857 M 58.5657,124.2174 h 3.5857 M 58.5657,113.5458 h 3.5857 M 58.5657,102.8742 h 3.5857 M 58.5657,81.5310 h 3.5857 M 58.5657,70.8594 h 3.5857 M 58.5657,60.1878 h 3.5857 "/></g><g stroke-width="0.4"><path d="M 56.1753,391.0074 h 5.9761 M 56.1753,348.3210 h 5.9761 M 56.1753,305.6346 h 5.9761 M 56.1753,262.9482 h 5.9761 M 56.1753,220.2618 h 5.9761 M 56.1753,177.5754 h 5.9761 M 56.1753,134.8890 h 5.9761 M 56.1753,92.2026 h 5.9761 "/></g><g fill-opacity="1.0" font-size="11.0px" fill="rgb(0,0,0)"><text dominant-baseline="middle" transform="matrix(1.0000,0.0000,0.0000,1.0000,47.8088,92.2026)" stroke="none" text-anchor="end">6.0</text></g><g fill-opacity="1.0" font-size="11.0px" fill="rgb(0,0,0)"><text dominant-baseline="middle" transform="matrix(1.0000,0.0000,0.0000,1.0000,47.8088,134.8890)" stroke="none" text-anchor="end">5.5</text></g><g fill-opacity="1.0" font-size="11.0px" fill="rgb(0,0,0)"><text dominant-baseline="middle" transform="matrix(1.0000,0.0000,0.0000,1.0000,47.8088,177.5754)" stroke="none" text-anchor="end">5.0</text></g><g fill-opacity="1.0" font-size="11.0px" fill="rgb(0,0,0)"><text dominant-baseline="middle" transform="matrix(1.0000,0.0000,0.0000,1.0000,47.8088,220.2618)" stroke="none" text-anchor="end">4.5</text></g><g fill-opacity="1.0" font-size="11.0px" fill="rgb(0,0,0)"><text dominant-baseline="middle" transform="matrix(1.0000,0.0000,0.0000,1.0000,47.8088,262.9482)" stroke="none" text-anchor="end">4.0</text></g><g fill-opacity="1.0" font-size="11.0px" fill="rgb(0,0,0)"><text dominant-baseline="middle" transform="matrix(1.0000,0.0000,0.0000,1.0000,47.8088,305.6346)" stroke="none" text-anchor="end">3.5</text></g><g fill-opacity="1.0" font-size="11.0px" fill="rgb(0,0,0)"><text dominant-baseline="middle" transform="matrix(1.0000,0.0000,0.0000,1.0000,47.8088,348.3210)" stroke="none" text-anchor="end">3.0</text></g><g fill-opacity="1.0" font-size="11.0px" fill="rgb(0,0,0)"><text dominant-baseline="middle" transform="matrix(1.0000,0.0000,0.0000,1.0000,47.8088,391.0074)" stroke="none" text-anchor="end">2.5</text></g><g stroke-width="0.1"><path d="M 92.0319,412.3506 v -358.5657 M 141.8327,412.3506 v -358.5657 M 191.6335,412.3506 v -358.5657 M 241.4343,412.3506 v -358.5657 M 291.2351,412.3506 v -358.5657 M 341.0359,412.3506 v -358.5657 M 390.8367,412.3506 v -358.5657 "/></g><g stroke-linecap="square"><path d="M 62.1514,412.3506 h 358.5657 M 62.1514,53.7849 h 358.5657 "/></g><g stroke-width="0.4"><path d="M 67.1315,53.7849 v -3.5857 M 79.5817,53.7849 v -3.5857 M 104.4821,53.7849 v -3.5857 M 116.9323,53.7849 v -3.5857 M 129.3825,53.7849 v -3.5857 M 154.2829,53.7849 v -3.5857 M 166.7331,53.7849 v -3.5857 M 179.1833,53.7849 v -3.5857 M 204.0837,53.7849 v -3.5857 M 216.5339,53.7849 v -3.5857 M 228.9841,53.7849 v -3.5857 M 253.8845,53.7849 v -3.5857 M 266.3347,53.7849 v -3.5857 M 278.7849,53.7849 v -3.5857 M 303.6853,53.7849 v -3.5857 M 316.1355,53.7849 v -3.5857 M 328.5857,53.7849 v -3.5857 M 353.4861,53.7849 v -3.5857 M 365.9363,53.7849 v -3.5857 M 378.3865,53.7849 v -3.5857 M 403.2869,53.7849 v -3.5857 M 415.7371,53.7849 v -3.5857 "/></g><g stroke-width="0.4"><path d="M 92.0319,53.7849 v -5.9761 M 141.8327,53.7849 v -5.9761 M 191.6335,53.7849 v -5.9761 M 241.4343,53.7849 v -5.9761 M 291.2351,53.7849 v -5.9761 M 341.0359,53.7849 v -5.9761 M 390.8367,53.7849 v -5.9761 "/></g><g stroke-width="0.4"><path d="M 67.1315,415.9363 v -3.5857 M 79.5817,415.9363 v -3.5857 M 104.4821,415.9363 v -3.5857 M 116.9323,415.9363 v -3.5857 M 129.3825,415.9363 v -3.5857 M 154.2829,415.9363 v -3.5857 M 166.7331,415.9363 v -3.5857 M 179.1833,415.9363 v -3.5857 M 204.0837,415.9363 v -3.5857 M 216.5339,415.9363 v -3.5857 M 228.9841,415.9363 v -3.5857 M 253.8845,415.9363 v -3.5857 M 266.3347,415.9363 v -3.5857 M 278.7849,415.9363 v -3.5857 M 303.6853,415.9363 v -3.5857 M 316.1355,415.9363 v -3.5857 M 328.5857,415.9363 v -3.5857 M 353.4861,415.9363 v -3.5857 M 365.9363,415.9363 v -3.5857 M 378.3865,415.9363 v -3.5857 M 403.2869,415.9363 v -3.5857 M 415.7371,415.9363 v -3.5857 "/></g><g stroke-width="0.4"><path d="M 92.0319,418.3267 v -5.9761 M 141.8327,418.3267 v -5.9761 M 191.6335,418.3267 v -5.9761 M 241.4343,418.3267 v -5.9761 M 291.2351,418.3267 v -5.9761 M 341.0359,418.3267 v -5.9761 M 390.8367,418.3267 v -5.9761 "/></g><g fill-opacity="1.0" font-size="11.0px" fill="rgb(0,0,0)"><text dominant-baseline="text-before-edge" transform="matrix(1.0000,0.0000,0.0000,1.0000,390.8367,426.6932)" stroke="none" text-anchor="middle">3.5</text></g><g fill-opacity="1.0" font-size="11.0px" fill="rgb(0,0,0)"><text dominant-baseline="text-before-edge" transform="matrix(1.0000,0.0000,0.0000,1.0000,341.0359,426.6932)" stroke="none" text-anchor="middle">3.0</text></g><g fill-opacity="1.0" font-size="11.0px" fill="rgb(0,0,0)"><text dominant-baseline="text-before-edge" transform="matrix(1.0000,0.0000,0.0000,1.0000,291.2351,426.6932)" stroke="none" text-anchor="middle">2.5</text></g><g fill-opacity="1.0" font-size="11.0px" fill="rgb(0,0,0)"><text dominant-baseline="text-before-edge" transform="matrix(1.0000,0.0000,0.0000,1.0000,241.4343,426.6932)" stroke="none" text-anchor="middle">2.0</text></g><g fill-opacity="1.0" font-size="11.0px" fill="rgb(0,0,0)"><text dominant-baseline="text-before-edge" transform="matrix(1.0000,0.0000,0.0000,1.0000,191.6335,426.6932)" stroke="none" text-anchor="middle">1.5</text></g><g fill-opacity="1.0" font-size="11.0px" fill="rgb(0,0,0)"><text dominant-baseline="text-before-edge" transform="matrix(1.0000,0.0000,0.0000,1.0000,141.8327,426.6932)" stroke="none" text-anchor="middle">1.0</text></g><g fill-opacity="1.0" font-size="11.0px" fill="rgb(0,0,0)"><text dominant-baseline="text-before-edge" transform="matrix(1.0000,0.0000,0.0000,1.0000,92.0319,426.6932)" stroke="none" text-anchor="middle">0.5</text></g><g><path d="M 516.3347,125.4980 l -0.0000,-71.7131 h -71.7131 l -0.0000,71.7131 Z"/></g><g fill-opacity="1.0" font-size="8.0px" fill="rgb(0,0,0)"><text dominant-baseline="middle" transform="matrix(1.0000,0.0000,0.0000,1.0000,480.4781,113.5458)" stroke="none" text-anchor="start">data 3</text></g><g stroke-opacity="1.0" fill-opacity="1.0" stroke="rgb(77,175,74)" stroke-width="1.0" fill="rgb(114,185,112)"><path d="M 463.1474,114.0634 l -0.5976,-1.0351 l -0.5976,1.0351 Z"/></g><g fill-opacity="1.0" font-size="8.0px" fill="rgb(0,0,0)"><text dominant-baseline="middle" transform="matrix(1.0000,0.0000,0.0000,1.0000,480.4781,89.6414)" stroke="none" text-anchor="start">data 2</text></g><g stroke-opacity="1.0" fill-opacity="1.0" stroke="rgb(55,126,184)" stroke-width="1.0" fill="rgb(103,146,193)"><path d="M 463.1474,90.2390 l -0.0000,-1.1952 h -1.1952 l -0.0000,1.1952 Z"/></g><g fill-opacity="1.0" font-size="8.0px" fill="rgb(0,0,0)"><text dominant-baseline="middle" transform="matrix(1.0000,0.0000,0.0000,1.0000,480.4781,65.7371)" stroke="none" text-anchor="start">data 1</text></g><g stroke-opacity="1.0" fill-opacity="1.0" stroke="rgb(228,26,28)" stroke-width="1.0" fill="rgb(231,93,93)"><path d="M 463.1474,65.7371 c 0.0000,-0.3301 -0.2676,-0.5976 -0.5976 -0.5976c -0.3301,-0.0000 -0.5976,0.2676 -0.5976 0.5976c -0.0000,0.3301 0.2676,0.5976 0.5976 0.5976c 0.3301,0.0000 0.5976,-0.2676 0.5976 -0.5976Z"/></g></svg>