<svg xmlns="http://www.w3.org/2000/svg" height="400.0000" stroke-opacity="1" viewBox="0 0 388 400" font-size="1" width="388.2812" xmlns:xlink="http://www.w3.org/1999/xlink" stroke="rgb(0,0,0)" version="1.1"><defs></defs><g stroke-opacity="1.0" fill-opacity="1.0" stroke="rgb(228,26,28)" stroke-width="1.0" fill="rgb(231,93,93)"><defs><clipPath id="myClip1"><path d="M 353.1250,359.3750 l -0.0000,-312.5000 h -312.5000 l -0.0000,312.5000 Z"/></clipPath></defs><g clip-path="url(#myClip1)"><path d="M 40.6250,127.7412 v -54.8246 h 71.0227 v 54.8246 Z"/></g></g><g stroke-opacity="1.0" fill-opacity="1.0" stroke="rgb(228,26,28)" stroke-width="1.0" fill="rgb(231,93,93)"><defs><clipPath id="myClip2"><path d="M 353.1250,359.3750 l -0.0000,-312.5000 h -312.5000 l -0.0000,312.5000 Z"/></clipPath></defs><g clip-path="url(#myClip2)"><path d="M 40.6250,196.2719 v -54.8246 h 213.0682 v 54.8246 Z"/></g></g><g stroke-opacity="1.0" fill-opacity="1.0" stroke="rgb(228,26,28)" stroke-width="1.0" fill="rgb(231,93,93)"><defs><clipPath id="myClip3"><path d="M 353.1250,359.3750 l -0.0000,-312.5000 h -312.5000 l -0.0000,312.5000 Z"/></clipPath></defs><g clip-path="url(#myClip3)"><path d="M 40.6250,264.8026 v -54.8246 h 118.3712 v 54.8246 Z"/></g></g><g stroke-opacity="1.0" fill-opacity="1.0" stroke="rgb(228,26,28)" stroke-width="1.0" fill="rgb(231,93,93)"><defs><clipPath id="myClip4"><path d="M 353.1250,359.3750 l -0.0000,-312.5000 h -312.5000 l -0.0000,312.5000 Z"/></clipPath></defs><g clip-path="url(#myClip4)"><path d="M 40.6250,333.3333 v -54.8246 h 284.0909 v 54.8246 Z"/></g></g><g stroke-linecap="square"><path d="M 40.6250,359.3750 v -312.5000 M 353.1250,359.3750 v -312.5000 "/></g><g stroke-width="0.4"><path d="M 353.1250,305.9211 h 3.9062 M 353.1250,237.3904 h 3.9062 M 353.1250,168.8596 h 3.9062 M 353.1250,100.3289 h 3.9062 "/></g><g stroke-width="0.4"><path d="M 36.7188,305.9211 h 3.9062 M 36.7188,237.3904 h 3.9062 M 36.7188,168.8596 h 3.9062 M 36.7188,100.3289 h 3.9062 "/></g><g fill-opacity="1.0" font-size="11.0px" fill="rgb(0,0,0)"><text dominant-baseline="middle" transform="matrix(1.0000,0.0000,0.0000,1.0000,31.2500,100.3289)" stroke="none" text-anchor="end">beans</text></g><g fill-opacity="1.0" font-size="11.0px" fill="rgb(0,0,0)"><text dominant-baseline="middle" transform="matrix(1.0000,0.0000,0.0000,1.0000,31.2500,168.8596)" stroke="none" text-anchor="end">sausage</text></g><g fill-opacity="1.0" font-size="11.0px" fill="rgb(0,0,0)"><text dominant-baseline="middle" transform="matrix(1.0000,0.0000,0.0000,1.0000,31.2500,237.3904)" stroke="none" text-anchor="end">bacon</text></g><g fill-opacity="1.0" font-size="11.0px" fill="rgb(0,0,0)"><text dominant-baseline="middle" transform="matrix(1.0000,0.0000,0.0000,1.0000,31.2500,305.9211)" stroke="none" text-anchor="end">eggs</text></g><g stroke-linecap="square"><path d="M 40.6250,359.3750 h 312.5000 M 40.6250,46.8750 h 312.5000 "/></g><g stroke-width="0.4"><path d="M 50.4893,46.8750 v -2.3438 M 60.3535,46.8750 v -2.3438 M 70.2178,46.8750 v -2.3438 M 80.0821,46.8750 v -2.3438 M 89.9463,46.8750 v -2.3438 M 109.6749,46.8750 v -2.3438 M 119.5391,46.8750 v -2.3438 M 129.4034,46.8750 v -2.3438 M 139.2677,46.8750 v -2.3438 M 149.1319,46.8750 v -2.3438 M 168.8605,46.8750 v -2.3438 M 178.7247,46.8750 v -2.3438 M 188.5890,46.8750 v -2.3438 M 198.4533,46.8750 v -2.3438 M 208.3176,46.8750 v -2.3438 M 228.0461,46.8750 v -2.3438 M 237.9104,46.8750 v -2.3438 M 247.7746,46.8750 v -2.3438 M 257.6389,46.8750 v -2.3438 M 267.5032,46.8750 v -2.3438 M 287.2317,46.8750 v -2.3438 M 297.0960,46.8750 v -2.3438 M 306.9602,46.8750 v -2.3438 M 316.8245,46.8750 v -2.3438 M 326.6888,46.8750 v -2.3438 M 346.4173,46.8750 v -2.3438 "/></g><g stroke-width="0.4"><path d="M 40.6250,46.8750 v -3.9062 M 99.8106,46.8750 v -3.9062 M 158.9962,46.8750 v -3.9062 M 218.1818,46.8750 v -3.9062 M 277.3674,46.8750 v -3.9062 M 336.5530,46.8750 v -3.9062 "/></g><g stroke-width="0.4"><path d="M 50.4893,361.7188 v -2.3438 M 60.3535,361.7188 v -2.3438 M 70.2178,361.7188 v -2.3438 M 80.0821,361.7188 v -2.3438 M 89.9463,361.7188 v -2.3438 M 109.6749,361.7188 v -2.3438 M 119.5391,361.7188 v -2.3438 M 129.4034,361.7188 v -2.3438 M 139.2677,361.7188 v -2.3438 M 149.1319,361.7188 v -2.3438 M 168.8605,361.7188 v -2.3438 M 178.7247,361.7188 v -2.3438 M 188.5890,361.7188 v -2.3438 M 198.4533,361.7188 v -2.3438 M 208.3176,361.7188 v -2.3438 M 228.0461,361.7188 v -2.3438 M 237.9104,361.7188 v -2.3438 M 247.7746,361.7188 v -2.3438 M 257.6389,361.7188 v -2.3438 M 267.5032,361.7188 v -2.3438 M 287.2317,361.7188 v -2.3438 M 297.0960,361.7188 v -2.3438 M 306.9602,361.7188 v -2.3438 M 316.8245,361.7188 v -2.3438 M 326.6888,361.7188 v -2.3438 M 346.4173,361.7188 v -2.3438 "/></g><g stroke-width="0.4"><path d="M 40.6250,363.2812 v -3.9062 M 99.8106,363.2812 v -3.9062 M 158.9962,363.2812 v -3.9062 M 218.1818,363.2812 v -3.9062 M 277.3674,363.2812 v -3.9062 M 336.5530,363.2812 v -3.9062 "/></g><g fill-opacity="1.0" font-size="11.0px" fill="rgb(0,0,0)"><text dominant-baseline="text-before-edge" transform="matrix(1.0000,0.0000,0.0000,1.0000,336.5530,368.7500)" stroke="none" text-anchor="middle">12.5</text></g><g fill-opacity="1.0" font-size="11.0px" fill="rgb(0,0,0)"><text dominant-baseline="text-before-edge" transform="matrix(1.0000,0.0000,0.0000,1.0000,277.3674,368.7500)" stroke="none" text-anchor="middle">10.0</text></g><g fill-opacity="1.0" font-size="11.0px" fill="rgb(0,0,0)"><text dominant-baseline="text-before-edge" transform="matrix(1.0000,0.0000,0.0000,1.0000,218.1818,368.7500)" stroke="none" text-anchor="middle">7.5</text></g><g fill-opacity="1.0" font-size="11.0px" fill="rgb(0,0,0)"><text dominant-baseline="text-before-edge" transform="matrix(1.0000,0.0000,0.0000,1.0000,158.9962,368.7500)" stroke="none" text-anchor="middle">5.0</text></g><g fill-opacity="1.0" font-size="11.0px" fill="rgb(0,0,0)"><text dominant-baseline="text-before-edge" transform="matrix(1.0000,0.0000,0.0000,1.0000,99.8106,368.7500)" stroke="none" text-anchor="middle">2.5</text></g><g fill-opacity="1.0" font-size="11.0px" fill="rgb(0,0,0)"><text dominant-baseline="text-before-edge" transform="matrix(1.0000,0.0000,0.0000,1.0000,40.6250,368.7500)" stroke="none" text-anchor="middle">0.0</text></g><g fill-opacity="1.0" font-size="11.0px" fill="rgb(0,0,0)"><text dominant-baseline="text-after-edge" transform="matrix(1.0000,0.0000,0.0000,1.0000,196.8750,31.2500)" stroke="none" text-anchor="middle"></text></g></svg>