<svg xmlns="http://www.w3.org/2000/svg" height="350.0000" stroke-opacity="1" viewBox="0 0 340 350" font-size="1" width="339.7461" xmlns:xlink="http://www.w3.org/1999/xlink" stroke="rgb(0,0,0)" version="1.1"><defs></defs><g stroke-width="0.8"><path d="M 35.5469,314.4531 h 273.4375 M 35.5469,248.1652 h 273.4375 M 35.5469,181.8774 h 273.4375 M 35.5469,115.5895 h 273.4375 M 35.5469,49.3016 h 273.4375 "/></g><g stroke-linecap="square"><path d="M 35.5469,314.4531 v -273.4375 M 308.9844,314.4531 v -273.4375 "/></g><g stroke-width="0.4"><path d="M 308.9844,303.4051 h 2.0508 M 308.9844,292.3572 h 2.0508 M 308.9844,281.3092 h 2.0508 M 308.9844,270.2612 h 2.0508 M 308.9844,259.2132 h 2.0508 M 308.9844,237.1173 h 2.0508 M 308.9844,226.0693 h 2.0508 M 308.9844,215.0213 h 2.0508 M 308.9844,203.9733 h 2.0508 M 308.9844,192.9253 h 2.0508 M 308.9844,170.8294 h 2.0508 M 308.9844,159.7814 h 2.0508 M 308.9844,148.7334 h 2.0508 M 308.9844,137.6854 h 2.0508 M 308.9844,126.6375 h 2.0508 M 308.9844,104.5415 h 2.0508 M 308.9844,93.4935 h 2.0508 M 308.9844,82.4455 h 2.0508 M 308.9844,71.3976 h 2.0508 M 308.9844,60.3496 h 2.0508 "/></g><g stroke-width="0.4"><path d="M 308.9844,314.4531 h 3.4180 M 308.9844,248.1652 h 3.4180 M 308.9844,181.8774 h 3.4180 M 308.9844,115.5895 h 3.4180 M 308.9844,49.3016 h 3.4180 "/></g><g stroke-width="0.4"><path d="M 33.4961,303.4051 h 2.0508 M 33.4961,292.3572 h 2.0508 M 33.4961,281.3092 h 2.0508 M 33.4961,270.2612 h 2.0508 M 33.4961,259.2132 h 2.0508 M 33.4961,237.1173 h 2.0508 M 33.4961,226.0693 h 2.0508 M 33.4961,215.0213 h 2.0508 M 33.4961,203.9733 h 2.0508 M 33.4961,192.9253 h 2.0508 M 33.4961,170.8294 h 2.0508 M 33.4961,159.7814 h 2.0508 M 33.4961,148.7334 h 2.0508 M 33.4961,137.6854 h 2.0508 M 33.4961,126.6375 h 2.0508 M 33.4961,104.5415 h 2.0508 M 33.4961,93.4935 h 2.0508 M 33.4961,82.4455 h 2.0508 M 33.4961,71.3976 h 2.0508 M 33.4961,60.3496 h 2.0508 "/></g><g stroke-width="0.4"><path d="M 32.1289,314.4531 h 3.4180 M 32.1289,248.1652 h 3.4180 M 32.1289,181.8774 h 3.4180 M 32.1289,115.5895 h 3.4180 M 32.1289,49.3016 h 3.4180 "/></g><g fill-opacity="1.0" font-size="11.0px" fill="rgb(0,0,0)"><text dominant-baseline="middle" transform="matrix(1.0000,0.0000,0.0000,1.0000,27.3438,49.3016)" stroke="none" text-anchor="end">80.0</text></g><g fill-opacity="1.0" font-size="11.0px" fill="rgb(0,0,0)"><text dominant-baseline="middle" transform="matrix(1.0000,0.0000,0.0000,1.0000,27.3438,115.5895)" stroke="none" text-anchor="end">60.0</text></g><g fill-opacity="1.0" font-size="11.0px" fill="rgb(0,0,0)"><text dominant-baseline="middle" transform="matrix(1.0000,0.0000,0.0000,1.0000,27.3438,181.8774)" stroke="none" text-anchor="end">40.0</text></g><g fill-opacity="1.0" font-size="11.0px" fill="rgb(0,0,0)"><text dominant-baseline="middle" transform="matrix(1.0000,0.0000,0.0000,1.0000,27.3438,248.1652)" stroke="none" text-anchor="end">20.0</text></g><g fill-opacity="1.0" font-size="11.0px" fill="rgb(0,0,0)"><text dominant-baseline="middle" transform="matrix(1.0000,0.0000,0.0000,1.0000,27.3438,314.4531)" stroke="none" text-anchor="end">0.0</text></g><g stroke-width="0.8"><path d="M 52.6367,314.4531 v -273.4375 M 109.6029,314.4531 v -273.4375 M 166.5690,314.4531 v -273.4375 M 223.5352,314.4531 v -273.4375 M 280.5013,314.4531 v -273.4375 "/></g><g stroke-linecap="square"><path d="M 35.5469,314.4531 h 273.4375 M 35.5469,41.0156 h 273.4375 "/></g><g stroke-width="0.4"><path d="M 43.1424,41.0156 v -2.0508 M 62.1311,41.0156 v -2.0508 M 71.6254,41.0156 v -2.0508 M 81.1198,41.0156 v -2.0508 M 90.6141,41.0156 v -2.0508 M 100.1085,41.0156 v -2.0508 M 119.0972,41.0156 v -2.0508 M 128.5916,41.0156 v -2.0508 M 138.0859,41.0156 v -2.0508 M 147.5803,41.0156 v -2.0508 M 157.0747,41.0156 v -2.0508 M 176.0634,41.0156 v -2.0508 M 185.5577,41.0156 v -2.0508 M 195.0521,41.0156 v -2.0508 M 204.5464,41.0156 v -2.0508 M 214.0408,41.0156 v -2.0508 M 233.0295,41.0156 v -2.0508 M 242.5239,41.0156 v -2.0508 M 252.0182,41.0156 v -2.0508 M 261.5126,41.0156 v -2.0508 M 271.0069,41.0156 v -2.0508 M 289.9957,41.0156 v -2.0508 M 299.4900,41.0156 v -2.0508 M 308.9844,41.0156 v -2.0508 "/></g><g stroke-width="0.4"><path d="M 52.6367,41.0156 v -3.4180 M 109.6029,41.0156 v -3.4180 M 166.5690,41.0156 v -3.4180 M 223.5352,41.0156 v -3.4180 M 280.5013,41.0156 v -3.4180 "/></g><g stroke-width="0.4"><path d="M 43.1424,316.5039 v -2.0508 M 62.1311,316.5039 v -2.0508 M 71.6254,316.5039 v -2.0508 M 81.1198,316.5039 v -2.0508 M 90.6141,316.5039 v -2.0508 M 100.1085,316.5039 v -2.0508 M 119.0972,316.5039 v -2.0508 M 128.5916,316.5039 v -2.0508 M 138.0859,316.5039 v -2.0508 M 147.5803,316.5039 v -2.0508 M 157.0747,316.5039 v -2.0508 M 176.0634,316.5039 v -2.0508 M 185.5577,316.5039 v -2.0508 M 195.0521,316.5039 v -2.0508 M 204.5464,316.5039 v -2.0508 M 214.0408,316.5039 v -2.0508 M 233.0295,316.5039 v -2.0508 M 242.5239,316.5039 v -2.0508 M 252.0182,316.5039 v -2.0508 M 261.5126,316.5039 v -2.0508 M 271.0069,316.5039 v -2.0508 M 289.9957,316.5039 v -2.0508 M 299.4900,316.5039 v -2.0508 M 308.9844,316.5039 v -2.0508 "/></g><g stroke-width="0.4"><path d="M 52.6367,317.8711 v -3.4180 M 109.6029,317.8711 v -3.4180 M 166.5690,317.8711 v -3.4180 M 223.5352,317.8711 v -3.4180 M 280.5013,317.8711 v -3.4180 "/></g><g fill-opacity="1.0" font-size="11.0px" fill="rgb(0,0,0)"><text dominant-baseline="text-before-edge" transform="matrix(1.0000,0.0000,0.0000,1.0000,280.5013,322.6562)" stroke="none" text-anchor="middle">8.0</text></g><g fill-opacity="1.0" font-size="11.0px" fill="rgb(0,0,0)"><text dominant-baseline="text-before-edge" transform="matrix(1.0000,0.0000,0.0000,1.0000,223.5352,322.6562)" stroke="none" text-anchor="middle">7.0</text></g><g fill-opacity="1.0" font-size="11.0px" fill="rgb(0,0,0)"><text dominant-baseline="text-before-edge" transform="matrix(1.0000,0.0000,0.0000,1.0000,166.5690,322.6562)" stroke="none" text-anchor="middle">6.0</text></g><g fill-opacity="1.0" font-size="11.0px" fill="rgb(0,0,0)"><text dominant-baseline="text-before-edge" transform="matrix(1.0000,0.0000,0.0000,1.0000,109.6029,322.6562)" stroke="none" text-anchor="middle">5.0</text></g><g fill-opacity="1.0" font-size="11.0px" fill="rgb(0,0,0)"><text dominant-baseline="text-before-edge" transform="matrix(1.0000,0.0000,0.0000,1.0000,52.6367,322.6562)" stroke="none" text-anchor="middle">4.0</text></g><g stroke-opacity="1.0" fill-opacity="1.0" stroke="rgb(228,26,28)" stroke-width="1.0" fill="rgb(231,93,93)"><defs><clipPath id="myClip1"><path d="M 308.9844,314.4531 l -0.0000,-273.4375 h -273.4375 l -0.0000,273.4375 Z"/></clipPath></defs><g clip-path="url(#myClip1)"><path d="M 263.4115,314.4531 h 22.7865 v -41.4299 h -22.7865 Z"/></g></g><g stroke-opacity="1.0" fill-opacity="1.0" stroke="rgb(228,26,28)" stroke-width="1.0" fill="rgb(231,93,93)"><defs><clipPath id="myClip2"><path d="M 308.9844,314.4531 l -0.0000,-273.4375 h -273.4375 l -0.0000,273.4375 Z"/></clipPath></defs><g clip-path="url(#myClip2)"><path d="M 240.6250,314.4531 h 22.7865 v -16.5720 h -22.7865 Z"/></g></g><g stroke-opacity="1.0" fill-opacity="1.0" stroke="rgb(228,26,28)" stroke-width="1.0" fill="rgb(231,93,93)"><defs><clipPath id="myClip3"><path d="M 308.9844,314.4531 l -0.0000,-273.4375 h -273.4375 l -0.0000,273.4375 Z"/></clipPath></defs><g clip-path="url(#myClip3)"><path d="M 217.8385,314.4531 h 22.7865 v -82.8598 h -22.7865 Z"/></g></g><g stroke-opacity="1.0" fill-opacity="1.0" stroke="rgb(228,26,28)" stroke-width="1.0" fill="rgb(231,93,93)"><defs><clipPath id="myClip4"><path d="M 308.9844,314.4531 l -0.0000,-273.4375 h -273.4375 l -0.0000,273.4375 Z"/></clipPath></defs><g clip-path="url(#myClip4)"><path d="M 195.0521,314.4531 h 22.7865 v -149.1477 h -22.7865 Z"/></g></g><g stroke-opacity="1.0" fill-opacity="1.0" stroke="rgb(228,26,28)" stroke-width="1.0" fill="rgb(231,93,93)"><defs><clipPath id="myClip5"><path d="M 308.9844,314.4531 l -0.0000,-273.4375 h -273.4375 l -0.0000,273.4375 Z"/></clipPath></defs><g clip-path="url(#myClip5)"><path d="M 172.2656,314.4531 h 22.7865 v -165.7197 h -22.7865 Z"/></g></g><g stroke-opacity="1.0" fill-opacity="1.0" stroke="rgb(228,26,28)" stroke-width="1.0" fill="rgb(231,93,93)"><defs><clipPath id="myClip6"><path d="M 308.9844,314.4531 l -0.0000,-273.4375 h -273.4375 l -0.0000,273.4375 Z"/></clipPath></defs><g clip-path="url(#myClip6)"><path d="M 149.4792,314.4531 h 22.7865 v -248.5795 h -22.7865 Z"/></g></g><g stroke-opacity="1.0" fill-opacity="1.0" stroke="rgb(228,26,28)" stroke-width="1.0" fill="rgb(231,93,93)"><defs><clipPath id="myClip7"><path d="M 308.9844,314.4531 l -0.0000,-273.4375 h -273.4375 l -0.0000,273.4375 Z"/></clipPath></defs><g clip-path="url(#myClip7)"><path d="M 126.6927,314.4531 h 22.7865 v -165.7197 h -22.7865 Z"/></g></g><g stroke-opacity="1.0" fill-opacity="1.0" stroke="rgb(228,26,28)" stroke-width="1.0" fill="rgb(231,93,93)"><defs><clipPath id="myClip8"><path d="M 308.9844,314.4531 l -0.0000,-273.4375 h -273.4375 l -0.0000,273.4375 Z"/></clipPath></defs><g clip-path="url(#myClip8)"><path d="M 103.9062,314.4531 h 22.7865 v -240.2936 h -22.7865 Z"/></g></g><g stroke-opacity="1.0" fill-opacity="1.0" stroke="rgb(228,26,28)" stroke-width="1.0" fill="rgb(231,93,93)"><defs><clipPath id="myClip9"><path d="M 308.9844,314.4531 l -0.0000,-273.4375 h -273.4375 l -0.0000,273.4375 Z"/></clipPath></defs><g clip-path="url(#myClip9)"><path d="M 81.1198,314.4531 h 22.7865 v -99.4318 h -22.7865 Z"/></g></g><g stroke-opacity="1.0" fill-opacity="1.0" stroke="rgb(228,26,28)" stroke-width="1.0" fill="rgb(231,93,93)"><defs><clipPath id="myClip10"><path d="M 308.9844,314.4531 l -0.0000,-273.4375 h -273.4375 l -0.0000,273.4375 Z"/></clipPath></defs><g clip-path="url(#myClip10)"><path d="M 58.3333,314.4531 h 22.7865 v -33.1439 h -22.7865 Z"/></g></g><g fill-opacity="1.0" font-size="11.0px" fill="rgb(0,0,0)"><text dominant-baseline="text-after-edge" transform="matrix(1.0000,0.0000,0.0000,1.0000,172.2656,27.3438)" stroke="none" text-anchor="middle"></text></g></svg>