<svg xmlns="http://www.w3.org/2000/svg" height="76.5099" stroke-opacity="1" viewBox="0 0 600 77" font-size="1" width="600.0000" xmlns:xlink="http://www.w3.org/1999/xlink" stroke="rgb(0,0,0)" version="1.1"><defs></defs><g stroke-opacity="1.0" stroke="rgb(153,153,153)" stroke-width="3.0"><path d="M 553.1872,38.2550 h 13.1783 "/></g><g stroke-opacity="1.0" fill-opacity="1.0" stroke="rgb(153,153,153)" stroke-width="1.0" fill="rgb(167,167,167)"><path d="M 550.1123,28.9922 l 9.6641,-28.9922 l 9.6641,28.9922 l 30.5596,0.2320 l -24.5869,18.1502 l 9.2228,29.1356 l -24.8596,-17.7748 l -24.8596,17.7748 l 9.2228,-29.1356 l -24.5869,-18.1502 Z"/></g><g stroke-opacity="1.0" stroke="rgb(247,129,191)" stroke-width="3.0"><path d="M 474.0877,38.2550 h 13.1783 "/></g><g stroke-opacity="1.0" fill-opacity="1.0" stroke="rgb(247,129,191)" stroke-width="1.0" fill="rgb(248,148,199)"><path d="M 492.7569,26.1749 l -0.0000,-24.1602 h -24.1602 l -0.0000,24.1602 l -24.1602,0.0000 l -0.0000,24.1602 l 24.1602,0.0000 l -0.0000,24.1602 l 24.1602,0.0000 l 0.0000,-24.1602 l 24.1602,0.0000 l 0.0000,-24.1602 Z"/></g><g stroke-opacity="1.0" stroke="rgb(166,86,40)" stroke-width="3.0"><path d="M 401.0442,38.2550 h 13.1783 "/></g><g stroke-opacity="1.0" fill-opacity="1.0" stroke="rgb(166,86,40)" stroke-width="1.0" fill="rgb(178,119,97)"><path d="M 407.6333,21.1711 l -17.0838,-17.0838 l -17.0838,17.0838 l 17.0838,17.0838 l -17.0838,17.0838 l 17.0838,17.0838 l 17.0838,-17.0838 l 17.0838,17.0838 l 17.0838,-17.0838 l -17.0838,-17.0838 l 17.0838,-17.0838 l -17.0838,-17.0838 Z"/></g><g stroke-opacity="1.0" stroke="rgb(255,127,0)" stroke-width="3.0"><path d="M 329.0581,38.2550 h 13.1783 "/></g><g stroke-opacity="1.0" fill-opacity="1.0" stroke="rgb(255,127,0)" stroke-width="1.0" fill="rgb(255,147,89)"><path d="M 357.3914,71.7157 l 13.4386,-41.3598 l -35.1828,-25.5618 l -35.1828,25.5618 l 13.4386,41.3598 Z"/></g><g stroke-opacity="1.0" stroke="rgb(152,78,163)" stroke-width="3.0"><path d="M 254.9995,38.2550 h 13.1783 "/></g><g stroke-opacity="1.0" fill-opacity="1.0" stroke="rgb(152,78,163)" stroke-width="1.0" fill="rgb(166,114,175)"><path d="M 297.8289,38.2550 l -36.2402,-36.2402 l -36.2402,36.2402 l 36.2402,36.2402 Z"/></g><g stroke-opacity="1.0" stroke="rgb(77,175,74)" stroke-width="3.0"><path d="M 179.8834,38.2550 h 13.1783 "/></g><g stroke-opacity="1.0" fill-opacity="1.0" stroke="rgb(77,175,74)" stroke-width="1.0" fill="rgb(114,185,112)"><path d="M 222.7127,69.6399 l -36.2402,-62.7699 l -36.2402,62.7699 Z"/></g><g stroke-opacity="1.0" stroke="rgb(55,126,184)" stroke-width="3.0"><path d="M 104.7672,38.2550 h 13.1783 "/></g><g stroke-opacity="1.0" fill-opacity="1.0" stroke="rgb(55,126,184)" stroke-width="1.0" fill="rgb(103,146,193)"><path d="M 147.5966,74.4952 l -0.0000,-72.4805 h -72.4805 l -0.0000,72.4805 Z"/></g><g stroke-opacity="1.0" stroke="rgb(228,26,28)" stroke-width="3.0"><path d="M 29.6511,38.2550 h 13.1783 "/></g><g stroke-opacity="1.0" fill-opacity="1.0" stroke="rgb(228,26,28)" stroke-width="1.0" fill="rgb(231,93,93)"><path d="M 72.4805,38.2550 c 0.0000,-20.0149 -16.2253,-36.2402 -36.2402 -36.2402c -20.0149,-0.0000 -36.2402,16.2253 -36.2402 36.2402c -0.0000,20.0149 16.2253,36.2402 36.2402 36.2402c 20.0149,0.0000 36.2402,-16.2253 36.2402 -36.2402Z"/></g></svg>