<svg xmlns="http://www.w3.org/2000/svg" height="350.0000" stroke-opacity="1" viewBox="0 0 340 350" font-size="1" width="339.7461" xmlns:xlink="http://www.w3.org/1999/xlink" stroke="rgb(0,0,0)" version="1.1"><defs></defs><g stroke-opacity="1.0" fill-opacity="1.0" stroke="rgb(228,26,28)" stroke-width="1.0" fill="rgb(231,93,93)"><defs><clipPath id="myClip1"><path d="M 308.9844,314.4531 l -0.0000,-273.4375 h -273.4375 l -0.0000,273.4375 Z"/></clipPath></defs><g clip-path="url(#myClip1)"><path d="M 263.4115,314.4531 h 22.7865 v -248.5795 h -22.7865 Z"/></g></g><g stroke-opacity="1.0" fill-opacity="1.0" stroke="rgb(228,26,28)" stroke-width="1.0" fill="rgb(231,93,93)"><defs><clipPath id="myClip2"><path d="M 308.9844,314.4531 l -0.0000,-273.4375 h -273.4375 l -0.0000,273.4375 Z"/></clipPath></defs><g clip-path="url(#myClip2)"><path d="M 240.6250,314.4531 h 22.7865 v -240.2936 h -22.7865 Z"/></g></g><g stroke-opacity="1.0" fill-opacity="1.0" stroke="rgb(228,26,28)" stroke-width="1.0" fill="rgb(231,93,93)"><defs><clipPath id="myClip3"><path d="M 308.9844,314.4531 l -0.0000,-273.4375 h -273.4375 l -0.0000,273.4375 Z"/></clipPath></defs><g clip-path="url(#myClip3)"><path d="M 217.8385,314.4531 h 22.7865 v -236.9792 h -22.7865 Z"/></g></g><g stroke-opacity="1.0" fill-opacity="1.0" stroke="rgb(228,26,28)" stroke-width="1.0" fill="rgb(231,93,93)"><defs><clipPath id="myClip4"><path d="M 308.9844,314.4531 l -0.0000,-273.4375 h -273.4375 l -0.0000,273.4375 Z"/></clipPath></defs><g clip-path="url(#myClip4)"><path d="M 195.0521,314.4531 h 22.7865 v -220.4072 h -22.7865 Z"/></g></g><g stroke-opacity="1.0" fill-opacity="1.0" stroke="rgb(228,26,28)" stroke-width="1.0" fill="rgb(231,93,93)"><defs><clipPath id="myClip5"><path d="M 308.9844,314.4531 l -0.0000,-273.4375 h -273.4375 l -0.0000,273.4375 Z"/></clipPath></defs><g clip-path="url(#myClip5)"><path d="M 172.2656,314.4531 h 22.7865 v -190.5777 h -22.7865 Z"/></g></g><g stroke-opacity="1.0" fill-opacity="1.0" stroke="rgb(228,26,28)" stroke-width="1.0" fill="rgb(231,93,93)"><defs><clipPath id="myClip6"><path d="M 308.9844,314.4531 l -0.0000,-273.4375 h -273.4375 l -0.0000,273.4375 Z"/></clipPath></defs><g clip-path="url(#myClip6)"><path d="M 149.4792,314.4531 h 22.7865 v -157.4337 h -22.7865 Z"/></g></g><g stroke-opacity="1.0" fill-opacity="1.0" stroke="rgb(228,26,28)" stroke-width="1.0" fill="rgb(231,93,93)"><defs><clipPath id="myClip7"><path d="M 308.9844,314.4531 l -0.0000,-273.4375 h -273.4375 l -0.0000,273.4375 Z"/></clipPath></defs><g clip-path="url(#myClip7)"><path d="M 126.6927,314.4531 h 22.7865 v -107.7178 h -22.7865 Z"/></g></g><g stroke-opacity="1.0" fill-opacity="1.0" stroke="rgb(228,26,28)" stroke-width="1.0" fill="rgb(231,93,93)"><defs><clipPath id="myClip8"><path d="M 308.9844,314.4531 l -0.0000,-273.4375 h -273.4375 l -0.0000,273.4375 Z"/></clipPath></defs><g clip-path="url(#myClip8)"><path d="M 103.9062,314.4531 h 22.7865 v -74.5739 h -22.7865 Z"/></g></g><g stroke-opacity="1.0" fill-opacity="1.0" stroke="rgb(228,26,28)" stroke-width="1.0" fill="rgb(231,93,93)"><defs><clipPath id="myClip9"><path d="M 308.9844,314.4531 l -0.0000,-273.4375 h -273.4375 l -0.0000,273.4375 Z"/></clipPath></defs><g clip-path="url(#myClip9)"><path d="M 81.1198,314.4531 h 22.7865 v -26.5152 h -22.7865 Z"/></g></g><g stroke-opacity="1.0" fill-opacity="1.0" stroke="rgb(228,26,28)" stroke-width="1.0" fill="rgb(231,93,93)"><defs><clipPath id="myClip10"><path d="M 308.9844,314.4531 l -0.0000,-273.4375 h -273.4375 l -0.0000,273.4375 Z"/></clipPath></defs><g clip-path="url(#myClip10)"><path d="M 58.3333,314.4531 h 22.7865 v -6.6288 h -22.7865 Z"/></g></g><g stroke-width="0.8"><path d="M 35.5469,314.4531 h 273.4375 M 35.5469,264.7372 h 273.4375 M 35.5469,215.0213 h 273.4375 M 35.5469,165.3054 h 273.4375 M 35.5469,115.5895 h 273.4375 M 35.5469,65.8736 h 273.4375 "/></g><g stroke-linecap="square"><path d="M 35.5469,314.4531 v -273.4375 M 308.9844,314.4531 v -273.4375 "/></g><g stroke-width="0.4"><path d="M 308.9844,306.1671 h 2.0508 M 308.9844,297.8812 h 2.0508 M 308.9844,289.5952 h 2.0508 M 308.9844,281.3092 h 2.0508 M 308.9844,273.0232 h 2.0508 M 308.9844,256.4512 h 2.0508 M 308.9844,248.1652 h 2.0508 M 308.9844,239.8793 h 2.0508 M 308.9844,231.5933 h 2.0508 M 308.9844,223.3073 h 2.0508 M 308.9844,206.7353 h 2.0508 M 308.9844,198.4493 h 2.0508 M 308.9844,190.1634 h 2.0508 M 308.9844,181.8774 h 2.0508 M 308.9844,173.5914 h 2.0508 M 308.9844,157.0194 h 2.0508 M 308.9844,148.7334 h 2.0508 M 308.9844,140.4474 h 2.0508 M 308.9844,132.1615 h 2.0508 M 308.9844,123.8755 h 2.0508 M 308.9844,107.3035 h 2.0508 M 308.9844,99.0175 h 2.0508 M 308.9844,90.7315 h 2.0508 M 308.9844,82.4455 h 2.0508 M 308.9844,74.1596 h 2.0508 M 308.9844,57.5876 h 2.0508 M 308.9844,49.3016 h 2.0508 M 308.9844,41.0156 h 2.0508 "/></g><g stroke-width="0.4"><path d="M 308.9844,314.4531 h 3.4180 M 308.9844,264.7372 h 3.4180 M 308.9844,215.0213 h 3.4180 M 308.9844,165.3054 h 3.4180 M 308.9844,115.5895 h 3.4180 M 308.9844,65.8736 h 3.4180 "/></g><g stroke-width="0.4"><path d="M 33.4961,306.1671 h 2.0508 M 33.4961,297.8812 h 2.0508 M 33.4961,289.5952 h 2.0508 M 33.4961,281.3092 h 2.0508 M 33.4961,273.0232 h 2.0508 M 33.4961,256.4512 h 2.0508 M 33.4961,248.1652 h 2.0508 M 33.4961,239.8793 h 2.0508 M 33.4961,231.5933 h 2.0508 M 33.4961,223.3073 h 2.0508 M 33.4961,206.7353 h 2.0508 M 33.4961,198.4493 h 2.0508 M 33.4961,190.1634 h 2.0508 M 33.4961,181.8774 h 2.0508 M 33.4961,173.5914 h 2.0508 M 33.4961,157.0194 h 2.0508 M 33.4961,148.7334 h 2.0508 M 33.4961,140.4474 h 2.0508 M 33.4961,132.1615 h 2.0508 M 33.4961,123.8755 h 2.0508 M 33.4961,107.3035 h 2.0508 M 33.4961,99.0175 h 2.0508 M 33.4961,90.7315 h 2.0508 M 33.4961,82.4455 h 2.0508 M 33.4961,74.1596 h 2.0508 M 33.4961,57.5876 h 2.0508 M 33.4961,49.3016 h 2.0508 M 33.4961,41.0156 h 2.0508 "/></g><g stroke-width="0.4"><path d="M 32.1289,314.4531 h 3.4180 M 32.1289,264.7372 h 3.4180 M 32.1289,215.0213 h 3.4180 M 32.1289,165.3054 h 3.4180 M 32.1289,115.5895 h 3.4180 M 32.1289,65.8736 h 3.4180 "/></g><g fill-opacity="1.0" font-size="11.0px" fill="rgb(0,0,0)"><text dominant-baseline="middle" transform="matrix(1.0000,0.0000,0.0000,1.0000,27.3438,65.8736)" stroke="none" text-anchor="end">150.0</text></g><g fill-opacity="1.0" font-size="11.0px" fill="rgb(0,0,0)"><text dominant-baseline="middle" transform="matrix(1.0000,0.0000,0.0000,1.0000,27.3438,115.5895)" stroke="none" text-anchor="end">120.0</text></g><g fill-opacity="1.0" font-size="11.0px" fill="rgb(0,0,0)"><text dominant-baseline="middle" transform="matrix(1.0000,0.0000,0.0000,1.0000,27.3438,165.3054)" stroke="none" text-anchor="end">90.0</text></g><g fill-opacity="1.0" font-size="11.0px" fill="rgb(0,0,0)"><text dominant-baseline="middle" transform="matrix(1.0000,0.0000,0.0000,1.0000,27.3438,215.0213)" stroke="none" text-anchor="end">60.0</text></g><g fill-opacity="1.0" font-size="11.0px" fill="rgb(0,0,0)"><text dominant-baseline="middle" transform="matrix(1.0000,0.0000,0.0000,1.0000,27.3438,264.7372)" stroke="none" text-anchor="end">30.0</text></g><g fill-opacity="1.0" font-size="11.0px" fill="rgb(0,0,0)"><text dominant-baseline="middle" transform="matrix(1.0000,0.0000,0.0000,1.0000,27.3438,314.4531)" stroke="none" text-anchor="end">0.0</text></g><g stroke-width="0.8"><path d="M 52.6367,314.4531 v -273.4375 M 109.6029,314.4531 v -273.4375 M 166.5690,314.4531 v -273.4375 M 223.5352,314.4531 v -273.4375 M 280.5013,314.4531 v -273.4375 "/></g><g stroke-linecap="square"><path d="M 35.5469,314.4531 h 273.4375 M 35.5469,41.0156 h 273.4375 "/></g><g stroke-width="0.4"><path d="M 43.1424,41.0156 v -2.0508 M 62.1311,41.0156 v -2.0508 M 71.6254,41.0156 v -2.0508 M 81.1198,41.0156 v -2.0508 M 90.6141,41.0156 v -2.0508 M 100.1085,41.0156 v -2.0508 M 119.0972,41.0156 v -2.0508 M 128.5916,41.0156 v -2.0508 M 138.0859,41.0156 v -2.0508 M 147.5803,41.0156 v -2.0508 M 157.0747,41.0156 v -2.0508 M 176.0634,41.0156 v -2.0508 M 185.5577,41.0156 v -2.0508 M 195.0521,41.0156 v -2.0508 M 204.5464,41.0156 v -2.0508 M 214.0408,41.0156 v -2.0508 M 233.0295,41.0156 v -2.0508 M 242.5239,41.0156 v -2.0508 M 252.0182,41.0156 v -2.0508 M 261.5126,41.0156 v -2.0508 M 271.0069,41.0156 v -2.0508 M 289.9957,41.0156 v -2.0508 M 299.4900,41.0156 v -2.0508 M 308.9844,41.0156 v -2.0508 "/></g><g stroke-width="0.4"><path d="M 52.6367,41.0156 v -3.4180 M 109.6029,41.0156 v -3.4180 M 166.5690,41.0156 v -3.4180 M 223.5352,41.0156 v -3.4180 M 280.5013,41.0156 v -3.4180 "/></g><g stroke-width="0.4"><path d="M 43.1424,316.5039 v -2.0508 M 62.1311,316.5039 v -2.0508 M 71.6254,316.5039 v -2.0508 M 81.1198,316.5039 v -2.0508 M 90.6141,316.5039 v -2.0508 M 100.1085,316.5039 v -2.0508 M 119.0972,316.5039 v -2.0508 M 128.5916,316.5039 v -2.0508 M 138.0859,316.5039 v -2.0508 M 147.5803,316.5039 v -2.0508 M 157.0747,316.5039 v -2.0508 M 176.0634,316.5039 v -2.0508 M 185.5577,316.5039 v -2.0508 M 195.0521,316.5039 v -2.0508 M 204.5464,316.5039 v -2.0508 M 214.0408,316.5039 v -2.0508 M 233.0295,316.5039 v -2.0508 M 242.5239,316.5039 v -2.0508 M 252.0182,316.5039 v -2.0508 M 261.5126,316.5039 v -2.0508 M 271.0069,316.5039 v -2.0508 M 289.9957,316.5039 v -2.0508 M 299.4900,316.5039 v -2.0508 M 308.9844,316.5039 v -2.0508 "/></g><g stroke-width="0.4"><path d="M 52.6367,317.8711 v -3.4180 M 109.6029,317.8711 v -3.4180 M 166.5690,317.8711 v -3.4180 M 223.5352,317.8711 v -3.4180 M 280.5013,317.8711 v -3.4180 "/></g><g fill-opacity="1.0" font-size="11.0px" fill="rgb(0,0,0)"><text dominant-baseline="text-before-edge" transform="matrix(1.0000,0.0000,0.0000,1.0000,280.5013,322.6562)" stroke="none" text-anchor="middle">8.0</text></g><g fill-opacity="1.0" font-size="11.0px" fill="rgb(0,0,0)"><text dominant-baseline="text-before-edge" transform="matrix(1.0000,0.0000,0.0000,1.0000,223.5352,322.6562)" stroke="none" text-anchor="middle">7.0</text></g><g fill-opacity="1.0" font-size="11.0px" fill="rgb(0,0,0)"><text dominant-baseline="text-before-edge" transform="matrix(1.0000,0.0000,0.0000,1.0000,166.5690,322.6562)" stroke="none" text-anchor="middle">6.0</text></g><g fill-opacity="1.0" font-size="11.0px" fill="rgb(0,0,0)"><text dominant-baseline="text-before-edge" transform="matrix(1.0000,0.0000,0.0000,1.0000,109.6029,322.6562)" stroke="none" text-anchor="middle">5.0</text></g><g fill-opacity="1.0" font-size="11.0px" fill="rgb(0,0,0)"><text dominant-baseline="text-before-edge" transform="matrix(1.0000,0.0000,0.0000,1.0000,52.6367,322.6562)" stroke="none" text-anchor="middle">4.0</text></g><g fill-opacity="1.0" font-size="11.0px" fill="rgb(0,0,0)"><text dominant-baseline="text-after-edge" transform="matrix(1.0000,0.0000,0.0000,1.0000,172.2656,27.3438)" stroke="none" text-anchor="middle"></text></g></svg>