<svg xmlns="http://www.w3.org/2000/svg" height="30.0000" stroke-opacity="1" viewBox="0 0 600 30" font-size="1" width="600.0000" xmlns:xlink="http://www.w3.org/1999/xlink" stroke="rgb(0,0,0)" version="1.1"><defs></defs><g fill-opacity="1.0" stroke-width="0.0" fill="rgb(221,227,24)"><path d="M 600.0000,30.0000 l -0.0000,-30.0000 h -90.0000 l -0.0000,30.0000 Z"/></g><g fill-opacity="1.0" stroke-width="0.0" fill="rgb(154,217,61)"><path d="M 540.0000,30.0000 l -0.0000,-30.0000 h -90.0000 l -0.0000,30.0000 Z"/></g><g fill-opacity="1.0" stroke-width="0.0" fill="rgb(93,201,99)"><path d="M 480.0000,30.0000 l -0.0000,-30.0000 h -90.0000 l -0.0000,30.0000 Z"/></g><g fill-opacity="1.0" stroke-width="0.0" fill="rgb(47,180,124)"><path d="M 420.0000,30.0000 l -0.0000,-30.0000 h -90.0000 l -0.0000,30.0000 Z"/></g><g fill-opacity="1.0" stroke-width="0.0" fill="rgb(30,156,137)"><path d="M 360.0000,30.0000 l -0.0000,-30.0000 h -90.0000 l -0.0000,30.0000 Z"/></g><g fill-opacity="1.0" stroke-width="0.0" fill="rgb(37,132,142)"><path d="M 300.0000,30.0000 l -0.0000,-30.0000 h -90.0000 l -0.0000,30.0000 Z"/></g><g fill-opacity="1.0" stroke-width="0.0" fill="rgb(47,108,142)"><path d="M 240.0000,30.0000 l -0.0000,-30.0000 h -90.0000 l -0.0000,30.0000 Z"/></g><g fill-opacity="1.0" stroke-width="0.0" fill="rgb(59,82,139)"><path d="M 180.0000,30.0000 l -0.0000,-30.0000 h -90.0000 l -0.0000,30.0000 Z"/></g><g fill-opacity="1.0" stroke-width="0.0" fill="rgb(70,52,128)"><path d="M 120.0000,30.0000 l -0.0000,-30.0000 h -90.0000 l -0.0000,30.0000 Z"/></g><g fill-opacity="1.0" stroke-width="0.0" fill="rgb(72,20,102)"><path d="M 60.0000,30.0000 l -0.0000,-30.0000 h -60.0000 l -0.0000,30.0000 Z"/></g></svg>