<svg xmlns="http://www.w3.org/2000/svg" height="350.0000" stroke-opacity="1" viewBox="0 0 350 350" font-size="1" width="350.0000" xmlns:xlink="http://www.w3.org/1999/xlink" stroke="rgb(0,0,0)" version="1.1"><defs></defs><g fill-opacity="1.0" stroke-width="0.0" fill="rgb(253,231,37)"><path d="M 350.0000,105.0000 l -0.0000,-105.0000 h -105.0000 l -0.0000,105.0000 Z"/></g><g fill-opacity="1.0" stroke-width="0.0" fill="rgb(171,220,50)"><path d="M 280.0000,105.0000 l -0.0000,-105.0000 h -105.0000 l -0.0000,105.0000 Z"/></g><g fill-opacity="1.0" stroke-width="0.0" fill="rgb(93,201,99)"><path d="M 210.0000,105.0000 l -0.0000,-105.0000 h -105.0000 l -0.0000,105.0000 Z"/></g><g fill-opacity="1.0" stroke-width="0.0" fill="rgb(40,174,128)"><path d="M 140.0000,105.0000 l -0.0000,-105.0000 h -105.0000 l -0.0000,105.0000 Z"/></g><g fill-opacity="1.0" stroke-width="0.0" fill="rgb(33,144,140)"><path d="M 70.0000,105.0000 l -0.0000,-105.0000 h -70.0000 l -0.0000,105.0000 Z"/></g><g fill-opacity="1.0" stroke-width="0.0" fill="rgb(171,220,50)"><path d="M 350.0000,175.0000 l -0.0000,-105.0000 h -105.0000 l -0.0000,105.0000 Z"/></g><g fill-opacity="1.0" stroke-width="0.0" fill="rgb(93,201,99)"><path d="M 280.0000,175.0000 l -0.0000,-105.0000 h -105.0000 l -0.0000,105.0000 Z"/></g><g fill-opacity="1.0" stroke-width="0.0" fill="rgb(40,174,128)"><path d="M 210.0000,175.0000 l -0.0000,-105.0000 h -105.0000 l -0.0000,105.0000 Z"/></g><g fill-opacity="1.0" stroke-width="0.0" fill="rgb(33,144,140)"><path d="M 140.0000,175.0000 l -0.0000,-105.0000 h -105.0000 l -0.0000,105.0000 Z"/></g><g fill-opacity="1.0" stroke-width="0.0" fill="rgb(44,114,142)"><path d="M 70.0000,175.0000 l -0.0000,-105.0000 h -70.0000 l -0.0000,105.0000 Z"/></g><g fill-opacity="1.0" stroke-width="0.0" fill="rgb(93,201,99)"><path d="M 350.0000,245.0000 l -0.0000,-105.0000 h -105.0000 l -0.0000,105.0000 Z"/></g><g fill-opacity="1.0" stroke-width="0.0" fill="rgb(40,174,128)"><path d="M 280.0000,245.0000 l -0.0000,-105.0000 h -105.0000 l -0.0000,105.0000 Z"/></g><g fill-opacity="1.0" stroke-width="0.0" fill="rgb(33,144,140)"><path d="M 210.0000,245.0000 l -0.0000,-105.0000 h -105.0000 l -0.0000,105.0000 Z"/></g><g fill-opacity="1.0" stroke-width="0.0" fill="rgb(44,114,142)"><path d="M 140.0000,245.0000 l -0.0000,-105.0000 h -105.0000 l -0.0000,105.0000 Z"/></g><g fill-opacity="1.0" stroke-width="0.0" fill="rgb(59,82,139)"><path d="M 70.0000,245.0000 l -0.0000,-105.0000 h -70.0000 l -0.0000,105.0000 Z"/></g><g fill-opacity="1.0" stroke-width="0.0" fill="rgb(40,174,128)"><path d="M 350.0000,315.0000 l -0.0000,-105.0000 h -105.0000 l -0.0000,105.0000 Z"/></g><g fill-opacity="1.0" stroke-width="0.0" fill="rgb(33,144,140)"><path d="M 280.0000,315.0000 l -0.0000,-105.0000 h -105.0000 l -0.0000,105.0000 Z"/></g><g fill-opacity="1.0" stroke-width="0.0" fill="rgb(44,114,142)"><path d="M 210.0000,315.0000 l -0.0000,-105.0000 h -105.0000 l -0.0000,105.0000 Z"/></g><g fill-opacity="1.0" stroke-width="0.0" fill="rgb(59,82,139)"><path d="M 140.0000,315.0000 l -0.0000,-105.0000 h -105.0000 l -0.0000,105.0000 Z"/></g><g fill-opacity="1.0" stroke-width="0.0" fill="rgb(71,45,123)"><path d="M 70.0000,315.0000 l -0.0000,-105.0000 h -70.0000 l -0.0000,105.0000 Z"/></g><g fill-opacity="1.0" stroke-width="0.0" fill="rgb(33,144,140)"><path d="M 350.0000,350.0000 l -0.0000,-70.0000 h -105.0000 l -0.0000,70.0000 Z"/></g><g fill-opacity="1.0" stroke-width="0.0" fill="rgb(44,114,142)"><path d="M 280.0000,350.0000 l -0.0000,-70.0000 h -105.0000 l -0.0000,70.0000 Z"/></g><g fill-opacity="1.0" stroke-width="0.0" fill="rgb(59,82,139)"><path d="M 210.0000,350.0000 l -0.0000,-70.0000 h -105.0000 l -0.0000,70.0000 Z"/></g><g fill-opacity="1.0" stroke-width="0.0" fill="rgb(71,45,123)"><path d="M 140.0000,350.0000 l -0.0000,-70.0000 h -105.0000 l -0.0000,70.0000 Z"/></g><g fill-opacity="1.0" stroke-width="0.0" fill="rgb(68,1,84)"><path d="M 70.0000,350.0000 l -0.0000,-70.0000 h -70.0000 l -0.0000,70.0000 Z"/></g></svg>