<svg xmlns="http://www.w3.org/2000/svg" height="514.2823" stroke-opacity="1" viewBox="0 0 600 514" font-size="1" width="600.0000" xmlns:xlink="http://www.w3.org/1999/xlink" stroke="rgb(0,0,0)" version="1.1"><defs></defs><g><path d="M 282.8283,433.3299 l 232.3232,-237.9594 "/></g><g stroke-opacity="1.0" fill-opacity="1.0" opacity="0.7" stroke="rgb(77,175,74)" stroke-width="0.0" fill="rgb(114,185,112)"><path d="M 282.8283,465.7975 l 232.3232,-237.9594 v -64.9351 l -232.3232,237.9594 Z"/></g><g><path d="M 212.1212,342.2378 l 126.2626,-269.0776 "/></g><g stroke-opacity="1.0" fill-opacity="1.0" opacity="0.7" stroke="rgb(55,126,184)" stroke-width="0.0" fill="rgb(103,146,193)"><path d="M 212.1212,366.9131 l 126.2626,-269.0776 v -49.3506 l -126.2626,269.0776 Z"/></g><g><path d="M 262.6263,342.2378 l 252.5253,-269.0776 "/></g><g stroke-opacity="1.0" fill-opacity="1.0" opacity="0.7" stroke="rgb(228,26,28)" stroke-width="0.0" fill="rgb(231,93,93)"><path d="M 262.6263,366.9131 l 252.5253,-269.0776 v -49.3506 l -252.5253,269.0776 Z"/></g><g stroke-width="0.1"><path d="M 181.8182,418.3008 h 363.6364 M 181.8182,375.0107 h 363.6364 M 181.8182,331.7207 h 363.6364 M 181.8182,288.4307 h 363.6364 M 181.8182,245.1406 h 363.6364 M 181.8182,201.8506 h 363.6364 M 181.8182,158.5605 h 363.6364 M 181.8182,115.2705 h 363.6364 "/></g><g stroke-linecap="square"><path d="M 181.8182,439.9458 v -363.6364 M 545.4545,439.9458 v -363.6364 "/></g><g stroke-width="0.4"><path d="M 545.4545,429.1233 h 3.6364 M 545.4545,407.4783 h 3.6364 M 545.4545,396.6558 h 3.6364 M 545.4545,385.8333 h 3.6364 M 545.4545,364.1882 h 3.6364 M 545.4545,353.3657 h 3.6364 M 545.4545,342.5432 h 3.6364 M 545.4545,320.8982 h 3.6364 M 545.4545,310.0757 h 3.6364 M 545.4545,299.2532 h 3.6364 M 545.4545,277.6081 h 3.6364 M 545.4545,266.7856 h 3.6364 M 545.4545,255.9631 h 3.6364 M 545.4545,234.3181 h 3.6364 M 545.4545,223.4956 h 3.6364 M 545.4545,212.6731 h 3.6364 M 545.4545,191.0281 h 3.6364 M 545.4545,180.2056 h 3.6364 M 545.4545,169.3830 h 3.6364 M 545.4545,147.7380 h 3.6364 M 545.4545,136.9155 h 3.6364 M 545.4545,126.0930 h 3.6364 M 545.4545,104.4480 h 3.6364 M 545.4545,93.6255 h 3.6364 M 545.4545,82.8030 h 3.6364 "/></g><g stroke-width="0.4"><path d="M 545.4545,418.3008 h 6.0606 M 545.4545,375.0107 h 6.0606 M 545.4545,331.7207 h 6.0606 M 545.4545,288.4307 h 6.0606 M 545.4545,245.1406 h 6.0606 M 545.4545,201.8506 h 6.0606 M 545.4545,158.5605 h 6.0606 M 545.4545,115.2705 h 6.0606 "/></g><g stroke-width="0.4"><path d="M 178.1818,429.1233 h 3.6364 M 178.1818,407.4783 h 3.6364 M 178.1818,396.6558 h 3.6364 M 178.1818,385.8333 h 3.6364 M 178.1818,364.1882 h 3.6364 M 178.1818,353.3657 h 3.6364 M 178.1818,342.5432 h 3.6364 M 178.1818,320.8982 h 3.6364 M 178.1818,310.0757 h 3.6364 M 178.1818,299.2532 h 3.6364 M 178.1818,277.6081 h 3.6364 M 178.1818,266.7856 h 3.6364 M 178.1818,255.9631 h 3.6364 M 178.1818,234.3181 h 3.6364 M 178.1818,223.4956 h 3.6364 M 178.1818,212.6731 h 3.6364 M 178.1818,191.0281 h 3.6364 M 178.1818,180.2056 h 3.6364 M 178.1818,169.3830 h 3.6364 M 178.1818,147.7380 h 3.6364 M 178.1818,136.9155 h 3.6364 M 178.1818,126.0930 h 3.6364 M 178.1818,104.4480 h 3.6364 M 178.1818,93.6255 h 3.6364 M 178.1818,82.8030 h 3.6364 "/></g><g stroke-width="0.4"><path d="M 175.7576,418.3008 h 6.0606 M 175.7576,375.0107 h 6.0606 M 175.7576,331.7207 h 6.0606 M 175.7576,288.4307 h 6.0606 M 175.7576,245.1406 h 6.0606 M 175.7576,201.8506 h 6.0606 M 175.7576,158.5605 h 6.0606 M 175.7576,115.2705 h 6.0606 "/></g><g fill-opacity="1.0" font-size="11.0px" fill="rgb(0,0,0)"><text dominant-baseline="middle" transform="matrix(1.0000,0.0000,0.0000,1.0000,167.2727,115.2705)" stroke="none" text-anchor="end">6.0</text></g><g fill-opacity="1.0" font-size="11.0px" fill="rgb(0,0,0)"><text dominant-baseline="middle" transform="matrix(1.0000,0.0000,0.0000,1.0000,167.2727,158.5605)" stroke="none" text-anchor="end">5.5</text></g><g fill-opacity="1.0" font-size="11.0px" fill="rgb(0,0,0)"><text dominant-baseline="middle" transform="matrix(1.0000,0.0000,0.0000,1.0000,167.2727,201.8506)" stroke="none" text-anchor="end">5.0</text></g><g fill-opacity="1.0" font-size="11.0px" fill="rgb(0,0,0)"><text dominant-baseline="middle" transform="matrix(1.0000,0.0000,0.0000,1.0000,167.2727,245.1406)" stroke="none" text-anchor="end">4.5</text></g><g fill-opacity="1.0" font-size="11.0px" fill="rgb(0,0,0)"><text dominant-baseline="middle" transform="matrix(1.0000,0.0000,0.0000,1.0000,167.2727,288.4307)" stroke="none" text-anchor="end">4.0</text></g><g fill-opacity="1.0" font-size="11.0px" fill="rgb(0,0,0)"><text dominant-baseline="middle" transform="matrix(1.0000,0.0000,0.0000,1.0000,167.2727,331.7207)" stroke="none" text-anchor="end">3.5</text></g><g fill-opacity="1.0" font-size="11.0px" fill="rgb(0,0,0)"><text dominant-baseline="middle" transform="matrix(1.0000,0.0000,0.0000,1.0000,167.2727,375.0107)" stroke="none" text-anchor="end">3.0</text></g><g fill-opacity="1.0" font-size="11.0px" fill="rgb(0,0,0)"><text dominant-baseline="middle" transform="matrix(1.0000,0.0000,0.0000,1.0000,167.2727,418.3008)" stroke="none" text-anchor="end">2.5</text></g><g stroke-width="0.1"><path d="M 212.1212,439.9458 v -363.6364 M 262.6263,439.9458 v -363.6364 M 313.1313,439.9458 v -363.6364 M 363.6364,439.9458 v -363.6364 M 414.1414,439.9458 v -363.6364 M 464.6465,439.9458 v -363.6364 M 515.1515,439.9458 v -363.6364 "/></g><g stroke-linecap="square"><path d="M 181.8182,439.9458 h 363.6364 M 181.8182,76.3094 h 363.6364 "/></g><g stroke-width="0.4"><path d="M 186.8687,76.3094 v -3.6364 M 199.4949,76.3094 v -3.6364 M 224.7475,76.3094 v -3.6364 M 237.3737,76.3094 v -3.6364 M 250.0000,76.3094 v -3.6364 M 275.2525,76.3094 v -3.6364 M 287.8788,76.3094 v -3.6364 M 300.5051,76.3094 v -3.6364 M 325.7576,76.3094 v -3.6364 M 338.3838,76.3094 v -3.6364 M 351.0101,76.3094 v -3.6364 M 376.2626,76.3094 v -3.6364 M 388.8889,76.3094 v -3.6364 M 401.5152,76.3094 v -3.6364 M 426.7677,76.3094 v -3.6364 M 439.3939,76.3094 v -3.6364 M 452.0202,76.3094 v -3.6364 M 477.2727,76.3094 v -3.6364 M 489.8990,76.3094 v -3.6364 M 502.5253,76.3094 v -3.6364 M 527.7778,76.3094 v -3.6364 M 540.4040,76.3094 v -3.6364 "/></g><g stroke-width="0.4"><path d="M 212.1212,76.3094 v -6.0606 M 262.6263,76.3094 v -6.0606 M 313.1313,76.3094 v -6.0606 M 363.6364,76.3094 v -6.0606 M 414.1414,76.3094 v -6.0606 M 464.6465,76.3094 v -6.0606 M 515.1515,76.3094 v -6.0606 "/></g><g stroke-width="0.4"><path d="M 186.8687,443.5822 v -3.6364 M 199.4949,443.5822 v -3.6364 M 224.7475,443.5822 v -3.6364 M 237.3737,443.5822 v -3.6364 M 250.0000,443.5822 v -3.6364 M 275.2525,443.5822 v -3.6364 M 287.8788,443.5822 v -3.6364 M 300.5051,443.5822 v -3.6364 M 325.7576,443.5822 v -3.6364 M 338.3838,443.5822 v -3.6364 M 351.0101,443.5822 v -3.6364 M 376.2626,443.5822 v -3.6364 M 388.8889,443.5822 v -3.6364 M 401.5152,443.5822 v -3.6364 M 426.7677,443.5822 v -3.6364 M 439.3939,443.5822 v -3.6364 M 452.0202,443.5822 v -3.6364 M 477.2727,443.5822 v -3.6364 M 489.8990,443.5822 v -3.6364 M 502.5253,443.5822 v -3.6364 M 527.7778,443.5822 v -3.6364 M 540.4040,443.5822 v -3.6364 "/></g><g stroke-width="0.4"><path d="M 212.1212,446.0064 v -6.0606 M 262.6263,446.0064 v -6.0606 M 313.1313,446.0064 v -6.0606 M 363.6364,446.0064 v -6.0606 M 414.1414,446.0064 v -6.0606 M 464.6465,446.0064 v -6.0606 M 515.1515,446.0064 v -6.0606 "/></g><g fill-opacity="1.0" font-size="11.0px" fill="rgb(0,0,0)"><text dominant-baseline="text-before-edge" transform="matrix(1.0000,0.0000,0.0000,1.0000,515.1515,454.4913)" stroke="none" text-anchor="middle">3.5</text></g><g fill-opacity="1.0" font-size="11.0px" fill="rgb(0,0,0)"><text dominant-baseline="text-before-edge" transform="matrix(1.0000,0.0000,0.0000,1.0000,464.6465,454.4913)" stroke="none" text-anchor="middle">3.0</text></g><g fill-opacity="1.0" font-size="11.0px" fill="rgb(0,0,0)"><text dominant-baseline="text-before-edge" transform="matrix(1.0000,0.0000,0.0000,1.0000,414.1414,454.4913)" stroke="none" text-anchor="middle">2.5</text></g><g fill-opacity="1.0" font-size="11.0px" fill="rgb(0,0,0)"><text dominant-baseline="text-before-edge" transform="matrix(1.0000,0.0000,0.0000,1.0000,363.6364,454.4913)" stroke="none" text-anchor="middle">2.0</text></g><g fill-opacity="1.0" font-size="11.0px" fill="rgb(0,0,0)"><text dominant-baseline="text-before-edge" transform="matrix(1.0000,0.0000,0.0000,1.0000,313.1313,454.4913)" stroke="none" text-anchor="middle">1.5</text></g><g fill-opacity="1.0" font-size="11.0px" fill="rgb(0,0,0)"><text dominant-baseline="text-before-edge" transform="matrix(1.0000,0.0000,0.0000,1.0000,262.6263,454.4913)" stroke="none" text-anchor="middle">1.0</text></g><g fill-opacity="1.0" font-size="11.0px" fill="rgb(0,0,0)"><text dominant-baseline="text-before-edge" transform="matrix(1.0000,0.0000,0.0000,1.0000,212.1212,454.4913)" stroke="none" text-anchor="middle">0.5</text></g><g fill-opacity="1.0" font-size="16.0px" fill="rgb(0,0,0)"><text dominant-baseline="text-after-edge" transform="matrix(1.0000,0.0000,0.0000,1.0000,363.6364,52.0670)" stroke="none" text-anchor="middle"></text></g><g><path d="M 151.5152,149.0367 l -0.0000,-72.7273 h -103.0303 l -0.0000,72.7273 Z"/></g><g fill-opacity="1.0" font-size="8.0px" fill="rgb(0,0,0)"><text dominant-baseline="middle" transform="matrix(1.0000,0.0000,0.0000,1.0000,84.8485,136.9155)" stroke="none" text-anchor="start">data 3</text></g><g stroke-opacity="1.0" fill-opacity="1.0" stroke="rgb(77,175,74)" stroke-width="1.0" fill="rgb(114,185,112)"><path d="M 69.6970,139.9458 l -0.0000,-6.0606 h -6.0606 l -0.0000,6.0606 Z"/></g><g fill-opacity="1.0" font-size="8.0px" fill="rgb(0,0,0)"><text dominant-baseline="middle" transform="matrix(1.0000,0.0000,0.0000,1.0000,84.8485,112.6731)" stroke="none" text-anchor="start">data 2</text></g><g stroke-opacity="1.0" fill-opacity="1.0" stroke="rgb(55,126,184)" stroke-width="1.0" fill="rgb(103,146,193)"><path d="M 69.6970,115.7034 l -0.0000,-6.0606 h -6.0606 l -0.0000,6.0606 Z"/></g><g fill-opacity="1.0" font-size="8.0px" fill="rgb(0,0,0)"><text dominant-baseline="middle" transform="matrix(1.0000,0.0000,0.0000,1.0000,84.8485,88.4307)" stroke="none" text-anchor="start">data 1</text></g><g stroke-opacity="1.0" fill-opacity="1.0" stroke="rgb(228,26,28)" stroke-width="1.0" fill="rgb(231,93,93)"><path d="M 69.6970,91.4610 l -0.0000,-6.0606 h -6.0606 l -0.0000,6.0606 Z"/></g></svg>