<svg xmlns="http://www.w3.org/2000/svg" height="76.9040" stroke-opacity="1" viewBox="0 0 600 77" font-size="1" width="600.0000" xmlns:xlink="http://www.w3.org/1999/xlink" stroke="rgb(0,0,0)" version="1.1"><defs></defs><g stroke-opacity="1.0" stroke="rgb(102,102,102)" stroke-width="3.0"><path d="M 554.0499,38.4520 h 11.0385 "/></g><g stroke-opacity="1.0" fill-opacity="1.0" stroke="rgb(255,255,255)" stroke-width="1.0" fill="rgb(102,102,102)"><path d="M 549.8553,29.1415 l 9.7138,-29.1415 l 9.7138,29.1415 l 30.7170,0.2332 l -24.7135,18.2436 l 9.2703,29.2857 l -24.9876,-17.8663 l -24.9876,17.8663 l 9.2703,-29.2857 l -24.7135,-18.2436 Z"/></g><g stroke-opacity="1.0" stroke="rgb(166,118,29)" stroke-width="3.0"><path d="M 474.9845,38.4520 h 11.0385 "/></g><g stroke-opacity="1.0" fill-opacity="1.0" stroke="rgb(255,255,255)" stroke-width="1.0" fill="rgb(166,118,29)"><path d="M 492.6460,26.3097 l -0.0000,-24.2846 h -24.2846 l -0.0000,24.2846 l -24.2846,0.0000 l -0.0000,24.2846 l 24.2846,0.0000 l -0.0000,24.2846 l 24.2846,0.0000 l 0.0000,-24.2846 l 24.2846,0.0000 l 0.0000,-24.2846 Z"/></g><g stroke-opacity="1.0" stroke="rgb(230,171,2)" stroke-width="3.0"><path d="M 402.0062,38.4520 h 11.0385 "/></g><g stroke-opacity="1.0" fill-opacity="1.0" stroke="rgb(255,255,255)" stroke-width="1.0" fill="rgb(230,171,2)"><path d="M 407.5255,21.2802 l -17.1718,-17.1718 l -17.1718,17.1718 l 17.1718,17.1718 l -17.1718,17.1718 l 17.1718,17.1718 l 17.1718,-17.1718 l 17.1718,17.1718 l 17.1718,-17.1718 l -17.1718,-17.1718 l 17.1718,-17.1718 l -17.1718,-17.1718 Z"/></g><g stroke-opacity="1.0" stroke="rgb(102,166,30)" stroke-width="3.0"><path d="M 330.0909,38.4520 h 11.0385 "/></g><g stroke-opacity="1.0" fill-opacity="1.0" stroke="rgb(255,255,255)" stroke-width="1.0" fill="rgb(102,166,30)"><path d="M 357.4663,72.0852 l 13.5078,-41.5729 l -35.3640,-25.6934 l -35.3640,25.6934 l 13.5078,41.5729 Z"/></g><g stroke-opacity="1.0" stroke="rgb(231,41,138)" stroke-width="3.0"><path d="M 256.0923,38.4520 h 11.0385 "/></g><g stroke-opacity="1.0" fill-opacity="1.0" stroke="rgb(255,255,255)" stroke-width="1.0" fill="rgb(231,41,138)"><path d="M 298.0385,38.4520 l -36.4269,-36.4269 l -36.4269,36.4269 l 36.4269,36.4269 Z"/></g><g stroke-opacity="1.0" stroke="rgb(117,112,179)" stroke-width="3.0"><path d="M 181.0308,38.4520 h 11.0385 "/></g><g stroke-opacity="1.0" fill-opacity="1.0" stroke="rgb(255,255,255)" stroke-width="1.0" fill="rgb(117,112,179)"><path d="M 222.9769,69.9987 l -36.4269,-63.0933 l -36.4269,63.0933 Z"/></g><g stroke-opacity="1.0" stroke="rgb(217,95,2)" stroke-width="3.0"><path d="M 105.9692,38.4520 h 11.0385 "/></g><g stroke-opacity="1.0" fill-opacity="1.0" stroke="rgb(255,255,255)" stroke-width="1.0" fill="rgb(217,95,2)"><path d="M 147.9154,74.8789 l -0.0000,-72.8538 h -72.8538 l -0.0000,72.8538 Z"/></g><g stroke-opacity="1.0" stroke="rgb(27,158,119)" stroke-width="3.0"><path d="M 30.9077,38.4520 h 11.0385 "/></g><g stroke-opacity="1.0" fill-opacity="1.0" stroke="rgb(255,255,255)" stroke-width="1.0" fill="rgb(27,158,119)"><path d="M 72.8538,38.4520 c 0.0000,-20.1180 -16.3089,-36.4269 -36.4269 -36.4269c -20.1180,-0.0000 -36.4269,16.3089 -36.4269 36.4269c -0.0000,20.1180 16.3089,36.4269 36.4269 36.4269c 20.1180,0.0000 36.4269,-16.3089 36.4269 -36.4269Z"/></g></svg>