<svg xmlns="http://www.w3.org/2000/svg" height="350.0000" stroke-opacity="1" viewBox="0 0 412 350" font-size="1" width="411.5234" xmlns:xlink="http://www.w3.org/1999/xlink" stroke="rgb(0,0,0)" version="1.1"><defs></defs><g stroke-width="0.8"><path d="M 35.5469,266.8988 h 273.4375 M 35.5469,217.3630 h 273.4375 M 35.5469,167.8272 h 273.4375 M 35.5469,118.2914 h 273.4375 M 35.5469,68.7557 h 273.4375 "/></g><g stroke-linecap="square"><path d="M 35.5469,314.4531 v -273.4375 M 308.9844,314.4531 v -273.4375 "/></g><g stroke-width="0.4"><path d="M 308.9844,308.1786 h 2.0508 M 308.9844,299.9226 h 2.0508 M 308.9844,291.6667 h 2.0508 M 308.9844,283.4107 h 2.0508 M 308.9844,275.1547 h 2.0508 M 308.9844,258.6428 h 2.0508 M 308.9844,250.3869 h 2.0508 M 308.9844,242.1309 h 2.0508 M 308.9844,233.8749 h 2.0508 M 308.9844,225.6190 h 2.0508 M 308.9844,209.1070 h 2.0508 M 308.9844,200.8511 h 2.0508 M 308.9844,192.5951 h 2.0508 M 308.9844,184.3391 h 2.0508 M 308.9844,176.0832 h 2.0508 M 308.9844,159.5713 h 2.0508 M 308.9844,151.3153 h 2.0508 M 308.9844,143.0593 h 2.0508 M 308.9844,134.8034 h 2.0508 M 308.9844,126.5474 h 2.0508 M 308.9844,110.0355 h 2.0508 M 308.9844,101.7795 h 2.0508 M 308.9844,93.5236 h 2.0508 M 308.9844,85.2676 h 2.0508 M 308.9844,77.0116 h 2.0508 M 308.9844,60.4997 h 2.0508 M 308.9844,52.2437 h 2.0508 M 308.9844,43.9878 h 2.0508 "/></g><g stroke-width="0.4"><path d="M 308.9844,266.8988 h 3.4180 M 308.9844,217.3630 h 3.4180 M 308.9844,167.8272 h 3.4180 M 308.9844,118.2914 h 3.4180 M 308.9844,68.7557 h 3.4180 "/></g><g stroke-width="0.4"><path d="M 33.4961,308.1786 h 2.0508 M 33.4961,299.9226 h 2.0508 M 33.4961,291.6667 h 2.0508 M 33.4961,283.4107 h 2.0508 M 33.4961,275.1547 h 2.0508 M 33.4961,258.6428 h 2.0508 M 33.4961,250.3869 h 2.0508 M 33.4961,242.1309 h 2.0508 M 33.4961,233.8749 h 2.0508 M 33.4961,225.6190 h 2.0508 M 33.4961,209.1070 h 2.0508 M 33.4961,200.8511 h 2.0508 M 33.4961,192.5951 h 2.0508 M 33.4961,184.3391 h 2.0508 M 33.4961,176.0832 h 2.0508 M 33.4961,159.5713 h 2.0508 M 33.4961,151.3153 h 2.0508 M 33.4961,143.0593 h 2.0508 M 33.4961,134.8034 h 2.0508 M 33.4961,126.5474 h 2.0508 M 33.4961,110.0355 h 2.0508 M 33.4961,101.7795 h 2.0508 M 33.4961,93.5236 h 2.0508 M 33.4961,85.2676 h 2.0508 M 33.4961,77.0116 h 2.0508 M 33.4961,60.4997 h 2.0508 M 33.4961,52.2437 h 2.0508 M 33.4961,43.9878 h 2.0508 "/></g><g stroke-width="0.4"><path d="M 32.1289,266.8988 h 3.4180 M 32.1289,217.3630 h 3.4180 M 32.1289,167.8272 h 3.4180 M 32.1289,118.2914 h 3.4180 M 32.1289,68.7557 h 3.4180 "/></g><g fill-opacity="1.0" font-size="11.0px" fill="rgb(0,0,0)"><text dominant-baseline="middle" transform="matrix(1.0000,0.0000,0.0000,1.0000,27.3438,68.7557)" stroke="none" text-anchor="end">6.0</text></g><g fill-opacity="1.0" font-size="11.0px" fill="rgb(0,0,0)"><text dominant-baseline="middle" transform="matrix(1.0000,0.0000,0.0000,1.0000,27.3438,118.2914)" stroke="none" text-anchor="end">5.0</text></g><g fill-opacity="1.0" font-size="11.0px" fill="rgb(0,0,0)"><text dominant-baseline="middle" transform="matrix(1.0000,0.0000,0.0000,1.0000,27.3438,167.8272)" stroke="none" text-anchor="end">4.0</text></g><g fill-opacity="1.0" font-size="11.0px" fill="rgb(0,0,0)"><text dominant-baseline="middle" transform="matrix(1.0000,0.0000,0.0000,1.0000,27.3438,217.3630)" stroke="none" text-anchor="end">3.0</text></g><g fill-opacity="1.0" font-size="11.0px" fill="rgb(0,0,0)"><text dominant-baseline="middle" transform="matrix(1.0000,0.0000,0.0000,1.0000,27.3438,266.8988)" stroke="none" text-anchor="end">2.0</text></g><g stroke-width="0.8"><path d="M 58.3333,314.4531 v -273.4375 M 103.9062,314.4531 v -273.4375 M 149.4792,314.4531 v -273.4375 M 195.0521,314.4531 v -273.4375 M 240.6250,314.4531 v -273.4375 M 286.1979,314.4531 v -273.4375 "/></g><g stroke-linecap="square"><path d="M 35.5469,314.4531 h 273.4375 M 35.5469,41.0156 h 273.4375 "/></g><g stroke-width="0.4"><path d="M 35.5469,41.0156 v -2.0508 M 43.1424,41.0156 v -2.0508 M 50.7378,41.0156 v -2.0508 M 65.9288,41.0156 v -2.0508 M 73.5243,41.0156 v -2.0508 M 81.1198,41.0156 v -2.0508 M 88.7153,41.0156 v -2.0508 M 96.3108,41.0156 v -2.0508 M 111.5017,41.0156 v -2.0508 M 119.0972,41.0156 v -2.0508 M 126.6927,41.0156 v -2.0508 M 134.2882,41.0156 v -2.0508 M 141.8837,41.0156 v -2.0508 M 157.0747,41.0156 v -2.0508 M 164.6701,41.0156 v -2.0508 M 172.2656,41.0156 v -2.0508 M 179.8611,41.0156 v -2.0508 M 187.4566,41.0156 v -2.0508 M 202.6476,41.0156 v -2.0508 M 210.2431,41.0156 v -2.0508 M 217.8385,41.0156 v -2.0508 M 225.4340,41.0156 v -2.0508 M 233.0295,41.0156 v -2.0508 M 248.2205,41.0156 v -2.0508 M 255.8160,41.0156 v -2.0508 M 263.4115,41.0156 v -2.0508 M 271.0069,41.0156 v -2.0508 M 278.6024,41.0156 v -2.0508 M 293.7934,41.0156 v -2.0508 M 301.3889,41.0156 v -2.0508 "/></g><g stroke-width="0.4"><path d="M 58.3333,41.0156 v -3.4180 M 103.9062,41.0156 v -3.4180 M 149.4792,41.0156 v -3.4180 M 195.0521,41.0156 v -3.4180 M 240.6250,41.0156 v -3.4180 M 286.1979,41.0156 v -3.4180 "/></g><g stroke-width="0.4"><path d="M 35.5469,316.5039 v -2.0508 M 43.1424,316.5039 v -2.0508 M 50.7378,316.5039 v -2.0508 M 65.9288,316.5039 v -2.0508 M 73.5243,316.5039 v -2.0508 M 81.1198,316.5039 v -2.0508 M 88.7153,316.5039 v -2.0508 M 96.3108,316.5039 v -2.0508 M 111.5017,316.5039 v -2.0508 M 119.0972,316.5039 v -2.0508 M 126.6927,316.5039 v -2.0508 M 134.2882,316.5039 v -2.0508 M 141.8837,316.5039 v -2.0508 M 157.0747,316.5039 v -2.0508 M 164.6701,316.5039 v -2.0508 M 172.2656,316.5039 v -2.0508 M 179.8611,316.5039 v -2.0508 M 187.4566,316.5039 v -2.0508 M 202.6476,316.5039 v -2.0508 M 210.2431,316.5039 v -2.0508 M 217.8385,316.5039 v -2.0508 M 225.4340,316.5039 v -2.0508 M 233.0295,316.5039 v -2.0508 M 248.2205,316.5039 v -2.0508 M 255.8160,316.5039 v -2.0508 M 263.4115,316.5039 v -2.0508 M 271.0069,316.5039 v -2.0508 M 278.6024,316.5039 v -2.0508 M 293.7934,316.5039 v -2.0508 M 301.3889,316.5039 v -2.0508 "/></g><g stroke-width="0.4"><path d="M 58.3333,317.8711 v -3.4180 M 103.9062,317.8711 v -3.4180 M 149.4792,317.8711 v -3.4180 M 195.0521,317.8711 v -3.4180 M 240.6250,317.8711 v -3.4180 M 286.1979,317.8711 v -3.4180 "/></g><g fill-opacity="1.0" font-size="11.0px" fill="rgb(0,0,0)"><text dominant-baseline="text-before-edge" transform="matrix(1.0000,0.0000,0.0000,1.0000,286.1979,322.6562)" stroke="none" text-anchor="middle">3.5</text></g><g fill-opacity="1.0" font-size="11.0px" fill="rgb(0,0,0)"><text dominant-baseline="text-before-edge" transform="matrix(1.0000,0.0000,0.0000,1.0000,240.6250,322.6562)" stroke="none" text-anchor="middle">3.0</text></g><g fill-opacity="1.0" font-size="11.0px" fill="rgb(0,0,0)"><text dominant-baseline="text-before-edge" transform="matrix(1.0000,0.0000,0.0000,1.0000,195.0521,322.6562)" stroke="none" text-anchor="middle">2.5</text></g><g fill-opacity="1.0" font-size="11.0px" fill="rgb(0,0,0)"><text dominant-baseline="text-before-edge" transform="matrix(1.0000,0.0000,0.0000,1.0000,149.4792,322.6562)" stroke="none" text-anchor="middle">2.0</text></g><g fill-opacity="1.0" font-size="11.0px" fill="rgb(0,0,0)"><text dominant-baseline="text-before-edge" transform="matrix(1.0000,0.0000,0.0000,1.0000,103.9062,322.6562)" stroke="none" text-anchor="middle">1.5</text></g><g fill-opacity="1.0" font-size="11.0px" fill="rgb(0,0,0)"><text dominant-baseline="text-before-edge" transform="matrix(1.0000,0.0000,0.0000,1.0000,58.3333,322.6562)" stroke="none" text-anchor="middle">1.0</text></g><g stroke-opacity="1.0" fill-opacity="1.0" stroke="rgb(77,175,74)" stroke-width="1.0" fill="rgb(114,185,112)"><defs><clipPath id="myClip1"><path d="M 308.9844,314.4531 l -0.0000,-273.4375 h -273.4375 l -0.0000,273.4375 Z"/></clipPath></defs><g clip-path="url(#myClip1)"><path d="M 293.7174,124.8035 l -7.5195,-13.0242 l -7.5195,13.0242 Z"/></g></g><g stroke-opacity="1.0" fill-opacity="1.0" stroke="rgb(77,175,74)" stroke-width="1.0" fill="rgb(114,185,112)"><defs><clipPath id="myClip2"><path d="M 308.9844,314.4531 l -0.0000,-273.4375 h -273.4375 l -0.0000,273.4375 Z"/></clipPath></defs><g clip-path="url(#myClip2)"><path d="M 262.2380,240.1078 l -3.3838,-5.8609 l -3.3838,5.8609 Z"/></g></g><g stroke-opacity="1.0" fill-opacity="1.0" stroke="rgb(77,175,74)" stroke-width="1.0" fill="rgb(114,185,112)"><defs><clipPath id="myClip3"><path d="M 308.9844,314.4531 l -0.0000,-273.4375 h -273.4375 l -0.0000,273.4375 Z"/></clipPath></defs><g clip-path="url(#myClip3)"><path d="M 160.7585,123.1060 l -11.2793,-19.5363 l -11.2793,19.5363 Z"/></g></g><g stroke-opacity="1.0" fill-opacity="1.0" stroke="rgb(77,175,74)" stroke-width="1.0" fill="rgb(114,185,112)"><defs><clipPath id="myClip4"><path d="M 308.9844,314.4531 l -0.0000,-273.4375 h -273.4375 l -0.0000,273.4375 Z"/></clipPath></defs><g clip-path="url(#myClip4)"><path d="M 80.3223,235.4798 l -3.7598,-6.5121 l -3.7598,6.5121 Z"/></g></g><g stroke-opacity="1.0" fill-opacity="1.0" stroke="rgb(55,126,184)" stroke-width="1.0" fill="rgb(103,146,193)"><defs><clipPath id="myClip5"><path d="M 308.9844,314.4531 l -0.0000,-273.4375 h -273.4375 l -0.0000,273.4375 Z"/></clipPath></defs><g clip-path="url(#myClip5)"><path d="M 287.5138,216.2021 l -0.0000,-2.6318 h -2.6318 l -0.0000,2.6318 Z"/></g></g><g stroke-opacity="1.0" fill-opacity="1.0" stroke="rgb(55,126,184)" stroke-width="1.0" fill="rgb(103,146,193)"><defs><clipPath id="myClip6"><path d="M 308.9844,314.4531 l -0.0000,-273.4375 h -273.4375 l -0.0000,273.4375 Z"/></clipPath></defs><g clip-path="url(#myClip6)"><path d="M 262.2380,220.7468 l -0.0000,-6.7676 h -6.7676 l -0.0000,6.7676 Z"/></g></g><g stroke-opacity="1.0" fill-opacity="1.0" stroke="rgb(55,126,184)" stroke-width="1.0" fill="rgb(103,146,193)"><defs><clipPath id="myClip7"><path d="M 308.9844,314.4531 l -0.0000,-273.4375 h -273.4375 l -0.0000,273.4375 Z"/></clipPath></defs><g clip-path="url(#myClip7)"><path d="M 151.9230,232.1908 l -0.0000,-4.8877 h -4.8877 l -0.0000,4.8877 Z"/></g></g><g stroke-opacity="1.0" fill-opacity="1.0" stroke="rgb(55,126,184)" stroke-width="1.0" fill="rgb(103,146,193)"><defs><clipPath id="myClip8"><path d="M 308.9844,314.4531 l -0.0000,-273.4375 h -273.4375 l -0.0000,273.4375 Z"/></clipPath></defs><g clip-path="url(#myClip8)"><path d="M 62.0931,295.4264 l -0.0000,-7.5195 h -7.5195 l -0.0000,7.5195 Z"/></g></g><g stroke-opacity="1.0" fill-opacity="1.0" stroke="rgb(228,26,28)" stroke-width="1.0" fill="rgb(231,93,93)"><defs><clipPath id="myClip9"><path d="M 308.9844,314.4531 l -0.0000,-273.4375 h -273.4375 l -0.0000,273.4375 Z"/></clipPath></defs><g clip-path="url(#myClip9)"><path d="M 288.8298,63.8021 c 0.0000,-1.4535 -1.1783,-2.6318 -2.6318 -2.6318c -1.4535,-0.0000 -2.6318,1.1783 -2.6318 2.6318c -0.0000,1.4535 1.1783,2.6318 2.6318 2.6318c 1.4535,0.0000 2.6318,-1.1783 2.6318 -2.6318Z"/></g></g><g stroke-opacity="1.0" fill-opacity="1.0" stroke="rgb(228,26,28)" stroke-width="1.0" fill="rgb(231,93,93)"><defs><clipPath id="myClip10"><path d="M 308.9844,314.4531 l -0.0000,-273.4375 h -273.4375 l -0.0000,273.4375 Z"/></clipPath></defs><g clip-path="url(#myClip10)"><path d="M 265.6217,68.7557 c 0.0000,-3.7376 -3.0299,-6.7676 -6.7676 -6.7676c -3.7376,-0.0000 -6.7676,3.0299 -6.7676 6.7676c -0.0000,3.7376 3.0299,6.7676 6.7676 6.7676c 3.7376,0.0000 6.7676,-3.0299 6.7676 -6.7676Z"/></g></g><g stroke-opacity="1.0" fill-opacity="1.0" stroke="rgb(228,26,28)" stroke-width="1.0" fill="rgb(231,93,93)"><defs><clipPath id="myClip11"><path d="M 308.9844,314.4531 l -0.0000,-273.4375 h -273.4375 l -0.0000,273.4375 Z"/></clipPath></defs><g clip-path="url(#myClip11)"><path d="M 154.3669,93.5236 c 0.0000,-2.6994 -2.1883,-4.8877 -4.8877 -4.8877c -2.6994,-0.0000 -4.8877,2.1883 -4.8877 4.8877c -0.0000,2.6994 2.1883,4.8877 4.8877 4.8877c 2.6994,0.0000 4.8877,-2.1883 4.8877 -4.8877Z"/></g></g><g stroke-opacity="1.0" fill-opacity="1.0" stroke="rgb(228,26,28)" stroke-width="1.0" fill="rgb(231,93,93)"><defs><clipPath id="myClip12"><path d="M 308.9844,314.4531 l -0.0000,-273.4375 h -273.4375 l -0.0000,273.4375 Z"/></clipPath></defs><g clip-path="url(#myClip12)"><path d="M 65.8529,217.3630 c 0.0000,-4.1529 -3.3666,-7.5195 -7.5195 -7.5195c -4.1529,-0.0000 -7.5195,3.3666 -7.5195 7.5195c -0.0000,4.1529 3.3666,7.5195 7.5195 7.5195c 4.1529,0.0000 7.5195,-3.3666 7.5195 -7.5195Z"/></g></g><g fill-opacity="1.0" font-size="11.0px" fill="rgb(0,0,0)"><text dominant-baseline="text-after-edge" transform="matrix(1.0000,0.0000,0.0000,1.0000,172.2656,27.3438)" stroke="none" text-anchor="middle"></text></g><g fill-opacity="0.0" fill="rgb(0,0,0)"><path d="M 380.7617,82.0312 l -0.0000,-41.0156 h -58.1055 l -0.0000,41.0156 Z"/></g><g fill-opacity="1.0" font-size="11.0px" fill="rgb(0,0,0)"><text dominant-baseline="middle" transform="matrix(1.0000,0.0000,0.0000,1.0000,343.1641,75.1953)" stroke="none" text-anchor="start">data 9</text></g><g stroke-opacity="1.0" fill-opacity="1.0" stroke="rgb(77,175,74)" stroke-width="1.0" fill="rgb(114,185,112)"><path d="M 336.6699,78.4514 l -3.7598,-6.5121 l -3.7598,6.5121 Z"/></g><g fill-opacity="1.0" font-size="11.0px" fill="rgb(0,0,0)"><text dominant-baseline="middle" transform="matrix(1.0000,0.0000,0.0000,1.0000,343.1641,61.5234)" stroke="none" text-anchor="start">data 8</text></g><g stroke-opacity="1.0" fill-opacity="1.0" stroke="rgb(55,126,184)" stroke-width="1.0" fill="rgb(103,146,193)"><path d="M 336.6699,65.2832 l -0.0000,-7.5195 h -7.5195 l -0.0000,7.5195 Z"/></g><g fill-opacity="1.0" font-size="11.0px" fill="rgb(0,0,0)"><text dominant-baseline="middle" transform="matrix(1.0000,0.0000,0.0000,1.0000,343.1641,47.8516)" stroke="none" text-anchor="start">data 7</text></g><g stroke-opacity="1.0" fill-opacity="1.0" stroke="rgb(228,26,28)" stroke-width="1.0" fill="rgb(231,93,93)"><path d="M 336.6699,47.8516 c 0.0000,-2.0765 -1.6833,-3.7598 -3.7598 -3.7598c -2.0765,-0.0000 -3.7598,1.6833 -3.7598 3.7598c -0.0000,2.0765 1.6833,3.7598 3.7598 3.7598c 2.0765,0.0000 3.7598,-1.6833 3.7598 -3.7598Z"/></g></svg>