<svg xmlns="http://www.w3.org/2000/svg" height="528.2392" stroke-opacity="1" viewBox="0 0 600 528" font-size="1" width="600.0000" xmlns:xlink="http://www.w3.org/1999/xlink" stroke="rgb(0,0,0)" version="1.1"><defs></defs><g stroke-opacity="1.0" fill-opacity="1.0" stroke="rgb(55,126,184)" stroke-width="1.0" fill="rgb(103,146,193)"><defs><clipPath id="myClip1"><path d="M 450.4983,458.4718 l -0.0000,-398.6711 h -398.6711 l -0.0000,398.6711 Z"/></clipPath></defs><g clip-path="url(#myClip1)"><path d="M 219.7360,458.4718 h 17.9582 v -51.7755 h -17.9582 Z"/></g></g><g stroke-opacity="1.0" fill-opacity="1.0" stroke="rgb(55,126,184)" stroke-width="1.0" fill="rgb(103,146,193)"><defs><clipPath id="myClip2"><path d="M 450.4983,458.4718 l -0.0000,-398.6711 h -398.6711 l -0.0000,398.6711 Z"/></clipPath></defs><g clip-path="url(#myClip2)"><path d="M 174.8406,458.4718 h 17.9582 v -362.4283 h -17.9582 Z"/></g></g><g stroke-opacity="1.0" fill-opacity="1.0" stroke="rgb(55,126,184)" stroke-width="1.0" fill="rgb(103,146,193)"><defs><clipPath id="myClip3"><path d="M 450.4983,458.4718 l -0.0000,-398.6711 h -398.6711 l -0.0000,398.6711 Z"/></clipPath></defs><g clip-path="url(#myClip3)"><path d="M 129.9452,458.4718 h 17.9582 v -207.1019 h -17.9582 Z"/></g></g><g stroke-opacity="1.0" fill-opacity="1.0" stroke="rgb(55,126,184)" stroke-width="1.0" fill="rgb(103,146,193)"><defs><clipPath id="myClip4"><path d="M 450.4983,458.4718 l -0.0000,-398.6711 h -398.6711 l -0.0000,398.6711 Z"/></clipPath></defs><g clip-path="url(#myClip4)"><path d="M 85.0498,458.4718 h 17.9582 v -258.8773 h -17.9582 Z"/></g></g><g stroke-opacity="1.0" fill-opacity="1.0" stroke="rgb(228,26,28)" stroke-width="1.0" fill="rgb(231,93,93)"><defs><clipPath id="myClip5"><path d="M 450.4983,458.4718 l -0.0000,-398.6711 h -398.6711 l -0.0000,398.6711 Z"/></clipPath></defs><g clip-path="url(#myClip5)"><path d="M 399.3176,458.4718 h 17.9582 v -103.5509 h -17.9582 Z"/></g></g><g stroke-opacity="1.0" fill-opacity="1.0" stroke="rgb(228,26,28)" stroke-width="1.0" fill="rgb(231,93,93)"><defs><clipPath id="myClip6"><path d="M 450.4983,458.4718 l -0.0000,-398.6711 h -398.6711 l -0.0000,398.6711 Z"/></clipPath></defs><g clip-path="url(#myClip6)"><path d="M 354.4222,458.4718 h 17.9582 v -103.5509 h -17.9582 Z"/></g></g><g stroke-opacity="1.0" fill-opacity="1.0" stroke="rgb(228,26,28)" stroke-width="1.0" fill="rgb(231,93,93)"><defs><clipPath id="myClip7"><path d="M 450.4983,458.4718 l -0.0000,-398.6711 h -398.6711 l -0.0000,398.6711 Z"/></clipPath></defs><g clip-path="url(#myClip7)"><path d="M 309.5268,458.4718 h 17.9582 v -258.8773 h -17.9582 Z"/></g></g><g stroke-opacity="1.0" fill-opacity="1.0" stroke="rgb(228,26,28)" stroke-width="1.0" fill="rgb(231,93,93)"><defs><clipPath id="myClip8"><path d="M 450.4983,458.4718 l -0.0000,-398.6711 h -398.6711 l -0.0000,398.6711 Z"/></clipPath></defs><g clip-path="url(#myClip8)"><path d="M 264.6314,458.4718 h 17.9582 v -362.4283 h -17.9582 Z"/></g></g><g stroke-width="0.8"><path d="M 51.8272,458.4718 h 398.6711 M 51.8272,354.9208 h 398.6711 M 51.8272,251.3699 h 398.6711 M 51.8272,147.8190 h 398.6711 "/></g><g stroke-linecap="square"><path d="M 51.8272,458.4718 v -398.6711 M 450.4983,458.4718 v -398.6711 "/></g><g stroke-width="0.4"><path d="M 450.4983,458.4718 h 4.9834 M 450.4983,354.9208 h 4.9834 M 450.4983,251.3699 h 4.9834 M 450.4983,147.8190 h 4.9834 "/></g><g stroke-width="0.4"><path d="M 46.8439,458.4718 h 4.9834 M 46.8439,354.9208 h 4.9834 M 46.8439,251.3699 h 4.9834 M 46.8439,147.8190 h 4.9834 "/></g><g fill-opacity="1.0" font-size="8.0px" fill="rgb(0,0,0)"><text dominant-baseline="middle" transform="matrix(1.0000,0.0000,0.0000,1.0000,39.8671,147.8190)" stroke="none" text-anchor="end">6</text></g><g fill-opacity="1.0" font-size="8.0px" fill="rgb(0,0,0)"><text dominant-baseline="middle" transform="matrix(1.0000,0.0000,0.0000,1.0000,39.8671,251.3699)" stroke="none" text-anchor="end">4</text></g><g fill-opacity="1.0" font-size="8.0px" fill="rgb(0,0,0)"><text dominant-baseline="middle" transform="matrix(1.0000,0.0000,0.0000,1.0000,39.8671,354.9208)" stroke="none" text-anchor="end">2</text></g><g fill-opacity="1.0" font-size="8.0px" fill="rgb(0,0,0)"><text dominant-baseline="middle" transform="matrix(1.0000,0.0000,0.0000,1.0000,39.8671,458.4718)" stroke="none" text-anchor="end">0</text></g><g stroke-linecap="square"><path d="M 51.8272,458.4718 h 398.6711 M 51.8272,59.8007 h 398.6711 "/></g><g stroke-width="0.4"><path d="M 94.0289,59.8007 v -4.9834 M 138.9243,59.8007 v -4.9834 M 183.8197,59.8007 v -4.9834 M 228.7151,59.8007 v -4.9834 M 273.6105,59.8007 v -4.9834 M 318.5059,59.8007 v -4.9834 M 363.4013,59.8007 v -4.9834 M 408.2967,59.8007 v -4.9834 "/></g><g stroke-width="0.4"><path d="M 94.0289,463.4551 v -4.9834 M 138.9243,463.4551 v -4.9834 M 183.8197,463.4551 v -4.9834 M 228.7151,463.4551 v -4.9834 M 273.6105,463.4551 v -4.9834 M 318.5059,463.4551 v -4.9834 M 363.4013,463.4551 v -4.9834 M 408.2967,463.4551 v -4.9834 "/></g><g fill-opacity="1.0" font-size="8.0px" fill="rgb(0,0,0)"><text dominant-baseline="text-before-edge" transform="matrix(1.0000,0.0000,0.0000,1.0000,251.1628,488.3721)" stroke="none" text-anchor="middle">breakfast item</text></g><g fill-opacity="1.0" font-size="8.0px" fill="rgb(0,0,0)"><text dominant-baseline="text-before-edge" transform="matrix(1.0000,0.0000,0.0000,1.0000,408.2967,470.4319)" stroke="none" text-anchor="middle">beans</text></g><g fill-opacity="1.0" font-size="8.0px" fill="rgb(0,0,0)"><text dominant-baseline="text-before-edge" transform="matrix(1.0000,0.0000,0.0000,1.0000,363.4013,470.4319)" stroke="none" text-anchor="middle">sausage</text></g><g fill-opacity="1.0" font-size="8.0px" fill="rgb(0,0,0)"><text dominant-baseline="text-before-edge" transform="matrix(1.0000,0.0000,0.0000,1.0000,318.5059,470.4319)" stroke="none" text-anchor="middle">bacon</text></g><g fill-opacity="1.0" font-size="8.0px" fill="rgb(0,0,0)"><text dominant-baseline="text-before-edge" transform="matrix(1.0000,0.0000,0.0000,1.0000,273.6105,470.4319)" stroke="none" text-anchor="middle">eggs</text></g><g fill-opacity="1.0" font-size="8.0px" fill="rgb(0,0,0)"><text dominant-baseline="text-before-edge" transform="matrix(1.0000,0.0000,0.0000,1.0000,228.7151,470.4319)" stroke="none" text-anchor="middle">beans</text></g><g fill-opacity="1.0" font-size="8.0px" fill="rgb(0,0,0)"><text dominant-baseline="text-before-edge" transform="matrix(1.0000,0.0000,0.0000,1.0000,183.8197,470.4319)" stroke="none" text-anchor="middle">sausage</text></g><g fill-opacity="1.0" font-size="8.0px" fill="rgb(0,0,0)"><text dominant-baseline="text-before-edge" transform="matrix(1.0000,0.0000,0.0000,1.0000,138.9243,470.4319)" stroke="none" text-anchor="middle">bacon</text></g><g fill-opacity="1.0" font-size="8.0px" fill="rgb(0,0,0)"><text dominant-baseline="text-before-edge" transform="matrix(1.0000,0.0000,0.0000,1.0000,94.0289,470.4319)" stroke="none" text-anchor="middle">eggs</text></g><g fill-opacity="1.0" font-size="11.0px" fill="rgb(0,0,0)"><text dominant-baseline="text-after-edge" transform="matrix(1.0000,0.0000,0.0000,1.0000,251.1628,39.8671)" stroke="none" text-anchor="middle"></text></g><g><path d="M 555.1495,99.6678 l -0.0000,-39.8671 h -84.7176 l -0.0000,39.8671 Z"/></g><g fill-opacity="1.0" font-size="8.0px" fill="rgb(0,0,0)"><text dominant-baseline="middle" transform="matrix(1.0000,0.0000,0.0000,1.0000,500.3322,89.7010)" stroke="none" text-anchor="start">boys</text></g><g stroke-opacity="1.0" fill-opacity="1.0" stroke="rgb(55,126,184)" stroke-width="0.7973421926910299" fill="rgb(103,146,193)"><path d="M 490.8638,94.6844 l -0.0000,-9.9668 h -3.9867 l -0.0000,9.9668 Z"/></g><g stroke-opacity="1.0" fill-opacity="1.0" stroke="rgb(55,126,184)" stroke-width="0.7973421926910299" fill="rgb(103,146,193)"><path d="M 483.8870,94.6844 l -0.0000,-6.9767 h -3.9867 l -0.0000,6.9767 Z"/></g><g fill-opacity="1.0" font-size="8.0px" fill="rgb(0,0,0)"><text dominant-baseline="middle" transform="matrix(1.0000,0.0000,0.0000,1.0000,500.3322,69.7674)" stroke="none" text-anchor="start">girls</text></g><g stroke-opacity="1.0" fill-opacity="1.0" stroke="rgb(228,26,28)" stroke-width="0.7973421926910299" fill="rgb(231,93,93)"><path d="M 490.8638,74.7508 l -0.0000,-9.9668 h -3.9867 l -0.0000,9.9668 Z"/></g><g stroke-opacity="1.0" fill-opacity="1.0" stroke="rgb(228,26,28)" stroke-width="0.7973421926910299" fill="rgb(231,93,93)"><path d="M 483.8870,74.7508 l -0.0000,-6.9767 h -3.9867 l -0.0000,6.9767 Z"/></g></svg>