<svg xmlns="http://www.w3.org/2000/svg" height="311.3350" stroke-opacity="1" viewBox="0 0 300 311" font-size="1" width="300.0000" xmlns:xlink="http://www.w3.org/1999/xlink" stroke="rgb(0,0,0)" version="1.1"><defs></defs><g stroke-opacity="1.0" fill-opacity="1.0" stroke="rgb(77,175,74)" stroke-width="0.0" fill="rgb(114,185,112)"><path d="M 166.4200,165.4372 h 32.2733 v 40.4822 h -32.2733 Z"/></g><g><path d="M 182.5567,165.4372 v -33.7352 "/></g><g><path d="M 182.5567,205.9194 v 33.7352 "/></g><g><path d="M 166.4200,185.6783 h 32.2733 "/></g><g><path d="M 166.4200,165.4372 v 40.4822 "/></g><g><path d="M 166.4200,165.4372 h 32.2733 v 40.4822 h -32.2733 "/></g><g stroke-opacity="1.0" fill-opacity="1.0" stroke="rgb(55,126,184)" stroke-width="0.0" fill="rgb(103,146,193)"><path d="M 94.5923,100.1259 h 16.9238 v 30.7665 h -16.9238 Z"/></g><g><path d="M 103.0542,100.1259 v -25.6387 "/></g><g><path d="M 103.0542,130.8924 v 25.6387 "/></g><g><path d="M 94.5923,115.5092 h 16.9238 "/></g><g><path d="M 94.5923,100.1259 v 30.7665 "/></g><g><path d="M 94.5923,100.1259 h 16.9238 v 30.7665 h -16.9238 "/></g><g stroke-opacity="1.0" fill-opacity="1.0" stroke="rgb(228,26,28)" stroke-width="0.0" fill="rgb(231,93,93)"><path d="M 162.4843,100.1259 h 33.8476 v 30.7665 h -33.8476 Z"/></g><g><path d="M 179.4081,100.1259 v -25.6387 "/></g><g><path d="M 179.4081,130.8924 v 25.6387 "/></g><g><path d="M 162.4843,115.5092 h 33.8476 "/></g><g><path d="M 162.4843,100.1259 v 30.7665 "/></g><g><path d="M 162.4843,100.1259 h 33.8476 v 30.7665 h -33.8476 "/></g><g stroke-width="0.1"><path d="M 39.2947,258.5462 h 226.7003 M 39.2947,231.5581 h 226.7003 M 39.2947,204.5700 h 226.7003 M 39.2947,177.5819 h 226.7003 M 39.2947,150.5937 h 226.7003 M 39.2947,123.6056 h 226.7003 M 39.2947,96.6175 h 226.7003 M 39.2947,69.6294 h 226.7003 "/></g><g stroke-linecap="square"><path d="M 39.2947,272.0403 v -226.7003 M 265.9950,272.0403 v -226.7003 "/></g><g stroke-width="0.4"><path d="M 265.9950,265.2933 h 2.2670 M 265.9950,251.7992 h 2.2670 M 265.9950,245.0522 h 2.2670 M 265.9950,238.3051 h 2.2670 M 265.9950,224.8111 h 2.2670 M 265.9950,218.0641 h 2.2670 M 265.9950,211.3170 h 2.2670 M 265.9950,197.8230 h 2.2670 M 265.9950,191.0759 h 2.2670 M 265.9950,184.3289 h 2.2670 M 265.9950,170.8348 h 2.2670 M 265.9950,164.0878 h 2.2670 M 265.9950,157.3408 h 2.2670 M 265.9950,143.8467 h 2.2670 M 265.9950,137.0997 h 2.2670 M 265.9950,130.3526 h 2.2670 M 265.9950,116.8586 h 2.2670 M 265.9950,110.1116 h 2.2670 M 265.9950,103.3645 h 2.2670 M 265.9950,89.8705 h 2.2670 M 265.9950,83.1234 h 2.2670 M 265.9950,76.3764 h 2.2670 M 265.9950,62.8823 h 2.2670 M 265.9950,56.1353 h 2.2670 M 265.9950,49.3883 h 2.2670 "/></g><g stroke-width="0.4"><path d="M 265.9950,258.5462 h 3.7783 M 265.9950,231.5581 h 3.7783 M 265.9950,204.5700 h 3.7783 M 265.9950,177.5819 h 3.7783 M 265.9950,150.5937 h 3.7783 M 265.9950,123.6056 h 3.7783 M 265.9950,96.6175 h 3.7783 M 265.9950,69.6294 h 3.7783 "/></g><g stroke-width="0.4"><path d="M 37.0277,265.2933 h 2.2670 M 37.0277,251.7992 h 2.2670 M 37.0277,245.0522 h 2.2670 M 37.0277,238.3051 h 2.2670 M 37.0277,224.8111 h 2.2670 M 37.0277,218.0641 h 2.2670 M 37.0277,211.3170 h 2.2670 M 37.0277,197.8230 h 2.2670 M 37.0277,191.0759 h 2.2670 M 37.0277,184.3289 h 2.2670 M 37.0277,170.8348 h 2.2670 M 37.0277,164.0878 h 2.2670 M 37.0277,157.3408 h 2.2670 M 37.0277,143.8467 h 2.2670 M 37.0277,137.0997 h 2.2670 M 37.0277,130.3526 h 2.2670 M 37.0277,116.8586 h 2.2670 M 37.0277,110.1116 h 2.2670 M 37.0277,103.3645 h 2.2670 M 37.0277,89.8705 h 2.2670 M 37.0277,83.1234 h 2.2670 M 37.0277,76.3764 h 2.2670 M 37.0277,62.8823 h 2.2670 M 37.0277,56.1353 h 2.2670 M 37.0277,49.3883 h 2.2670 "/></g><g stroke-width="0.4"><path d="M 35.5164,258.5462 h 3.7783 M 35.5164,231.5581 h 3.7783 M 35.5164,204.5700 h 3.7783 M 35.5164,177.5819 h 3.7783 M 35.5164,150.5937 h 3.7783 M 35.5164,123.6056 h 3.7783 M 35.5164,96.6175 h 3.7783 M 35.5164,69.6294 h 3.7783 "/></g><g fill-opacity="1.0" font-size="11.0px" fill="rgb(0,0,0)"><text dominant-baseline="middle" transform="matrix(1.0000,0.0000,0.0000,1.0000,30.2267,69.6294)" stroke="none" text-anchor="end">6.0</text></g><g fill-opacity="1.0" font-size="11.0px" fill="rgb(0,0,0)"><text dominant-baseline="middle" transform="matrix(1.0000,0.0000,0.0000,1.0000,30.2267,96.6175)" stroke="none" text-anchor="end">5.5</text></g><g fill-opacity="1.0" font-size="11.0px" fill="rgb(0,0,0)"><text dominant-baseline="middle" transform="matrix(1.0000,0.0000,0.0000,1.0000,30.2267,123.6056)" stroke="none" text-anchor="end">5.0</text></g><g fill-opacity="1.0" font-size="11.0px" fill="rgb(0,0,0)"><text dominant-baseline="middle" transform="matrix(1.0000,0.0000,0.0000,1.0000,30.2267,150.5937)" stroke="none" text-anchor="end">4.5</text></g><g fill-opacity="1.0" font-size="11.0px" fill="rgb(0,0,0)"><text dominant-baseline="middle" transform="matrix(1.0000,0.0000,0.0000,1.0000,30.2267,177.5819)" stroke="none" text-anchor="end">4.0</text></g><g fill-opacity="1.0" font-size="11.0px" fill="rgb(0,0,0)"><text dominant-baseline="middle" transform="matrix(1.0000,0.0000,0.0000,1.0000,30.2267,204.5700)" stroke="none" text-anchor="end">3.5</text></g><g fill-opacity="1.0" font-size="11.0px" fill="rgb(0,0,0)"><text dominant-baseline="middle" transform="matrix(1.0000,0.0000,0.0000,1.0000,30.2267,231.5581)" stroke="none" text-anchor="end">3.0</text></g><g fill-opacity="1.0" font-size="11.0px" fill="rgb(0,0,0)"><text dominant-baseline="middle" transform="matrix(1.0000,0.0000,0.0000,1.0000,30.2267,258.5462)" stroke="none" text-anchor="end">2.5</text></g><g stroke-width="0.1"><path d="M 58.1864,272.0403 v -226.7003 M 89.6725,272.0403 v -226.7003 M 121.1587,272.0403 v -226.7003 M 152.6448,272.0403 v -226.7003 M 184.1310,272.0403 v -226.7003 M 215.6171,272.0403 v -226.7003 M 247.1033,272.0403 v -226.7003 "/></g><g stroke-linecap="square"><path d="M 39.2947,272.0403 h 226.7003 M 39.2947,45.3401 h 226.7003 "/></g><g stroke-width="0.4"><path d="M 42.4433,45.3401 v -2.2670 M 50.3149,45.3401 v -2.2670 M 66.0579,45.3401 v -2.2670 M 73.9295,45.3401 v -2.2670 M 81.8010,45.3401 v -2.2670 M 97.5441,45.3401 v -2.2670 M 105.4156,45.3401 v -2.2670 M 113.2872,45.3401 v -2.2670 M 129.0302,45.3401 v -2.2670 M 136.9018,45.3401 v -2.2670 M 144.7733,45.3401 v -2.2670 M 160.5164,45.3401 v -2.2670 M 168.3879,45.3401 v -2.2670 M 176.2594,45.3401 v -2.2670 M 192.0025,45.3401 v -2.2670 M 199.8741,45.3401 v -2.2670 M 207.7456,45.3401 v -2.2670 M 223.4887,45.3401 v -2.2670 M 231.3602,45.3401 v -2.2670 M 239.2317,45.3401 v -2.2670 M 254.9748,45.3401 v -2.2670 M 262.8463,45.3401 v -2.2670 "/></g><g stroke-width="0.4"><path d="M 58.1864,45.3401 v -3.7783 M 89.6725,45.3401 v -3.7783 M 121.1587,45.3401 v -3.7783 M 152.6448,45.3401 v -3.7783 M 184.1310,45.3401 v -3.7783 M 215.6171,45.3401 v -3.7783 M 247.1033,45.3401 v -3.7783 "/></g><g stroke-width="0.4"><path d="M 42.4433,274.3073 v -2.2670 M 50.3149,274.3073 v -2.2670 M 66.0579,274.3073 v -2.2670 M 73.9295,274.3073 v -2.2670 M 81.8010,274.3073 v -2.2670 M 97.5441,274.3073 v -2.2670 M 105.4156,274.3073 v -2.2670 M 113.2872,274.3073 v -2.2670 M 129.0302,274.3073 v -2.2670 M 136.9018,274.3073 v -2.2670 M 144.7733,274.3073 v -2.2670 M 160.5164,274.3073 v -2.2670 M 168.3879,274.3073 v -2.2670 M 176.2594,274.3073 v -2.2670 M 192.0025,274.3073 v -2.2670 M 199.8741,274.3073 v -2.2670 M 207.7456,274.3073 v -2.2670 M 223.4887,274.3073 v -2.2670 M 231.3602,274.3073 v -2.2670 M 239.2317,274.3073 v -2.2670 M 254.9748,274.3073 v -2.2670 M 262.8463,274.3073 v -2.2670 "/></g><g stroke-width="0.4"><path d="M 58.1864,275.8186 v -3.7783 M 89.6725,275.8186 v -3.7783 M 121.1587,275.8186 v -3.7783 M 152.6448,275.8186 v -3.7783 M 184.1310,275.8186 v -3.7783 M 215.6171,275.8186 v -3.7783 M 247.1033,275.8186 v -3.7783 "/></g><g fill-opacity="1.0" font-size="11.0px" fill="rgb(0,0,0)"><text dominant-baseline="text-before-edge" transform="matrix(1.0000,0.0000,0.0000,1.0000,247.1033,281.1083)" stroke="none" text-anchor="middle">3.5</text></g><g fill-opacity="1.0" font-size="11.0px" fill="rgb(0,0,0)"><text dominant-baseline="text-before-edge" transform="matrix(1.0000,0.0000,0.0000,1.0000,215.6171,281.1083)" stroke="none" text-anchor="middle">3.0</text></g><g fill-opacity="1.0" font-size="11.0px" fill="rgb(0,0,0)"><text dominant-baseline="text-before-edge" transform="matrix(1.0000,0.0000,0.0000,1.0000,184.1310,281.1083)" stroke="none" text-anchor="middle">2.5</text></g><g fill-opacity="1.0" font-size="11.0px" fill="rgb(0,0,0)"><text dominant-baseline="text-before-edge" transform="matrix(1.0000,0.0000,0.0000,1.0000,152.6448,281.1083)" stroke="none" text-anchor="middle">2.0</text></g><g fill-opacity="1.0" font-size="11.0px" fill="rgb(0,0,0)"><text dominant-baseline="text-before-edge" transform="matrix(1.0000,0.0000,0.0000,1.0000,121.1587,281.1083)" stroke="none" text-anchor="middle">1.5</text></g><g fill-opacity="1.0" font-size="11.0px" fill="rgb(0,0,0)"><text dominant-baseline="text-before-edge" transform="matrix(1.0000,0.0000,0.0000,1.0000,89.6725,281.1083)" stroke="none" text-anchor="middle">1.0</text></g><g fill-opacity="1.0" font-size="11.0px" fill="rgb(0,0,0)"><text dominant-baseline="text-before-edge" transform="matrix(1.0000,0.0000,0.0000,1.0000,58.1864,281.1083)" stroke="none" text-anchor="middle">0.5</text></g><g fill-opacity="1.0" font-size="16.0px" fill="rgb(0,0,0)"><text dominant-baseline="text-after-edge" transform="matrix(1.0000,0.0000,0.0000,1.0000,152.6448,30.2267)" stroke="none" text-anchor="middle"></text></g></svg>