<svg xmlns="http://www.w3.org/2000/svg" height="391.2418" stroke-opacity="1" viewBox="0 0 500 391" font-size="1" width="500.0000" xmlns:xlink="http://www.w3.org/1999/xlink" stroke="rgb(0,0,0)" version="1.1"><defs></defs><g stroke-opacity="1.0" fill-opacity="1.0" stroke="rgb(152,78,163)" stroke-width="1.0" fill="rgb(166,114,175)"><defs><clipPath id="myClip1"><path d="M 376.4111,410.3151 l -0.0000,-395.4844 h -395.4844 l -0.0000,395.4844 Z"/></clipPath></defs><g clip-path="url(#myClip1)"><path d="M 260.5880,212.5729 h 81.9191 c 0.0000,-90.4854 -73.3529,-163.8382 -163.8382 -163.8382c -37.1163,-0.0000 -73.1328,12.6027 -102.1515 35.7443l 51.0757,64.0469 c 35.3722,-28.2083 86.9143,-22.4009 115.1227 12.9712c 11.5708,14.5094 17.8722,32.5176 17.8722 51.0757Z"/></g></g><g stroke-opacity="1.0" fill-opacity="1.0" stroke="rgb(77,175,74)" stroke-width="1.0" fill="rgb(114,185,112)"><defs><clipPath id="myClip2"><path d="M 376.4111,410.3151 l -0.0000,-395.4844 h -395.4844 l -0.0000,395.4844 Z"/></clipPath></defs><g clip-path="url(#myClip2)"><path d="M 127.5932,148.5259 l -51.0757,-64.0469 c -38.9821,31.0872 -61.6868,78.2339 -61.6868 128.0939l 81.9191,0.0000 c 0.0000,-24.9300 11.3523,-48.5033 30.8434 -64.0469Z"/></g></g><g stroke-opacity="1.0" fill-opacity="1.0" stroke="rgb(55,126,184)" stroke-width="1.0" fill="rgb(103,146,193)"><defs><clipPath id="myClip3"><path d="M 376.4111,410.3151 l -0.0000,-395.4844 h -395.4844 l -0.0000,395.4844 Z"/></clipPath></defs><g clip-path="url(#myClip3)"><path d="M 96.7498,212.5729 l -81.9191,-0.0000 c -0.0000,90.4854 73.3529,163.8382 163.8382 163.8382c 12.2679,0.0000 24.4971,-1.3779 36.4574 -4.1078l -18.2287,-79.8652 c -44.1084,10.0674 -88.0265,-17.5282 -98.0940 -61.6365c -1.3649,-5.9802 -2.0539,-12.0947 -2.0539 -18.2287Z"/></g></g><g stroke-opacity="1.0" fill-opacity="1.0" stroke="rgb(228,26,28)" stroke-width="1.0" fill="rgb(231,93,93)"><defs><clipPath id="myClip4"><path d="M 376.4111,410.3151 l -0.0000,-395.4844 h -395.4844 l -0.0000,395.4844 Z"/></clipPath></defs><g clip-path="url(#myClip4)"><path d="M 196.8976,292.4381 l 18.2287,79.8652 c 74.5228,-17.0093 127.3808,-83.2912 127.3808 -159.7305l -81.9191,-0.0000 c -0.0000,38.2197 -26.4290,71.3606 -63.6904 79.8652Z"/></g></g><g><path d="M 480.2258,93.9276 l -0.0000,-79.0969 h -84.0404 l -0.0000,79.0969 Z"/></g><g fill-opacity="1.0" font-size="8.0px" fill="rgb(0,0,0)"><text dominant-baseline="middle" transform="matrix(1.0000,0.0000,0.0000,1.0000,425.8467,84.0404)" stroke="none" text-anchor="start">purple</text></g><g stroke-opacity="1.0" fill-opacity="1.0" stroke="rgb(152,78,163)" stroke-width="1.0" fill="rgb(166,114,175)"><path d="M 413.4878,86.5122 l -0.0000,-4.9436 h -4.9436 l -0.0000,4.9436 Z"/></g><g fill-opacity="1.0" font-size="8.0px" fill="rgb(0,0,0)"><text dominant-baseline="middle" transform="matrix(1.0000,0.0000,0.0000,1.0000,425.8467,64.2662)" stroke="none" text-anchor="start">green</text></g><g stroke-opacity="1.0" fill-opacity="1.0" stroke="rgb(77,175,74)" stroke-width="1.0" fill="rgb(114,185,112)"><path d="M 413.4878,66.7380 l -0.0000,-4.9436 h -4.9436 l -0.0000,4.9436 Z"/></g><g fill-opacity="1.0" font-size="8.0px" fill="rgb(0,0,0)"><text dominant-baseline="middle" transform="matrix(1.0000,0.0000,0.0000,1.0000,425.8467,44.4920)" stroke="none" text-anchor="start">blue</text></g><g stroke-opacity="1.0" fill-opacity="1.0" stroke="rgb(55,126,184)" stroke-width="1.0" fill="rgb(103,146,193)"><path d="M 413.4878,46.9638 l -0.0000,-4.9436 h -4.9436 l -0.0000,4.9436 Z"/></g><g fill-opacity="1.0" font-size="8.0px" fill="rgb(0,0,0)"><text dominant-baseline="middle" transform="matrix(1.0000,0.0000,0.0000,1.0000,425.8467,24.7178)" stroke="none" text-anchor="start">red</text></g><g stroke-opacity="1.0" fill-opacity="1.0" stroke="rgb(228,26,28)" stroke-width="1.0" fill="rgb(231,93,93)"><path d="M 413.4878,27.1896 l -0.0000,-4.9436 h -4.9436 l -0.0000,4.9436 Z"/></g></svg>