<svg xmlns="http://www.w3.org/2000/svg" height="350.0000" stroke-opacity="1" viewBox="0 0 447 350" font-size="1" width="447.2937" xmlns:xlink="http://www.w3.org/1999/xlink" stroke="rgb(0,0,0)" version="1.1"><defs></defs><g stroke-opacity="1.0" fill-opacity="1.0" stroke="rgb(152,78,163)" stroke-width="1.0" fill="rgb(166,114,175)"><defs><clipPath id="myClip1"><path d="M 336.7327,367.0628 l -0.0000,-353.7954 h -353.7954 l -0.0000,353.7954 Z"/></clipPath></defs><g clip-path="url(#myClip1)"><path d="M 233.1188,190.1650 h 73.2838 c 0.0000,-80.9471 -65.6206,-146.5676 -146.5676 -146.5676c -33.2038,-0.0000 -65.4237,11.2742 -91.3834 31.9764l 45.6917,57.2956 c 31.6435,-25.2348 77.7525,-20.0396 102.9873 11.6039c 10.3511,12.9799 15.9882,29.0898 15.9882 45.6917Z"/></g></g><g stroke-opacity="1.0" fill-opacity="1.0" stroke="rgb(77,175,74)" stroke-width="1.0" fill="rgb(114,185,112)"><defs><clipPath id="myClip2"><path d="M 336.7327,367.0628 l -0.0000,-353.7954 h -353.7954 l -0.0000,353.7954 Z"/></clipPath></defs><g clip-path="url(#myClip2)"><path d="M 114.1432,132.8694 l -45.6917,-57.2956 c -34.8729,27.8102 -55.1842,69.9870 -55.1842 114.5912l 73.2838,0.0000 c 0.0000,-22.3021 10.1556,-43.3905 27.5921 -57.2956Z"/></g></g><g stroke-opacity="1.0" fill-opacity="1.0" stroke="rgb(55,126,184)" stroke-width="1.0" fill="rgb(103,146,193)"><defs><clipPath id="myClip3"><path d="M 336.7327,367.0628 l -0.0000,-353.7954 h -353.7954 l -0.0000,353.7954 Z"/></clipPath></defs><g clip-path="url(#myClip3)"><path d="M 86.5511,190.1650 l -73.2838,-0.0000 c -0.0000,80.9471 65.6206,146.5676 146.5676 146.5676c 10.9747,0.0000 21.9148,-1.2326 32.6144 -3.6748l -16.3072,-71.4464 c -39.4588,9.0062 -78.7474,-15.6805 -87.7536 -55.1393c -1.2211,-5.3498 -1.8374,-10.8198 -1.8374 -16.3072Z"/></g></g><g stroke-opacity="1.0" fill-opacity="1.0" stroke="rgb(228,26,28)" stroke-width="1.0" fill="rgb(231,93,93)"><defs><clipPath id="myClip4"><path d="M 336.7327,367.0628 l -0.0000,-353.7954 h -353.7954 l -0.0000,353.7954 Z"/></clipPath></defs><g clip-path="url(#myClip4)"><path d="M 176.1421,261.6115 l 16.3072,71.4464 c 66.6672,-15.2163 113.9533,-74.5112 113.9533 -142.8929l -73.2838,-0.0000 c -0.0000,34.1908 -23.6430,63.8383 -56.9766 71.4464Z"/></g></g><g fill-opacity="0.0" fill="rgb(0,0,0)"><path d="M 429.6040,84.0264 l -0.0000,-70.7591 h -75.1815 l -0.0000,70.7591 Z"/></g><g fill-opacity="1.0" font-size="11.0px" fill="rgb(0,0,0)"><text dominant-baseline="middle" transform="matrix(1.0000,0.0000,0.0000,1.0000,380.9571,75.1815)" stroke="none" text-anchor="start">purple</text></g><g stroke-opacity="1.0" fill-opacity="1.0" stroke="rgb(152,78,163)" stroke-width="1.0" fill="rgb(166,114,175)"><path d="M 369.9010,77.3927 l -0.0000,-4.4224 h -4.4224 l -0.0000,4.4224 Z"/></g><g fill-opacity="1.0" font-size="11.0px" fill="rgb(0,0,0)"><text dominant-baseline="middle" transform="matrix(1.0000,0.0000,0.0000,1.0000,380.9571,57.4918)" stroke="none" text-anchor="start">green</text></g><g stroke-opacity="1.0" fill-opacity="1.0" stroke="rgb(77,175,74)" stroke-width="1.0" fill="rgb(114,185,112)"><path d="M 369.9010,59.7030 l -0.0000,-4.4224 h -4.4224 l -0.0000,4.4224 Z"/></g><g fill-opacity="1.0" font-size="11.0px" fill="rgb(0,0,0)"><text dominant-baseline="middle" transform="matrix(1.0000,0.0000,0.0000,1.0000,380.9571,39.8020)" stroke="none" text-anchor="start">blue</text></g><g stroke-opacity="1.0" fill-opacity="1.0" stroke="rgb(55,126,184)" stroke-width="1.0" fill="rgb(103,146,193)"><path d="M 369.9010,42.0132 l -0.0000,-4.4224 h -4.4224 l -0.0000,4.4224 Z"/></g><g fill-opacity="1.0" font-size="11.0px" fill="rgb(0,0,0)"><text dominant-baseline="middle" transform="matrix(1.0000,0.0000,0.0000,1.0000,380.9571,22.1122)" stroke="none" text-anchor="start">red</text></g><g stroke-opacity="1.0" fill-opacity="1.0" stroke="rgb(228,26,28)" stroke-width="1.0" fill="rgb(231,93,93)"><path d="M 369.9010,24.3234 l -0.0000,-4.4224 h -4.4224 l -0.0000,4.4224 Z"/></g></svg>