<svg xmlns="http://www.w3.org/2000/svg" height="474.5020" stroke-opacity="1" viewBox="0 0 600 475" font-size="1" width="600.0000" xmlns:xlink="http://www.w3.org/1999/xlink" stroke="rgb(0,0,0)" version="1.1"><defs></defs><g stroke-opacity="1.0" fill-opacity="1.0" opacity="0.5" stroke="rgb(0,0,255)" stroke-width="1.0" fill="rgb(89,89,255)"><path d="M 360.9562,382.4701 h 29.8805 v -49.8008 h -29.8805 Z"/></g><g stroke-opacity="1.0" fill-opacity="1.0" opacity="0.5" stroke="rgb(0,0,255)" stroke-width="1.0" fill="rgb(89,89,255)"><path d="M 331.0757,382.4701 h 29.8805 v -19.9203 h -29.8805 Z"/></g><g stroke-opacity="1.0" fill-opacity="1.0" opacity="0.5" stroke="rgb(0,0,255)" stroke-width="1.0" fill="rgb(89,89,255)"><path d="M 301.1952,382.4701 h 29.8805 v -99.6016 h -29.8805 Z"/></g><g stroke-opacity="1.0" fill-opacity="1.0" opacity="0.5" stroke="rgb(0,0,255)" stroke-width="1.0" fill="rgb(89,89,255)"><path d="M 271.3147,382.4701 h 29.8805 v -179.2829 h -29.8805 Z"/></g><g stroke-opacity="1.0" fill-opacity="1.0" opacity="0.5" stroke="rgb(0,0,255)" stroke-width="1.0" fill="rgb(89,89,255)"><path d="M 241.4343,382.4701 h 29.8805 v -199.2032 h -29.8805 Z"/></g><g stroke-opacity="1.0" fill-opacity="1.0" opacity="0.5" stroke="rgb(0,0,255)" stroke-width="1.0" fill="rgb(89,89,255)"><path d="M 211.5538,382.4701 h 29.8805 v -298.8048 h -29.8805 Z"/></g><g stroke-opacity="1.0" fill-opacity="1.0" opacity="0.5" stroke="rgb(0,0,255)" stroke-width="1.0" fill="rgb(89,89,255)"><path d="M 181.6733,382.4701 h 29.8805 v -199.2032 h -29.8805 Z"/></g><g stroke-opacity="1.0" fill-opacity="1.0" opacity="0.5" stroke="rgb(0,0,255)" stroke-width="1.0" fill="rgb(89,89,255)"><path d="M 151.7928,382.4701 h 29.8805 v -288.8446 h -29.8805 Z"/></g><g stroke-opacity="1.0" fill-opacity="1.0" opacity="0.5" stroke="rgb(0,0,255)" stroke-width="1.0" fill="rgb(89,89,255)"><path d="M 121.9124,382.4701 h 29.8805 v -119.5219 h -29.8805 Z"/></g><g stroke-opacity="1.0" fill-opacity="1.0" opacity="0.5" stroke="rgb(0,0,255)" stroke-width="1.0" fill="rgb(89,89,255)"><path d="M 92.0319,382.4701 h 29.8805 v -39.8406 h -29.8805 Z"/></g><g stroke-width="0.1"><path d="M 62.1514,382.4701 h 358.5657 M 62.1514,332.6693 h 358.5657 M 62.1514,282.8685 h 358.5657 M 62.1514,233.0677 h 358.5657 M 62.1514,183.2669 h 358.5657 M 62.1514,133.4661 h 358.5657 M 62.1514,83.6653 h 358.5657 "/></g><g stroke-linecap="square"><path d="M 62.1514,412.3506 v -358.5657 M 420.7171,412.3506 v -358.5657 "/></g><g stroke-width="0.4"><path d="M 420.7171,407.3705 h 3.5857 M 420.7171,394.9203 h 3.5857 M 420.7171,370.0199 h 3.5857 M 420.7171,357.5697 h 3.5857 M 420.7171,345.1195 h 3.5857 M 420.7171,320.2191 h 3.5857 M 420.7171,307.7689 h 3.5857 M 420.7171,295.3187 h 3.5857 M 420.7171,270.4183 h 3.5857 M 420.7171,257.9681 h 3.5857 M 420.7171,245.5179 h 3.5857 M 420.7171,220.6175 h 3.5857 M 420.7171,208.1673 h 3.5857 M 420.7171,195.7171 h 3.5857 M 420.7171,170.8167 h 3.5857 M 420.7171,158.3665 h 3.5857 M 420.7171,145.9163 h 3.5857 M 420.7171,121.0159 h 3.5857 M 420.7171,108.5657 h 3.5857 M 420.7171,96.1155 h 3.5857 M 420.7171,71.2151 h 3.5857 M 420.7171,58.7649 h 3.5857 "/></g><g stroke-width="0.4"><path d="M 420.7171,382.4701 h 5.9761 M 420.7171,332.6693 h 5.9761 M 420.7171,282.8685 h 5.9761 M 420.7171,233.0677 h 5.9761 M 420.7171,183.2669 h 5.9761 M 420.7171,133.4661 h 5.9761 M 420.7171,83.6653 h 5.9761 "/></g><g stroke-width="0.4"><path d="M 58.5657,407.3705 h 3.5857 M 58.5657,394.9203 h 3.5857 M 58.5657,370.0199 h 3.5857 M 58.5657,357.5697 h 3.5857 M 58.5657,345.1195 h 3.5857 M 58.5657,320.2191 h 3.5857 M 58.5657,307.7689 h 3.5857 M 58.5657,295.3187 h 3.5857 M 58.5657,270.4183 h 3.5857 M 58.5657,257.9681 h 3.5857 M 58.5657,245.5179 h 3.5857 M 58.5657,220.6175 h 3.5857 M 58.5657,208.1673 h 3.5857 M 58.5657,195.7171 h 3.5857 M 58.5657,170.8167 h 3.5857 M 58.5657,158.3665 h 3.5857 M 58.5657,145.9163 h 3.5857 M 58.5657,121.0159 h 3.5857 M 58.5657,108.5657 h 3.5857 M 58.5657,96.1155 h 3.5857 M 58.5657,71.2151 h 3.5857 M 58.5657,58.7649 h 3.5857 "/></g><g stroke-width="0.4"><path d="M 56.1753,382.4701 h 5.9761 M 56.1753,332.6693 h 5.9761 M 56.1753,282.8685 h 5.9761 M 56.1753,233.0677 h 5.9761 M 56.1753,183.2669 h 5.9761 M 56.1753,133.4661 h 5.9761 M 56.1753,83.6653 h 5.9761 "/></g><g fill-opacity="1.0" font-size="11.0px" fill="rgb(0,0,0)"><text dominant-baseline="middle" transform="matrix(1.0000,0.0000,0.0000,1.0000,47.8088,83.6653)" stroke="none" text-anchor="end">30.0</text></g><g fill-opacity="1.0" font-size="11.0px" fill="rgb(0,0,0)"><text dominant-baseline="middle" transform="matrix(1.0000,0.0000,0.0000,1.0000,47.8088,133.4661)" stroke="none" text-anchor="end">25.0</text></g><g fill-opacity="1.0" font-size="11.0px" fill="rgb(0,0,0)"><text dominant-baseline="middle" transform="matrix(1.0000,0.0000,0.0000,1.0000,47.8088,183.2669)" stroke="none" text-anchor="end">20.0</text></g><g fill-opacity="1.0" font-size="11.0px" fill="rgb(0,0,0)"><text dominant-baseline="middle" transform="matrix(1.0000,0.0000,0.0000,1.0000,47.8088,233.0677)" stroke="none" text-anchor="end">15.0</text></g><g fill-opacity="1.0" font-size="11.0px" fill="rgb(0,0,0)"><text dominant-baseline="middle" transform="matrix(1.0000,0.0000,0.0000,1.0000,47.8088,282.8685)" stroke="none" text-anchor="end">10.0</text></g><g fill-opacity="1.0" font-size="11.0px" fill="rgb(0,0,0)"><text dominant-baseline="middle" transform="matrix(1.0000,0.0000,0.0000,1.0000,47.8088,332.6693)" stroke="none" text-anchor="end">5.0</text></g><g fill-opacity="1.0" font-size="11.0px" fill="rgb(0,0,0)"><text dominant-baseline="middle" transform="matrix(1.0000,0.0000,0.0000,1.0000,47.8088,382.4701)" stroke="none" text-anchor="end">0.0</text></g><g stroke-width="0.1"><path d="M 84.5618,412.3506 v -358.5657 M 159.2629,412.3506 v -358.5657 M 233.9641,412.3506 v -358.5657 M 308.6653,412.3506 v -358.5657 M 383.3665,412.3506 v -358.5657 "/></g><g stroke-linecap="square"><path d="M 62.1514,412.3506 h 358.5657 M 62.1514,53.7849 h 358.5657 "/></g><g stroke-width="0.4"><path d="M 65.8865,53.7849 v -3.5857 M 103.2371,53.7849 v -3.5857 M 121.9124,53.7849 v -3.5857 M 140.5876,53.7849 v -3.5857 M 177.9382,53.7849 v -3.5857 M 196.6135,53.7849 v -3.5857 M 215.2888,53.7849 v -3.5857 M 252.6394,53.7849 v -3.5857 M 271.3147,53.7849 v -3.5857 M 289.9900,53.7849 v -3.5857 M 327.3406,53.7849 v -3.5857 M 346.0159,53.7849 v -3.5857 M 364.6912,53.7849 v -3.5857 M 402.0418,53.7849 v -3.5857 "/></g><g stroke-width="0.4"><path d="M 84.5618,53.7849 v -5.9761 M 159.2629,53.7849 v -5.9761 M 233.9641,53.7849 v -5.9761 M 308.6653,53.7849 v -5.9761 M 383.3665,53.7849 v -5.9761 "/></g><g stroke-width="0.4"><path d="M 65.8865,415.9363 v -3.5857 M 103.2371,415.9363 v -3.5857 M 121.9124,415.9363 v -3.5857 M 140.5876,415.9363 v -3.5857 M 177.9382,415.9363 v -3.5857 M 196.6135,415.9363 v -3.5857 M 215.2888,415.9363 v -3.5857 M 252.6394,415.9363 v -3.5857 M 271.3147,415.9363 v -3.5857 M 289.9900,415.9363 v -3.5857 M 327.3406,415.9363 v -3.5857 M 346.0159,415.9363 v -3.5857 M 364.6912,415.9363 v -3.5857 M 402.0418,415.9363 v -3.5857 "/></g><g stroke-width="0.4"><path d="M 84.5618,418.3267 v -5.9761 M 159.2629,418.3267 v -5.9761 M 233.9641,418.3267 v -5.9761 M 308.6653,418.3267 v -5.9761 M 383.3665,418.3267 v -5.9761 "/></g><g fill-opacity="1.0" font-size="11.0px" fill="rgb(0,0,0)"><text dominant-baseline="text-before-edge" transform="matrix(1.0000,0.0000,0.0000,1.0000,383.3665,426.6932)" stroke="none" text-anchor="middle">8.0</text></g><g fill-opacity="1.0" font-size="11.0px" fill="rgb(0,0,0)"><text dominant-baseline="text-before-edge" transform="matrix(1.0000,0.0000,0.0000,1.0000,308.6653,426.6932)" stroke="none" text-anchor="middle">7.0</text></g><g fill-opacity="1.0" font-size="11.0px" fill="rgb(0,0,0)"><text dominant-baseline="text-before-edge" transform="matrix(1.0000,0.0000,0.0000,1.0000,233.9641,426.6932)" stroke="none" text-anchor="middle">6.0</text></g><g fill-opacity="1.0" font-size="11.0px" fill="rgb(0,0,0)"><text dominant-baseline="text-before-edge" transform="matrix(1.0000,0.0000,0.0000,1.0000,159.2629,426.6932)" stroke="none" text-anchor="middle">5.0</text></g><g fill-opacity="1.0" font-size="11.0px" fill="rgb(0,0,0)"><text dominant-baseline="text-before-edge" transform="matrix(1.0000,0.0000,0.0000,1.0000,84.5618,426.6932)" stroke="none" text-anchor="middle">4.0</text></g><g><path d="M 516.3347,77.6892 l -0.0000,-23.9044 h -71.7131 l -0.0000,23.9044 Z"/></g><g fill-opacity="1.0" font-size="8.0px" fill="rgb(0,0,0)"><text dominant-baseline="middle" transform="matrix(1.0000,0.0000,0.0000,1.0000,480.4781,65.7371)" stroke="none" text-anchor="start">histogram</text></g><g stroke-opacity="1.0" fill-opacity="1.0" opacity="0.5" stroke="rgb(0,0,255)" stroke-width="0.9561752988047811" fill="rgb(89,89,255)"><path d="M 469.7211,71.7131 l -0.0000,-7.1713 h -4.7809 l -0.0000,7.1713 Z"/></g><g stroke-opacity="1.0" fill-opacity="1.0" opacity="0.5" stroke="rgb(0,0,255)" stroke-width="0.9561752988047811" fill="rgb(89,89,255)"><path d="M 464.9402,71.7131 l -0.0000,-11.9522 h -4.7809 l -0.0000,11.9522 Z"/></g><g stroke-opacity="1.0" fill-opacity="1.0" opacity="0.5" stroke="rgb(0,0,255)" stroke-width="0.9561752988047811" fill="rgb(89,89,255)"><path d="M 460.1594,71.7131 l -0.0000,-8.3665 h -4.7809 l -0.0000,8.3665 Z"/></g></svg>