<svg xmlns="http://www.w3.org/2000/svg" height="500.0481" stroke-opacity="1" viewBox="0 0 500 500" font-size="1" width="500.0000" xmlns:xlink="http://www.w3.org/1999/xlink" stroke="rgb(0,0,0)" version="1.1"><defs></defs><g stroke-opacity="1.0" fill-opacity="1.0" stroke="rgb(152,78,163)" stroke-width="1.0" fill="rgb(166,114,175)"><defs><clipPath id="myClip1"><path d="M 526.6881,526.7326 l -0.0000,-553.3648 h -553.3648 l -0.0000,553.3648 Z"/></clipPath></defs><g clip-path="url(#myClip1)"><path d="M 364.6272,250.0502 h 114.6216 c 0.0000,-89.7491 -52.3734,-171.2438 -134.0121 -208.5269l -47.6155,104.2635 c 40.8193,18.6416 67.0061,59.3889 67.0061 104.2635Z"/></g></g><g stroke-opacity="1.0" fill-opacity="1.0" stroke="rgb(77,175,74)" stroke-width="1.0" fill="rgb(114,185,112)"><defs><clipPath id="myClip2"><path d="M 526.6881,526.7326 l -0.0000,-553.3648 h -553.3648 l -0.0000,553.3648 Z"/></clipPath></defs><g clip-path="url(#myClip2)"><path d="M 297.6212,145.7867 l 47.6155,-104.2635 c -115.1662,-52.5947 -251.1633,-1.8704 -303.7580 113.2959c -42.2612,92.5392 -18.4798,201.8608 58.4046 268.4815l 75.0612,-86.6252 c -47.8418,-41.4551 -53.0192,-113.8446 -11.5640 -161.6864c 33.3103,-38.4422 87.9711,-50.3329 134.2407 -29.2023Z"/></g></g><g stroke-opacity="1.0" fill-opacity="1.0" stroke="rgb(55,126,184)" stroke-width="1.0" fill="rgb(103,146,193)"><defs><clipPath id="myClip3"><path d="M 526.6881,526.7326 l -0.0000,-553.3648 h -553.3648 l -0.0000,553.3648 Z"/></clipPath></defs><g clip-path="url(#myClip3)"><path d="M 174.9445,336.6754 l -75.0612,86.6252 c 95.6836,82.9103 240.4625,72.5555 323.3728 -23.1281c 7.1488,-8.2502 13.6992,-17.0005 19.6012 -26.1841l -96.4258,-61.9691 c -34.2246,53.2545 -105.1404,68.6813 -158.3949 34.4567c -4.5918,-2.9510 -8.9670,-6.2262 -13.0921 -9.8006Z"/></g></g><g stroke-opacity="1.0" fill-opacity="1.0" stroke="rgb(228,26,28)" stroke-width="1.0" fill="rgb(231,93,93)"><defs><clipPath id="myClip4"><path d="M 526.6881,526.7326 l -0.0000,-553.3648 h -553.3648 l -0.0000,553.3648 Z"/></clipPath></defs><g clip-path="url(#myClip4)"><path d="M 346.4315,312.0193 l 96.4258,61.9691 c 23.7595,-36.9705 36.3915,-79.9913 36.3915 -123.9382l -114.6216,-0.0000 c -0.0000,21.9735 -6.3160,43.4839 -18.1958 61.9691Z"/></g></g></svg>