<svg xmlns="http://www.w3.org/2000/svg" height="622.6700" stroke-opacity="1" viewBox="0 0 600 623" font-size="1" width="600.0000" xmlns:xlink="http://www.w3.org/1999/xlink" stroke="rgb(0,0,0)" version="1.1"><defs></defs><g stroke-opacity="1.0" fill-opacity="1.0" stroke="rgb(77,175,74)" stroke-width="1.0" fill="rgb(114,185,112)"><path d="M 494.9622,247.8657 l -0.7557,-1.3089 l -0.7557,1.3089 Z"/></g><g stroke-opacity="1.0" fill-opacity="1.0" stroke="rgb(77,175,74)" stroke-width="1.0" fill="rgb(114,185,112)"><path d="M 457.1788,506.9517 l -0.7557,-1.3089 l -0.7557,1.3089 Z"/></g><g stroke-opacity="1.0" fill-opacity="1.0" stroke="rgb(77,175,74)" stroke-width="1.0" fill="rgb(114,185,112)"><path d="M 306.0453,237.0704 l -0.7557,-1.3089 l -0.7557,1.3089 Z"/></g><g stroke-opacity="1.0" fill-opacity="1.0" stroke="rgb(77,175,74)" stroke-width="1.0" fill="rgb(114,185,112)"><path d="M 205.2897,496.1564 l -0.7557,-1.3089 l -0.7557,1.3089 Z"/></g><g stroke-opacity="1.0" fill-opacity="1.0" stroke="rgb(55,126,184)" stroke-width="1.0" fill="rgb(103,146,193)"><path d="M 274.5592,129.2191 l -0.0000,-1.5113 h -1.5113 l -0.0000,1.5113 Z"/></g><g stroke-opacity="1.0" fill-opacity="1.0" stroke="rgb(55,126,184)" stroke-width="1.0" fill="rgb(103,146,193)"><path d="M 255.6675,140.0144 l -0.0000,-1.5113 h -1.5113 l -0.0000,1.5113 Z"/></g><g stroke-opacity="1.0" fill-opacity="1.0" stroke="rgb(55,126,184)" stroke-width="1.0" fill="rgb(103,146,193)"><path d="M 180.1008,193.9906 l -0.0000,-1.5113 h -1.5113 l -0.0000,1.5113 Z"/></g><g stroke-opacity="1.0" fill-opacity="1.0" stroke="rgb(55,126,184)" stroke-width="1.0" fill="rgb(103,146,193)"><path d="M 117.1285,463.8719 l -0.0000,-1.5113 h -1.5113 l -0.0000,1.5113 Z"/></g><g stroke-opacity="1.0" fill-opacity="1.0" stroke="rgb(228,26,28)" stroke-width="1.0" fill="rgb(231,93,93)"><path d="M 494.9622,128.4635 c 0.0000,-0.4173 -0.3383,-0.7557 -0.7557 -0.7557c -0.4173,-0.0000 -0.7557,0.3383 -0.7557 0.7557c -0.0000,0.4173 0.3383,0.7557 0.7557 0.7557c 0.4173,0.0000 0.7557,-0.3383 0.7557 -0.7557Z"/></g><g stroke-opacity="1.0" fill-opacity="1.0" stroke="rgb(228,26,28)" stroke-width="1.0" fill="rgb(231,93,93)"><path d="M 457.1788,139.2587 c 0.0000,-0.4173 -0.3383,-0.7557 -0.7557 -0.7557c -0.4173,-0.0000 -0.7557,0.3383 -0.7557 0.7557c -0.0000,0.4173 0.3383,0.7557 0.7557 0.7557c 0.4173,0.0000 0.7557,-0.3383 0.7557 -0.7557Z"/></g><g stroke-opacity="1.0" fill-opacity="1.0" stroke="rgb(228,26,28)" stroke-width="1.0" fill="rgb(231,93,93)"><path d="M 306.0453,193.2350 c 0.0000,-0.4173 -0.3383,-0.7557 -0.7557 -0.7557c -0.4173,-0.0000 -0.7557,0.3383 -0.7557 0.7557c -0.0000,0.4173 0.3383,0.7557 0.7557 0.7557c 0.4173,0.0000 0.7557,-0.3383 0.7557 -0.7557Z"/></g><g stroke-opacity="1.0" fill-opacity="1.0" stroke="rgb(228,26,28)" stroke-width="1.0" fill="rgb(231,93,93)"><path d="M 180.1008,463.1162 c 0.0000,-0.4173 -0.3383,-0.7557 -0.7557 -0.7557c -0.4173,-0.0000 -0.7557,0.3383 -0.7557 0.7557c -0.0000,0.4173 0.3383,0.7557 0.7557 0.7557c 0.4173,0.0000 0.7557,-0.3383 0.7557 -0.7557Z"/></g><g stroke-width="0.1"><path d="M 78.5894,517.0925 h 453.4005 M 78.5894,463.1162 h 453.4005 M 78.5894,409.1400 h 453.4005 M 78.5894,355.1637 h 453.4005 M 78.5894,301.1875 h 453.4005 M 78.5894,247.2112 h 453.4005 M 78.5894,193.2350 h 453.4005 M 78.5894,139.2587 h 453.4005 "/></g><g stroke-linecap="square"><path d="M 78.5894,544.0806 v -453.4005 M 531.9899,544.0806 v -453.4005 "/></g><g stroke-width="0.4"><path d="M 531.9899,530.5865 h 4.5340 M 531.9899,503.5984 h 4.5340 M 531.9899,490.1044 h 4.5340 M 531.9899,476.6103 h 4.5340 M 531.9899,449.6222 h 4.5340 M 531.9899,436.1281 h 4.5340 M 531.9899,422.6340 h 4.5340 M 531.9899,395.6459 h 4.5340 M 531.9899,382.1519 h 4.5340 M 531.9899,368.6578 h 4.5340 M 531.9899,341.6697 h 4.5340 M 531.9899,328.1756 h 4.5340 M 531.9899,314.6815 h 4.5340 M 531.9899,287.6934 h 4.5340 M 531.9899,274.1994 h 4.5340 M 531.9899,260.7053 h 4.5340 M 531.9899,233.7172 h 4.5340 M 531.9899,220.2231 h 4.5340 M 531.9899,206.7290 h 4.5340 M 531.9899,179.7409 h 4.5340 M 531.9899,166.2469 h 4.5340 M 531.9899,152.7528 h 4.5340 M 531.9899,125.7647 h 4.5340 M 531.9899,112.2706 h 4.5340 M 531.9899,98.7765 h 4.5340 "/></g><g stroke-width="0.4"><path d="M 531.9899,517.0925 h 7.5567 M 531.9899,463.1162 h 7.5567 M 531.9899,409.1400 h 7.5567 M 531.9899,355.1637 h 7.5567 M 531.9899,301.1875 h 7.5567 M 531.9899,247.2112 h 7.5567 M 531.9899,193.2350 h 7.5567 M 531.9899,139.2587 h 7.5567 "/></g><g stroke-width="0.4"><path d="M 74.0554,530.5865 h 4.5340 M 74.0554,503.5984 h 4.5340 M 74.0554,490.1044 h 4.5340 M 74.0554,476.6103 h 4.5340 M 74.0554,449.6222 h 4.5340 M 74.0554,436.1281 h 4.5340 M 74.0554,422.6340 h 4.5340 M 74.0554,395.6459 h 4.5340 M 74.0554,382.1519 h 4.5340 M 74.0554,368.6578 h 4.5340 M 74.0554,341.6697 h 4.5340 M 74.0554,328.1756 h 4.5340 M 74.0554,314.6815 h 4.5340 M 74.0554,287.6934 h 4.5340 M 74.0554,274.1994 h 4.5340 M 74.0554,260.7053 h 4.5340 M 74.0554,233.7172 h 4.5340 M 74.0554,220.2231 h 4.5340 M 74.0554,206.7290 h 4.5340 M 74.0554,179.7409 h 4.5340 M 74.0554,166.2469 h 4.5340 M 74.0554,152.7528 h 4.5340 M 74.0554,125.7647 h 4.5340 M 74.0554,112.2706 h 4.5340 M 74.0554,98.7765 h 4.5340 "/></g><g stroke-width="0.4"><path d="M 71.0327,517.0925 h 7.5567 M 71.0327,463.1162 h 7.5567 M 71.0327,409.1400 h 7.5567 M 71.0327,355.1637 h 7.5567 M 71.0327,301.1875 h 7.5567 M 71.0327,247.2112 h 7.5567 M 71.0327,193.2350 h 7.5567 M 71.0327,139.2587 h 7.5567 "/></g><g fill-opacity="1.0" font-size="11.0px" fill="rgb(0,0,0)"><text dominant-baseline="middle" transform="matrix(1.0000,0.0000,0.0000,1.0000,60.4534,139.2587)" stroke="none" text-anchor="end">6.0</text></g><g fill-opacity="1.0" font-size="11.0px" fill="rgb(0,0,0)"><text dominant-baseline="middle" transform="matrix(1.0000,0.0000,0.0000,1.0000,60.4534,193.2350)" stroke="none" text-anchor="end">5.5</text></g><g fill-opacity="1.0" font-size="11.0px" fill="rgb(0,0,0)"><text dominant-baseline="middle" transform="matrix(1.0000,0.0000,0.0000,1.0000,60.4534,247.2112)" stroke="none" text-anchor="end">5.0</text></g><g fill-opacity="1.0" font-size="11.0px" fill="rgb(0,0,0)"><text dominant-baseline="middle" transform="matrix(1.0000,0.0000,0.0000,1.0000,60.4534,301.1875)" stroke="none" text-anchor="end">4.5</text></g><g fill-opacity="1.0" font-size="11.0px" fill="rgb(0,0,0)"><text dominant-baseline="middle" transform="matrix(1.0000,0.0000,0.0000,1.0000,60.4534,355.1637)" stroke="none" text-anchor="end">4.0</text></g><g fill-opacity="1.0" font-size="11.0px" fill="rgb(0,0,0)"><text dominant-baseline="middle" transform="matrix(1.0000,0.0000,0.0000,1.0000,60.4534,409.1400)" stroke="none" text-anchor="end">3.5</text></g><g fill-opacity="1.0" font-size="11.0px" fill="rgb(0,0,0)"><text dominant-baseline="middle" transform="matrix(1.0000,0.0000,0.0000,1.0000,60.4534,463.1162)" stroke="none" text-anchor="end">3.0</text></g><g fill-opacity="1.0" font-size="11.0px" fill="rgb(0,0,0)"><text dominant-baseline="middle" transform="matrix(1.0000,0.0000,0.0000,1.0000,60.4534,517.0925)" stroke="none" text-anchor="end">2.5</text></g><g stroke-width="0.1"><path d="M 116.3728,544.0806 v -453.4005 M 179.3451,544.0806 v -453.4005 M 242.3174,544.0806 v -453.4005 M 305.2897,544.0806 v -453.4005 M 368.2620,544.0806 v -453.4005 M 431.2343,544.0806 v -453.4005 M 494.2065,544.0806 v -453.4005 "/></g><g stroke-linecap="square"><path d="M 78.5894,544.0806 h 453.4005 M 78.5894,90.6801 h 453.4005 "/></g><g stroke-width="0.4"><path d="M 84.8866,90.6801 v -4.5340 M 100.6297,90.6801 v -4.5340 M 132.1159,90.6801 v -4.5340 M 147.8589,90.6801 v -4.5340 M 163.6020,90.6801 v -4.5340 M 195.0882,90.6801 v -4.5340 M 210.8312,90.6801 v -4.5340 M 226.5743,90.6801 v -4.5340 M 258.0605,90.6801 v -4.5340 M 273.8035,90.6801 v -4.5340 M 289.5466,90.6801 v -4.5340 M 321.0327,90.6801 v -4.5340 M 336.7758,90.6801 v -4.5340 M 352.5189,90.6801 v -4.5340 M 384.0050,90.6801 v -4.5340 M 399.7481,90.6801 v -4.5340 M 415.4912,90.6801 v -4.5340 M 446.9773,90.6801 v -4.5340 M 462.7204,90.6801 v -4.5340 M 478.4635,90.6801 v -4.5340 M 509.9496,90.6801 v -4.5340 M 525.6927,90.6801 v -4.5340 "/></g><g stroke-width="0.4"><path d="M 116.3728,90.6801 v -7.5567 M 179.3451,90.6801 v -7.5567 M 242.3174,90.6801 v -7.5567 M 305.2897,90.6801 v -7.5567 M 368.2620,90.6801 v -7.5567 M 431.2343,90.6801 v -7.5567 M 494.2065,90.6801 v -7.5567 "/></g><g stroke-width="0.4"><path d="M 84.8866,548.6146 v -4.5340 M 100.6297,548.6146 v -4.5340 M 132.1159,548.6146 v -4.5340 M 147.8589,548.6146 v -4.5340 M 163.6020,548.6146 v -4.5340 M 195.0882,548.6146 v -4.5340 M 210.8312,548.6146 v -4.5340 M 226.5743,548.6146 v -4.5340 M 258.0605,548.6146 v -4.5340 M 273.8035,548.6146 v -4.5340 M 289.5466,548.6146 v -4.5340 M 321.0327,548.6146 v -4.5340 M 336.7758,548.6146 v -4.5340 M 352.5189,548.6146 v -4.5340 M 384.0050,548.6146 v -4.5340 M 399.7481,548.6146 v -4.5340 M 415.4912,548.6146 v -4.5340 M 446.9773,548.6146 v -4.5340 M 462.7204,548.6146 v -4.5340 M 478.4635,548.6146 v -4.5340 M 509.9496,548.6146 v -4.5340 M 525.6927,548.6146 v -4.5340 "/></g><g stroke-width="0.4"><path d="M 116.3728,551.6373 v -7.5567 M 179.3451,551.6373 v -7.5567 M 242.3174,551.6373 v -7.5567 M 305.2897,551.6373 v -7.5567 M 368.2620,551.6373 v -7.5567 M 431.2343,551.6373 v -7.5567 M 494.2065,551.6373 v -7.5567 "/></g><g fill-opacity="1.0" font-size="11.0px" fill="rgb(0,0,0)"><text dominant-baseline="text-before-edge" transform="matrix(1.0000,0.0000,0.0000,1.0000,494.2065,562.2166)" stroke="none" text-anchor="middle">3.5</text></g><g fill-opacity="1.0" font-size="11.0px" fill="rgb(0,0,0)"><text dominant-baseline="text-before-edge" transform="matrix(1.0000,0.0000,0.0000,1.0000,431.2343,562.2166)" stroke="none" text-anchor="middle">3.0</text></g><g fill-opacity="1.0" font-size="11.0px" fill="rgb(0,0,0)"><text dominant-baseline="text-before-edge" transform="matrix(1.0000,0.0000,0.0000,1.0000,368.2620,562.2166)" stroke="none" text-anchor="middle">2.5</text></g><g fill-opacity="1.0" font-size="11.0px" fill="rgb(0,0,0)"><text dominant-baseline="text-before-edge" transform="matrix(1.0000,0.0000,0.0000,1.0000,305.2897,562.2166)" stroke="none" text-anchor="middle">2.0</text></g><g fill-opacity="1.0" font-size="11.0px" fill="rgb(0,0,0)"><text dominant-baseline="text-before-edge" transform="matrix(1.0000,0.0000,0.0000,1.0000,242.3174,562.2166)" stroke="none" text-anchor="middle">1.5</text></g><g fill-opacity="1.0" font-size="11.0px" fill="rgb(0,0,0)"><text dominant-baseline="text-before-edge" transform="matrix(1.0000,0.0000,0.0000,1.0000,179.3451,562.2166)" stroke="none" text-anchor="middle">1.0</text></g><g fill-opacity="1.0" font-size="11.0px" fill="rgb(0,0,0)"><text dominant-baseline="text-before-edge" transform="matrix(1.0000,0.0000,0.0000,1.0000,116.3728,562.2166)" stroke="none" text-anchor="middle">0.5</text></g><g fill-opacity="1.0" font-size="16.0px" fill="rgb(0,0,0)"><text dominant-baseline="text-after-edge" transform="matrix(1.0000,0.0000,0.0000,1.0000,305.2897,60.4534)" stroke="none" text-anchor="middle"></text></g></svg>