<svg xmlns="http://www.w3.org/2000/svg" height="400.0000" stroke-opacity="1" viewBox="0 0 388 400" font-size="1" width="388.2812" xmlns:xlink="http://www.w3.org/1999/xlink" stroke="rgb(0,0,0)" version="1.1"><defs></defs><g stroke-linecap="square"><path d="M 40.6250,359.3750 v -312.5000 M 353.1250,359.3750 v -312.5000 "/></g><g stroke-width="0.4"><path d="M 353.1250,348.8531 h 2.3438 M 353.1250,338.3312 h 2.3438 M 353.1250,327.8093 h 2.3438 M 353.1250,317.2875 h 2.3438 M 353.1250,306.7656 h 2.3438 M 353.1250,285.7218 h 2.3438 M 353.1250,275.1999 h 2.3438 M 353.1250,264.6780 h 2.3438 M 353.1250,254.1561 h 2.3438 M 353.1250,243.6343 h 2.3438 M 353.1250,222.5905 h 2.3438 M 353.1250,212.0686 h 2.3438 M 353.1250,201.5467 h 2.3438 M 353.1250,191.0248 h 2.3438 M 353.1250,180.5029 h 2.3438 M 353.1250,159.4592 h 2.3438 M 353.1250,148.9373 h 2.3438 M 353.1250,138.4154 h 2.3438 M 353.1250,127.8935 h 2.3438 M 353.1250,117.3716 h 2.3438 M 353.1250,96.3279 h 2.3438 M 353.1250,85.8060 h 2.3438 M 353.1250,75.2841 h 2.3438 M 353.1250,64.7622 h 2.3438 M 353.1250,54.2403 h 2.3438 "/></g><g stroke-width="0.4"><path d="M 353.1250,359.3750 h 3.9062 M 353.1250,296.2437 h 3.9062 M 353.1250,233.1124 h 3.9062 M 353.1250,169.9811 h 3.9062 M 353.1250,106.8497 h 3.9062 "/></g><g stroke-width="0.4"><path d="M 38.2813,348.8531 h 2.3438 M 38.2813,338.3312 h 2.3438 M 38.2813,327.8093 h 2.3438 M 38.2813,317.2875 h 2.3438 M 38.2813,306.7656 h 2.3438 M 38.2813,285.7218 h 2.3438 M 38.2813,275.1999 h 2.3438 M 38.2813,264.6780 h 2.3438 M 38.2813,254.1561 h 2.3438 M 38.2813,243.6343 h 2.3438 M 38.2813,222.5905 h 2.3438 M 38.2813,212.0686 h 2.3438 M 38.2813,201.5467 h 2.3438 M 38.2813,191.0248 h 2.3438 M 38.2813,180.5029 h 2.3438 M 38.2813,159.4592 h 2.3438 M 38.2813,148.9373 h 2.3438 M 38.2813,138.4154 h 2.3438 M 38.2813,127.8935 h 2.3438 M 38.2813,117.3716 h 2.3438 M 38.2813,96.3279 h 2.3438 M 38.2813,85.8060 h 2.3438 M 38.2813,75.2841 h 2.3438 M 38.2813,64.7622 h 2.3438 M 38.2813,54.2403 h 2.3438 "/></g><g stroke-width="0.4"><path d="M 36.7188,359.3750 h 3.9062 M 36.7188,296.2437 h 3.9062 M 36.7188,233.1124 h 3.9062 M 36.7188,169.9811 h 3.9062 M 36.7188,106.8497 h 3.9062 "/></g><g fill-opacity="1.0" font-size="11.0px" fill="rgb(0,0,0)"><text dominant-baseline="middle" transform="matrix(1.0000,0.0000,0.0000,1.0000,31.2500,106.8497)" stroke="none" text-anchor="end">12.0</text></g><g fill-opacity="1.0" font-size="11.0px" fill="rgb(0,0,0)"><text dominant-baseline="middle" transform="matrix(1.0000,0.0000,0.0000,1.0000,31.2500,169.9811)" stroke="none" text-anchor="end">9.0</text></g><g fill-opacity="1.0" font-size="11.0px" fill="rgb(0,0,0)"><text dominant-baseline="middle" transform="matrix(1.0000,0.0000,0.0000,1.0000,31.2500,233.1124)" stroke="none" text-anchor="end">6.0</text></g><g fill-opacity="1.0" font-size="11.0px" fill="rgb(0,0,0)"><text dominant-baseline="middle" transform="matrix(1.0000,0.0000,0.0000,1.0000,31.2500,296.2437)" stroke="none" text-anchor="end">3.0</text></g><g fill-opacity="1.0" font-size="11.0px" fill="rgb(0,0,0)"><text dominant-baseline="middle" transform="matrix(1.0000,0.0000,0.0000,1.0000,31.2500,359.3750)" stroke="none" text-anchor="end">0.0</text></g><g stroke-linecap="square"><path d="M 40.6250,359.3750 h 312.5000 M 40.6250,46.8750 h 312.5000 "/></g><g stroke-width="0.4"><path d="M 48.9110,46.8750 v -2.3438 M 58.7753,46.8750 v -2.3438 M 68.6395,46.8750 v -2.3438 M 88.3681,46.8750 v -2.3438 M 98.2323,46.8750 v -2.3438 M 108.0966,46.8750 v -2.3438 M 117.9609,46.8750 v -2.3438 M 127.8251,46.8750 v -2.3438 M 147.5537,46.8750 v -2.3438 M 157.4179,46.8750 v -2.3438 M 167.2822,46.8750 v -2.3438 M 177.1465,46.8750 v -2.3438 M 187.0107,46.8750 v -2.3438 M 206.7393,46.8750 v -2.3438 M 216.6035,46.8750 v -2.3438 M 226.4678,46.8750 v -2.3438 M 236.3321,46.8750 v -2.3438 M 246.1963,46.8750 v -2.3438 M 265.9249,46.8750 v -2.3438 M 275.7891,46.8750 v -2.3438 M 285.6534,46.8750 v -2.3438 M 295.5177,46.8750 v -2.3438 M 305.3819,46.8750 v -2.3438 M 325.1105,46.8750 v -2.3438 M 334.9747,46.8750 v -2.3438 M 344.8390,46.8750 v -2.3438 "/></g><g stroke-width="0.4"><path d="M 78.5038,46.8750 v -3.9062 M 137.6894,46.8750 v -3.9062 M 196.8750,46.8750 v -3.9062 M 256.0606,46.8750 v -3.9062 M 315.2462,46.8750 v -3.9062 "/></g><g stroke-width="0.4"><path d="M 48.9110,361.7188 v -2.3438 M 58.7753,361.7188 v -2.3438 M 68.6395,361.7188 v -2.3438 M 88.3681,361.7188 v -2.3438 M 98.2323,361.7188 v -2.3438 M 108.0966,361.7188 v -2.3438 M 117.9609,361.7188 v -2.3438 M 127.8251,361.7188 v -2.3438 M 147.5537,361.7188 v -2.3438 M 157.4179,361.7188 v -2.3438 M 167.2822,361.7188 v -2.3438 M 177.1465,361.7188 v -2.3438 M 187.0107,361.7188 v -2.3438 M 206.7393,361.7188 v -2.3438 M 216.6035,361.7188 v -2.3438 M 226.4678,361.7188 v -2.3438 M 236.3321,361.7188 v -2.3438 M 246.1963,361.7188 v -2.3438 M 265.9249,361.7188 v -2.3438 M 275.7891,361.7188 v -2.3438 M 285.6534,361.7188 v -2.3438 M 295.5177,361.7188 v -2.3438 M 305.3819,361.7188 v -2.3438 M 325.1105,361.7188 v -2.3438 M 334.9747,361.7188 v -2.3438 M 344.8390,361.7188 v -2.3438 "/></g><g stroke-width="0.4"><path d="M 78.5038,363.2812 v -3.9062 M 137.6894,363.2812 v -3.9062 M 196.8750,363.2812 v -3.9062 M 256.0606,363.2812 v -3.9062 M 315.2462,363.2812 v -3.9062 "/></g><g fill-opacity="1.0" font-size="11.0px" fill="rgb(0,0,0)"><text dominant-baseline="text-before-edge" transform="matrix(1.0000,0.0000,0.0000,1.0000,315.2462,368.7500)" stroke="none" text-anchor="middle">5.0</text></g><g fill-opacity="1.0" font-size="11.0px" fill="rgb(0,0,0)"><text dominant-baseline="text-before-edge" transform="matrix(1.0000,0.0000,0.0000,1.0000,256.0606,368.7500)" stroke="none" text-anchor="middle">4.0</text></g><g fill-opacity="1.0" font-size="11.0px" fill="rgb(0,0,0)"><text dominant-baseline="text-before-edge" transform="matrix(1.0000,0.0000,0.0000,1.0000,196.8750,368.7500)" stroke="none" text-anchor="middle">3.0</text></g><g fill-opacity="1.0" font-size="11.0px" fill="rgb(0,0,0)"><text dominant-baseline="text-before-edge" transform="matrix(1.0000,0.0000,0.0000,1.0000,137.6894,368.7500)" stroke="none" text-anchor="middle">2.0</text></g><g fill-opacity="1.0" font-size="11.0px" fill="rgb(0,0,0)"><text dominant-baseline="text-before-edge" transform="matrix(1.0000,0.0000,0.0000,1.0000,78.5038,368.7500)" stroke="none" text-anchor="middle">1.0</text></g><g stroke-opacity="1.0" fill-opacity="1.0" stroke="rgb(228,26,28)" stroke-width="1.0" fill="rgb(231,93,93)"><defs><clipPath id="myClip1"><path d="M 353.1250,359.3750 l -0.0000,-312.5000 h -312.5000 l -0.0000,312.5000 Z"/></clipPath></defs><g clip-path="url(#myClip1)"><path d="M 303.4091,359.3750 h 23.6742 v -96.8013 h -23.6742 Z"/></g></g><g stroke-opacity="1.0" fill-opacity="1.0" stroke="rgb(228,26,28)" stroke-width="1.0" fill="rgb(231,93,93)"><defs><clipPath id="myClip2"><path d="M 353.1250,359.3750 l -0.0000,-312.5000 h -312.5000 l -0.0000,312.5000 Z"/></clipPath></defs><g clip-path="url(#myClip2)"><path d="M 244.2235,359.3750 h 23.6742 v -151.5152 h -23.6742 Z"/></g></g><g stroke-opacity="1.0" fill-opacity="1.0" stroke="rgb(228,26,28)" stroke-width="1.0" fill="rgb(231,93,93)"><defs><clipPath id="myClip3"><path d="M 353.1250,359.3750 l -0.0000,-312.5000 h -312.5000 l -0.0000,312.5000 Z"/></clipPath></defs><g clip-path="url(#myClip3)"><path d="M 185.0379,359.3750 h 23.6742 v -145.2020 h -23.6742 Z"/></g></g><g stroke-opacity="1.0" fill-opacity="1.0" stroke="rgb(228,26,28)" stroke-width="1.0" fill="rgb(231,93,93)"><defs><clipPath id="myClip4"><path d="M 353.1250,359.3750 l -0.0000,-312.5000 h -312.5000 l -0.0000,312.5000 Z"/></clipPath></defs><g clip-path="url(#myClip4)"><path d="M 125.8523,359.3750 h 23.6742 v -63.1313 h -23.6742 Z"/></g></g><g stroke-opacity="1.0" fill-opacity="1.0" stroke="rgb(228,26,28)" stroke-width="1.0" fill="rgb(231,93,93)"><defs><clipPath id="myClip5"><path d="M 353.1250,359.3750 l -0.0000,-312.5000 h -312.5000 l -0.0000,312.5000 Z"/></clipPath></defs><g clip-path="url(#myClip5)"><path d="M 66.6667,359.3750 h 23.6742 v -284.0909 h -23.6742 Z"/></g></g><g fill-opacity="1.0" font-size="11.0px" fill="rgb(0,0,0)"><text dominant-baseline="text-after-edge" transform="matrix(1.0000,0.0000,0.0000,1.0000,196.8750,31.2500)" stroke="none" text-anchor="middle"></text></g></svg>