<svg xmlns="http://www.w3.org/2000/svg" height="622.6700" stroke-opacity="1" viewBox="0 0 600 623" font-size="1" width="600.0000" xmlns:xlink="http://www.w3.org/1999/xlink" stroke="rgb(0,0,0)" version="1.1"><defs></defs><g stroke-opacity="1.0" fill-opacity="1.0" stroke="rgb(228,26,28)" stroke-width="1.0" fill="rgb(231,93,93)"><path d="M 459.8580,544.0806 h 34.3485 v -140.4473 h -34.3485 Z"/></g><g stroke-opacity="1.0" fill-opacity="1.0" stroke="rgb(228,26,28)" stroke-width="1.0" fill="rgb(231,93,93)"><path d="M 373.9867,544.0806 h 34.3485 v -219.8305 h -34.3485 Z"/></g><g stroke-opacity="1.0" fill-opacity="1.0" stroke="rgb(228,26,28)" stroke-width="1.0" fill="rgb(231,93,93)"><path d="M 288.1154,544.0806 h 34.3485 v -210.6709 h -34.3485 Z"/></g><g stroke-opacity="1.0" fill-opacity="1.0" stroke="rgb(228,26,28)" stroke-width="1.0" fill="rgb(231,93,93)"><path d="M 202.2441,544.0806 h 34.3485 v -91.5961 h -34.3485 Z"/></g><g stroke-opacity="1.0" fill-opacity="1.0" stroke="rgb(228,26,28)" stroke-width="1.0" fill="rgb(231,93,93)"><path d="M 116.3728,544.0806 h 34.3485 v -412.1823 h -34.3485 Z"/></g><g stroke-width="0.1"><path d="M 78.5894,544.0806 h 453.4005 M 78.5894,467.7506 h 453.4005 M 78.5894,391.4205 h 453.4005 M 78.5894,315.0905 h 453.4005 M 78.5894,238.7604 h 453.4005 M 78.5894,162.4303 h 453.4005 "/></g><g stroke-linecap="square"><path d="M 78.5894,544.0806 v -453.4005 M 531.9899,544.0806 v -453.4005 "/></g><g stroke-width="0.4"><path d="M 531.9899,524.9981 h 4.5340 M 531.9899,505.9156 h 4.5340 M 531.9899,486.8331 h 4.5340 M 531.9899,448.6680 h 4.5340 M 531.9899,429.5855 h 4.5340 M 531.9899,410.5030 h 4.5340 M 531.9899,372.3380 h 4.5340 M 531.9899,353.2555 h 4.5340 M 531.9899,334.1730 h 4.5340 M 531.9899,296.0079 h 4.5340 M 531.9899,276.9254 h 4.5340 M 531.9899,257.8429 h 4.5340 M 531.9899,219.6779 h 4.5340 M 531.9899,200.5954 h 4.5340 M 531.9899,181.5129 h 4.5340 M 531.9899,143.3478 h 4.5340 M 531.9899,124.2653 h 4.5340 M 531.9899,105.1828 h 4.5340 "/></g><g stroke-width="0.4"><path d="M 531.9899,544.0806 h 7.5567 M 531.9899,467.7506 h 7.5567 M 531.9899,391.4205 h 7.5567 M 531.9899,315.0905 h 7.5567 M 531.9899,238.7604 h 7.5567 M 531.9899,162.4303 h 7.5567 "/></g><g stroke-width="0.4"><path d="M 74.0554,524.9981 h 4.5340 M 74.0554,505.9156 h 4.5340 M 74.0554,486.8331 h 4.5340 M 74.0554,448.6680 h 4.5340 M 74.0554,429.5855 h 4.5340 M 74.0554,410.5030 h 4.5340 M 74.0554,372.3380 h 4.5340 M 74.0554,353.2555 h 4.5340 M 74.0554,334.1730 h 4.5340 M 74.0554,296.0079 h 4.5340 M 74.0554,276.9254 h 4.5340 M 74.0554,257.8429 h 4.5340 M 74.0554,219.6779 h 4.5340 M 74.0554,200.5954 h 4.5340 M 74.0554,181.5129 h 4.5340 M 74.0554,143.3478 h 4.5340 M 74.0554,124.2653 h 4.5340 M 74.0554,105.1828 h 4.5340 "/></g><g stroke-width="0.4"><path d="M 71.0327,544.0806 h 7.5567 M 71.0327,467.7506 h 7.5567 M 71.0327,391.4205 h 7.5567 M 71.0327,315.0905 h 7.5567 M 71.0327,238.7604 h 7.5567 M 71.0327,162.4303 h 7.5567 "/></g><g fill-opacity="1.0" font-size="11.0px" fill="rgb(0,0,0)"><text dominant-baseline="middle" transform="matrix(1.0000,0.0000,0.0000,1.0000,60.4534,162.4303)" stroke="none" text-anchor="end">12.5</text></g><g fill-opacity="1.0" font-size="11.0px" fill="rgb(0,0,0)"><text dominant-baseline="middle" transform="matrix(1.0000,0.0000,0.0000,1.0000,60.4534,238.7604)" stroke="none" text-anchor="end">10.0</text></g><g fill-opacity="1.0" font-size="11.0px" fill="rgb(0,0,0)"><text dominant-baseline="middle" transform="matrix(1.0000,0.0000,0.0000,1.0000,60.4534,315.0905)" stroke="none" text-anchor="end">7.5</text></g><g fill-opacity="1.0" font-size="11.0px" fill="rgb(0,0,0)"><text dominant-baseline="middle" transform="matrix(1.0000,0.0000,0.0000,1.0000,60.4534,391.4205)" stroke="none" text-anchor="end">5.0</text></g><g fill-opacity="1.0" font-size="11.0px" fill="rgb(0,0,0)"><text dominant-baseline="middle" transform="matrix(1.0000,0.0000,0.0000,1.0000,60.4534,467.7506)" stroke="none" text-anchor="end">2.5</text></g><g fill-opacity="1.0" font-size="11.0px" fill="rgb(0,0,0)"><text dominant-baseline="middle" transform="matrix(1.0000,0.0000,0.0000,1.0000,60.4534,544.0806)" stroke="none" text-anchor="end">0.0</text></g><g stroke-width="0.1"><path d="M 133.5471,544.0806 v -453.4005 M 219.4184,544.0806 v -453.4005 M 305.2897,544.0806 v -453.4005 M 391.1610,544.0806 v -453.4005 M 477.0323,544.0806 v -453.4005 "/></g><g stroke-linecap="square"><path d="M 78.5894,544.0806 h 453.4005 M 78.5894,90.6801 h 453.4005 "/></g><g stroke-width="0.4"><path d="M 90.6114,90.6801 v -4.5340 M 112.0792,90.6801 v -4.5340 M 155.0149,90.6801 v -4.5340 M 176.4827,90.6801 v -4.5340 M 197.9505,90.6801 v -4.5340 M 240.8862,90.6801 v -4.5340 M 262.3540,90.6801 v -4.5340 M 283.8218,90.6801 v -4.5340 M 326.7575,90.6801 v -4.5340 M 348.2253,90.6801 v -4.5340 M 369.6932,90.6801 v -4.5340 M 412.6288,90.6801 v -4.5340 M 434.0966,90.6801 v -4.5340 M 455.5645,90.6801 v -4.5340 M 498.5001,90.6801 v -4.5340 M 519.9679,90.6801 v -4.5340 "/></g><g stroke-width="0.4"><path d="M 133.5471,90.6801 v -7.5567 M 219.4184,90.6801 v -7.5567 M 305.2897,90.6801 v -7.5567 M 391.1610,90.6801 v -7.5567 M 477.0323,90.6801 v -7.5567 "/></g><g stroke-width="0.4"><path d="M 90.6114,548.6146 v -4.5340 M 112.0792,548.6146 v -4.5340 M 155.0149,548.6146 v -4.5340 M 176.4827,548.6146 v -4.5340 M 197.9505,548.6146 v -4.5340 M 240.8862,548.6146 v -4.5340 M 262.3540,548.6146 v -4.5340 M 283.8218,548.6146 v -4.5340 M 326.7575,548.6146 v -4.5340 M 348.2253,548.6146 v -4.5340 M 369.6932,548.6146 v -4.5340 M 412.6288,548.6146 v -4.5340 M 434.0966,548.6146 v -4.5340 M 455.5645,548.6146 v -4.5340 M 498.5001,548.6146 v -4.5340 M 519.9679,548.6146 v -4.5340 "/></g><g stroke-width="0.4"><path d="M 133.5471,551.6373 v -7.5567 M 219.4184,551.6373 v -7.5567 M 305.2897,551.6373 v -7.5567 M 391.1610,551.6373 v -7.5567 M 477.0323,551.6373 v -7.5567 "/></g><g fill-opacity="1.0" font-size="11.0px" fill="rgb(0,0,0)"><text dominant-baseline="text-before-edge" transform="matrix(1.0000,0.0000,0.0000,1.0000,477.0323,562.2166)" stroke="none" text-anchor="middle">5.0</text></g><g fill-opacity="1.0" font-size="11.0px" fill="rgb(0,0,0)"><text dominant-baseline="text-before-edge" transform="matrix(1.0000,0.0000,0.0000,1.0000,391.1610,562.2166)" stroke="none" text-anchor="middle">4.0</text></g><g fill-opacity="1.0" font-size="11.0px" fill="rgb(0,0,0)"><text dominant-baseline="text-before-edge" transform="matrix(1.0000,0.0000,0.0000,1.0000,305.2897,562.2166)" stroke="none" text-anchor="middle">3.0</text></g><g fill-opacity="1.0" font-size="11.0px" fill="rgb(0,0,0)"><text dominant-baseline="text-before-edge" transform="matrix(1.0000,0.0000,0.0000,1.0000,219.4184,562.2166)" stroke="none" text-anchor="middle">2.0</text></g><g fill-opacity="1.0" font-size="11.0px" fill="rgb(0,0,0)"><text dominant-baseline="text-before-edge" transform="matrix(1.0000,0.0000,0.0000,1.0000,133.5471,562.2166)" stroke="none" text-anchor="middle">1.0</text></g><g fill-opacity="1.0" font-size="16.0px" fill="rgb(0,0,0)"><text dominant-baseline="text-after-edge" transform="matrix(1.0000,0.0000,0.0000,1.0000,305.2897,60.4534)" stroke="none" text-anchor="middle"></text></g></svg>