<svg xmlns="http://www.w3.org/2000/svg" height="600.0000" stroke-opacity="1" viewBox="0 0 600 600" font-size="1" width="600.0000" xmlns:xlink="http://www.w3.org/1999/xlink" stroke="rgb(0,0,0)" version="1.1"><defs></defs><g stroke-opacity="1.0" fill-opacity="1.0" stroke="rgb(77,175,74)" stroke-width="1.0" fill="rgb(114,185,112)"><path d="M 494.9622,225.1956 l -0.7557,-1.3089 l -0.7557,1.3089 Z"/></g><g stroke-opacity="1.0" fill-opacity="1.0" stroke="rgb(77,175,74)" stroke-width="1.0" fill="rgb(114,185,112)"><path d="M 457.1788,484.2816 l -0.7557,-1.3089 l -0.7557,1.3089 Z"/></g><g stroke-opacity="1.0" fill-opacity="1.0" stroke="rgb(77,175,74)" stroke-width="1.0" fill="rgb(114,185,112)"><path d="M 306.0453,214.4004 l -0.7557,-1.3089 l -0.7557,1.3089 Z"/></g><g stroke-opacity="1.0" fill-opacity="1.0" stroke="rgb(77,175,74)" stroke-width="1.0" fill="rgb(114,185,112)"><path d="M 205.2897,473.4864 l -0.7557,-1.3089 l -0.7557,1.3089 Z"/></g><g stroke-opacity="1.0" fill-opacity="1.0" stroke="rgb(55,126,184)" stroke-width="1.0" fill="rgb(103,146,193)"><path d="M 274.5592,106.5491 l -0.0000,-1.5113 h -1.5113 l -0.0000,1.5113 Z"/></g><g stroke-opacity="1.0" fill-opacity="1.0" stroke="rgb(55,126,184)" stroke-width="1.0" fill="rgb(103,146,193)"><path d="M 255.6675,117.3444 l -0.0000,-1.5113 h -1.5113 l -0.0000,1.5113 Z"/></g><g stroke-opacity="1.0" fill-opacity="1.0" stroke="rgb(55,126,184)" stroke-width="1.0" fill="rgb(103,146,193)"><path d="M 180.1008,171.3206 l -0.0000,-1.5113 h -1.5113 l -0.0000,1.5113 Z"/></g><g stroke-opacity="1.0" fill-opacity="1.0" stroke="rgb(55,126,184)" stroke-width="1.0" fill="rgb(103,146,193)"><path d="M 117.1285,441.2019 l -0.0000,-1.5113 h -1.5113 l -0.0000,1.5113 Z"/></g><g stroke-opacity="1.0" fill-opacity="1.0" stroke="rgb(228,26,28)" stroke-width="1.0" fill="rgb(231,93,93)"><path d="M 494.9622,105.7935 c 0.0000,-0.4173 -0.3383,-0.7557 -0.7557 -0.7557c -0.4173,-0.0000 -0.7557,0.3383 -0.7557 0.7557c -0.0000,0.4173 0.3383,0.7557 0.7557 0.7557c 0.4173,0.0000 0.7557,-0.3383 0.7557 -0.7557Z"/></g><g stroke-opacity="1.0" fill-opacity="1.0" stroke="rgb(228,26,28)" stroke-width="1.0" fill="rgb(231,93,93)"><path d="M 457.1788,116.5887 c 0.0000,-0.4173 -0.3383,-0.7557 -0.7557 -0.7557c -0.4173,-0.0000 -0.7557,0.3383 -0.7557 0.7557c -0.0000,0.4173 0.3383,0.7557 0.7557 0.7557c 0.4173,0.0000 0.7557,-0.3383 0.7557 -0.7557Z"/></g><g stroke-opacity="1.0" fill-opacity="1.0" stroke="rgb(228,26,28)" stroke-width="1.0" fill="rgb(231,93,93)"><path d="M 306.0453,170.5650 c 0.0000,-0.4173 -0.3383,-0.7557 -0.7557 -0.7557c -0.4173,-0.0000 -0.7557,0.3383 -0.7557 0.7557c -0.0000,0.4173 0.3383,0.7557 0.7557 0.7557c 0.4173,0.0000 0.7557,-0.3383 0.7557 -0.7557Z"/></g><g stroke-opacity="1.0" fill-opacity="1.0" stroke="rgb(228,26,28)" stroke-width="1.0" fill="rgb(231,93,93)"><path d="M 180.1008,440.4462 c 0.0000,-0.4173 -0.3383,-0.7557 -0.7557 -0.7557c -0.4173,-0.0000 -0.7557,0.3383 -0.7557 0.7557c -0.0000,0.4173 0.3383,0.7557 0.7557 0.7557c 0.4173,0.0000 0.7557,-0.3383 0.7557 -0.7557Z"/></g><g stroke-width="0.1"><path d="M 78.5894,494.4225 h 453.4005 M 78.5894,440.4462 h 453.4005 M 78.5894,386.4700 h 453.4005 M 78.5894,332.4937 h 453.4005 M 78.5894,278.5175 h 453.4005 M 78.5894,224.5412 h 453.4005 M 78.5894,170.5650 h 453.4005 M 78.5894,116.5887 h 453.4005 "/></g><g stroke-linecap="square"><path d="M 78.5894,521.4106 v -453.4005 M 531.9899,521.4106 v -453.4005 "/></g><g stroke-width="0.4"><path d="M 531.9899,507.9165 h 4.5340 M 531.9899,480.9284 h 4.5340 M 531.9899,467.4343 h 4.5340 M 531.9899,453.9403 h 4.5340 M 531.9899,426.9521 h 4.5340 M 531.9899,413.4581 h 4.5340 M 531.9899,399.9640 h 4.5340 M 531.9899,372.9759 h 4.5340 M 531.9899,359.4818 h 4.5340 M 531.9899,345.9878 h 4.5340 M 531.9899,318.9996 h 4.5340 M 531.9899,305.5056 h 4.5340 M 531.9899,292.0115 h 4.5340 M 531.9899,265.0234 h 4.5340 M 531.9899,251.5293 h 4.5340 M 531.9899,238.0353 h 4.5340 M 531.9899,211.0471 h 4.5340 M 531.9899,197.5531 h 4.5340 M 531.9899,184.0590 h 4.5340 M 531.9899,157.0709 h 4.5340 M 531.9899,143.5768 h 4.5340 M 531.9899,130.0828 h 4.5340 M 531.9899,103.0946 h 4.5340 M 531.9899,89.6006 h 4.5340 M 531.9899,76.1065 h 4.5340 "/></g><g stroke-width="0.4"><path d="M 531.9899,494.4225 h 7.5567 M 531.9899,440.4462 h 7.5567 M 531.9899,386.4700 h 7.5567 M 531.9899,332.4937 h 7.5567 M 531.9899,278.5175 h 7.5567 M 531.9899,224.5412 h 7.5567 M 531.9899,170.5650 h 7.5567 M 531.9899,116.5887 h 7.5567 "/></g><g stroke-width="0.4"><path d="M 74.0554,507.9165 h 4.5340 M 74.0554,480.9284 h 4.5340 M 74.0554,467.4343 h 4.5340 M 74.0554,453.9403 h 4.5340 M 74.0554,426.9521 h 4.5340 M 74.0554,413.4581 h 4.5340 M 74.0554,399.9640 h 4.5340 M 74.0554,372.9759 h 4.5340 M 74.0554,359.4818 h 4.5340 M 74.0554,345.9878 h 4.5340 M 74.0554,318.9996 h 4.5340 M 74.0554,305.5056 h 4.5340 M 74.0554,292.0115 h 4.5340 M 74.0554,265.0234 h 4.5340 M 74.0554,251.5293 h 4.5340 M 74.0554,238.0353 h 4.5340 M 74.0554,211.0471 h 4.5340 M 74.0554,197.5531 h 4.5340 M 74.0554,184.0590 h 4.5340 M 74.0554,157.0709 h 4.5340 M 74.0554,143.5768 h 4.5340 M 74.0554,130.0828 h 4.5340 M 74.0554,103.0946 h 4.5340 M 74.0554,89.6006 h 4.5340 M 74.0554,76.1065 h 4.5340 "/></g><g stroke-width="0.4"><path d="M 71.0327,494.4225 h 7.5567 M 71.0327,440.4462 h 7.5567 M 71.0327,386.4700 h 7.5567 M 71.0327,332.4937 h 7.5567 M 71.0327,278.5175 h 7.5567 M 71.0327,224.5412 h 7.5567 M 71.0327,170.5650 h 7.5567 M 71.0327,116.5887 h 7.5567 "/></g><g fill-opacity="1.0" font-size="11.0px" fill="rgb(0,0,0)"><text dominant-baseline="middle" transform="matrix(1.0000,0.0000,0.0000,1.0000,60.4534,116.5887)" stroke="none" text-anchor="end">6.0</text></g><g fill-opacity="1.0" font-size="11.0px" fill="rgb(0,0,0)"><text dominant-baseline="middle" transform="matrix(1.0000,0.0000,0.0000,1.0000,60.4534,170.5650)" stroke="none" text-anchor="end">5.5</text></g><g fill-opacity="1.0" font-size="11.0px" fill="rgb(0,0,0)"><text dominant-baseline="middle" transform="matrix(1.0000,0.0000,0.0000,1.0000,60.4534,224.5412)" stroke="none" text-anchor="end">5.0</text></g><g fill-opacity="1.0" font-size="11.0px" fill="rgb(0,0,0)"><text dominant-baseline="middle" transform="matrix(1.0000,0.0000,0.0000,1.0000,60.4534,278.5175)" stroke="none" text-anchor="end">4.5</text></g><g fill-opacity="1.0" font-size="11.0px" fill="rgb(0,0,0)"><text dominant-baseline="middle" transform="matrix(1.0000,0.0000,0.0000,1.0000,60.4534,332.4937)" stroke="none" text-anchor="end">4.0</text></g><g fill-opacity="1.0" font-size="11.0px" fill="rgb(0,0,0)"><text dominant-baseline="middle" transform="matrix(1.0000,0.0000,0.0000,1.0000,60.4534,386.4700)" stroke="none" text-anchor="end">3.5</text></g><g fill-opacity="1.0" font-size="11.0px" fill="rgb(0,0,0)"><text dominant-baseline="middle" transform="matrix(1.0000,0.0000,0.0000,1.0000,60.4534,440.4462)" stroke="none" text-anchor="end">3.0</text></g><g fill-opacity="1.0" font-size="11.0px" fill="rgb(0,0,0)"><text dominant-baseline="middle" transform="matrix(1.0000,0.0000,0.0000,1.0000,60.4534,494.4225)" stroke="none" text-anchor="end">2.5</text></g><g stroke-width="0.1"><path d="M 116.3728,521.4106 v -453.4005 M 179.3451,521.4106 v -453.4005 M 242.3174,521.4106 v -453.4005 M 305.2897,521.4106 v -453.4005 M 368.2620,521.4106 v -453.4005 M 431.2343,521.4106 v -453.4005 M 494.2065,521.4106 v -453.4005 "/></g><g stroke-linecap="square"><path d="M 78.5894,521.4106 h 453.4005 M 78.5894,68.0101 h 453.4005 "/></g><g stroke-width="0.4"><path d="M 84.8866,68.0101 v -4.5340 M 100.6297,68.0101 v -4.5340 M 132.1159,68.0101 v -4.5340 M 147.8589,68.0101 v -4.5340 M 163.6020,68.0101 v -4.5340 M 195.0882,68.0101 v -4.5340 M 210.8312,68.0101 v -4.5340 M 226.5743,68.0101 v -4.5340 M 258.0605,68.0101 v -4.5340 M 273.8035,68.0101 v -4.5340 M 289.5466,68.0101 v -4.5340 M 321.0327,68.0101 v -4.5340 M 336.7758,68.0101 v -4.5340 M 352.5189,68.0101 v -4.5340 M 384.0050,68.0101 v -4.5340 M 399.7481,68.0101 v -4.5340 M 415.4912,68.0101 v -4.5340 M 446.9773,68.0101 v -4.5340 M 462.7204,68.0101 v -4.5340 M 478.4635,68.0101 v -4.5340 M 509.9496,68.0101 v -4.5340 M 525.6927,68.0101 v -4.5340 "/></g><g stroke-width="0.4"><path d="M 116.3728,68.0101 v -7.5567 M 179.3451,68.0101 v -7.5567 M 242.3174,68.0101 v -7.5567 M 305.2897,68.0101 v -7.5567 M 368.2620,68.0101 v -7.5567 M 431.2343,68.0101 v -7.5567 M 494.2065,68.0101 v -7.5567 "/></g><g stroke-width="0.4"><path d="M 84.8866,525.9446 v -4.5340 M 100.6297,525.9446 v -4.5340 M 132.1159,525.9446 v -4.5340 M 147.8589,525.9446 v -4.5340 M 163.6020,525.9446 v -4.5340 M 195.0882,525.9446 v -4.5340 M 210.8312,525.9446 v -4.5340 M 226.5743,525.9446 v -4.5340 M 258.0605,525.9446 v -4.5340 M 273.8035,525.9446 v -4.5340 M 289.5466,525.9446 v -4.5340 M 321.0327,525.9446 v -4.5340 M 336.7758,525.9446 v -4.5340 M 352.5189,525.9446 v -4.5340 M 384.0050,525.9446 v -4.5340 M 399.7481,525.9446 v -4.5340 M 415.4912,525.9446 v -4.5340 M 446.9773,525.9446 v -4.5340 M 462.7204,525.9446 v -4.5340 M 478.4635,525.9446 v -4.5340 M 509.9496,525.9446 v -4.5340 M 525.6927,525.9446 v -4.5340 "/></g><g stroke-width="0.4"><path d="M 116.3728,528.9673 v -7.5567 M 179.3451,528.9673 v -7.5567 M 242.3174,528.9673 v -7.5567 M 305.2897,528.9673 v -7.5567 M 368.2620,528.9673 v -7.5567 M 431.2343,528.9673 v -7.5567 M 494.2065,528.9673 v -7.5567 "/></g><g fill-opacity="1.0" font-size="11.0px" fill="rgb(0,0,0)"><text dominant-baseline="text-before-edge" transform="matrix(1.0000,0.0000,0.0000,1.0000,494.2065,539.5466)" stroke="none" text-anchor="middle">3.5</text></g><g fill-opacity="1.0" font-size="11.0px" fill="rgb(0,0,0)"><text dominant-baseline="text-before-edge" transform="matrix(1.0000,0.0000,0.0000,1.0000,431.2343,539.5466)" stroke="none" text-anchor="middle">3.0</text></g><g fill-opacity="1.0" font-size="11.0px" fill="rgb(0,0,0)"><text dominant-baseline="text-before-edge" transform="matrix(1.0000,0.0000,0.0000,1.0000,368.2620,539.5466)" stroke="none" text-anchor="middle">2.5</text></g><g fill-opacity="1.0" font-size="11.0px" fill="rgb(0,0,0)"><text dominant-baseline="text-before-edge" transform="matrix(1.0000,0.0000,0.0000,1.0000,305.2897,539.5466)" stroke="none" text-anchor="middle">2.0</text></g><g fill-opacity="1.0" font-size="11.0px" fill="rgb(0,0,0)"><text dominant-baseline="text-before-edge" transform="matrix(1.0000,0.0000,0.0000,1.0000,242.3174,539.5466)" stroke="none" text-anchor="middle">1.5</text></g><g fill-opacity="1.0" font-size="11.0px" fill="rgb(0,0,0)"><text dominant-baseline="text-before-edge" transform="matrix(1.0000,0.0000,0.0000,1.0000,179.3451,539.5466)" stroke="none" text-anchor="middle">1.0</text></g><g fill-opacity="1.0" font-size="11.0px" fill="rgb(0,0,0)"><text dominant-baseline="text-before-edge" transform="matrix(1.0000,0.0000,0.0000,1.0000,116.3728,539.5466)" stroke="none" text-anchor="middle">0.5</text></g></svg>