<svg xmlns="http://www.w3.org/2000/svg" height="40.4270" stroke-opacity="1" viewBox="0 0 600 40" font-size="1" width="600.0000" xmlns:xlink="http://www.w3.org/1999/xlink" stroke="rgb(0,0,0)" version="1.1"><defs></defs><g stroke-opacity="1.0" stroke="rgb(102,102,102)" stroke-width="3.0"><path d="M 536.1702,20.2135 h 63.8298 "/></g><g stroke-opacity="1.0" fill-opacity="1.0" stroke="rgb(255,255,255)" stroke-width="1.0" fill="rgb(102,102,102)"><path d="M 562.9787,15.3191 l 5.1064,-15.3191 l 5.1064,15.3191 l 16.1473,0.1226 l -12.9914,9.5903 l 4.8732,15.3949 l -13.1355,-9.3920 l -13.1355,9.3920 l 4.8732,-15.3949 l -12.9914,-9.5903 Z"/></g><g stroke-opacity="1.0" stroke="rgb(166,118,29)" stroke-width="3.0"><path d="M 459.5745,20.2135 h 63.8298 "/></g><g stroke-opacity="1.0" fill-opacity="1.0" stroke="rgb(255,255,255)" stroke-width="1.0" fill="rgb(166,118,29)"><path d="M 497.8723,13.8305 l -0.0000,-12.7660 h -12.7660 l -0.0000,12.7660 l -12.7660,0.0000 l -0.0000,12.7660 l 12.7660,0.0000 l -0.0000,12.7660 l 12.7660,0.0000 l 0.0000,-12.7660 l 12.7660,0.0000 l 0.0000,-12.7660 Z"/></g><g stroke-opacity="1.0" stroke="rgb(230,171,2)" stroke-width="3.0"><path d="M 382.9787,20.2135 h 63.8298 "/></g><g stroke-opacity="1.0" fill-opacity="1.0" stroke="rgb(255,255,255)" stroke-width="1.0" fill="rgb(230,171,2)"><path d="M 414.8936,11.1866 l -9.0269,-9.0269 l -9.0269,9.0269 l 9.0269,9.0269 l -9.0269,9.0269 l 9.0269,9.0269 l 9.0269,-9.0269 l 9.0269,9.0269 l 9.0269,-9.0269 l -9.0269,-9.0269 l 9.0269,-9.0269 l -9.0269,-9.0269 Z"/></g><g stroke-opacity="1.0" stroke="rgb(102,166,30)" stroke-width="3.0"><path d="M 306.3830,20.2135 h 63.8298 "/></g><g stroke-opacity="1.0" fill-opacity="1.0" stroke="rgb(255,255,255)" stroke-width="1.0" fill="rgb(102,166,30)"><path d="M 349.7872,37.8938 l 7.1008,-21.8541 l -18.5902,-13.5066 l -18.5902,13.5066 l 7.1008,21.8541 Z"/></g><g stroke-opacity="1.0" stroke="rgb(231,41,138)" stroke-width="3.0"><path d="M 229.7872,20.2135 h 63.8298 "/></g><g stroke-opacity="1.0" fill-opacity="1.0" stroke="rgb(255,255,255)" stroke-width="1.0" fill="rgb(231,41,138)"><path d="M 280.8511,20.2135 l -19.1489,-19.1489 l -19.1489,19.1489 l 19.1489,19.1489 Z"/></g><g stroke-opacity="1.0" stroke="rgb(117,112,179)" stroke-width="3.0"><path d="M 153.1915,20.2135 h 63.8298 "/></g><g stroke-opacity="1.0" fill-opacity="1.0" stroke="rgb(255,255,255)" stroke-width="1.0" fill="rgb(117,112,179)"><path d="M 204.2553,36.7970 l -19.1489,-33.1669 l -19.1489,33.1669 Z"/></g><g stroke-opacity="1.0" stroke="rgb(217,95,2)" stroke-width="3.0"><path d="M 76.5957,20.2135 h 63.8298 "/></g><g stroke-opacity="1.0" fill-opacity="1.0" stroke="rgb(255,255,255)" stroke-width="1.0" fill="rgb(217,95,2)"><path d="M 127.6596,39.3624 l -0.0000,-38.2979 h -38.2979 l -0.0000,38.2979 Z"/></g><g stroke-opacity="1.0" stroke="rgb(27,158,119)" stroke-width="3.0"><path d="M 0.0000,20.2135 h 63.8298 "/></g><g stroke-opacity="1.0" fill-opacity="1.0" stroke="rgb(255,255,255)" stroke-width="1.0" fill="rgb(27,158,119)"><path d="M 51.0638,20.2135 c 0.0000,-10.5757 -8.5733,-19.1489 -19.1489 -19.1489c -10.5757,-0.0000 -19.1489,8.5733 -19.1489 19.1489c -0.0000,10.5757 8.5733,19.1489 19.1489 19.1489c 10.5757,0.0000 19.1489,-8.5733 19.1489 -19.1489Z"/></g></svg>