<svg xmlns="http://www.w3.org/2000/svg" height="33.6891" stroke-opacity="1" viewBox="0 0 600 34" font-size="1" width="600.0000" xmlns:xlink="http://www.w3.org/1999/xlink" stroke="rgb(0,0,0)" version="1.1"><defs></defs><g stroke-dashoffset="0.0" stroke-dasharray="191.48936170212764,63.82978723404255"><path d="M 536.1702,16.8446 h 63.8298 "/></g><g stroke-opacity="1.0" fill-opacity="1.0" stroke="rgb(203,203,203)" fill="rgb(255,255,255)"><path d="M 563.8298,12.7660 l 4.2553,-12.7660 l 4.2553,12.7660 l 13.4561,0.1022 l -10.8262,7.9919 l 4.0610,12.8291 l -10.9463,-7.8267 l -10.9463,7.8267 l 4.0610,-12.8291 l -10.8262,-7.9919 Z"/></g><g stroke-dashoffset="0.0" stroke-dasharray="191.48936170212764,191.48936170212764"><path d="M 459.5745,16.8446 h 63.8298 "/></g><g stroke-opacity="1.0" fill-opacity="1.0" stroke="rgb(170,170,170)" fill="rgb(255,255,255)"><path d="M 496.8085,11.5254 l -0.0000,-10.6383 h -10.6383 l -0.0000,10.6383 l -10.6383,0.0000 l -0.0000,10.6383 l 10.6383,0.0000 l -0.0000,10.6383 l 10.6383,0.0000 l 0.0000,-10.6383 l 10.6383,0.0000 l 0.0000,-10.6383 Z"/></g><g><path d="M 382.9787,16.8446 h 63.8298 "/></g><g stroke-opacity="1.0" fill-opacity="1.0" stroke="rgb(124,124,124)" fill="rgb(255,255,255)"><path d="M 414.8936,9.3222 l -7.5224,-7.5224 l -7.5224,7.5224 l 7.5224,7.5224 l -7.5224,7.5224 l 7.5224,7.5224 l 7.5224,-7.5224 l 7.5224,7.5224 l 7.5224,-7.5224 l -7.5224,-7.5224 l 7.5224,-7.5224 l -7.5224,-7.5224 Z"/></g><g stroke-dashoffset="0.0" stroke-dasharray="191.48936170212764,255.3191489361702,95.74468085106382"><path d="M 306.3830,16.8446 h 63.8298 "/></g><g stroke-opacity="1.0" fill-opacity="1.0" stroke="rgb(0,0,0)" fill="rgb(255,255,255)"><path d="M 347.8723,31.5782 l 5.9173,-18.2117 l -15.4918,-11.2555 l -15.4918,11.2555 l 5.9173,18.2117 Z"/></g><g stroke-dashoffset="0.0" stroke-dasharray="63.82978723404255,63.82978723404255"><path d="M 229.7872,16.8446 h 63.8298 "/></g><g stroke-opacity="1.0" fill-opacity="1.0" stroke="rgb(203,203,203)" fill="rgb(255,255,255)"><path d="M 277.6596,16.8446 l -15.9574,-15.9574 l -15.9574,15.9574 l 15.9574,15.9574 Z"/></g><g stroke-dashoffset="0.0" stroke-dasharray="191.48936170212764,63.82978723404255"><path d="M 153.1915,16.8446 h 63.8298 "/></g><g stroke-opacity="1.0" fill-opacity="1.0" stroke="rgb(170,170,170)" fill="rgb(255,255,255)"><path d="M 201.0638,30.6641 l -15.9574,-27.6391 l -15.9574,27.6391 Z"/></g><g stroke-dashoffset="0.0" stroke-dasharray="191.48936170212764,191.48936170212764"><path d="M 76.5957,16.8446 h 63.8298 "/></g><g stroke-opacity="1.0" fill-opacity="1.0" stroke="rgb(124,124,124)" fill="rgb(255,255,255)"><path d="M 124.4681,32.8020 l -0.0000,-31.9149 h -31.9149 l -0.0000,31.9149 Z"/></g><g><path d="M 0.0000,16.8446 h 63.8298 "/></g><g stroke-opacity="1.0" fill-opacity="1.0" stroke="rgb(0,0,0)" fill="rgb(255,255,255)"><path d="M 47.8723,16.8446 c 0.0000,-8.8131 -7.1444,-15.9574 -15.9574 -15.9574c -8.8131,-0.0000 -15.9574,7.1444 -15.9574 15.9574c -0.0000,8.8131 7.1444,15.9574 15.9574 15.9574c 8.8131,0.0000 15.9574,-7.1444 15.9574 -15.9574Z"/></g></svg>