<svg xmlns="http://www.w3.org/2000/svg" height="622.6700" stroke-opacity="1" viewBox="0 0 600 623" font-size="1" width="600.0000" xmlns:xlink="http://www.w3.org/1999/xlink" stroke="rgb(0,0,0)" version="1.1"><defs></defs><g stroke-opacity="1.0" fill-opacity="1.0" stroke="rgb(228,26,28)" stroke-width="1.0" fill="rgb(231,93,93)"><path d="M 456.4232,544.0806 h 37.7834 v -68.6970 h -37.7834 Z"/></g><g stroke-opacity="1.0" fill-opacity="1.0" stroke="rgb(228,26,28)" stroke-width="1.0" fill="rgb(231,93,93)"><path d="M 418.6398,544.0806 h 37.7834 v -27.4788 h -37.7834 Z"/></g><g stroke-opacity="1.0" fill-opacity="1.0" stroke="rgb(228,26,28)" stroke-width="1.0" fill="rgb(231,93,93)"><path d="M 380.8564,544.0806 h 37.7834 v -137.3941 h -37.7834 Z"/></g><g stroke-opacity="1.0" fill-opacity="1.0" stroke="rgb(228,26,28)" stroke-width="1.0" fill="rgb(231,93,93)"><path d="M 343.0730,544.0806 h 37.7834 v -247.3094 h -37.7834 Z"/></g><g stroke-opacity="1.0" fill-opacity="1.0" stroke="rgb(228,26,28)" stroke-width="1.0" fill="rgb(231,93,93)"><path d="M 305.2897,544.0806 h 37.7834 v -274.7882 h -37.7834 Z"/></g><g stroke-opacity="1.0" fill-opacity="1.0" stroke="rgb(228,26,28)" stroke-width="1.0" fill="rgb(231,93,93)"><path d="M 267.5063,544.0806 h 37.7834 v -412.1823 h -37.7834 Z"/></g><g stroke-opacity="1.0" fill-opacity="1.0" stroke="rgb(228,26,28)" stroke-width="1.0" fill="rgb(231,93,93)"><path d="M 229.7229,544.0806 h 37.7834 v -274.7882 h -37.7834 Z"/></g><g stroke-opacity="1.0" fill-opacity="1.0" stroke="rgb(228,26,28)" stroke-width="1.0" fill="rgb(231,93,93)"><path d="M 191.9395,544.0806 h 37.7834 v -398.4429 h -37.7834 Z"/></g><g stroke-opacity="1.0" fill-opacity="1.0" stroke="rgb(228,26,28)" stroke-width="1.0" fill="rgb(231,93,93)"><path d="M 154.1562,544.0806 h 37.7834 v -164.8729 h -37.7834 Z"/></g><g stroke-opacity="1.0" fill-opacity="1.0" stroke="rgb(228,26,28)" stroke-width="1.0" fill="rgb(231,93,93)"><path d="M 116.3728,544.0806 h 37.7834 v -54.9576 h -37.7834 Z"/></g><g stroke-width="0.1"><path d="M 78.5894,544.0806 h 453.4005 M 78.5894,461.6441 h 453.4005 M 78.5894,379.2077 h 453.4005 M 78.5894,296.7712 h 453.4005 M 78.5894,214.3348 h 453.4005 M 78.5894,131.8983 h 453.4005 "/></g><g stroke-linecap="square"><path d="M 78.5894,544.0806 v -453.4005 M 531.9899,544.0806 v -453.4005 "/></g><g stroke-width="0.4"><path d="M 531.9899,523.4715 h 4.5340 M 531.9899,502.8624 h 4.5340 M 531.9899,482.2533 h 4.5340 M 531.9899,461.6441 h 4.5340 M 531.9899,441.0350 h 4.5340 M 531.9899,420.4259 h 4.5340 M 531.9899,399.8168 h 4.5340 M 531.9899,379.2077 h 4.5340 M 531.9899,358.5986 h 4.5340 M 531.9899,337.9895 h 4.5340 M 531.9899,317.3804 h 4.5340 M 531.9899,296.7712 h 4.5340 M 531.9899,276.1621 h 4.5340 M 531.9899,255.5530 h 4.5340 M 531.9899,234.9439 h 4.5340 M 531.9899,214.3348 h 4.5340 M 531.9899,193.7257 h 4.5340 M 531.9899,173.1166 h 4.5340 M 531.9899,152.5074 h 4.5340 M 531.9899,131.8983 h 4.5340 M 531.9899,111.2892 h 4.5340 "/></g><g stroke-width="0.4"><path d="M 531.9899,544.0806 h 7.5567 M 531.9899,461.6441 h 7.5567 M 531.9899,379.2077 h 7.5567 M 531.9899,296.7712 h 7.5567 M 531.9899,214.3348 h 7.5567 M 531.9899,131.8983 h 7.5567 "/></g><g stroke-width="0.4"><path d="M 74.0554,523.4715 h 4.5340 M 74.0554,502.8624 h 4.5340 M 74.0554,482.2533 h 4.5340 M 74.0554,461.6441 h 4.5340 M 74.0554,441.0350 h 4.5340 M 74.0554,420.4259 h 4.5340 M 74.0554,399.8168 h 4.5340 M 74.0554,379.2077 h 4.5340 M 74.0554,358.5986 h 4.5340 M 74.0554,337.9895 h 4.5340 M 74.0554,317.3804 h 4.5340 M 74.0554,296.7712 h 4.5340 M 74.0554,276.1621 h 4.5340 M 74.0554,255.5530 h 4.5340 M 74.0554,234.9439 h 4.5340 M 74.0554,214.3348 h 4.5340 M 74.0554,193.7257 h 4.5340 M 74.0554,173.1166 h 4.5340 M 74.0554,152.5074 h 4.5340 M 74.0554,131.8983 h 4.5340 M 74.0554,111.2892 h 4.5340 "/></g><g stroke-width="0.4"><path d="M 71.0327,544.0806 h 7.5567 M 71.0327,461.6441 h 7.5567 M 71.0327,379.2077 h 7.5567 M 71.0327,296.7712 h 7.5567 M 71.0327,214.3348 h 7.5567 M 71.0327,131.8983 h 7.5567 "/></g><g fill-opacity="1.0" font-size="11.0px" fill="rgb(0,0,0)"><text dominant-baseline="middle" transform="matrix(1.0000,0.0000,0.0000,1.0000,60.4534,131.8983)" stroke="none" text-anchor="end">0.5</text></g><g fill-opacity="1.0" font-size="11.0px" fill="rgb(0,0,0)"><text dominant-baseline="middle" transform="matrix(1.0000,0.0000,0.0000,1.0000,60.4534,214.3348)" stroke="none" text-anchor="end">0.4</text></g><g fill-opacity="1.0" font-size="11.0px" fill="rgb(0,0,0)"><text dominant-baseline="middle" transform="matrix(1.0000,0.0000,0.0000,1.0000,60.4534,296.7712)" stroke="none" text-anchor="end">0.3</text></g><g fill-opacity="1.0" font-size="11.0px" fill="rgb(0,0,0)"><text dominant-baseline="middle" transform="matrix(1.0000,0.0000,0.0000,1.0000,60.4534,379.2077)" stroke="none" text-anchor="end">0.2</text></g><g fill-opacity="1.0" font-size="11.0px" fill="rgb(0,0,0)"><text dominant-baseline="middle" transform="matrix(1.0000,0.0000,0.0000,1.0000,60.4534,461.6441)" stroke="none" text-anchor="end">0.1</text></g><g fill-opacity="1.0" font-size="11.0px" fill="rgb(0,0,0)"><text dominant-baseline="middle" transform="matrix(1.0000,0.0000,0.0000,1.0000,60.4534,544.0806)" stroke="none" text-anchor="end">0.0</text></g><g stroke-width="0.1"><path d="M 106.9270,544.0806 v -453.4005 M 201.3854,544.0806 v -453.4005 M 295.8438,544.0806 v -453.4005 M 390.3023,544.0806 v -453.4005 M 484.7607,544.0806 v -453.4005 "/></g><g stroke-linecap="square"><path d="M 78.5894,544.0806 h 453.4005 M 78.5894,90.6801 h 453.4005 "/></g><g stroke-width="0.4"><path d="M 83.3123,90.6801 v -4.5340 M 130.5416,90.6801 v -4.5340 M 154.1562,90.6801 v -4.5340 M 177.7708,90.6801 v -4.5340 M 225.0000,90.6801 v -4.5340 M 248.6146,90.6801 v -4.5340 M 272.2292,90.6801 v -4.5340 M 319.4584,90.6801 v -4.5340 M 343.0730,90.6801 v -4.5340 M 366.6877,90.6801 v -4.5340 M 413.9169,90.6801 v -4.5340 M 437.5315,90.6801 v -4.5340 M 461.1461,90.6801 v -4.5340 M 508.3753,90.6801 v -4.5340 "/></g><g stroke-width="0.4"><path d="M 106.9270,90.6801 v -7.5567 M 201.3854,90.6801 v -7.5567 M 295.8438,90.6801 v -7.5567 M 390.3023,90.6801 v -7.5567 M 484.7607,90.6801 v -7.5567 "/></g><g stroke-width="0.4"><path d="M 83.3123,548.6146 v -4.5340 M 130.5416,548.6146 v -4.5340 M 154.1562,548.6146 v -4.5340 M 177.7708,548.6146 v -4.5340 M 225.0000,548.6146 v -4.5340 M 248.6146,548.6146 v -4.5340 M 272.2292,548.6146 v -4.5340 M 319.4584,548.6146 v -4.5340 M 343.0730,548.6146 v -4.5340 M 366.6877,548.6146 v -4.5340 M 413.9169,548.6146 v -4.5340 M 437.5315,548.6146 v -4.5340 M 461.1461,548.6146 v -4.5340 M 508.3753,548.6146 v -4.5340 "/></g><g stroke-width="0.4"><path d="M 106.9270,551.6373 v -7.5567 M 201.3854,551.6373 v -7.5567 M 295.8438,551.6373 v -7.5567 M 390.3023,551.6373 v -7.5567 M 484.7607,551.6373 v -7.5567 "/></g><g fill-opacity="1.0" font-size="11.0px" fill="rgb(0,0,0)"><text dominant-baseline="text-before-edge" transform="matrix(1.0000,0.0000,0.0000,1.0000,484.7607,562.2166)" stroke="none" text-anchor="middle">8.0</text></g><g fill-opacity="1.0" font-size="11.0px" fill="rgb(0,0,0)"><text dominant-baseline="text-before-edge" transform="matrix(1.0000,0.0000,0.0000,1.0000,390.3023,562.2166)" stroke="none" text-anchor="middle">7.0</text></g><g fill-opacity="1.0" font-size="11.0px" fill="rgb(0,0,0)"><text dominant-baseline="text-before-edge" transform="matrix(1.0000,0.0000,0.0000,1.0000,295.8438,562.2166)" stroke="none" text-anchor="middle">6.0</text></g><g fill-opacity="1.0" font-size="11.0px" fill="rgb(0,0,0)"><text dominant-baseline="text-before-edge" transform="matrix(1.0000,0.0000,0.0000,1.0000,201.3854,562.2166)" stroke="none" text-anchor="middle">5.0</text></g><g fill-opacity="1.0" font-size="11.0px" fill="rgb(0,0,0)"><text dominant-baseline="text-before-edge" transform="matrix(1.0000,0.0000,0.0000,1.0000,106.9270,562.2166)" stroke="none" text-anchor="middle">4.0</text></g><g fill-opacity="1.0" font-size="16.0px" fill="rgb(0,0,0)"><text dominant-baseline="text-after-edge" transform="matrix(1.0000,0.0000,0.0000,1.0000,305.2897,60.4534)" stroke="none" text-anchor="middle"></text></g></svg>