<svg xmlns="http://www.w3.org/2000/svg" height="600.0000" stroke-opacity="1" viewBox="0 0 600 600" font-size="1" width="600.0000" xmlns:xlink="http://www.w3.org/1999/xlink" stroke="rgb(0,0,0)" version="1.1"><defs></defs><g stroke-opacity="1.0" fill-opacity="1.0" stroke="rgb(228,26,28)" stroke-width="1.0" fill="rgb(231,93,93)"><path d="M 116.3728,170.2923 v -61.0640 h 128.7434 v 61.0640 Z"/></g><g stroke-opacity="1.0" fill-opacity="1.0" stroke="rgb(228,26,28)" stroke-width="1.0" fill="rgb(231,93,93)"><path d="M 116.3728,246.6224 v -61.0640 h 201.5113 v 61.0640 Z"/></g><g stroke-opacity="1.0" fill-opacity="1.0" stroke="rgb(228,26,28)" stroke-width="1.0" fill="rgb(231,93,93)"><path d="M 116.3728,322.9524 v -61.0640 h 193.1150 v 61.0640 Z"/></g><g stroke-opacity="1.0" fill-opacity="1.0" stroke="rgb(228,26,28)" stroke-width="1.0" fill="rgb(231,93,93)"><path d="M 116.3728,399.2825 v -61.0640 h 83.9631 v 61.0640 Z"/></g><g stroke-opacity="1.0" fill-opacity="1.0" stroke="rgb(228,26,28)" stroke-width="1.0" fill="rgb(231,93,93)"><path d="M 116.3728,475.6125 v -61.0640 h 377.8338 v 61.0640 Z"/></g><g stroke-width="0.1"><path d="M 78.5894,521.4106 h 453.4005 M 78.5894,445.0805 h 453.4005 M 78.5894,368.7505 h 453.4005 M 78.5894,292.4204 h 453.4005 M 78.5894,216.0904 h 453.4005 M 78.5894,139.7603 h 453.4005 "/></g><g stroke-linecap="square"><path d="M 78.5894,521.4106 v -453.4005 M 531.9899,521.4106 v -453.4005 "/></g><g stroke-width="0.4"><path d="M 531.9899,502.3281 h 4.5340 M 531.9899,483.2456 h 4.5340 M 531.9899,464.1630 h 4.5340 M 531.9899,425.9980 h 4.5340 M 531.9899,406.9155 h 4.5340 M 531.9899,387.8330 h 4.5340 M 531.9899,349.6680 h 4.5340 M 531.9899,330.5855 h 4.5340 M 531.9899,311.5029 h 4.5340 M 531.9899,273.3379 h 4.5340 M 531.9899,254.2554 h 4.5340 M 531.9899,235.1729 h 4.5340 M 531.9899,197.0079 h 4.5340 M 531.9899,177.9253 h 4.5340 M 531.9899,158.8428 h 4.5340 M 531.9899,120.6778 h 4.5340 M 531.9899,101.5953 h 4.5340 M 531.9899,82.5128 h 4.5340 "/></g><g stroke-width="0.4"><path d="M 531.9899,521.4106 h 7.5567 M 531.9899,445.0805 h 7.5567 M 531.9899,368.7505 h 7.5567 M 531.9899,292.4204 h 7.5567 M 531.9899,216.0904 h 7.5567 M 531.9899,139.7603 h 7.5567 "/></g><g stroke-width="0.4"><path d="M 74.0554,502.3281 h 4.5340 M 74.0554,483.2456 h 4.5340 M 74.0554,464.1630 h 4.5340 M 74.0554,425.9980 h 4.5340 M 74.0554,406.9155 h 4.5340 M 74.0554,387.8330 h 4.5340 M 74.0554,349.6680 h 4.5340 M 74.0554,330.5855 h 4.5340 M 74.0554,311.5029 h 4.5340 M 74.0554,273.3379 h 4.5340 M 74.0554,254.2554 h 4.5340 M 74.0554,235.1729 h 4.5340 M 74.0554,197.0079 h 4.5340 M 74.0554,177.9253 h 4.5340 M 74.0554,158.8428 h 4.5340 M 74.0554,120.6778 h 4.5340 M 74.0554,101.5953 h 4.5340 M 74.0554,82.5128 h 4.5340 "/></g><g stroke-width="0.4"><path d="M 71.0327,521.4106 h 7.5567 M 71.0327,445.0805 h 7.5567 M 71.0327,368.7505 h 7.5567 M 71.0327,292.4204 h 7.5567 M 71.0327,216.0904 h 7.5567 M 71.0327,139.7603 h 7.5567 "/></g><g fill-opacity="1.0" font-size="11.0px" fill="rgb(0,0,0)"><text dominant-baseline="middle" transform="matrix(1.0000,0.0000,0.0000,1.0000,60.4534,139.7603)" stroke="none" text-anchor="end">5.0</text></g><g fill-opacity="1.0" font-size="11.0px" fill="rgb(0,0,0)"><text dominant-baseline="middle" transform="matrix(1.0000,0.0000,0.0000,1.0000,60.4534,216.0904)" stroke="none" text-anchor="end">4.0</text></g><g fill-opacity="1.0" font-size="11.0px" fill="rgb(0,0,0)"><text dominant-baseline="middle" transform="matrix(1.0000,0.0000,0.0000,1.0000,60.4534,292.4204)" stroke="none" text-anchor="end">3.0</text></g><g fill-opacity="1.0" font-size="11.0px" fill="rgb(0,0,0)"><text dominant-baseline="middle" transform="matrix(1.0000,0.0000,0.0000,1.0000,60.4534,368.7505)" stroke="none" text-anchor="end">2.0</text></g><g fill-opacity="1.0" font-size="11.0px" fill="rgb(0,0,0)"><text dominant-baseline="middle" transform="matrix(1.0000,0.0000,0.0000,1.0000,60.4534,445.0805)" stroke="none" text-anchor="end">1.0</text></g><g fill-opacity="1.0" font-size="11.0px" fill="rgb(0,0,0)"><text dominant-baseline="middle" transform="matrix(1.0000,0.0000,0.0000,1.0000,60.4534,521.4106)" stroke="none" text-anchor="end">0.0</text></g><g stroke-width="0.1"><path d="M 116.3728,521.4106 v -453.4005 M 186.3420,521.4106 v -453.4005 M 256.3112,521.4106 v -453.4005 M 326.2804,521.4106 v -453.4005 M 396.2497,521.4106 v -453.4005 M 466.2189,521.4106 v -453.4005 "/></g><g stroke-linecap="square"><path d="M 78.5894,521.4106 h 453.4005 M 78.5894,68.0101 h 453.4005 "/></g><g stroke-width="0.4"><path d="M 81.3882,68.0101 v -4.5340 M 98.8805,68.0101 v -4.5340 M 133.8651,68.0101 v -4.5340 M 151.3574,68.0101 v -4.5340 M 168.8497,68.0101 v -4.5340 M 203.8343,68.0101 v -4.5340 M 221.3266,68.0101 v -4.5340 M 238.8189,68.0101 v -4.5340 M 273.8035,68.0101 v -4.5340 M 291.2958,68.0101 v -4.5340 M 308.7881,68.0101 v -4.5340 M 343.7727,68.0101 v -4.5340 M 361.2650,68.0101 v -4.5340 M 378.7573,68.0101 v -4.5340 M 413.7420,68.0101 v -4.5340 M 431.2343,68.0101 v -4.5340 M 448.7266,68.0101 v -4.5340 M 483.7112,68.0101 v -4.5340 M 501.2035,68.0101 v -4.5340 M 518.6958,68.0101 v -4.5340 "/></g><g stroke-width="0.4"><path d="M 116.3728,68.0101 v -7.5567 M 186.3420,68.0101 v -7.5567 M 256.3112,68.0101 v -7.5567 M 326.2804,68.0101 v -7.5567 M 396.2497,68.0101 v -7.5567 M 466.2189,68.0101 v -7.5567 "/></g><g stroke-width="0.4"><path d="M 81.3882,525.9446 v -4.5340 M 98.8805,525.9446 v -4.5340 M 133.8651,525.9446 v -4.5340 M 151.3574,525.9446 v -4.5340 M 168.8497,525.9446 v -4.5340 M 203.8343,525.9446 v -4.5340 M 221.3266,525.9446 v -4.5340 M 238.8189,525.9446 v -4.5340 M 273.8035,525.9446 v -4.5340 M 291.2958,525.9446 v -4.5340 M 308.7881,525.9446 v -4.5340 M 343.7727,525.9446 v -4.5340 M 361.2650,525.9446 v -4.5340 M 378.7573,525.9446 v -4.5340 M 413.7420,525.9446 v -4.5340 M 431.2343,525.9446 v -4.5340 M 448.7266,525.9446 v -4.5340 M 483.7112,525.9446 v -4.5340 M 501.2035,525.9446 v -4.5340 M 518.6958,525.9446 v -4.5340 "/></g><g stroke-width="0.4"><path d="M 116.3728,528.9673 v -7.5567 M 186.3420,528.9673 v -7.5567 M 256.3112,528.9673 v -7.5567 M 326.2804,528.9673 v -7.5567 M 396.2497,528.9673 v -7.5567 M 466.2189,528.9673 v -7.5567 "/></g><g fill-opacity="1.0" font-size="11.0px" fill="rgb(0,0,0)"><text dominant-baseline="text-before-edge" transform="matrix(1.0000,0.0000,0.0000,1.0000,466.2189,539.5466)" stroke="none" text-anchor="middle">12.5</text></g><g fill-opacity="1.0" font-size="11.0px" fill="rgb(0,0,0)"><text dominant-baseline="text-before-edge" transform="matrix(1.0000,0.0000,0.0000,1.0000,396.2497,539.5466)" stroke="none" text-anchor="middle">10.0</text></g><g fill-opacity="1.0" font-size="11.0px" fill="rgb(0,0,0)"><text dominant-baseline="text-before-edge" transform="matrix(1.0000,0.0000,0.0000,1.0000,326.2804,539.5466)" stroke="none" text-anchor="middle">7.5</text></g><g fill-opacity="1.0" font-size="11.0px" fill="rgb(0,0,0)"><text dominant-baseline="text-before-edge" transform="matrix(1.0000,0.0000,0.0000,1.0000,256.3112,539.5466)" stroke="none" text-anchor="middle">5.0</text></g><g fill-opacity="1.0" font-size="11.0px" fill="rgb(0,0,0)"><text dominant-baseline="text-before-edge" transform="matrix(1.0000,0.0000,0.0000,1.0000,186.3420,539.5466)" stroke="none" text-anchor="middle">2.5</text></g><g fill-opacity="1.0" font-size="11.0px" fill="rgb(0,0,0)"><text dominant-baseline="text-before-edge" transform="matrix(1.0000,0.0000,0.0000,1.0000,116.3728,539.5466)" stroke="none" text-anchor="middle">0.0</text></g></svg>