<svg xmlns="http://www.w3.org/2000/svg" height="237.2510" stroke-opacity="1" viewBox="0 0 300 237" font-size="1" width="300.0000" xmlns:xlink="http://www.w3.org/1999/xlink" stroke="rgb(0,0,0)" version="1.1"><defs></defs><g stroke-opacity="1.0" fill-opacity="1.0" stroke="rgb(77,175,74)" stroke-width="0.0" fill="rgb(114,185,112)"><path d="M 131.6111,121.8697 h 25.5229 v 32.0148 h -25.5229 Z"/></g><g><path d="M 144.3725,121.8697 v -26.6790 "/></g><g><path d="M 144.3725,153.8845 v 26.6790 "/></g><g><path d="M 131.6111,137.8771 h 25.5229 "/></g><g><path d="M 131.6111,121.8697 v 32.0148 "/></g><g><path d="M 131.6111,121.8697 h 25.5229 v 32.0148 h -25.5229 "/></g><g stroke-opacity="1.0" fill-opacity="1.0" stroke="rgb(55,126,184)" stroke-width="0.0" fill="rgb(103,146,193)"><path d="M 74.8070,70.2191 h 13.3840 v 24.3312 h -13.3840 Z"/></g><g><path d="M 81.4990,70.2191 v -20.2760 "/></g><g><path d="M 81.4990,94.5504 v 20.2760 "/></g><g><path d="M 74.8070,82.3847 h 13.3840 "/></g><g><path d="M 74.8070,70.2191 v 24.3312 "/></g><g><path d="M 74.8070,70.2191 h 13.3840 v 24.3312 h -13.3840 "/></g><g stroke-opacity="1.0" fill-opacity="1.0" stroke="rgb(228,26,28)" stroke-width="0.0" fill="rgb(231,93,93)"><path d="M 128.4985,70.2191 h 26.7679 v 24.3312 h -26.7679 Z"/></g><g><path d="M 141.8825,70.2191 v -20.2760 "/></g><g><path d="M 141.8825,94.5504 v 20.2760 "/></g><g><path d="M 128.4985,82.3847 h 26.7679 "/></g><g><path d="M 128.4985,70.2191 v 24.3312 "/></g><g><path d="M 128.4985,70.2191 h 26.7679 v 24.3312 h -26.7679 "/></g><g stroke-width="0.1"><path d="M 31.0757,195.5037 h 179.2829 M 31.0757,174.1605 h 179.2829 M 31.0757,152.8173 h 179.2829 M 31.0757,131.4741 h 179.2829 M 31.0757,110.1309 h 179.2829 M 31.0757,88.7877 h 179.2829 M 31.0757,67.4445 h 179.2829 M 31.0757,46.1013 h 179.2829 "/></g><g stroke-linecap="square"><path d="M 31.0757,206.1753 v -179.2829 M 210.3586,206.1753 v -179.2829 "/></g><g stroke-width="0.4"><path d="M 210.3586,200.8395 h 1.7928 M 210.3586,190.1679 h 1.7928 M 210.3586,184.8321 h 1.7928 M 210.3586,179.4963 h 1.7928 M 210.3586,168.8247 h 1.7928 M 210.3586,163.4889 h 1.7928 M 210.3586,158.1531 h 1.7928 M 210.3586,147.4815 h 1.7928 M 210.3586,142.1457 h 1.7928 M 210.3586,136.8099 h 1.7928 M 210.3586,126.1383 h 1.7928 M 210.3586,120.8025 h 1.7928 M 210.3586,115.4667 h 1.7928 M 210.3586,104.7951 h 1.7928 M 210.3586,99.4593 h 1.7928 M 210.3586,94.1235 h 1.7928 M 210.3586,83.4519 h 1.7928 M 210.3586,78.1161 h 1.7928 M 210.3586,72.7803 h 1.7928 M 210.3586,62.1087 h 1.7928 M 210.3586,56.7729 h 1.7928 M 210.3586,51.4371 h 1.7928 M 210.3586,40.7655 h 1.7928 M 210.3586,35.4297 h 1.7928 M 210.3586,30.0939 h 1.7928 "/></g><g stroke-width="0.4"><path d="M 210.3586,195.5037 h 2.9880 M 210.3586,174.1605 h 2.9880 M 210.3586,152.8173 h 2.9880 M 210.3586,131.4741 h 2.9880 M 210.3586,110.1309 h 2.9880 M 210.3586,88.7877 h 2.9880 M 210.3586,67.4445 h 2.9880 M 210.3586,46.1013 h 2.9880 "/></g><g stroke-width="0.4"><path d="M 29.2829,200.8395 h 1.7928 M 29.2829,190.1679 h 1.7928 M 29.2829,184.8321 h 1.7928 M 29.2829,179.4963 h 1.7928 M 29.2829,168.8247 h 1.7928 M 29.2829,163.4889 h 1.7928 M 29.2829,158.1531 h 1.7928 M 29.2829,147.4815 h 1.7928 M 29.2829,142.1457 h 1.7928 M 29.2829,136.8099 h 1.7928 M 29.2829,126.1383 h 1.7928 M 29.2829,120.8025 h 1.7928 M 29.2829,115.4667 h 1.7928 M 29.2829,104.7951 h 1.7928 M 29.2829,99.4593 h 1.7928 M 29.2829,94.1235 h 1.7928 M 29.2829,83.4519 h 1.7928 M 29.2829,78.1161 h 1.7928 M 29.2829,72.7803 h 1.7928 M 29.2829,62.1087 h 1.7928 M 29.2829,56.7729 h 1.7928 M 29.2829,51.4371 h 1.7928 M 29.2829,40.7655 h 1.7928 M 29.2829,35.4297 h 1.7928 M 29.2829,30.0939 h 1.7928 "/></g><g stroke-width="0.4"><path d="M 28.0876,195.5037 h 2.9880 M 28.0876,174.1605 h 2.9880 M 28.0876,152.8173 h 2.9880 M 28.0876,131.4741 h 2.9880 M 28.0876,110.1309 h 2.9880 M 28.0876,88.7877 h 2.9880 M 28.0876,67.4445 h 2.9880 M 28.0876,46.1013 h 2.9880 "/></g><g fill-opacity="1.0" font-size="11.0px" fill="rgb(0,0,0)"><text dominant-baseline="middle" transform="matrix(1.0000,0.0000,0.0000,1.0000,23.9044,46.1013)" stroke="none" text-anchor="end">6.0</text></g><g fill-opacity="1.0" font-size="11.0px" fill="rgb(0,0,0)"><text dominant-baseline="middle" transform="matrix(1.0000,0.0000,0.0000,1.0000,23.9044,67.4445)" stroke="none" text-anchor="end">5.5</text></g><g fill-opacity="1.0" font-size="11.0px" fill="rgb(0,0,0)"><text dominant-baseline="middle" transform="matrix(1.0000,0.0000,0.0000,1.0000,23.9044,88.7877)" stroke="none" text-anchor="end">5.0</text></g><g fill-opacity="1.0" font-size="11.0px" fill="rgb(0,0,0)"><text dominant-baseline="middle" transform="matrix(1.0000,0.0000,0.0000,1.0000,23.9044,110.1309)" stroke="none" text-anchor="end">4.5</text></g><g fill-opacity="1.0" font-size="11.0px" fill="rgb(0,0,0)"><text dominant-baseline="middle" transform="matrix(1.0000,0.0000,0.0000,1.0000,23.9044,131.4741)" stroke="none" text-anchor="end">4.0</text></g><g fill-opacity="1.0" font-size="11.0px" fill="rgb(0,0,0)"><text dominant-baseline="middle" transform="matrix(1.0000,0.0000,0.0000,1.0000,23.9044,152.8173)" stroke="none" text-anchor="end">3.5</text></g><g fill-opacity="1.0" font-size="11.0px" fill="rgb(0,0,0)"><text dominant-baseline="middle" transform="matrix(1.0000,0.0000,0.0000,1.0000,23.9044,174.1605)" stroke="none" text-anchor="end">3.0</text></g><g fill-opacity="1.0" font-size="11.0px" fill="rgb(0,0,0)"><text dominant-baseline="middle" transform="matrix(1.0000,0.0000,0.0000,1.0000,23.9044,195.5037)" stroke="none" text-anchor="end">2.5</text></g><g stroke-width="0.1"><path d="M 46.0159,206.1753 v -179.2829 M 70.9163,206.1753 v -179.2829 M 95.8167,206.1753 v -179.2829 M 120.7171,206.1753 v -179.2829 M 145.6175,206.1753 v -179.2829 M 170.5179,206.1753 v -179.2829 M 195.4183,206.1753 v -179.2829 "/></g><g stroke-linecap="square"><path d="M 31.0757,206.1753 h 179.2829 M 31.0757,26.8924 h 179.2829 "/></g><g stroke-width="0.4"><path d="M 33.5657,26.8924 v -1.7928 M 39.7908,26.8924 v -1.7928 M 52.2410,26.8924 v -1.7928 M 58.4661,26.8924 v -1.7928 M 64.6912,26.8924 v -1.7928 M 77.1414,26.8924 v -1.7928 M 83.3665,26.8924 v -1.7928 M 89.5916,26.8924 v -1.7928 M 102.0418,26.8924 v -1.7928 M 108.2669,26.8924 v -1.7928 M 114.4920,26.8924 v -1.7928 M 126.9422,26.8924 v -1.7928 M 133.1673,26.8924 v -1.7928 M 139.3924,26.8924 v -1.7928 M 151.8426,26.8924 v -1.7928 M 158.0677,26.8924 v -1.7928 M 164.2928,26.8924 v -1.7928 M 176.7430,26.8924 v -1.7928 M 182.9681,26.8924 v -1.7928 M 189.1932,26.8924 v -1.7928 M 201.6434,26.8924 v -1.7928 M 207.8685,26.8924 v -1.7928 "/></g><g stroke-width="0.4"><path d="M 46.0159,26.8924 v -2.9880 M 70.9163,26.8924 v -2.9880 M 95.8167,26.8924 v -2.9880 M 120.7171,26.8924 v -2.9880 M 145.6175,26.8924 v -2.9880 M 170.5179,26.8924 v -2.9880 M 195.4183,26.8924 v -2.9880 "/></g><g stroke-width="0.4"><path d="M 33.5657,207.9681 v -1.7928 M 39.7908,207.9681 v -1.7928 M 52.2410,207.9681 v -1.7928 M 58.4661,207.9681 v -1.7928 M 64.6912,207.9681 v -1.7928 M 77.1414,207.9681 v -1.7928 M 83.3665,207.9681 v -1.7928 M 89.5916,207.9681 v -1.7928 M 102.0418,207.9681 v -1.7928 M 108.2669,207.9681 v -1.7928 M 114.4920,207.9681 v -1.7928 M 126.9422,207.9681 v -1.7928 M 133.1673,207.9681 v -1.7928 M 139.3924,207.9681 v -1.7928 M 151.8426,207.9681 v -1.7928 M 158.0677,207.9681 v -1.7928 M 164.2928,207.9681 v -1.7928 M 176.7430,207.9681 v -1.7928 M 182.9681,207.9681 v -1.7928 M 189.1932,207.9681 v -1.7928 M 201.6434,207.9681 v -1.7928 M 207.8685,207.9681 v -1.7928 "/></g><g stroke-width="0.4"><path d="M 46.0159,209.1633 v -2.9880 M 70.9163,209.1633 v -2.9880 M 95.8167,209.1633 v -2.9880 M 120.7171,209.1633 v -2.9880 M 145.6175,209.1633 v -2.9880 M 170.5179,209.1633 v -2.9880 M 195.4183,209.1633 v -2.9880 "/></g><g fill-opacity="1.0" font-size="11.0px" fill="rgb(0,0,0)"><text dominant-baseline="text-before-edge" transform="matrix(1.0000,0.0000,0.0000,1.0000,195.4183,213.3466)" stroke="none" text-anchor="middle">3.5</text></g><g fill-opacity="1.0" font-size="11.0px" fill="rgb(0,0,0)"><text dominant-baseline="text-before-edge" transform="matrix(1.0000,0.0000,0.0000,1.0000,170.5179,213.3466)" stroke="none" text-anchor="middle">3.0</text></g><g fill-opacity="1.0" font-size="11.0px" fill="rgb(0,0,0)"><text dominant-baseline="text-before-edge" transform="matrix(1.0000,0.0000,0.0000,1.0000,145.6175,213.3466)" stroke="none" text-anchor="middle">2.5</text></g><g fill-opacity="1.0" font-size="11.0px" fill="rgb(0,0,0)"><text dominant-baseline="text-before-edge" transform="matrix(1.0000,0.0000,0.0000,1.0000,120.7171,213.3466)" stroke="none" text-anchor="middle">2.0</text></g><g fill-opacity="1.0" font-size="11.0px" fill="rgb(0,0,0)"><text dominant-baseline="text-before-edge" transform="matrix(1.0000,0.0000,0.0000,1.0000,95.8167,213.3466)" stroke="none" text-anchor="middle">1.5</text></g><g fill-opacity="1.0" font-size="11.0px" fill="rgb(0,0,0)"><text dominant-baseline="text-before-edge" transform="matrix(1.0000,0.0000,0.0000,1.0000,70.9163,213.3466)" stroke="none" text-anchor="middle">1.0</text></g><g fill-opacity="1.0" font-size="11.0px" fill="rgb(0,0,0)"><text dominant-baseline="text-before-edge" transform="matrix(1.0000,0.0000,0.0000,1.0000,46.0159,213.3466)" stroke="none" text-anchor="middle">0.5</text></g><g><path d="M 258.1673,62.7490 l -0.0000,-35.8566 h -35.8566 l -0.0000,35.8566 Z"/></g><g fill-opacity="1.0" font-size="8.0px" fill="rgb(0,0,0)"><text dominant-baseline="middle" transform="matrix(1.0000,0.0000,0.0000,1.0000,240.2390,56.7729)" stroke="none" text-anchor="start">data 3</text></g><g stroke-opacity="1.0" fill-opacity="1.0" stroke="rgb(77,175,74)" stroke-width="1.0" fill="rgb(114,185,112)"><path d="M 232.7689,58.2669 l -0.0000,-2.9880 h -2.9880 l -0.0000,2.9880 Z"/></g><g fill-opacity="1.0" font-size="8.0px" fill="rgb(0,0,0)"><text dominant-baseline="middle" transform="matrix(1.0000,0.0000,0.0000,1.0000,240.2390,44.8207)" stroke="none" text-anchor="start">data 2</text></g><g stroke-opacity="1.0" fill-opacity="1.0" stroke="rgb(55,126,184)" stroke-width="1.0" fill="rgb(103,146,193)"><path d="M 232.7689,46.3147 l -0.0000,-2.9880 h -2.9880 l -0.0000,2.9880 Z"/></g><g fill-opacity="1.0" font-size="8.0px" fill="rgb(0,0,0)"><text dominant-baseline="middle" transform="matrix(1.0000,0.0000,0.0000,1.0000,240.2390,32.8685)" stroke="none" text-anchor="start">data 1</text></g><g stroke-opacity="1.0" fill-opacity="1.0" stroke="rgb(228,26,28)" stroke-width="1.0" fill="rgb(231,93,93)"><path d="M 232.7689,34.3625 l -0.0000,-2.9880 h -2.9880 l -0.0000,2.9880 Z"/></g></svg>