<svg xmlns="http://www.w3.org/2000/svg" height="400.0000" stroke-opacity="1" viewBox="0 0 454 400" font-size="1" width="454.3396" xmlns:xlink="http://www.w3.org/1999/xlink" stroke="rgb(0,0,0)" version="1.1"><defs></defs><g stroke-opacity="1.0" fill-opacity="1.0" stroke="rgb(55,126,184)" stroke-width="1.0" fill="rgb(103,146,193)"><defs><clipPath id="myClip1"><path d="M 341.1321,347.1698 l -0.0000,-301.8868 h -301.8868 l -0.0000,301.8868 Z"/></clipPath></defs><g clip-path="url(#myClip1)"><path d="M 286.3781,347.1698 h 29.5967 v -91.4808 h -29.5967 Z"/></g></g><g stroke-opacity="1.0" fill-opacity="1.0" stroke="rgb(55,126,184)" stroke-width="1.0" fill="rgb(103,146,193)"><defs><clipPath id="myClip2"><path d="M 341.1321,347.1698 l -0.0000,-301.8868 h -301.8868 l -0.0000,301.8868 Z"/></clipPath></defs><g clip-path="url(#myClip2)"><path d="M 212.3862,347.1698 h 29.5967 v -213.4553 h -29.5967 Z"/></g></g><g stroke-opacity="1.0" fill-opacity="1.0" stroke="rgb(55,126,184)" stroke-width="1.0" fill="rgb(103,146,193)"><defs><clipPath id="myClip3"><path d="M 341.1321,347.1698 l -0.0000,-301.8868 h -301.8868 l -0.0000,301.8868 Z"/></clipPath></defs><g clip-path="url(#myClip3)"><path d="M 138.3944,347.1698 h 29.5967 v -121.9745 h -29.5967 Z"/></g></g><g stroke-opacity="1.0" fill-opacity="1.0" stroke="rgb(55,126,184)" stroke-width="1.0" fill="rgb(103,146,193)"><defs><clipPath id="myClip4"><path d="M 341.1321,347.1698 l -0.0000,-301.8868 h -301.8868 l -0.0000,301.8868 Z"/></clipPath></defs><g clip-path="url(#myClip4)"><path d="M 64.4025,347.1698 h 29.5967 v -114.3511 h -29.5967 Z"/></g></g><g stroke-opacity="1.0" fill-opacity="1.0" stroke="rgb(228,26,28)" stroke-width="1.0" fill="rgb(231,93,93)"><defs><clipPath id="myClip5"><path d="M 341.1321,347.1698 l -0.0000,-301.8868 h -301.8868 l -0.0000,301.8868 Z"/></clipPath></defs><g clip-path="url(#myClip5)"><path d="M 286.3781,255.6890 h 29.5967 v -182.9617 h -29.5967 Z"/></g></g><g stroke-opacity="1.0" fill-opacity="1.0" stroke="rgb(228,26,28)" stroke-width="1.0" fill="rgb(231,93,93)"><defs><clipPath id="myClip6"><path d="M 341.1321,347.1698 l -0.0000,-301.8868 h -301.8868 l -0.0000,301.8868 Z"/></clipPath></defs><g clip-path="url(#myClip6)"><path d="M 212.3862,133.7145 h 29.5967 v -60.9872 h -29.5967 Z"/></g></g><g stroke-opacity="1.0" fill-opacity="1.0" stroke="rgb(228,26,28)" stroke-width="1.0" fill="rgb(231,93,93)"><defs><clipPath id="myClip7"><path d="M 341.1321,347.1698 l -0.0000,-301.8868 h -301.8868 l -0.0000,301.8868 Z"/></clipPath></defs><g clip-path="url(#myClip7)"><path d="M 138.3944,225.1953 h 29.5967 v -152.4681 h -29.5967 Z"/></g></g><g stroke-opacity="1.0" fill-opacity="1.0" stroke="rgb(228,26,28)" stroke-width="1.0" fill="rgb(231,93,93)"><defs><clipPath id="myClip8"><path d="M 341.1321,347.1698 l -0.0000,-301.8868 h -301.8868 l -0.0000,301.8868 Z"/></clipPath></defs><g clip-path="url(#myClip8)"><path d="M 64.4025,232.8188 h 29.5967 v -160.0915 h -29.5967 Z"/></g></g><g stroke-width="0.8"><path d="M 39.2453,347.1698 h 301.8868 M 39.2453,292.2813 h 301.8868 M 39.2453,237.3928 h 301.8868 M 39.2453,182.5043 h 301.8868 M 39.2453,127.6158 h 301.8868 M 39.2453,72.7273 h 301.8868 "/></g><g stroke-linecap="square"><path d="M 39.2453,347.1698 v -301.8868 M 341.1321,347.1698 v -301.8868 "/></g><g stroke-width="0.4"><path d="M 341.1321,347.1698 h 3.7736 M 341.1321,292.2813 h 3.7736 M 341.1321,237.3928 h 3.7736 M 341.1321,182.5043 h 3.7736 M 341.1321,127.6158 h 3.7736 M 341.1321,72.7273 h 3.7736 "/></g><g stroke-width="0.4"><path d="M 35.4717,347.1698 h 3.7736 M 35.4717,292.2813 h 3.7736 M 35.4717,237.3928 h 3.7736 M 35.4717,182.5043 h 3.7736 M 35.4717,127.6158 h 3.7736 M 35.4717,72.7273 h 3.7736 "/></g><g fill-opacity="1.0" font-size="11.0px" fill="rgb(0,0,0)"><text dominant-baseline="middle" transform="matrix(1.0000,0.0000,0.0000,1.0000,30.1887,72.7273)" stroke="none" text-anchor="end">10</text></g><g fill-opacity="1.0" font-size="11.0px" fill="rgb(0,0,0)"><text dominant-baseline="middle" transform="matrix(1.0000,0.0000,0.0000,1.0000,30.1887,127.6158)" stroke="none" text-anchor="end">8</text></g><g fill-opacity="1.0" font-size="11.0px" fill="rgb(0,0,0)"><text dominant-baseline="middle" transform="matrix(1.0000,0.0000,0.0000,1.0000,30.1887,182.5043)" stroke="none" text-anchor="end">6</text></g><g fill-opacity="1.0" font-size="11.0px" fill="rgb(0,0,0)"><text dominant-baseline="middle" transform="matrix(1.0000,0.0000,0.0000,1.0000,30.1887,237.3928)" stroke="none" text-anchor="end">4</text></g><g fill-opacity="1.0" font-size="11.0px" fill="rgb(0,0,0)"><text dominant-baseline="middle" transform="matrix(1.0000,0.0000,0.0000,1.0000,30.1887,292.2813)" stroke="none" text-anchor="end">2</text></g><g fill-opacity="1.0" font-size="11.0px" fill="rgb(0,0,0)"><text dominant-baseline="middle" transform="matrix(1.0000,0.0000,0.0000,1.0000,30.1887,347.1698)" stroke="none" text-anchor="end">0</text></g><g stroke-linecap="square"><path d="M 39.2453,347.1698 h 301.8868 M 39.2453,45.2830 h 301.8868 "/></g><g stroke-width="0.4"><path d="M 79.2009,45.2830 v -3.7736 M 153.1927,45.2830 v -3.7736 M 227.1846,45.2830 v -3.7736 M 301.1765,45.2830 v -3.7736 "/></g><g stroke-width="0.4"><path d="M 79.2009,350.9434 v -3.7736 M 153.1927,350.9434 v -3.7736 M 227.1846,350.9434 v -3.7736 M 301.1765,350.9434 v -3.7736 "/></g><g fill-opacity="1.0" font-size="11.0px" fill="rgb(0,0,0)"><text dominant-baseline="text-before-edge" transform="matrix(1.0000,0.0000,0.0000,1.0000,190.1887,369.8113)" stroke="none" text-anchor="middle">breakfast item</text></g><g fill-opacity="1.0" font-size="11.0px" fill="rgb(0,0,0)"><text dominant-baseline="text-before-edge" transform="matrix(1.0000,0.0000,0.0000,1.0000,301.1765,356.2264)" stroke="none" text-anchor="middle">beans</text></g><g fill-opacity="1.0" font-size="11.0px" fill="rgb(0,0,0)"><text dominant-baseline="text-before-edge" transform="matrix(1.0000,0.0000,0.0000,1.0000,227.1846,356.2264)" stroke="none" text-anchor="middle">sausage</text></g><g fill-opacity="1.0" font-size="11.0px" fill="rgb(0,0,0)"><text dominant-baseline="text-before-edge" transform="matrix(1.0000,0.0000,0.0000,1.0000,153.1927,356.2264)" stroke="none" text-anchor="middle">bacon</text></g><g fill-opacity="1.0" font-size="11.0px" fill="rgb(0,0,0)"><text dominant-baseline="text-before-edge" transform="matrix(1.0000,0.0000,0.0000,1.0000,79.2009,356.2264)" stroke="none" text-anchor="middle">eggs</text></g><g fill-opacity="1.0" font-size="11.0px" fill="rgb(0,0,0)"><text dominant-baseline="text-after-edge" transform="matrix(1.0000,0.0000,0.0000,1.0000,190.1887,30.1887)" stroke="none" text-anchor="middle"></text></g><g fill-opacity="0.0" fill="rgb(0,0,0)"><path d="M 420.3774,75.4717 l -0.0000,-30.1887 h -64.1509 l -0.0000,30.1887 Z"/></g><g fill-opacity="1.0" font-size="11.0px" fill="rgb(0,0,0)"><text dominant-baseline="middle" transform="matrix(1.0000,0.0000,0.0000,1.0000,378.8679,67.9245)" stroke="none" text-anchor="start">boys</text></g><g stroke-opacity="1.0" fill-opacity="1.0" stroke="rgb(55,126,184)" stroke-width="0.6037735849056605" fill="rgb(103,146,193)"><path d="M 371.6981,71.6981 l -0.0000,-7.5472 h -3.0189 l -0.0000,7.5472 Z"/></g><g stroke-opacity="1.0" fill-opacity="1.0" stroke="rgb(55,126,184)" stroke-width="0.6037735849056605" fill="rgb(103,146,193)"><path d="M 366.4151,71.6981 l -0.0000,-5.2830 h -3.0189 l -0.0000,5.2830 Z"/></g><g fill-opacity="1.0" font-size="11.0px" fill="rgb(0,0,0)"><text dominant-baseline="middle" transform="matrix(1.0000,0.0000,0.0000,1.0000,378.8679,52.8302)" stroke="none" text-anchor="start">girls</text></g><g stroke-opacity="1.0" fill-opacity="1.0" stroke="rgb(228,26,28)" stroke-width="0.6037735849056605" fill="rgb(231,93,93)"><path d="M 371.6981,56.6038 l -0.0000,-7.5472 h -3.0189 l -0.0000,7.5472 Z"/></g><g stroke-opacity="1.0" fill-opacity="1.0" stroke="rgb(228,26,28)" stroke-width="0.6037735849056605" fill="rgb(231,93,93)"><path d="M 366.4151,56.6038 l -0.0000,-5.2830 h -3.0189 l -0.0000,5.2830 Z"/></g></svg>