<svg xmlns="http://www.w3.org/2000/svg" height="400.0000" stroke-opacity="1" viewBox="0 0 388 400" font-size="1" width="388.2812" xmlns:xlink="http://www.w3.org/1999/xlink" stroke="rgb(0,0,0)" version="1.1"><defs></defs><g stroke-opacity="1.0" fill-opacity="1.0" stroke="rgb(228,26,28)" stroke-width="1.0" fill="rgb(231,93,93)"><defs><clipPath id="myClip1"><path d="M 353.1250,359.3750 l -0.0000,-312.5000 h -312.5000 l -0.0000,312.5000 Z"/></clipPath></defs><g clip-path="url(#myClip1)"><path d="M 40.6250,116.3194 v -43.4028 h 96.8013 v 43.4028 Z"/></g></g><g stroke-opacity="1.0" fill-opacity="1.0" stroke="rgb(228,26,28)" stroke-width="1.0" fill="rgb(231,93,93)"><defs><clipPath id="myClip2"><path d="M 353.1250,359.3750 l -0.0000,-312.5000 h -312.5000 l -0.0000,312.5000 Z"/></clipPath></defs><g clip-path="url(#myClip2)"><path d="M 40.6250,170.5729 v -43.4028 h 151.5152 v 43.4028 Z"/></g></g><g stroke-opacity="1.0" fill-opacity="1.0" stroke="rgb(228,26,28)" stroke-width="1.0" fill="rgb(231,93,93)"><defs><clipPath id="myClip3"><path d="M 353.1250,359.3750 l -0.0000,-312.5000 h -312.5000 l -0.0000,312.5000 Z"/></clipPath></defs><g clip-path="url(#myClip3)"><path d="M 40.6250,224.8264 v -43.4028 h 145.2020 v 43.4028 Z"/></g></g><g stroke-opacity="1.0" fill-opacity="1.0" stroke="rgb(228,26,28)" stroke-width="1.0" fill="rgb(231,93,93)"><defs><clipPath id="myClip4"><path d="M 353.1250,359.3750 l -0.0000,-312.5000 h -312.5000 l -0.0000,312.5000 Z"/></clipPath></defs><g clip-path="url(#myClip4)"><path d="M 40.6250,279.0799 v -43.4028 h 63.1313 v 43.4028 Z"/></g></g><g stroke-opacity="1.0" fill-opacity="1.0" stroke="rgb(228,26,28)" stroke-width="1.0" fill="rgb(231,93,93)"><defs><clipPath id="myClip5"><path d="M 353.1250,359.3750 l -0.0000,-312.5000 h -312.5000 l -0.0000,312.5000 Z"/></clipPath></defs><g clip-path="url(#myClip5)"><path d="M 40.6250,333.3333 v -43.4028 h 284.0909 v 43.4028 Z"/></g></g><g stroke-linecap="square"><path d="M 40.6250,359.3750 v -312.5000 M 353.1250,359.3750 v -312.5000 "/></g><g stroke-width="0.4"><path d="M 353.1250,356.8432 h 2.3438 M 353.1250,347.8009 h 2.3438 M 353.1250,338.7587 h 2.3438 M 353.1250,329.7164 h 2.3438 M 353.1250,320.6742 h 2.3438 M 353.1250,302.5897 h 2.3438 M 353.1250,293.5475 h 2.3438 M 353.1250,284.5052 h 2.3438 M 353.1250,275.4630 h 2.3438 M 353.1250,266.4207 h 2.3438 M 353.1250,248.3362 h 2.3438 M 353.1250,239.2940 h 2.3438 M 353.1250,230.2517 h 2.3438 M 353.1250,221.2095 h 2.3438 M 353.1250,212.1672 h 2.3438 M 353.1250,194.0828 h 2.3438 M 353.1250,185.0405 h 2.3438 M 353.1250,175.9983 h 2.3438 M 353.1250,166.9560 h 2.3438 M 353.1250,157.9138 h 2.3438 M 353.1250,139.8293 h 2.3438 M 353.1250,130.7870 h 2.3438 M 353.1250,121.7448 h 2.3438 M 353.1250,112.7025 h 2.3438 M 353.1250,103.6603 h 2.3438 M 353.1250,85.5758 h 2.3438 M 353.1250,76.5336 h 2.3438 M 353.1250,67.4913 h 2.3438 M 353.1250,58.4491 h 2.3438 M 353.1250,49.4068 h 2.3438 "/></g><g stroke-width="0.4"><path d="M 353.1250,311.6319 h 3.9062 M 353.1250,257.3785 h 3.9062 M 353.1250,203.1250 h 3.9062 M 353.1250,148.8715 h 3.9062 M 353.1250,94.6181 h 3.9062 "/></g><g stroke-width="0.4"><path d="M 38.2812,356.8432 h 2.3438 M 38.2812,347.8009 h 2.3438 M 38.2812,338.7587 h 2.3438 M 38.2812,329.7164 h 2.3438 M 38.2812,320.6742 h 2.3438 M 38.2812,302.5897 h 2.3438 M 38.2812,293.5475 h 2.3438 M 38.2812,284.5052 h 2.3438 M 38.2812,275.4630 h 2.3438 M 38.2812,266.4207 h 2.3438 M 38.2812,248.3362 h 2.3438 M 38.2812,239.2940 h 2.3438 M 38.2812,230.2517 h 2.3438 M 38.2812,221.2095 h 2.3438 M 38.2812,212.1672 h 2.3438 M 38.2812,194.0828 h 2.3438 M 38.2812,185.0405 h 2.3438 M 38.2812,175.9983 h 2.3438 M 38.2812,166.9560 h 2.3438 M 38.2812,157.9138 h 2.3438 M 38.2812,139.8293 h 2.3438 M 38.2812,130.7870 h 2.3438 M 38.2812,121.7448 h 2.3438 M 38.2812,112.7025 h 2.3438 M 38.2812,103.6603 h 2.3438 M 38.2812,85.5758 h 2.3438 M 38.2812,76.5336 h 2.3438 M 38.2812,67.4913 h 2.3438 M 38.2812,58.4491 h 2.3438 M 38.2812,49.4068 h 2.3438 "/></g><g stroke-width="0.4"><path d="M 36.7188,311.6319 h 3.9062 M 36.7188,257.3785 h 3.9062 M 36.7188,203.1250 h 3.9062 M 36.7188,148.8715 h 3.9062 M 36.7188,94.6181 h 3.9062 "/></g><g fill-opacity="1.0" font-size="11.0px" fill="rgb(0,0,0)"><text dominant-baseline="middle" transform="matrix(1.0000,0.0000,0.0000,1.0000,31.2500,94.6181)" stroke="none" text-anchor="end">5.0</text></g><g fill-opacity="1.0" font-size="11.0px" fill="rgb(0,0,0)"><text dominant-baseline="middle" transform="matrix(1.0000,0.0000,0.0000,1.0000,31.2500,148.8715)" stroke="none" text-anchor="end">4.0</text></g><g fill-opacity="1.0" font-size="11.0px" fill="rgb(0,0,0)"><text dominant-baseline="middle" transform="matrix(1.0000,0.0000,0.0000,1.0000,31.2500,203.1250)" stroke="none" text-anchor="end">3.0</text></g><g fill-opacity="1.0" font-size="11.0px" fill="rgb(0,0,0)"><text dominant-baseline="middle" transform="matrix(1.0000,0.0000,0.0000,1.0000,31.2500,257.3785)" stroke="none" text-anchor="end">2.0</text></g><g fill-opacity="1.0" font-size="11.0px" fill="rgb(0,0,0)"><text dominant-baseline="middle" transform="matrix(1.0000,0.0000,0.0000,1.0000,31.2500,311.6319)" stroke="none" text-anchor="end">1.0</text></g><g stroke-width="0.8"><path d="M 40.6250,359.3750 v -312.5000 M 103.7563,359.3750 v -312.5000 M 166.8876,359.3750 v -312.5000 M 230.0189,359.3750 v -312.5000 M 293.1503,359.3750 v -312.5000 "/></g><g stroke-linecap="square"><path d="M 40.6250,359.3750 h 312.5000 M 40.6250,46.8750 h 312.5000 "/></g><g stroke-width="0.4"><path d="M 51.1469,46.8750 v -2.3438 M 61.6688,46.8750 v -2.3438 M 72.1907,46.8750 v -2.3438 M 82.7125,46.8750 v -2.3438 M 93.2344,46.8750 v -2.3438 M 114.2782,46.8750 v -2.3438 M 124.8001,46.8750 v -2.3438 M 135.3220,46.8750 v -2.3438 M 145.8439,46.8750 v -2.3438 M 156.3657,46.8750 v -2.3438 M 177.4095,46.8750 v -2.3438 M 187.9314,46.8750 v -2.3438 M 198.4533,46.8750 v -2.3438 M 208.9752,46.8750 v -2.3438 M 219.4971,46.8750 v -2.3438 M 240.5408,46.8750 v -2.3438 M 251.0627,46.8750 v -2.3438 M 261.5846,46.8750 v -2.3438 M 272.1065,46.8750 v -2.3438 M 282.6284,46.8750 v -2.3438 M 303.6721,46.8750 v -2.3438 M 314.1940,46.8750 v -2.3438 M 324.7159,46.8750 v -2.3438 M 335.2378,46.8750 v -2.3438 M 345.7597,46.8750 v -2.3438 "/></g><g stroke-width="0.4"><path d="M 40.6250,46.8750 v -3.9062 M 103.7563,46.8750 v -3.9062 M 166.8876,46.8750 v -3.9062 M 230.0189,46.8750 v -3.9062 M 293.1503,46.8750 v -3.9062 "/></g><g stroke-width="0.4"><path d="M 51.1469,361.7187 v -2.3438 M 61.6688,361.7187 v -2.3438 M 72.1907,361.7187 v -2.3438 M 82.7125,361.7187 v -2.3438 M 93.2344,361.7187 v -2.3438 M 114.2782,361.7187 v -2.3438 M 124.8001,361.7187 v -2.3438 M 135.3220,361.7187 v -2.3438 M 145.8439,361.7187 v -2.3438 M 156.3657,361.7187 v -2.3438 M 177.4095,361.7187 v -2.3438 M 187.9314,361.7187 v -2.3438 M 198.4533,361.7187 v -2.3438 M 208.9752,361.7187 v -2.3438 M 219.4971,361.7187 v -2.3438 M 240.5408,361.7187 v -2.3438 M 251.0627,361.7187 v -2.3438 M 261.5846,361.7187 v -2.3438 M 272.1065,361.7187 v -2.3438 M 282.6284,361.7187 v -2.3438 M 303.6721,361.7187 v -2.3438 M 314.1940,361.7187 v -2.3438 M 324.7159,361.7187 v -2.3438 M 335.2378,361.7187 v -2.3438 M 345.7597,361.7187 v -2.3438 "/></g><g stroke-width="0.4"><path d="M 40.6250,363.2812 v -3.9062 M 103.7563,363.2812 v -3.9062 M 166.8876,363.2812 v -3.9062 M 230.0189,363.2812 v -3.9062 M 293.1503,363.2812 v -3.9062 "/></g><g fill-opacity="1.0" font-size="11.0px" fill="rgb(0,0,0)"><text dominant-baseline="text-before-edge" transform="matrix(1.0000,0.0000,0.0000,1.0000,293.1503,368.7500)" stroke="none" text-anchor="middle">12.0</text></g><g fill-opacity="1.0" font-size="11.0px" fill="rgb(0,0,0)"><text dominant-baseline="text-before-edge" transform="matrix(1.0000,0.0000,0.0000,1.0000,230.0189,368.7500)" stroke="none" text-anchor="middle">9.0</text></g><g fill-opacity="1.0" font-size="11.0px" fill="rgb(0,0,0)"><text dominant-baseline="text-before-edge" transform="matrix(1.0000,0.0000,0.0000,1.0000,166.8876,368.7500)" stroke="none" text-anchor="middle">6.0</text></g><g fill-opacity="1.0" font-size="11.0px" fill="rgb(0,0,0)"><text dominant-baseline="text-before-edge" transform="matrix(1.0000,0.0000,0.0000,1.0000,103.7563,368.7500)" stroke="none" text-anchor="middle">3.0</text></g><g fill-opacity="1.0" font-size="11.0px" fill="rgb(0,0,0)"><text dominant-baseline="text-before-edge" transform="matrix(1.0000,0.0000,0.0000,1.0000,40.6250,368.7500)" stroke="none" text-anchor="middle">0.0</text></g><g fill-opacity="1.0" font-size="11.0px" fill="rgb(0,0,0)"><text dominant-baseline="text-after-edge" transform="matrix(1.0000,0.0000,0.0000,1.0000,196.8750,31.2500)" stroke="none" text-anchor="middle"></text></g></svg>