<svg xmlns="http://www.w3.org/2000/svg" height="300.0000" stroke-opacity="1" viewBox="0 0 300 300" font-size="1" width="300.0000" xmlns:xlink="http://www.w3.org/1999/xlink" stroke="rgb(0,0,0)" version="1.1"><defs></defs><g stroke-opacity="1.0" fill-opacity="1.0" stroke="rgb(77,175,74)" stroke-width="0.0" fill="rgb(114,185,112)"><path d="M 166.4200,154.1022 h 32.2733 v 40.4822 h -32.2733 Z"/></g><g><path d="M 182.5567,154.1022 v -33.7352 "/></g><g><path d="M 182.5567,194.5844 v 33.7352 "/></g><g><path d="M 166.4200,174.3433 h 32.2733 "/></g><g><path d="M 166.4200,154.1022 v 40.4822 "/></g><g><path d="M 166.4200,154.1022 h 32.2733 v 40.4822 h -32.2733 "/></g><g stroke-opacity="1.0" fill-opacity="1.0" stroke="rgb(55,126,184)" stroke-width="0.0" fill="rgb(103,146,193)"><path d="M 94.5923,88.7909 h 16.9238 v 30.7665 h -16.9238 Z"/></g><g><path d="M 103.0542,88.7909 v -25.6387 "/></g><g><path d="M 103.0542,119.5574 v 25.6387 "/></g><g><path d="M 94.5923,104.1742 h 16.9238 "/></g><g><path d="M 94.5923,88.7909 v 30.7665 "/></g><g><path d="M 94.5923,88.7909 h 16.9238 v 30.7665 h -16.9238 "/></g><g stroke-opacity="1.0" fill-opacity="1.0" stroke="rgb(228,26,28)" stroke-width="0.0" fill="rgb(231,93,93)"><path d="M 162.4843,88.7909 h 33.8476 v 30.7665 h -33.8476 Z"/></g><g><path d="M 179.4081,88.7909 v -25.6387 "/></g><g><path d="M 179.4081,119.5574 v 25.6387 "/></g><g><path d="M 162.4843,104.1742 h 33.8476 "/></g><g><path d="M 162.4843,88.7909 v 30.7665 "/></g><g><path d="M 162.4843,88.7909 h 33.8476 v 30.7665 h -33.8476 "/></g><g stroke-width="0.1"><path d="M 39.2947,247.2112 h 226.7003 M 39.2947,220.2231 h 226.7003 M 39.2947,193.2350 h 226.7003 M 39.2947,166.2469 h 226.7003 M 39.2947,139.2587 h 226.7003 M 39.2947,112.2706 h 226.7003 M 39.2947,85.2825 h 226.7003 M 39.2947,58.2944 h 226.7003 "/></g><g stroke-linecap="square"><path d="M 39.2947,260.7053 v -226.7003 M 265.9950,260.7053 v -226.7003 "/></g><g stroke-width="0.4"><path d="M 265.9950,253.9583 h 2.2670 M 265.9950,240.4642 h 2.2670 M 265.9950,233.7172 h 2.2670 M 265.9950,226.9701 h 2.2670 M 265.9950,213.4761 h 2.2670 M 265.9950,206.7290 h 2.2670 M 265.9950,199.9820 h 2.2670 M 265.9950,186.4879 h 2.2670 M 265.9950,179.7409 h 2.2670 M 265.9950,172.9939 h 2.2670 M 265.9950,159.4998 h 2.2670 M 265.9950,152.7528 h 2.2670 M 265.9950,146.0058 h 2.2670 M 265.9950,132.5117 h 2.2670 M 265.9950,125.7647 h 2.2670 M 265.9950,119.0176 h 2.2670 M 265.9950,105.5236 h 2.2670 M 265.9950,98.7765 h 2.2670 M 265.9950,92.0295 h 2.2670 M 265.9950,78.5354 h 2.2670 M 265.9950,71.7884 h 2.2670 M 265.9950,65.0414 h 2.2670 M 265.9950,51.5473 h 2.2670 M 265.9950,44.8003 h 2.2670 M 265.9950,38.0533 h 2.2670 "/></g><g stroke-width="0.4"><path d="M 265.9950,247.2112 h 3.7783 M 265.9950,220.2231 h 3.7783 M 265.9950,193.2350 h 3.7783 M 265.9950,166.2469 h 3.7783 M 265.9950,139.2587 h 3.7783 M 265.9950,112.2706 h 3.7783 M 265.9950,85.2825 h 3.7783 M 265.9950,58.2944 h 3.7783 "/></g><g stroke-width="0.4"><path d="M 37.0277,253.9583 h 2.2670 M 37.0277,240.4642 h 2.2670 M 37.0277,233.7172 h 2.2670 M 37.0277,226.9701 h 2.2670 M 37.0277,213.4761 h 2.2670 M 37.0277,206.7290 h 2.2670 M 37.0277,199.9820 h 2.2670 M 37.0277,186.4879 h 2.2670 M 37.0277,179.7409 h 2.2670 M 37.0277,172.9939 h 2.2670 M 37.0277,159.4998 h 2.2670 M 37.0277,152.7528 h 2.2670 M 37.0277,146.0058 h 2.2670 M 37.0277,132.5117 h 2.2670 M 37.0277,125.7647 h 2.2670 M 37.0277,119.0176 h 2.2670 M 37.0277,105.5236 h 2.2670 M 37.0277,98.7765 h 2.2670 M 37.0277,92.0295 h 2.2670 M 37.0277,78.5354 h 2.2670 M 37.0277,71.7884 h 2.2670 M 37.0277,65.0414 h 2.2670 M 37.0277,51.5473 h 2.2670 M 37.0277,44.8003 h 2.2670 M 37.0277,38.0533 h 2.2670 "/></g><g stroke-width="0.4"><path d="M 35.5164,247.2112 h 3.7783 M 35.5164,220.2231 h 3.7783 M 35.5164,193.2350 h 3.7783 M 35.5164,166.2469 h 3.7783 M 35.5164,139.2587 h 3.7783 M 35.5164,112.2706 h 3.7783 M 35.5164,85.2825 h 3.7783 M 35.5164,58.2944 h 3.7783 "/></g><g fill-opacity="1.0" font-size="11.0px" fill="rgb(0,0,0)"><text dominant-baseline="middle" transform="matrix(1.0000,0.0000,0.0000,1.0000,30.2267,58.2944)" stroke="none" text-anchor="end">6.0</text></g><g fill-opacity="1.0" font-size="11.0px" fill="rgb(0,0,0)"><text dominant-baseline="middle" transform="matrix(1.0000,0.0000,0.0000,1.0000,30.2267,85.2825)" stroke="none" text-anchor="end">5.5</text></g><g fill-opacity="1.0" font-size="11.0px" fill="rgb(0,0,0)"><text dominant-baseline="middle" transform="matrix(1.0000,0.0000,0.0000,1.0000,30.2267,112.2706)" stroke="none" text-anchor="end">5.0</text></g><g fill-opacity="1.0" font-size="11.0px" fill="rgb(0,0,0)"><text dominant-baseline="middle" transform="matrix(1.0000,0.0000,0.0000,1.0000,30.2267,139.2587)" stroke="none" text-anchor="end">4.5</text></g><g fill-opacity="1.0" font-size="11.0px" fill="rgb(0,0,0)"><text dominant-baseline="middle" transform="matrix(1.0000,0.0000,0.0000,1.0000,30.2267,166.2469)" stroke="none" text-anchor="end">4.0</text></g><g fill-opacity="1.0" font-size="11.0px" fill="rgb(0,0,0)"><text dominant-baseline="middle" transform="matrix(1.0000,0.0000,0.0000,1.0000,30.2267,193.2350)" stroke="none" text-anchor="end">3.5</text></g><g fill-opacity="1.0" font-size="11.0px" fill="rgb(0,0,0)"><text dominant-baseline="middle" transform="matrix(1.0000,0.0000,0.0000,1.0000,30.2267,220.2231)" stroke="none" text-anchor="end">3.0</text></g><g fill-opacity="1.0" font-size="11.0px" fill="rgb(0,0,0)"><text dominant-baseline="middle" transform="matrix(1.0000,0.0000,0.0000,1.0000,30.2267,247.2112)" stroke="none" text-anchor="end">2.5</text></g><g stroke-width="0.1"><path d="M 58.1864,260.7053 v -226.7003 M 89.6725,260.7053 v -226.7003 M 121.1587,260.7053 v -226.7003 M 152.6448,260.7053 v -226.7003 M 184.1310,260.7053 v -226.7003 M 215.6171,260.7053 v -226.7003 M 247.1033,260.7053 v -226.7003 "/></g><g stroke-linecap="square"><path d="M 39.2947,260.7053 h 226.7003 M 39.2947,34.0050 h 226.7003 "/></g><g stroke-width="0.4"><path d="M 42.4433,34.0050 v -2.2670 M 50.3149,34.0050 v -2.2670 M 66.0579,34.0050 v -2.2670 M 73.9295,34.0050 v -2.2670 M 81.8010,34.0050 v -2.2670 M 97.5441,34.0050 v -2.2670 M 105.4156,34.0050 v -2.2670 M 113.2872,34.0050 v -2.2670 M 129.0302,34.0050 v -2.2670 M 136.9018,34.0050 v -2.2670 M 144.7733,34.0050 v -2.2670 M 160.5164,34.0050 v -2.2670 M 168.3879,34.0050 v -2.2670 M 176.2594,34.0050 v -2.2670 M 192.0025,34.0050 v -2.2670 M 199.8741,34.0050 v -2.2670 M 207.7456,34.0050 v -2.2670 M 223.4887,34.0050 v -2.2670 M 231.3602,34.0050 v -2.2670 M 239.2317,34.0050 v -2.2670 M 254.9748,34.0050 v -2.2670 M 262.8463,34.0050 v -2.2670 "/></g><g stroke-width="0.4"><path d="M 58.1864,34.0050 v -3.7783 M 89.6725,34.0050 v -3.7783 M 121.1587,34.0050 v -3.7783 M 152.6448,34.0050 v -3.7783 M 184.1310,34.0050 v -3.7783 M 215.6171,34.0050 v -3.7783 M 247.1033,34.0050 v -3.7783 "/></g><g stroke-width="0.4"><path d="M 42.4433,262.9723 v -2.2670 M 50.3149,262.9723 v -2.2670 M 66.0579,262.9723 v -2.2670 M 73.9295,262.9723 v -2.2670 M 81.8010,262.9723 v -2.2670 M 97.5441,262.9723 v -2.2670 M 105.4156,262.9723 v -2.2670 M 113.2872,262.9723 v -2.2670 M 129.0302,262.9723 v -2.2670 M 136.9018,262.9723 v -2.2670 M 144.7733,262.9723 v -2.2670 M 160.5164,262.9723 v -2.2670 M 168.3879,262.9723 v -2.2670 M 176.2594,262.9723 v -2.2670 M 192.0025,262.9723 v -2.2670 M 199.8741,262.9723 v -2.2670 M 207.7456,262.9723 v -2.2670 M 223.4887,262.9723 v -2.2670 M 231.3602,262.9723 v -2.2670 M 239.2317,262.9723 v -2.2670 M 254.9748,262.9723 v -2.2670 M 262.8463,262.9723 v -2.2670 "/></g><g stroke-width="0.4"><path d="M 58.1864,264.4836 v -3.7783 M 89.6725,264.4836 v -3.7783 M 121.1587,264.4836 v -3.7783 M 152.6448,264.4836 v -3.7783 M 184.1310,264.4836 v -3.7783 M 215.6171,264.4836 v -3.7783 M 247.1033,264.4836 v -3.7783 "/></g><g fill-opacity="1.0" font-size="11.0px" fill="rgb(0,0,0)"><text dominant-baseline="text-before-edge" transform="matrix(1.0000,0.0000,0.0000,1.0000,247.1033,269.7733)" stroke="none" text-anchor="middle">3.5</text></g><g fill-opacity="1.0" font-size="11.0px" fill="rgb(0,0,0)"><text dominant-baseline="text-before-edge" transform="matrix(1.0000,0.0000,0.0000,1.0000,215.6171,269.7733)" stroke="none" text-anchor="middle">3.0</text></g><g fill-opacity="1.0" font-size="11.0px" fill="rgb(0,0,0)"><text dominant-baseline="text-before-edge" transform="matrix(1.0000,0.0000,0.0000,1.0000,184.1310,269.7733)" stroke="none" text-anchor="middle">2.5</text></g><g fill-opacity="1.0" font-size="11.0px" fill="rgb(0,0,0)"><text dominant-baseline="text-before-edge" transform="matrix(1.0000,0.0000,0.0000,1.0000,152.6448,269.7733)" stroke="none" text-anchor="middle">2.0</text></g><g fill-opacity="1.0" font-size="11.0px" fill="rgb(0,0,0)"><text dominant-baseline="text-before-edge" transform="matrix(1.0000,0.0000,0.0000,1.0000,121.1587,269.7733)" stroke="none" text-anchor="middle">1.5</text></g><g fill-opacity="1.0" font-size="11.0px" fill="rgb(0,0,0)"><text dominant-baseline="text-before-edge" transform="matrix(1.0000,0.0000,0.0000,1.0000,89.6725,269.7733)" stroke="none" text-anchor="middle">1.0</text></g><g fill-opacity="1.0" font-size="11.0px" fill="rgb(0,0,0)"><text dominant-baseline="text-before-edge" transform="matrix(1.0000,0.0000,0.0000,1.0000,58.1864,269.7733)" stroke="none" text-anchor="middle">0.5</text></g></svg>