<svg xmlns="http://www.w3.org/2000/svg" height="350.0000" stroke-opacity="1" viewBox="0 0 432 350" font-size="1" width="432.2347" xmlns:xlink="http://www.w3.org/1999/xlink" stroke="rgb(0,0,0)" version="1.1"><defs></defs><g stroke-opacity="1.0" fill-opacity="1.0" stroke="rgb(228,26,28)" stroke-width="1.0" fill="rgb(231,93,93)"><defs><clipPath id="myClip1"><path d="M 337.0621,322.9309 l -0.0000,-304.5524 h -304.5524 l -0.0000,304.5524 Z"/></clipPath></defs><g clip-path="url(#myClip1)"><path d="M 184.7859,170.6547 h 126.2016 c 0.0000,-28.1585 -9.4173,-55.5082 -26.7534 -77.6974Z"/></g></g><g fill-opacity="0.0" stroke-width="0.8" fill="rgb(0,0,0)"><path d="M 184.7859,170.6547 l 146.2111,42.5483 "/></g><g fill-opacity="0.0" stroke-width="0.8" fill="rgb(0,0,0)"><path d="M 184.7859,170.6547 l 43.1950,146.0214 "/></g><g fill-opacity="0.0" stroke-width="0.8" fill="rgb(0,0,0)"><path d="M 184.7859,170.6547 l -99.5344,115.2430 "/></g><g fill-opacity="0.0" stroke-width="0.8" fill="rgb(0,0,0)"><path d="M 184.7859,170.6547 l -150.7523,-21.4892 "/></g><g fill-opacity="0.0" stroke-width="0.8" fill="rgb(0,0,0)"><path d="M 184.7859,170.6547 l -63.3693,-138.4644 "/></g><g fill-opacity="0.0" stroke-width="0.8" fill="rgb(0,0,0)"><path d="M 184.7859,170.6547 l 82.2752,-128.1360 "/></g><g fill-opacity="0.0" stroke-width="0.8" fill="rgb(0,0,0)"><path d="M 184.7859,170.6547 h 152.2762 "/></g><g fill-opacity="0.0" font-size="11.0px" fill="rgb(0,0,0)"><text dominant-baseline="middle" transform="matrix(1.0000,0.0000,0.0000,1.0000,352.9286,219.5853)" stroke="none" text-anchor="middle">6.0</text></g><g fill-opacity="0.0" font-size="11.0px" fill="rgb(0,0,0)"><text dominant-baseline="middle" transform="matrix(1.0000,0.0000,0.0000,1.0000,234.4601,338.5793)" stroke="none" text-anchor="middle">5.0</text></g><g fill-opacity="0.0" font-size="11.0px" fill="rgb(0,0,0)"><text dominant-baseline="middle" transform="matrix(1.0000,0.0000,0.0000,1.0000,70.3213,303.1842)" stroke="none" text-anchor="middle">4.0</text></g><g fill-opacity="0.0" font-size="11.0px" fill="rgb(0,0,0)"><text dominant-baseline="middle" transform="matrix(1.0000,0.0000,0.0000,1.0000,11.4207,145.9421)" stroke="none" text-anchor="middle">3.0</text></g><g fill-opacity="0.0" font-size="11.0px" fill="rgb(0,0,0)"><text dominant-baseline="middle" transform="matrix(1.0000,0.0000,0.0000,1.0000,111.9112,11.4207)" stroke="none" text-anchor="middle">2.0</text></g><g fill-opacity="0.0" font-size="11.0px" fill="rgb(0,0,0)"><text dominant-baseline="middle" transform="matrix(1.0000,0.0000,0.0000,1.0000,279.4023,23.2983)" stroke="none" text-anchor="middle">1.0</text></g><g fill-opacity="0.0" font-size="11.0px" fill="rgb(0,0,0)"><text dominant-baseline="middle" transform="matrix(1.0000,0.0000,0.0000,1.0000,359.9035,170.6547)" stroke="none" text-anchor="middle">0.0</text></g><g fill-opacity="0.0" stroke-width="0.4" fill="rgb(0,0,0)"><path d="M 333.7609,188.0921 l 4.5373,0.5311 "/></g><g fill-opacity="0.0" stroke-width="0.4" fill="rgb(0,0,0)"><path d="M 319.8554,235.8761 l 4.1138,1.9864 "/></g><g fill-opacity="0.0" stroke-width="0.4" fill="rgb(0,0,0)"><path d="M 307.1638,257.3799 l 3.7272,2.6414 "/></g><g fill-opacity="0.0" stroke-width="0.4" fill="rgb(0,0,0)"><path d="M 291.0807,276.4802 l 3.2374,3.2231 "/></g><g fill-opacity="0.0" stroke-width="0.4" fill="rgb(0,0,0)"><path d="M 272.0518,292.6477 l 2.6578,3.7155 "/></g><g fill-opacity="0.0" stroke-width="0.4" fill="rgb(0,0,0)"><path d="M 250.6044,305.4343 l 2.0046,4.1050 "/></g><g fill-opacity="0.0" stroke-width="0.4" fill="rgb(0,0,0)"><path d="M 202.8824,319.5511 l 0.5512,4.5349 "/></g><g fill-opacity="0.0" stroke-width="0.4" fill="rgb(0,0,0)"><path d="M 177.9303,320.4900 l -0.2088,4.5635 "/></g><g fill-opacity="0.0" stroke-width="0.4" fill="rgb(0,0,0)"><path d="M 153.1682,317.2765 l -0.9630,4.4656 "/></g><g fill-opacity="0.0" stroke-width="0.4" fill="rgb(0,0,0)"><path d="M 129.2823,309.9995 l -1.6905,4.2440 "/></g><g fill-opacity="0.0" stroke-width="0.4" fill="rgb(0,0,0)"><path d="M 106.9346,298.8608 l -2.3711,3.9048 "/></g><g fill-opacity="0.0" stroke-width="0.4" fill="rgb(0,0,0)"><path d="M 69.2714,266.3315 l -3.5182,2.9140 "/></g><g fill-opacity="0.0" stroke-width="0.4" fill="rgb(0,0,0)"><path d="M 54.9997,245.8423 l -3.9529,2.2900 "/></g><g fill-opacity="0.0" stroke-width="0.4" fill="rgb(0,0,0)"><path d="M 44.3248,223.2694 l -4.2780,1.6025 "/></g><g fill-opacity="0.0" stroke-width="0.4" fill="rgb(0,0,0)"><path d="M 37.5426,199.2384 l -4.4846,0.8706 "/></g><g fill-opacity="0.0" stroke-width="0.4" fill="rgb(0,0,0)"><path d="M 34.8409,174.4152 l -4.5669,0.1145 "/></g><g fill-opacity="0.0" stroke-width="0.4" fill="rgb(0,0,0)"><path d="M 41.8640,125.1471 l -4.3530,-1.3860 "/></g><g fill-opacity="0.0" stroke-width="0.4" fill="rgb(0,0,0)"><path d="M 51.3939,102.0675 l -4.0627,-2.0890 "/></g><g fill-opacity="0.0" stroke-width="0.4" fill="rgb(0,0,0)"><path d="M 64.6207,80.8887 l -3.6599,-2.7340 "/></g><g fill-opacity="0.0" stroke-width="0.4" fill="rgb(0,0,0)"><path d="M 81.1776,62.1976 l -3.1556,-3.3033 "/></g><g fill-opacity="0.0" stroke-width="0.4" fill="rgb(0,0,0)"><path d="M 100.6059,46.5122 l -2.5639,-3.7810 "/></g><g fill-opacity="0.0" stroke-width="0.4" fill="rgb(0,0,0)"><path d="M 145.8582,25.8022 l -1.1856,-4.4118 "/></g><g fill-opacity="0.0" stroke-width="0.4" fill="rgb(0,0,0)"><path d="M 170.4281,21.3514 l -0.4373,-4.5473 "/></g><g fill-opacity="0.0" stroke-width="0.4" fill="rgb(0,0,0)"><path d="M 195.3959,21.0384 l 0.3231,-4.5568 "/></g><g fill-opacity="0.0" stroke-width="0.4" fill="rgb(0,0,0)"><path d="M 220.0696,24.8718 l 1.0746,-4.4401 "/></g><g fill-opacity="0.0" stroke-width="0.4" fill="rgb(0,0,0)"><path d="M 243.7655,32.7453 l 1.7963,-4.2003 "/></g><g fill-opacity="0.0" stroke-width="0.4" fill="rgb(0,0,0)"><path d="M 285.6424,59.6341 l 3.0718,-3.3813 "/></g><g fill-opacity="0.0" stroke-width="0.4" fill="rgb(0,0,0)"><path d="M 302.6627,77.9042 l 3.5902,-2.8249 "/></g><g fill-opacity="0.0" stroke-width="0.4" fill="rgb(0,0,0)"><path d="M 316.4163,98.7447 l 4.0090,-2.1902 "/></g><g fill-opacity="0.0" stroke-width="0.4" fill="rgb(0,0,0)"><path d="M 326.5219,121.5781 l 4.3168,-1.4947 "/></g><g fill-opacity="0.0" stroke-width="0.4" fill="rgb(0,0,0)"><path d="M 332.6995,145.7716 l 4.5050,-0.7579 "/></g><g fill-opacity="0.0" stroke-width="0.4" fill="rgb(0,0,0)"><path d="M 327.3417,212.1394 l 7.3106,2.1274 "/></g><g fill-opacity="0.0" stroke-width="0.4" fill="rgb(0,0,0)"><path d="M 226.9010,313.0255 l 2.1598,7.3011 "/></g><g fill-opacity="0.0" stroke-width="0.4" fill="rgb(0,0,0)"><path d="M 87.7399,283.0167 l -4.9767,5.7622 "/></g><g fill-opacity="0.0" stroke-width="0.4" fill="rgb(0,0,0)"><path d="M 37.8024,149.7027 l -7.5376,-1.0745 "/></g><g fill-opacity="0.0" stroke-width="0.4" fill="rgb(0,0,0)"><path d="M 123.0008,35.6520 l -3.1685,-6.9232 "/></g><g fill-opacity="0.0" stroke-width="0.4" fill="rgb(0,0,0)"><path d="M 265.0042,45.7221 l 4.1138,-6.4068 "/></g><g fill-opacity="0.0" stroke-width="0.4" fill="rgb(0,0,0)"><path d="M 333.2552,170.6547 h 7.6138 "/></g><g fill-opacity="0.0" fill="rgb(0,0,0)"><path d="M 337.0621,170.6547 c 0.0000,-84.0998 -68.1764,-152.2762 -152.2762 -152.2762c -84.0998,-0.0000 -152.2762,68.1764 -152.2762 152.2762c -0.0000,84.0998 68.1764,152.2762 152.2762 152.2762c 84.0998,0.0000 152.2762,-68.1764 152.2762 -152.2762Z"/></g><g fill-opacity="0.0" stroke-width="0.8" fill="rgb(0,0,0)"><path d="M 310.9874,170.6547 c 0.0000,-69.6992 -56.5024,-126.2016 -126.2016 -126.2016c -69.6992,-0.0000 -126.2016,56.5024 -126.2016 126.2016c -0.0000,69.6992 56.5024,126.2016 126.2016 126.2016c 69.6992,0.0000 126.2016,-56.5024 126.2016 -126.2016Z"/></g><g fill-opacity="0.0" stroke-width="0.8" fill="rgb(0,0,0)"><path d="M 279.4370,170.6547 c 0.0000,-52.2744 -42.3768,-94.6512 -94.6512 -94.6512c -52.2744,-0.0000 -94.6512,42.3768 -94.6512 94.6512c -0.0000,52.2744 42.3768,94.6512 94.6512 94.6512c 52.2744,0.0000 94.6512,-42.3768 94.6512 -94.6512Z"/></g><g fill-opacity="0.0" stroke-width="0.8" fill="rgb(0,0,0)"><path d="M 247.8866,170.6547 c 0.0000,-34.8496 -28.2512,-63.1008 -63.1008 -63.1008c -34.8496,-0.0000 -63.1008,28.2512 -63.1008 63.1008c -0.0000,34.8496 28.2512,63.1008 63.1008 63.1008c 34.8496,0.0000 63.1008,-28.2512 63.1008 -63.1008Z"/></g><g fill-opacity="0.0" stroke-width="0.8" fill="rgb(0,0,0)"><path d="M 216.3362,170.6547 c 0.0000,-17.4248 -14.1256,-31.5504 -31.5504 -31.5504c -17.4248,-0.0000 -31.5504,14.1256 -31.5504 31.5504c -0.0000,17.4248 14.1256,31.5504 31.5504 31.5504c 17.4248,0.0000 31.5504,-14.1256 31.5504 -31.5504Z"/></g><g fill-opacity="0.0" font-size="11.0px" fill="rgb(0,0,0)"><text dominant-baseline="text-before-edge" transform="matrix(1.0000,0.0000,0.0000,1.0000,310.9874,193.4962)" stroke="none" text-anchor="middle">1.0</text></g><g fill-opacity="0.0" font-size="11.0px" fill="rgb(0,0,0)"><text dominant-baseline="text-before-edge" transform="matrix(1.0000,0.0000,0.0000,1.0000,279.4370,193.4962)" stroke="none" text-anchor="middle">0.75</text></g><g fill-opacity="0.0" font-size="11.0px" fill="rgb(0,0,0)"><text dominant-baseline="text-before-edge" transform="matrix(1.0000,0.0000,0.0000,1.0000,247.8866,193.4962)" stroke="none" text-anchor="middle">0.5</text></g><g fill-opacity="0.0" font-size="11.0px" fill="rgb(0,0,0)"><text dominant-baseline="text-before-edge" transform="matrix(1.0000,0.0000,0.0000,1.0000,216.3362,193.4962)" stroke="none" text-anchor="middle">0.25</text></g><g fill-opacity="0.0" font-size="11.0px" fill="rgb(0,0,0)"><text dominant-baseline="text-before-edge" transform="matrix(1.0000,0.0000,0.0000,1.0000,184.7859,193.4962)" stroke="none" text-anchor="middle">0.0</text></g><g fill-opacity="0.0" stroke-width="0.4" fill="rgb(0,0,0)"><path d="M 332.0210,172.9389 v -4.5683 "/></g><g fill-opacity="0.0" stroke-width="0.4" fill="rgb(0,0,0)"><path d="M 326.7626,172.9389 v -4.5683 "/></g><g fill-opacity="0.0" stroke-width="0.4" fill="rgb(0,0,0)"><path d="M 321.5042,172.9389 v -4.5683 "/></g><g fill-opacity="0.0" stroke-width="0.4" fill="rgb(0,0,0)"><path d="M 316.2458,172.9389 v -4.5683 "/></g><g fill-opacity="0.0" stroke-width="0.4" fill="rgb(0,0,0)"><path d="M 305.7290,172.9389 v -4.5683 "/></g><g fill-opacity="0.0" stroke-width="0.4" fill="rgb(0,0,0)"><path d="M 300.4706,172.9389 v -4.5683 "/></g><g fill-opacity="0.0" stroke-width="0.4" fill="rgb(0,0,0)"><path d="M 295.2122,172.9389 v -4.5683 "/></g><g fill-opacity="0.0" stroke-width="0.4" fill="rgb(0,0,0)"><path d="M 289.9538,172.9389 v -4.5683 "/></g><g fill-opacity="0.0" stroke-width="0.4" fill="rgb(0,0,0)"><path d="M 284.6954,172.9389 v -4.5683 "/></g><g fill-opacity="0.0" stroke-width="0.4" fill="rgb(0,0,0)"><path d="M 274.1786,172.9389 v -4.5683 "/></g><g fill-opacity="0.0" stroke-width="0.4" fill="rgb(0,0,0)"><path d="M 268.9202,172.9389 v -4.5683 "/></g><g fill-opacity="0.0" stroke-width="0.4" fill="rgb(0,0,0)"><path d="M 263.6618,172.9389 v -4.5683 "/></g><g fill-opacity="0.0" stroke-width="0.4" fill="rgb(0,0,0)"><path d="M 258.4034,172.9389 v -4.5683 "/></g><g fill-opacity="0.0" stroke-width="0.4" fill="rgb(0,0,0)"><path d="M 253.1450,172.9389 v -4.5683 "/></g><g fill-opacity="0.0" stroke-width="0.4" fill="rgb(0,0,0)"><path d="M 242.6282,172.9389 v -4.5683 "/></g><g fill-opacity="0.0" stroke-width="0.4" fill="rgb(0,0,0)"><path d="M 237.3698,172.9389 v -4.5683 "/></g><g fill-opacity="0.0" stroke-width="0.4" fill="rgb(0,0,0)"><path d="M 232.1114,172.9389 v -4.5683 "/></g><g fill-opacity="0.0" stroke-width="0.4" fill="rgb(0,0,0)"><path d="M 226.8530,172.9389 v -4.5683 "/></g><g fill-opacity="0.0" stroke-width="0.4" fill="rgb(0,0,0)"><path d="M 221.5946,172.9389 v -4.5683 "/></g><g fill-opacity="0.0" stroke-width="0.4" fill="rgb(0,0,0)"><path d="M 211.0779,172.9389 v -4.5683 "/></g><g fill-opacity="0.0" stroke-width="0.4" fill="rgb(0,0,0)"><path d="M 205.8195,172.9389 v -4.5683 "/></g><g fill-opacity="0.0" stroke-width="0.4" fill="rgb(0,0,0)"><path d="M 200.5611,172.9389 v -4.5683 "/></g><g fill-opacity="0.0" stroke-width="0.4" fill="rgb(0,0,0)"><path d="M 195.3027,172.9389 v -4.5683 "/></g><g fill-opacity="0.0" stroke-width="0.4" fill="rgb(0,0,0)"><path d="M 190.0443,172.9389 v -4.5683 "/></g><g fill-opacity="0.0" stroke-width="0.4" fill="rgb(0,0,0)"><path d="M 310.9874,174.4616 v -7.6138 "/></g><g fill-opacity="0.0" stroke-width="0.4" fill="rgb(0,0,0)"><path d="M 279.4370,174.4616 v -7.6138 "/></g><g fill-opacity="0.0" stroke-width="0.4" fill="rgb(0,0,0)"><path d="M 247.8866,174.4616 v -7.6138 "/></g><g fill-opacity="0.0" stroke-width="0.4" fill="rgb(0,0,0)"><path d="M 216.3362,174.4616 v -7.6138 "/></g><g fill-opacity="0.0" stroke-width="0.4" fill="rgb(0,0,0)"><path d="M 184.7859,174.4616 v -7.6138 "/></g><g fill-opacity="0.0" fill="rgb(0,0,0)"><path d="M 184.7859,170.6547 h 152.2762 "/></g><g fill-opacity="0.0" fill="rgb(0,0,0)"><path d="M 417.0071,33.6061 l -0.0000,-15.2276 h -64.7174 l -0.0000,15.2276 Z"/></g><g fill-opacity="1.0" font-size="11.0px" fill="rgb(0,0,0)"><text dominant-baseline="middle" transform="matrix(1.0000,0.0000,0.0000,1.0000,375.1311,25.9923)" stroke="none" text-anchor="start">wedge</text></g><g stroke-opacity="1.0" fill-opacity="1.0" stroke="rgb(228,26,28)" stroke-width="1.0" fill="rgb(231,93,93)"><path d="M 365.6139,27.8958 l -0.0000,-3.8069 h -3.8069 l -0.0000,3.8069 Z"/></g></svg>