<svg xmlns="http://www.w3.org/2000/svg" height="249.6970" stroke-opacity="1" viewBox="0 0 300 250" font-size="1" width="300.0000" xmlns:xlink="http://www.w3.org/1999/xlink" stroke="rgb(0,0,0)" version="1.1"><defs></defs><g stroke-opacity="1.0" fill-opacity="1.0" stroke="rgb(77,175,74)" stroke-width="0.0" fill="rgb(114,185,112)"><path d="M 192.8662,132.6840 h 25.8838 v 32.4675 h -25.8838 Z"/></g><g><path d="M 205.8081,132.6840 v -27.0563 "/></g><g><path d="M 205.8081,165.1515 v 27.0563 "/></g><g><path d="M 192.8662,148.9177 h 25.8838 "/></g><g><path d="M 192.8662,132.6840 v 32.4675 "/></g><g><path d="M 192.8662,132.6840 h 25.8838 v 32.4675 h -25.8838 "/></g><g stroke-opacity="1.0" fill-opacity="1.0" stroke="rgb(55,126,184)" stroke-width="0.0" fill="rgb(103,146,193)"><path d="M 135.2588,80.3030 h 13.5732 v 24.6753 h -13.5732 Z"/></g><g><path d="M 142.0455,80.3030 v -20.5628 "/></g><g><path d="M 142.0455,104.9784 v 20.5628 "/></g><g><path d="M 135.2588,92.6407 h 13.5732 "/></g><g><path d="M 135.2588,80.3030 v 24.6753 "/></g><g><path d="M 135.2588,80.3030 h 13.5732 v 24.6753 h -13.5732 "/></g><g stroke-opacity="1.0" fill-opacity="1.0" stroke="rgb(228,26,28)" stroke-width="0.0" fill="rgb(231,93,93)"><path d="M 189.7096,80.3030 h 27.1465 v 24.6753 h -27.1465 Z"/></g><g><path d="M 203.2828,80.3030 v -20.5628 "/></g><g><path d="M 203.2828,104.9784 v 20.5628 "/></g><g><path d="M 189.7096,92.6407 h 27.1465 "/></g><g><path d="M 189.7096,80.3030 v 24.6753 "/></g><g><path d="M 189.7096,80.3030 h 27.1465 v 24.6753 h -27.1465 "/></g><g stroke-width="0.1"><path d="M 90.9091,207.3593 h 181.8182 M 90.9091,185.7143 h 181.8182 M 90.9091,164.0693 h 181.8182 M 90.9091,142.4242 h 181.8182 M 90.9091,120.7792 h 181.8182 M 90.9091,99.1342 h 181.8182 M 90.9091,77.4892 h 181.8182 M 90.9091,55.8442 h 181.8182 "/></g><g stroke-linecap="square"><path d="M 90.9091,218.1818 v -181.8182 M 272.7273,218.1818 v -181.8182 "/></g><g stroke-width="0.4"><path d="M 272.7273,212.7706 h 1.8182 M 272.7273,201.9481 h 1.8182 M 272.7273,196.5368 h 1.8182 M 272.7273,191.1255 h 1.8182 M 272.7273,180.3030 h 1.8182 M 272.7273,174.8918 h 1.8182 M 272.7273,169.4805 h 1.8182 M 272.7273,158.6580 h 1.8182 M 272.7273,153.2468 h 1.8182 M 272.7273,147.8355 h 1.8182 M 272.7273,137.0130 h 1.8182 M 272.7273,131.6017 h 1.8182 M 272.7273,126.1905 h 1.8182 M 272.7273,115.3680 h 1.8182 M 272.7273,109.9567 h 1.8182 M 272.7273,104.5455 h 1.8182 M 272.7273,93.7229 h 1.8182 M 272.7273,88.3117 h 1.8182 M 272.7273,82.9004 h 1.8182 M 272.7273,72.0779 h 1.8182 M 272.7273,66.6667 h 1.8182 M 272.7273,61.2554 h 1.8182 M 272.7273,50.4329 h 1.8182 M 272.7273,45.0216 h 1.8182 M 272.7273,39.6104 h 1.8182 "/></g><g stroke-width="0.4"><path d="M 272.7273,207.3593 h 3.0303 M 272.7273,185.7143 h 3.0303 M 272.7273,164.0693 h 3.0303 M 272.7273,142.4242 h 3.0303 M 272.7273,120.7792 h 3.0303 M 272.7273,99.1342 h 3.0303 M 272.7273,77.4892 h 3.0303 M 272.7273,55.8442 h 3.0303 "/></g><g stroke-width="0.4"><path d="M 89.0909,212.7706 h 1.8182 M 89.0909,201.9481 h 1.8182 M 89.0909,196.5368 h 1.8182 M 89.0909,191.1255 h 1.8182 M 89.0909,180.3030 h 1.8182 M 89.0909,174.8918 h 1.8182 M 89.0909,169.4805 h 1.8182 M 89.0909,158.6580 h 1.8182 M 89.0909,153.2468 h 1.8182 M 89.0909,147.8355 h 1.8182 M 89.0909,137.0130 h 1.8182 M 89.0909,131.6017 h 1.8182 M 89.0909,126.1905 h 1.8182 M 89.0909,115.3680 h 1.8182 M 89.0909,109.9567 h 1.8182 M 89.0909,104.5455 h 1.8182 M 89.0909,93.7229 h 1.8182 M 89.0909,88.3117 h 1.8182 M 89.0909,82.9004 h 1.8182 M 89.0909,72.0779 h 1.8182 M 89.0909,66.6667 h 1.8182 M 89.0909,61.2554 h 1.8182 M 89.0909,50.4329 h 1.8182 M 89.0909,45.0216 h 1.8182 M 89.0909,39.6104 h 1.8182 "/></g><g stroke-width="0.4"><path d="M 87.8788,207.3593 h 3.0303 M 87.8788,185.7143 h 3.0303 M 87.8788,164.0693 h 3.0303 M 87.8788,142.4242 h 3.0303 M 87.8788,120.7792 h 3.0303 M 87.8788,99.1342 h 3.0303 M 87.8788,77.4892 h 3.0303 M 87.8788,55.8442 h 3.0303 "/></g><g fill-opacity="1.0" font-size="11.0px" fill="rgb(0,0,0)"><text dominant-baseline="middle" transform="matrix(1.0000,0.0000,0.0000,1.0000,83.6364,55.8442)" stroke="none" text-anchor="end">6.0</text></g><g fill-opacity="1.0" font-size="11.0px" fill="rgb(0,0,0)"><text dominant-baseline="middle" transform="matrix(1.0000,0.0000,0.0000,1.0000,83.6364,77.4892)" stroke="none" text-anchor="end">5.5</text></g><g fill-opacity="1.0" font-size="11.0px" fill="rgb(0,0,0)"><text dominant-baseline="middle" transform="matrix(1.0000,0.0000,0.0000,1.0000,83.6364,99.1342)" stroke="none" text-anchor="end">5.0</text></g><g fill-opacity="1.0" font-size="11.0px" fill="rgb(0,0,0)"><text dominant-baseline="middle" transform="matrix(1.0000,0.0000,0.0000,1.0000,83.6364,120.7792)" stroke="none" text-anchor="end">4.5</text></g><g fill-opacity="1.0" font-size="11.0px" fill="rgb(0,0,0)"><text dominant-baseline="middle" transform="matrix(1.0000,0.0000,0.0000,1.0000,83.6364,142.4242)" stroke="none" text-anchor="end">4.0</text></g><g fill-opacity="1.0" font-size="11.0px" fill="rgb(0,0,0)"><text dominant-baseline="middle" transform="matrix(1.0000,0.0000,0.0000,1.0000,83.6364,164.0693)" stroke="none" text-anchor="end">3.5</text></g><g fill-opacity="1.0" font-size="11.0px" fill="rgb(0,0,0)"><text dominant-baseline="middle" transform="matrix(1.0000,0.0000,0.0000,1.0000,83.6364,185.7143)" stroke="none" text-anchor="end">3.0</text></g><g fill-opacity="1.0" font-size="11.0px" fill="rgb(0,0,0)"><text dominant-baseline="middle" transform="matrix(1.0000,0.0000,0.0000,1.0000,83.6364,207.3593)" stroke="none" text-anchor="end">2.5</text></g><g stroke-width="0.1"><path d="M 106.0606,218.1818 v -181.8182 M 131.3131,218.1818 v -181.8182 M 156.5657,218.1818 v -181.8182 M 181.8182,218.1818 v -181.8182 M 207.0707,218.1818 v -181.8182 M 232.3232,218.1818 v -181.8182 M 257.5758,218.1818 v -181.8182 "/></g><g stroke-linecap="square"><path d="M 90.9091,218.1818 h 181.8182 M 90.9091,36.3636 h 181.8182 "/></g><g stroke-width="0.4"><path d="M 93.4343,36.3636 v -1.8182 M 99.7475,36.3636 v -1.8182 M 112.3737,36.3636 v -1.8182 M 118.6869,36.3636 v -1.8182 M 125.0000,36.3636 v -1.8182 M 137.6263,36.3636 v -1.8182 M 143.9394,36.3636 v -1.8182 M 150.2525,36.3636 v -1.8182 M 162.8788,36.3636 v -1.8182 M 169.1919,36.3636 v -1.8182 M 175.5051,36.3636 v -1.8182 M 188.1313,36.3636 v -1.8182 M 194.4444,36.3636 v -1.8182 M 200.7576,36.3636 v -1.8182 M 213.3838,36.3636 v -1.8182 M 219.6970,36.3636 v -1.8182 M 226.0101,36.3636 v -1.8182 M 238.6364,36.3636 v -1.8182 M 244.9495,36.3636 v -1.8182 M 251.2626,36.3636 v -1.8182 M 263.8889,36.3636 v -1.8182 M 270.2020,36.3636 v -1.8182 "/></g><g stroke-width="0.4"><path d="M 106.0606,36.3636 v -3.0303 M 131.3131,36.3636 v -3.0303 M 156.5657,36.3636 v -3.0303 M 181.8182,36.3636 v -3.0303 M 207.0707,36.3636 v -3.0303 M 232.3232,36.3636 v -3.0303 M 257.5758,36.3636 v -3.0303 "/></g><g stroke-width="0.4"><path d="M 93.4343,220.0000 v -1.8182 M 99.7475,220.0000 v -1.8182 M 112.3737,220.0000 v -1.8182 M 118.6869,220.0000 v -1.8182 M 125.0000,220.0000 v -1.8182 M 137.6263,220.0000 v -1.8182 M 143.9394,220.0000 v -1.8182 M 150.2525,220.0000 v -1.8182 M 162.8788,220.0000 v -1.8182 M 169.1919,220.0000 v -1.8182 M 175.5051,220.0000 v -1.8182 M 188.1313,220.0000 v -1.8182 M 194.4444,220.0000 v -1.8182 M 200.7576,220.0000 v -1.8182 M 213.3838,220.0000 v -1.8182 M 219.6970,220.0000 v -1.8182 M 226.0101,220.0000 v -1.8182 M 238.6364,220.0000 v -1.8182 M 244.9495,220.0000 v -1.8182 M 251.2626,220.0000 v -1.8182 M 263.8889,220.0000 v -1.8182 M 270.2020,220.0000 v -1.8182 "/></g><g stroke-width="0.4"><path d="M 106.0606,221.2121 v -3.0303 M 131.3131,221.2121 v -3.0303 M 156.5657,221.2121 v -3.0303 M 181.8182,221.2121 v -3.0303 M 207.0707,221.2121 v -3.0303 M 232.3232,221.2121 v -3.0303 M 257.5758,221.2121 v -3.0303 "/></g><g fill-opacity="1.0" font-size="11.0px" fill="rgb(0,0,0)"><text dominant-baseline="text-before-edge" transform="matrix(1.0000,0.0000,0.0000,1.0000,257.5758,225.4545)" stroke="none" text-anchor="middle">3.5</text></g><g fill-opacity="1.0" font-size="11.0px" fill="rgb(0,0,0)"><text dominant-baseline="text-before-edge" transform="matrix(1.0000,0.0000,0.0000,1.0000,232.3232,225.4545)" stroke="none" text-anchor="middle">3.0</text></g><g fill-opacity="1.0" font-size="11.0px" fill="rgb(0,0,0)"><text dominant-baseline="text-before-edge" transform="matrix(1.0000,0.0000,0.0000,1.0000,207.0707,225.4545)" stroke="none" text-anchor="middle">2.5</text></g><g fill-opacity="1.0" font-size="11.0px" fill="rgb(0,0,0)"><text dominant-baseline="text-before-edge" transform="matrix(1.0000,0.0000,0.0000,1.0000,181.8182,225.4545)" stroke="none" text-anchor="middle">2.0</text></g><g fill-opacity="1.0" font-size="11.0px" fill="rgb(0,0,0)"><text dominant-baseline="text-before-edge" transform="matrix(1.0000,0.0000,0.0000,1.0000,156.5657,225.4545)" stroke="none" text-anchor="middle">1.5</text></g><g fill-opacity="1.0" font-size="11.0px" fill="rgb(0,0,0)"><text dominant-baseline="text-before-edge" transform="matrix(1.0000,0.0000,0.0000,1.0000,131.3131,225.4545)" stroke="none" text-anchor="middle">1.0</text></g><g fill-opacity="1.0" font-size="11.0px" fill="rgb(0,0,0)"><text dominant-baseline="text-before-edge" transform="matrix(1.0000,0.0000,0.0000,1.0000,106.0606,225.4545)" stroke="none" text-anchor="middle">0.5</text></g><g fill-opacity="1.0" font-size="16.0px" fill="rgb(0,0,0)"><text dominant-baseline="text-after-edge" transform="matrix(1.0000,0.0000,0.0000,1.0000,181.8182,24.2424)" stroke="none" text-anchor="middle"></text></g><g><path d="M 75.7576,72.7273 l -0.0000,-36.3636 h -51.5152 l -0.0000,36.3636 Z"/></g><g fill-opacity="1.0" font-size="8.0px" fill="rgb(0,0,0)"><text dominant-baseline="middle" transform="matrix(1.0000,0.0000,0.0000,1.0000,42.4242,66.6667)" stroke="none" text-anchor="start">data 3</text></g><g stroke-opacity="1.0" fill-opacity="1.0" stroke="rgb(77,175,74)" stroke-width="1.0" fill="rgb(114,185,112)"><path d="M 34.8485,68.1818 l -0.0000,-3.0303 h -3.0303 l -0.0000,3.0303 Z"/></g><g fill-opacity="1.0" font-size="8.0px" fill="rgb(0,0,0)"><text dominant-baseline="middle" transform="matrix(1.0000,0.0000,0.0000,1.0000,42.4242,54.5455)" stroke="none" text-anchor="start">data 2</text></g><g stroke-opacity="1.0" fill-opacity="1.0" stroke="rgb(55,126,184)" stroke-width="1.0" fill="rgb(103,146,193)"><path d="M 34.8485,56.0606 l -0.0000,-3.0303 h -3.0303 l -0.0000,3.0303 Z"/></g><g fill-opacity="1.0" font-size="8.0px" fill="rgb(0,0,0)"><text dominant-baseline="middle" transform="matrix(1.0000,0.0000,0.0000,1.0000,42.4242,42.4242)" stroke="none" text-anchor="start">data 1</text></g><g stroke-opacity="1.0" fill-opacity="1.0" stroke="rgb(228,26,28)" stroke-width="1.0" fill="rgb(231,93,93)"><path d="M 34.8485,43.9394 l -0.0000,-3.0303 h -3.0303 l -0.0000,3.0303 Z"/></g></svg>