<svg xmlns="http://www.w3.org/2000/svg" height="600.0000" stroke-opacity="1" viewBox="0 0 600 600" font-size="1" width="600.0000" xmlns:xlink="http://www.w3.org/1999/xlink" stroke="rgb(0,0,0)" version="1.1"><defs></defs><g stroke-opacity="1.0" fill-opacity="1.0" stroke="rgb(228,26,28)" stroke-width="1.0" fill="rgb(231,93,93)"><path d="M 456.4232,521.4106 h 37.7834 v -68.6970 h -37.7834 Z"/></g><g stroke-opacity="1.0" fill-opacity="1.0" stroke="rgb(228,26,28)" stroke-width="1.0" fill="rgb(231,93,93)"><path d="M 418.6398,521.4106 h 37.7834 v -27.4788 h -37.7834 Z"/></g><g stroke-opacity="1.0" fill-opacity="1.0" stroke="rgb(228,26,28)" stroke-width="1.0" fill="rgb(231,93,93)"><path d="M 380.8564,521.4106 h 37.7834 v -137.3941 h -37.7834 Z"/></g><g stroke-opacity="1.0" fill-opacity="1.0" stroke="rgb(228,26,28)" stroke-width="1.0" fill="rgb(231,93,93)"><path d="M 343.0730,521.4106 h 37.7834 v -247.3094 h -37.7834 Z"/></g><g stroke-opacity="1.0" fill-opacity="1.0" stroke="rgb(228,26,28)" stroke-width="1.0" fill="rgb(231,93,93)"><path d="M 305.2897,521.4106 h 37.7834 v -274.7882 h -37.7834 Z"/></g><g stroke-opacity="1.0" fill-opacity="1.0" stroke="rgb(228,26,28)" stroke-width="1.0" fill="rgb(231,93,93)"><path d="M 267.5063,521.4106 h 37.7834 v -412.1823 h -37.7834 Z"/></g><g stroke-opacity="1.0" fill-opacity="1.0" stroke="rgb(228,26,28)" stroke-width="1.0" fill="rgb(231,93,93)"><path d="M 229.7229,521.4106 h 37.7834 v -274.7882 h -37.7834 Z"/></g><g stroke-opacity="1.0" fill-opacity="1.0" stroke="rgb(228,26,28)" stroke-width="1.0" fill="rgb(231,93,93)"><path d="M 191.9395,521.4106 h 37.7834 v -398.4429 h -37.7834 Z"/></g><g stroke-opacity="1.0" fill-opacity="1.0" stroke="rgb(228,26,28)" stroke-width="1.0" fill="rgb(231,93,93)"><path d="M 154.1562,521.4106 h 37.7834 v -164.8729 h -37.7834 Z"/></g><g stroke-opacity="1.0" fill-opacity="1.0" stroke="rgb(228,26,28)" stroke-width="1.0" fill="rgb(231,93,93)"><path d="M 116.3728,521.4106 h 37.7834 v -54.9576 h -37.7834 Z"/></g><g stroke-width="0.1"><path d="M 78.5894,521.4106 h 453.4005 M 78.5894,469.8878 h 453.4005 M 78.5894,418.3650 h 453.4005 M 78.5894,366.8422 h 453.4005 M 78.5894,315.3194 h 453.4005 M 78.5894,263.7967 h 453.4005 M 78.5894,212.2739 h 453.4005 M 78.5894,160.7511 h 453.4005 M 78.5894,109.2283 h 453.4005 "/></g><g stroke-linecap="square"><path d="M 78.5894,521.4106 v -453.4005 M 531.9899,521.4106 v -453.4005 "/></g><g stroke-width="0.4"><path d="M 531.9899,508.5299 h 4.5340 M 531.9899,495.6492 h 4.5340 M 531.9899,482.7685 h 4.5340 M 531.9899,469.8878 h 4.5340 M 531.9899,457.0071 h 4.5340 M 531.9899,444.1264 h 4.5340 M 531.9899,431.2457 h 4.5340 M 531.9899,418.3650 h 4.5340 M 531.9899,405.4843 h 4.5340 M 531.9899,392.6036 h 4.5340 M 531.9899,379.7229 h 4.5340 M 531.9899,366.8422 h 4.5340 M 531.9899,353.9615 h 4.5340 M 531.9899,341.0808 h 4.5340 M 531.9899,328.2001 h 4.5340 M 531.9899,315.3194 h 4.5340 M 531.9899,302.4387 h 4.5340 M 531.9899,289.5580 h 4.5340 M 531.9899,276.6774 h 4.5340 M 531.9899,263.7967 h 4.5340 M 531.9899,250.9160 h 4.5340 M 531.9899,238.0353 h 4.5340 M 531.9899,225.1546 h 4.5340 M 531.9899,212.2739 h 4.5340 M 531.9899,199.3932 h 4.5340 M 531.9899,186.5125 h 4.5340 M 531.9899,173.6318 h 4.5340 M 531.9899,160.7511 h 4.5340 M 531.9899,147.8704 h 4.5340 M 531.9899,134.9897 h 4.5340 M 531.9899,122.1090 h 4.5340 M 531.9899,109.2283 h 4.5340 M 531.9899,96.3476 h 4.5340 M 531.9899,83.4669 h 4.5340 M 531.9899,70.5862 h 4.5340 "/></g><g stroke-width="0.4"><path d="M 531.9899,521.4106 h 7.5567 M 531.9899,469.8878 h 7.5567 M 531.9899,418.3650 h 7.5567 M 531.9899,366.8422 h 7.5567 M 531.9899,315.3194 h 7.5567 M 531.9899,263.7967 h 7.5567 M 531.9899,212.2739 h 7.5567 M 531.9899,160.7511 h 7.5567 M 531.9899,109.2283 h 7.5567 "/></g><g stroke-width="0.4"><path d="M 74.0554,508.5299 h 4.5340 M 74.0554,495.6492 h 4.5340 M 74.0554,482.7685 h 4.5340 M 74.0554,469.8878 h 4.5340 M 74.0554,457.0071 h 4.5340 M 74.0554,444.1264 h 4.5340 M 74.0554,431.2457 h 4.5340 M 74.0554,418.3650 h 4.5340 M 74.0554,405.4843 h 4.5340 M 74.0554,392.6036 h 4.5340 M 74.0554,379.7229 h 4.5340 M 74.0554,366.8422 h 4.5340 M 74.0554,353.9615 h 4.5340 M 74.0554,341.0808 h 4.5340 M 74.0554,328.2001 h 4.5340 M 74.0554,315.3194 h 4.5340 M 74.0554,302.4387 h 4.5340 M 74.0554,289.5580 h 4.5340 M 74.0554,276.6774 h 4.5340 M 74.0554,263.7967 h 4.5340 M 74.0554,250.9160 h 4.5340 M 74.0554,238.0353 h 4.5340 M 74.0554,225.1546 h 4.5340 M 74.0554,212.2739 h 4.5340 M 74.0554,199.3932 h 4.5340 M 74.0554,186.5125 h 4.5340 M 74.0554,173.6318 h 4.5340 M 74.0554,160.7511 h 4.5340 M 74.0554,147.8704 h 4.5340 M 74.0554,134.9897 h 4.5340 M 74.0554,122.1090 h 4.5340 M 74.0554,109.2283 h 4.5340 M 74.0554,96.3476 h 4.5340 M 74.0554,83.4669 h 4.5340 M 74.0554,70.5862 h 4.5340 "/></g><g stroke-width="0.4"><path d="M 71.0327,521.4106 h 7.5567 M 71.0327,469.8878 h 7.5567 M 71.0327,418.3650 h 7.5567 M 71.0327,366.8422 h 7.5567 M 71.0327,315.3194 h 7.5567 M 71.0327,263.7967 h 7.5567 M 71.0327,212.2739 h 7.5567 M 71.0327,160.7511 h 7.5567 M 71.0327,109.2283 h 7.5567 "/></g><g fill-opacity="1.0" font-size="11.0px" fill="rgb(0,0,0)"><text dominant-baseline="middle" transform="matrix(1.0000,0.0000,0.0000,1.0000,60.4534,109.2283)" stroke="none" text-anchor="end">0.2</text></g><g fill-opacity="1.0" font-size="11.0px" fill="rgb(0,0,0)"><text dominant-baseline="middle" transform="matrix(1.0000,0.0000,0.0000,1.0000,60.4534,160.7511)" stroke="none" text-anchor="end">0.175</text></g><g fill-opacity="1.0" font-size="11.0px" fill="rgb(0,0,0)"><text dominant-baseline="middle" transform="matrix(1.0000,0.0000,0.0000,1.0000,60.4534,212.2739)" stroke="none" text-anchor="end">0.15</text></g><g fill-opacity="1.0" font-size="11.0px" fill="rgb(0,0,0)"><text dominant-baseline="middle" transform="matrix(1.0000,0.0000,0.0000,1.0000,60.4534,263.7967)" stroke="none" text-anchor="end">0.125</text></g><g fill-opacity="1.0" font-size="11.0px" fill="rgb(0,0,0)"><text dominant-baseline="middle" transform="matrix(1.0000,0.0000,0.0000,1.0000,60.4534,315.3194)" stroke="none" text-anchor="end">0.1</text></g><g fill-opacity="1.0" font-size="11.0px" fill="rgb(0,0,0)"><text dominant-baseline="middle" transform="matrix(1.0000,0.0000,0.0000,1.0000,60.4534,366.8422)" stroke="none" text-anchor="end">7.5e-2</text></g><g fill-opacity="1.0" font-size="11.0px" fill="rgb(0,0,0)"><text dominant-baseline="middle" transform="matrix(1.0000,0.0000,0.0000,1.0000,60.4534,418.3650)" stroke="none" text-anchor="end">5.0e-2</text></g><g fill-opacity="1.0" font-size="11.0px" fill="rgb(0,0,0)"><text dominant-baseline="middle" transform="matrix(1.0000,0.0000,0.0000,1.0000,60.4534,469.8878)" stroke="none" text-anchor="end">2.5e-2</text></g><g fill-opacity="1.0" font-size="11.0px" fill="rgb(0,0,0)"><text dominant-baseline="middle" transform="matrix(1.0000,0.0000,0.0000,1.0000,60.4534,521.4106)" stroke="none" text-anchor="end">0.0</text></g><g stroke-width="0.1"><path d="M 106.9270,521.4106 v -453.4005 M 201.3854,521.4106 v -453.4005 M 295.8438,521.4106 v -453.4005 M 390.3023,521.4106 v -453.4005 M 484.7607,521.4106 v -453.4005 "/></g><g stroke-linecap="square"><path d="M 78.5894,521.4106 h 453.4005 M 78.5894,68.0101 h 453.4005 "/></g><g stroke-width="0.4"><path d="M 83.3123,68.0101 v -4.5340 M 130.5416,68.0101 v -4.5340 M 154.1562,68.0101 v -4.5340 M 177.7708,68.0101 v -4.5340 M 225.0000,68.0101 v -4.5340 M 248.6146,68.0101 v -4.5340 M 272.2292,68.0101 v -4.5340 M 319.4584,68.0101 v -4.5340 M 343.0730,68.0101 v -4.5340 M 366.6877,68.0101 v -4.5340 M 413.9169,68.0101 v -4.5340 M 437.5315,68.0101 v -4.5340 M 461.1461,68.0101 v -4.5340 M 508.3753,68.0101 v -4.5340 "/></g><g stroke-width="0.4"><path d="M 106.9270,68.0101 v -7.5567 M 201.3854,68.0101 v -7.5567 M 295.8438,68.0101 v -7.5567 M 390.3023,68.0101 v -7.5567 M 484.7607,68.0101 v -7.5567 "/></g><g stroke-width="0.4"><path d="M 83.3123,525.9446 v -4.5340 M 130.5416,525.9446 v -4.5340 M 154.1562,525.9446 v -4.5340 M 177.7708,525.9446 v -4.5340 M 225.0000,525.9446 v -4.5340 M 248.6146,525.9446 v -4.5340 M 272.2292,525.9446 v -4.5340 M 319.4584,525.9446 v -4.5340 M 343.0730,525.9446 v -4.5340 M 366.6877,525.9446 v -4.5340 M 413.9169,525.9446 v -4.5340 M 437.5315,525.9446 v -4.5340 M 461.1461,525.9446 v -4.5340 M 508.3753,525.9446 v -4.5340 "/></g><g stroke-width="0.4"><path d="M 106.9270,528.9673 v -7.5567 M 201.3854,528.9673 v -7.5567 M 295.8438,528.9673 v -7.5567 M 390.3023,528.9673 v -7.5567 M 484.7607,528.9673 v -7.5567 "/></g><g fill-opacity="1.0" font-size="11.0px" fill="rgb(0,0,0)"><text dominant-baseline="text-before-edge" transform="matrix(1.0000,0.0000,0.0000,1.0000,484.7607,539.5466)" stroke="none" text-anchor="middle">8.0</text></g><g fill-opacity="1.0" font-size="11.0px" fill="rgb(0,0,0)"><text dominant-baseline="text-before-edge" transform="matrix(1.0000,0.0000,0.0000,1.0000,390.3023,539.5466)" stroke="none" text-anchor="middle">7.0</text></g><g fill-opacity="1.0" font-size="11.0px" fill="rgb(0,0,0)"><text dominant-baseline="text-before-edge" transform="matrix(1.0000,0.0000,0.0000,1.0000,295.8438,539.5466)" stroke="none" text-anchor="middle">6.0</text></g><g fill-opacity="1.0" font-size="11.0px" fill="rgb(0,0,0)"><text dominant-baseline="text-before-edge" transform="matrix(1.0000,0.0000,0.0000,1.0000,201.3854,539.5466)" stroke="none" text-anchor="middle">5.0</text></g><g fill-opacity="1.0" font-size="11.0px" fill="rgb(0,0,0)"><text dominant-baseline="text-before-edge" transform="matrix(1.0000,0.0000,0.0000,1.0000,106.9270,539.5466)" stroke="none" text-anchor="middle">4.0</text></g></svg>