<svg xmlns="http://www.w3.org/2000/svg" height="510.2990" stroke-opacity="1" viewBox="0 0 600 510" font-size="1" width="600.0000" xmlns:xlink="http://www.w3.org/1999/xlink" stroke="rgb(0,0,0)" version="1.1"><defs></defs><g><defs><clipPath id="myClip1"><path d="M 450.4983,458.4718 l -0.0000,-398.6711 h -398.6711 l -0.0000,398.6711 Z"/></clipPath></defs><g clip-path="url(#myClip1)"><path d="M 162.5692,451.2185 l 254.7065,-260.8857 "/></g></g><g stroke-opacity="1.0" fill-opacity="1.0" opacity="0.7" stroke="rgb(77,175,74)" stroke-width="0.0" fill="rgb(114,185,112)"><defs><clipPath id="myClip2"><path d="M 450.4983,458.4718 l -0.0000,-398.6711 h -398.6711 l -0.0000,398.6711 Z"/></clipPath></defs><g clip-path="url(#myClip2)"><path d="M 162.5692,486.8141 l 254.7065,-260.8857 v -71.1913 l -254.7065,260.8857 Z"/></g></g><g><defs><clipPath id="myClip3"><path d="M 450.4983,458.4718 l -0.0000,-398.6711 h -398.6711 l -0.0000,398.6711 Z"/></clipPath></defs><g clip-path="url(#myClip3)"><path d="M 85.0498,351.3500 l 138.4275,-295.0021 "/></g></g><g stroke-opacity="1.0" fill-opacity="1.0" opacity="0.7" stroke="rgb(55,126,184)" stroke-width="0.0" fill="rgb(103,146,193)"><defs><clipPath id="myClip4"><path d="M 450.4983,458.4718 l -0.0000,-398.6711 h -398.6711 l -0.0000,398.6711 Z"/></clipPath></defs><g clip-path="url(#myClip4)"><path d="M 85.0498,378.4027 l 138.4275,-295.0021 v -54.1054 l -138.4275,295.0021 Z"/></g></g><g><defs><clipPath id="myClip5"><path d="M 450.4983,458.4718 l -0.0000,-398.6711 h -398.6711 l -0.0000,398.6711 Z"/></clipPath></defs><g clip-path="url(#myClip5)"><path d="M 140.4208,351.3500 l 276.8549,-295.0021 "/></g></g><g stroke-opacity="1.0" fill-opacity="1.0" opacity="0.7" stroke="rgb(228,26,28)" stroke-width="0.0" fill="rgb(231,93,93)"><defs><clipPath id="myClip6"><path d="M 450.4983,458.4718 l -0.0000,-398.6711 h -398.6711 l -0.0000,398.6711 Z"/></clipPath></defs><g clip-path="url(#myClip6)"><path d="M 140.4208,378.4027 l 276.8549,-295.0021 v -54.1054 l -276.8549,295.0021 Z"/></g></g><g stroke-width="0.8"><path d="M 51.8272,387.2805 h 398.6711 M 51.8272,292.3588 h 398.6711 M 51.8272,197.4371 h 398.6711 M 51.8272,102.5154 h 398.6711 "/></g><g stroke-linecap="square"><path d="M 51.8272,458.4718 v -398.6711 M 450.4983,458.4718 v -398.6711 "/></g><g stroke-width="0.4"><path d="M 450.4983,450.5616 h 2.9900 M 450.4983,434.7413 h 2.9900 M 450.4983,418.9211 h 2.9900 M 450.4983,403.1008 h 2.9900 M 450.4983,371.4602 h 2.9900 M 450.4983,355.6399 h 2.9900 M 450.4983,339.8196 h 2.9900 M 450.4983,323.9994 h 2.9900 M 450.4983,308.1791 h 2.9900 M 450.4983,276.5385 h 2.9900 M 450.4983,260.7182 h 2.9900 M 450.4983,244.8980 h 2.9900 M 450.4983,229.0777 h 2.9900 M 450.4983,213.2574 h 2.9900 M 450.4983,181.6168 h 2.9900 M 450.4983,165.7966 h 2.9900 M 450.4983,149.9763 h 2.9900 M 450.4983,134.1560 h 2.9900 M 450.4983,118.3357 h 2.9900 M 450.4983,86.6951 h 2.9900 M 450.4983,70.8749 h 2.9900 "/></g><g stroke-width="0.4"><path d="M 450.4983,387.2805 h 4.9834 M 450.4983,292.3588 h 4.9834 M 450.4983,197.4371 h 4.9834 M 450.4983,102.5154 h 4.9834 "/></g><g stroke-width="0.4"><path d="M 48.8372,450.5616 h 2.9900 M 48.8372,434.7413 h 2.9900 M 48.8372,418.9211 h 2.9900 M 48.8372,403.1008 h 2.9900 M 48.8372,371.4602 h 2.9900 M 48.8372,355.6399 h 2.9900 M 48.8372,339.8196 h 2.9900 M 48.8372,323.9994 h 2.9900 M 48.8372,308.1791 h 2.9900 M 48.8372,276.5385 h 2.9900 M 48.8372,260.7182 h 2.9900 M 48.8372,244.8980 h 2.9900 M 48.8372,229.0777 h 2.9900 M 48.8372,213.2574 h 2.9900 M 48.8372,181.6168 h 2.9900 M 48.8372,165.7966 h 2.9900 M 48.8372,149.9763 h 2.9900 M 48.8372,134.1560 h 2.9900 M 48.8372,118.3357 h 2.9900 M 48.8372,86.6951 h 2.9900 M 48.8372,70.8749 h 2.9900 "/></g><g stroke-width="0.4"><path d="M 46.8439,387.2805 h 4.9834 M 46.8439,292.3588 h 4.9834 M 46.8439,197.4371 h 4.9834 M 46.8439,102.5154 h 4.9834 "/></g><g fill-opacity="1.0" font-size="11.0px" fill="rgb(0,0,0)"><text dominant-baseline="middle" transform="matrix(1.0000,0.0000,0.0000,1.0000,39.8671,102.5154)" stroke="none" text-anchor="end">6.0</text></g><g fill-opacity="1.0" font-size="11.0px" fill="rgb(0,0,0)"><text dominant-baseline="middle" transform="matrix(1.0000,0.0000,0.0000,1.0000,39.8671,197.4371)" stroke="none" text-anchor="end">5.0</text></g><g fill-opacity="1.0" font-size="11.0px" fill="rgb(0,0,0)"><text dominant-baseline="middle" transform="matrix(1.0000,0.0000,0.0000,1.0000,39.8671,292.3588)" stroke="none" text-anchor="end">4.0</text></g><g fill-opacity="1.0" font-size="11.0px" fill="rgb(0,0,0)"><text dominant-baseline="middle" transform="matrix(1.0000,0.0000,0.0000,1.0000,39.8671,387.2805)" stroke="none" text-anchor="end">3.0</text></g><g stroke-width="0.8"><path d="M 85.0498,458.4718 v -398.6711 M 140.4208,458.4718 v -398.6711 M 195.7918,458.4718 v -398.6711 M 251.1628,458.4718 v -398.6711 M 306.5338,458.4718 v -398.6711 M 361.9048,458.4718 v -398.6711 M 417.2757,458.4718 v -398.6711 "/></g><g stroke-linecap="square"><path d="M 51.8272,458.4718 h 398.6711 M 51.8272,59.8007 h 398.6711 "/></g><g stroke-width="0.4"><path d="M 57.3643,59.8007 v -2.9900 M 66.5928,59.8007 v -2.9900 M 75.8213,59.8007 v -2.9900 M 94.2783,59.8007 v -2.9900 M 103.5068,59.8007 v -2.9900 M 112.7353,59.8007 v -2.9900 M 121.9638,59.8007 v -2.9900 M 131.1923,59.8007 v -2.9900 M 149.6493,59.8007 v -2.9900 M 158.8778,59.8007 v -2.9900 M 168.1063,59.8007 v -2.9900 M 177.3348,59.8007 v -2.9900 M 186.5633,59.8007 v -2.9900 M 205.0203,59.8007 v -2.9900 M 214.2488,59.8007 v -2.9900 M 223.4773,59.8007 v -2.9900 M 232.7058,59.8007 v -2.9900 M 241.9343,59.8007 v -2.9900 M 260.3913,59.8007 v -2.9900 M 269.6198,59.8007 v -2.9900 M 278.8483,59.8007 v -2.9900 M 288.0768,59.8007 v -2.9900 M 297.3053,59.8007 v -2.9900 M 315.7623,59.8007 v -2.9900 M 324.9908,59.8007 v -2.9900 M 334.2193,59.8007 v -2.9900 M 343.4478,59.8007 v -2.9900 M 352.6763,59.8007 v -2.9900 M 371.1333,59.8007 v -2.9900 M 380.3618,59.8007 v -2.9900 M 389.5903,59.8007 v -2.9900 M 398.8188,59.8007 v -2.9900 M 408.0472,59.8007 v -2.9900 M 426.5042,59.8007 v -2.9900 M 435.7327,59.8007 v -2.9900 M 444.9612,59.8007 v -2.9900 "/></g><g stroke-width="0.4"><path d="M 85.0498,59.8007 v -4.9834 M 140.4208,59.8007 v -4.9834 M 195.7918,59.8007 v -4.9834 M 251.1628,59.8007 v -4.9834 M 306.5338,59.8007 v -4.9834 M 361.9048,59.8007 v -4.9834 M 417.2757,59.8007 v -4.9834 "/></g><g stroke-width="0.4"><path d="M 57.3643,461.4618 v -2.9900 M 66.5928,461.4618 v -2.9900 M 75.8213,461.4618 v -2.9900 M 94.2783,461.4618 v -2.9900 M 103.5068,461.4618 v -2.9900 M 112.7353,461.4618 v -2.9900 M 121.9638,461.4618 v -2.9900 M 131.1923,461.4618 v -2.9900 M 149.6493,461.4618 v -2.9900 M 158.8778,461.4618 v -2.9900 M 168.1063,461.4618 v -2.9900 M 177.3348,461.4618 v -2.9900 M 186.5633,461.4618 v -2.9900 M 205.0203,461.4618 v -2.9900 M 214.2488,461.4618 v -2.9900 M 223.4773,461.4618 v -2.9900 M 232.7058,461.4618 v -2.9900 M 241.9343,461.4618 v -2.9900 M 260.3913,461.4618 v -2.9900 M 269.6198,461.4618 v -2.9900 M 278.8483,461.4618 v -2.9900 M 288.0768,461.4618 v -2.9900 M 297.3053,461.4618 v -2.9900 M 315.7623,461.4618 v -2.9900 M 324.9908,461.4618 v -2.9900 M 334.2193,461.4618 v -2.9900 M 343.4478,461.4618 v -2.9900 M 352.6763,461.4618 v -2.9900 M 371.1333,461.4618 v -2.9900 M 380.3618,461.4618 v -2.9900 M 389.5903,461.4618 v -2.9900 M 398.8188,461.4618 v -2.9900 M 408.0472,461.4618 v -2.9900 M 426.5042,461.4618 v -2.9900 M 435.7327,461.4618 v -2.9900 M 444.9612,461.4618 v -2.9900 "/></g><g stroke-width="0.4"><path d="M 85.0498,463.4551 v -4.9834 M 140.4208,463.4551 v -4.9834 M 195.7918,463.4551 v -4.9834 M 251.1628,463.4551 v -4.9834 M 306.5338,463.4551 v -4.9834 M 361.9048,463.4551 v -4.9834 M 417.2757,463.4551 v -4.9834 "/></g><g fill-opacity="1.0" font-size="11.0px" fill="rgb(0,0,0)"><text dominant-baseline="text-before-edge" transform="matrix(1.0000,0.0000,0.0000,1.0000,417.2757,470.4319)" stroke="none" text-anchor="middle">3.5</text></g><g fill-opacity="1.0" font-size="11.0px" fill="rgb(0,0,0)"><text dominant-baseline="text-before-edge" transform="matrix(1.0000,0.0000,0.0000,1.0000,361.9048,470.4319)" stroke="none" text-anchor="middle">3.0</text></g><g fill-opacity="1.0" font-size="11.0px" fill="rgb(0,0,0)"><text dominant-baseline="text-before-edge" transform="matrix(1.0000,0.0000,0.0000,1.0000,306.5338,470.4319)" stroke="none" text-anchor="middle">2.5</text></g><g fill-opacity="1.0" font-size="11.0px" fill="rgb(0,0,0)"><text dominant-baseline="text-before-edge" transform="matrix(1.0000,0.0000,0.0000,1.0000,251.1628,470.4319)" stroke="none" text-anchor="middle">2.0</text></g><g fill-opacity="1.0" font-size="11.0px" fill="rgb(0,0,0)"><text dominant-baseline="text-before-edge" transform="matrix(1.0000,0.0000,0.0000,1.0000,195.7918,470.4319)" stroke="none" text-anchor="middle">1.5</text></g><g fill-opacity="1.0" font-size="11.0px" fill="rgb(0,0,0)"><text dominant-baseline="text-before-edge" transform="matrix(1.0000,0.0000,0.0000,1.0000,140.4208,470.4319)" stroke="none" text-anchor="middle">1.0</text></g><g fill-opacity="1.0" font-size="11.0px" fill="rgb(0,0,0)"><text dominant-baseline="text-before-edge" transform="matrix(1.0000,0.0000,0.0000,1.0000,85.0498,470.4319)" stroke="none" text-anchor="middle">0.5</text></g><g fill-opacity="1.0" font-size="11.0px" fill="rgb(0,0,0)"><text dominant-baseline="text-after-edge" transform="matrix(1.0000,0.0000,0.0000,1.0000,251.1628,39.8671)" stroke="none" text-anchor="middle"></text></g><g fill-opacity="0.0" fill="rgb(0,0,0)"><path d="M 555.1495,119.6013 l -0.0000,-59.8007 h -84.7176 l -0.0000,59.8007 Z"/></g><g fill-opacity="1.0" font-size="11.0px" fill="rgb(0,0,0)"><text dominant-baseline="middle" transform="matrix(1.0000,0.0000,0.0000,1.0000,500.3322,109.6346)" stroke="none" text-anchor="start">data 3</text></g><g stroke-opacity="1.0" fill-opacity="1.0" stroke="rgb(77,175,74)" stroke-width="1.0" fill="rgb(114,185,112)"><path d="M 487.8738,112.1262 l -0.0000,-4.9834 h -4.9834 l -0.0000,4.9834 Z"/></g><g fill-opacity="1.0" font-size="11.0px" fill="rgb(0,0,0)"><text dominant-baseline="middle" transform="matrix(1.0000,0.0000,0.0000,1.0000,500.3322,89.7010)" stroke="none" text-anchor="start">data 2</text></g><g stroke-opacity="1.0" fill-opacity="1.0" stroke="rgb(55,126,184)" stroke-width="1.0" fill="rgb(103,146,193)"><path d="M 487.8738,92.1927 l -0.0000,-4.9834 h -4.9834 l -0.0000,4.9834 Z"/></g><g fill-opacity="1.0" font-size="11.0px" fill="rgb(0,0,0)"><text dominant-baseline="middle" transform="matrix(1.0000,0.0000,0.0000,1.0000,500.3322,69.7674)" stroke="none" text-anchor="start">data 1</text></g><g stroke-opacity="1.0" fill-opacity="1.0" stroke="rgb(228,26,28)" stroke-width="1.0" fill="rgb(231,93,93)"><path d="M 487.8738,72.2591 l -0.0000,-4.9834 h -4.9834 l -0.0000,4.9834 Z"/></g></svg>