<svg xmlns="http://www.w3.org/2000/svg" height="350.0000" stroke-opacity="1" viewBox="0 0 340 350" font-size="1" width="339.7461" xmlns:xlink="http://www.w3.org/1999/xlink" stroke="rgb(0,0,0)" version="1.1"><defs></defs><g stroke-width="0.8"><path d="M 35.5469,314.4531 h 273.4375 M 35.5469,273.0232 h 273.4375 M 35.5469,231.5933 h 273.4375 M 35.5469,190.1634 h 273.4375 M 35.5469,148.7334 h 273.4375 M 35.5469,107.3035 h 273.4375 M 35.5469,65.8736 h 273.4375 "/></g><g stroke-linecap="square"><path d="M 35.5469,314.4531 v -273.4375 M 308.9844,314.4531 v -273.4375 "/></g><g stroke-width="0.4"><path d="M 308.9844,307.5481 h 2.0508 M 308.9844,300.6432 h 2.0508 M 308.9844,293.7382 h 2.0508 M 308.9844,286.8332 h 2.0508 M 308.9844,279.9282 h 2.0508 M 308.9844,266.1182 h 2.0508 M 308.9844,259.2132 h 2.0508 M 308.9844,252.3082 h 2.0508 M 308.9844,245.4033 h 2.0508 M 308.9844,238.4983 h 2.0508 M 308.9844,224.6883 h 2.0508 M 308.9844,217.7833 h 2.0508 M 308.9844,210.8783 h 2.0508 M 308.9844,203.9733 h 2.0508 M 308.9844,197.0683 h 2.0508 M 308.9844,183.2584 h 2.0508 M 308.9844,176.3534 h 2.0508 M 308.9844,169.4484 h 2.0508 M 308.9844,162.5434 h 2.0508 M 308.9844,155.6384 h 2.0508 M 308.9844,141.8284 h 2.0508 M 308.9844,134.9235 h 2.0508 M 308.9844,128.0185 h 2.0508 M 308.9844,121.1135 h 2.0508 M 308.9844,114.2085 h 2.0508 M 308.9844,100.3985 h 2.0508 M 308.9844,93.4935 h 2.0508 M 308.9844,86.5885 h 2.0508 M 308.9844,79.6836 h 2.0508 M 308.9844,72.7786 h 2.0508 M 308.9844,58.9686 h 2.0508 M 308.9844,52.0636 h 2.0508 M 308.9844,45.1586 h 2.0508 "/></g><g stroke-width="0.4"><path d="M 308.9844,314.4531 h 3.4180 M 308.9844,273.0232 h 3.4180 M 308.9844,231.5933 h 3.4180 M 308.9844,190.1634 h 3.4180 M 308.9844,148.7334 h 3.4180 M 308.9844,107.3035 h 3.4180 M 308.9844,65.8736 h 3.4180 "/></g><g stroke-width="0.4"><path d="M 33.4961,307.5481 h 2.0508 M 33.4961,300.6432 h 2.0508 M 33.4961,293.7382 h 2.0508 M 33.4961,286.8332 h 2.0508 M 33.4961,279.9282 h 2.0508 M 33.4961,266.1182 h 2.0508 M 33.4961,259.2132 h 2.0508 M 33.4961,252.3082 h 2.0508 M 33.4961,245.4033 h 2.0508 M 33.4961,238.4983 h 2.0508 M 33.4961,224.6883 h 2.0508 M 33.4961,217.7833 h 2.0508 M 33.4961,210.8783 h 2.0508 M 33.4961,203.9733 h 2.0508 M 33.4961,197.0683 h 2.0508 M 33.4961,183.2584 h 2.0508 M 33.4961,176.3534 h 2.0508 M 33.4961,169.4484 h 2.0508 M 33.4961,162.5434 h 2.0508 M 33.4961,155.6384 h 2.0508 M 33.4961,141.8284 h 2.0508 M 33.4961,134.9235 h 2.0508 M 33.4961,128.0185 h 2.0508 M 33.4961,121.1135 h 2.0508 M 33.4961,114.2085 h 2.0508 M 33.4961,100.3985 h 2.0508 M 33.4961,93.4935 h 2.0508 M 33.4961,86.5885 h 2.0508 M 33.4961,79.6836 h 2.0508 M 33.4961,72.7786 h 2.0508 M 33.4961,58.9686 h 2.0508 M 33.4961,52.0636 h 2.0508 M 33.4961,45.1586 h 2.0508 "/></g><g stroke-width="0.4"><path d="M 32.1289,314.4531 h 3.4180 M 32.1289,273.0232 h 3.4180 M 32.1289,231.5933 h 3.4180 M 32.1289,190.1634 h 3.4180 M 32.1289,148.7334 h 3.4180 M 32.1289,107.3035 h 3.4180 M 32.1289,65.8736 h 3.4180 "/></g><g fill-opacity="1.0" font-size="11.0px" fill="rgb(0,0,0)"><text dominant-baseline="middle" transform="matrix(1.0000,0.0000,0.0000,1.0000,27.3438,65.8736)" stroke="none" text-anchor="end">30.0</text></g><g fill-opacity="1.0" font-size="11.0px" fill="rgb(0,0,0)"><text dominant-baseline="middle" transform="matrix(1.0000,0.0000,0.0000,1.0000,27.3438,107.3035)" stroke="none" text-anchor="end">25.0</text></g><g fill-opacity="1.0" font-size="11.0px" fill="rgb(0,0,0)"><text dominant-baseline="middle" transform="matrix(1.0000,0.0000,0.0000,1.0000,27.3438,148.7334)" stroke="none" text-anchor="end">20.0</text></g><g fill-opacity="1.0" font-size="11.0px" fill="rgb(0,0,0)"><text dominant-baseline="middle" transform="matrix(1.0000,0.0000,0.0000,1.0000,27.3438,190.1634)" stroke="none" text-anchor="end">15.0</text></g><g fill-opacity="1.0" font-size="11.0px" fill="rgb(0,0,0)"><text dominant-baseline="middle" transform="matrix(1.0000,0.0000,0.0000,1.0000,27.3438,231.5933)" stroke="none" text-anchor="end">10.0</text></g><g fill-opacity="1.0" font-size="11.0px" fill="rgb(0,0,0)"><text dominant-baseline="middle" transform="matrix(1.0000,0.0000,0.0000,1.0000,27.3438,273.0232)" stroke="none" text-anchor="end">5.0</text></g><g fill-opacity="1.0" font-size="11.0px" fill="rgb(0,0,0)"><text dominant-baseline="middle" transform="matrix(1.0000,0.0000,0.0000,1.0000,27.3438,314.4531)" stroke="none" text-anchor="end">0.0</text></g><g stroke-width="0.8"><path d="M 52.6367,314.4531 v -273.4375 M 109.6029,314.4531 v -273.4375 M 166.5690,314.4531 v -273.4375 M 223.5352,314.4531 v -273.4375 M 280.5013,314.4531 v -273.4375 "/></g><g stroke-linecap="square"><path d="M 35.5469,314.4531 h 273.4375 M 35.5469,41.0156 h 273.4375 "/></g><g stroke-width="0.4"><path d="M 43.1424,41.0156 v -2.0508 M 62.1311,41.0156 v -2.0508 M 71.6254,41.0156 v -2.0508 M 81.1198,41.0156 v -2.0508 M 90.6141,41.0156 v -2.0508 M 100.1085,41.0156 v -2.0508 M 119.0972,41.0156 v -2.0508 M 128.5916,41.0156 v -2.0508 M 138.0859,41.0156 v -2.0508 M 147.5803,41.0156 v -2.0508 M 157.0747,41.0156 v -2.0508 M 176.0634,41.0156 v -2.0508 M 185.5577,41.0156 v -2.0508 M 195.0521,41.0156 v -2.0508 M 204.5464,41.0156 v -2.0508 M 214.0408,41.0156 v -2.0508 M 233.0295,41.0156 v -2.0508 M 242.5239,41.0156 v -2.0508 M 252.0182,41.0156 v -2.0508 M 261.5126,41.0156 v -2.0508 M 271.0069,41.0156 v -2.0508 M 289.9957,41.0156 v -2.0508 M 299.4900,41.0156 v -2.0508 M 308.9844,41.0156 v -2.0508 "/></g><g stroke-width="0.4"><path d="M 52.6367,41.0156 v -3.4180 M 109.6029,41.0156 v -3.4180 M 166.5690,41.0156 v -3.4180 M 223.5352,41.0156 v -3.4180 M 280.5013,41.0156 v -3.4180 "/></g><g stroke-width="0.4"><path d="M 43.1424,316.5039 v -2.0508 M 62.1311,316.5039 v -2.0508 M 71.6254,316.5039 v -2.0508 M 81.1198,316.5039 v -2.0508 M 90.6141,316.5039 v -2.0508 M 100.1085,316.5039 v -2.0508 M 119.0972,316.5039 v -2.0508 M 128.5916,316.5039 v -2.0508 M 138.0859,316.5039 v -2.0508 M 147.5803,316.5039 v -2.0508 M 157.0747,316.5039 v -2.0508 M 176.0634,316.5039 v -2.0508 M 185.5577,316.5039 v -2.0508 M 195.0521,316.5039 v -2.0508 M 204.5464,316.5039 v -2.0508 M 214.0408,316.5039 v -2.0508 M 233.0295,316.5039 v -2.0508 M 242.5239,316.5039 v -2.0508 M 252.0182,316.5039 v -2.0508 M 261.5126,316.5039 v -2.0508 M 271.0069,316.5039 v -2.0508 M 289.9957,316.5039 v -2.0508 M 299.4900,316.5039 v -2.0508 M 308.9844,316.5039 v -2.0508 "/></g><g stroke-width="0.4"><path d="M 52.6367,317.8711 v -3.4180 M 109.6029,317.8711 v -3.4180 M 166.5690,317.8711 v -3.4180 M 223.5352,317.8711 v -3.4180 M 280.5013,317.8711 v -3.4180 "/></g><g fill-opacity="1.0" font-size="11.0px" fill="rgb(0,0,0)"><text dominant-baseline="text-before-edge" transform="matrix(1.0000,0.0000,0.0000,1.0000,280.5013,322.6562)" stroke="none" text-anchor="middle">8.0</text></g><g fill-opacity="1.0" font-size="11.0px" fill="rgb(0,0,0)"><text dominant-baseline="text-before-edge" transform="matrix(1.0000,0.0000,0.0000,1.0000,223.5352,322.6562)" stroke="none" text-anchor="middle">7.0</text></g><g fill-opacity="1.0" font-size="11.0px" fill="rgb(0,0,0)"><text dominant-baseline="text-before-edge" transform="matrix(1.0000,0.0000,0.0000,1.0000,166.5690,322.6562)" stroke="none" text-anchor="middle">6.0</text></g><g fill-opacity="1.0" font-size="11.0px" fill="rgb(0,0,0)"><text dominant-baseline="text-before-edge" transform="matrix(1.0000,0.0000,0.0000,1.0000,109.6029,322.6562)" stroke="none" text-anchor="middle">5.0</text></g><g fill-opacity="1.0" font-size="11.0px" fill="rgb(0,0,0)"><text dominant-baseline="text-before-edge" transform="matrix(1.0000,0.0000,0.0000,1.0000,52.6367,322.6562)" stroke="none" text-anchor="middle">4.0</text></g><g stroke-opacity="1.0" fill-opacity="1.0" stroke="rgb(228,26,28)" stroke-width="1.0" fill="rgb(231,93,93)"><defs><clipPath id="myClip1"><path d="M 308.9844,314.4531 l -0.0000,-273.4375 h -273.4375 l -0.0000,273.4375 Z"/></clipPath></defs><g clip-path="url(#myClip1)"><path d="M 263.4115,314.4531 h 22.7865 v -41.4299 h -22.7865 Z"/></g></g><g stroke-opacity="1.0" fill-opacity="1.0" stroke="rgb(228,26,28)" stroke-width="1.0" fill="rgb(231,93,93)"><defs><clipPath id="myClip2"><path d="M 308.9844,314.4531 l -0.0000,-273.4375 h -273.4375 l -0.0000,273.4375 Z"/></clipPath></defs><g clip-path="url(#myClip2)"><path d="M 240.6250,314.4531 h 22.7865 v -16.5720 h -22.7865 Z"/></g></g><g stroke-opacity="1.0" fill-opacity="1.0" stroke="rgb(228,26,28)" stroke-width="1.0" fill="rgb(231,93,93)"><defs><clipPath id="myClip3"><path d="M 308.9844,314.4531 l -0.0000,-273.4375 h -273.4375 l -0.0000,273.4375 Z"/></clipPath></defs><g clip-path="url(#myClip3)"><path d="M 217.8385,314.4531 h 22.7865 v -82.8598 h -22.7865 Z"/></g></g><g stroke-opacity="1.0" fill-opacity="1.0" stroke="rgb(228,26,28)" stroke-width="1.0" fill="rgb(231,93,93)"><defs><clipPath id="myClip4"><path d="M 308.9844,314.4531 l -0.0000,-273.4375 h -273.4375 l -0.0000,273.4375 Z"/></clipPath></defs><g clip-path="url(#myClip4)"><path d="M 195.0521,314.4531 h 22.7865 v -149.1477 h -22.7865 Z"/></g></g><g stroke-opacity="1.0" fill-opacity="1.0" stroke="rgb(228,26,28)" stroke-width="1.0" fill="rgb(231,93,93)"><defs><clipPath id="myClip5"><path d="M 308.9844,314.4531 l -0.0000,-273.4375 h -273.4375 l -0.0000,273.4375 Z"/></clipPath></defs><g clip-path="url(#myClip5)"><path d="M 172.2656,314.4531 h 22.7865 v -165.7197 h -22.7865 Z"/></g></g><g stroke-opacity="1.0" fill-opacity="1.0" stroke="rgb(228,26,28)" stroke-width="1.0" fill="rgb(231,93,93)"><defs><clipPath id="myClip6"><path d="M 308.9844,314.4531 l -0.0000,-273.4375 h -273.4375 l -0.0000,273.4375 Z"/></clipPath></defs><g clip-path="url(#myClip6)"><path d="M 149.4792,314.4531 h 22.7865 v -248.5795 h -22.7865 Z"/></g></g><g stroke-opacity="1.0" fill-opacity="1.0" stroke="rgb(228,26,28)" stroke-width="1.0" fill="rgb(231,93,93)"><defs><clipPath id="myClip7"><path d="M 308.9844,314.4531 l -0.0000,-273.4375 h -273.4375 l -0.0000,273.4375 Z"/></clipPath></defs><g clip-path="url(#myClip7)"><path d="M 126.6927,314.4531 h 22.7865 v -165.7197 h -22.7865 Z"/></g></g><g stroke-opacity="1.0" fill-opacity="1.0" stroke="rgb(228,26,28)" stroke-width="1.0" fill="rgb(231,93,93)"><defs><clipPath id="myClip8"><path d="M 308.9844,314.4531 l -0.0000,-273.4375 h -273.4375 l -0.0000,273.4375 Z"/></clipPath></defs><g clip-path="url(#myClip8)"><path d="M 103.9062,314.4531 h 22.7865 v -240.2936 h -22.7865 Z"/></g></g><g stroke-opacity="1.0" fill-opacity="1.0" stroke="rgb(228,26,28)" stroke-width="1.0" fill="rgb(231,93,93)"><defs><clipPath id="myClip9"><path d="M 308.9844,314.4531 l -0.0000,-273.4375 h -273.4375 l -0.0000,273.4375 Z"/></clipPath></defs><g clip-path="url(#myClip9)"><path d="M 81.1198,314.4531 h 22.7865 v -99.4318 h -22.7865 Z"/></g></g><g stroke-opacity="1.0" fill-opacity="1.0" stroke="rgb(228,26,28)" stroke-width="1.0" fill="rgb(231,93,93)"><defs><clipPath id="myClip10"><path d="M 308.9844,314.4531 l -0.0000,-273.4375 h -273.4375 l -0.0000,273.4375 Z"/></clipPath></defs><g clip-path="url(#myClip10)"><path d="M 58.3333,314.4531 h 22.7865 v -33.1439 h -22.7865 Z"/></g></g><g fill-opacity="1.0" font-size="11.0px" fill="rgb(0,0,0)"><text dominant-baseline="text-after-edge" transform="matrix(1.0000,0.0000,0.0000,1.0000,172.2656,27.3438)" stroke="none" text-anchor="middle"></text></g></svg>