<svg xmlns="http://www.w3.org/2000/svg" height="622.6700" stroke-opacity="1" viewBox="0 0 600 623" font-size="1" width="600.0000" xmlns:xlink="http://www.w3.org/1999/xlink" stroke="rgb(0,0,0)" version="1.1"><defs></defs><g stroke-opacity="1.0" fill-opacity="1.0" stroke="rgb(228,26,28)" stroke-width="1.0" fill="rgb(231,93,93)"><path d="M 456.4232,544.0806 h 37.7834 v -68.6970 h -37.7834 Z"/></g><g stroke-opacity="1.0" fill-opacity="1.0" stroke="rgb(228,26,28)" stroke-width="1.0" fill="rgb(231,93,93)"><path d="M 418.6398,544.0806 h 37.7834 v -27.4788 h -37.7834 Z"/></g><g stroke-opacity="1.0" fill-opacity="1.0" stroke="rgb(228,26,28)" stroke-width="1.0" fill="rgb(231,93,93)"><path d="M 380.8564,544.0806 h 37.7834 v -137.3941 h -37.7834 Z"/></g><g stroke-opacity="1.0" fill-opacity="1.0" stroke="rgb(228,26,28)" stroke-width="1.0" fill="rgb(231,93,93)"><path d="M 343.0730,544.0806 h 37.7834 v -247.3094 h -37.7834 Z"/></g><g stroke-opacity="1.0" fill-opacity="1.0" stroke="rgb(228,26,28)" stroke-width="1.0" fill="rgb(231,93,93)"><path d="M 305.2897,544.0806 h 37.7834 v -274.7882 h -37.7834 Z"/></g><g stroke-opacity="1.0" fill-opacity="1.0" stroke="rgb(228,26,28)" stroke-width="1.0" fill="rgb(231,93,93)"><path d="M 267.5063,544.0806 h 37.7834 v -412.1823 h -37.7834 Z"/></g><g stroke-opacity="1.0" fill-opacity="1.0" stroke="rgb(228,26,28)" stroke-width="1.0" fill="rgb(231,93,93)"><path d="M 229.7229,544.0806 h 37.7834 v -274.7882 h -37.7834 Z"/></g><g stroke-opacity="1.0" fill-opacity="1.0" stroke="rgb(228,26,28)" stroke-width="1.0" fill="rgb(231,93,93)"><path d="M 191.9395,544.0806 h 37.7834 v -398.4429 h -37.7834 Z"/></g><g stroke-opacity="1.0" fill-opacity="1.0" stroke="rgb(228,26,28)" stroke-width="1.0" fill="rgb(231,93,93)"><path d="M 154.1562,544.0806 h 37.7834 v -164.8729 h -37.7834 Z"/></g><g stroke-opacity="1.0" fill-opacity="1.0" stroke="rgb(228,26,28)" stroke-width="1.0" fill="rgb(231,93,93)"><path d="M 116.3728,544.0806 h 37.7834 v -54.9576 h -37.7834 Z"/></g><g stroke-width="0.1"><path d="M 78.5894,544.0806 h 453.4005 M 78.5894,492.5578 h 453.4005 M 78.5894,441.0350 h 453.4005 M 78.5894,389.5123 h 453.4005 M 78.5894,337.9895 h 453.4005 M 78.5894,286.4667 h 453.4005 M 78.5894,234.9439 h 453.4005 M 78.5894,183.4211 h 453.4005 M 78.5894,131.8983 h 453.4005 "/></g><g stroke-linecap="square"><path d="M 78.5894,544.0806 v -453.4005 M 531.9899,544.0806 v -453.4005 "/></g><g stroke-width="0.4"><path d="M 531.9899,531.1999 h 4.5340 M 531.9899,518.3192 h 4.5340 M 531.9899,505.4385 h 4.5340 M 531.9899,492.5578 h 4.5340 M 531.9899,479.6771 h 4.5340 M 531.9899,466.7964 h 4.5340 M 531.9899,453.9157 h 4.5340 M 531.9899,441.0350 h 4.5340 M 531.9899,428.1543 h 4.5340 M 531.9899,415.2736 h 4.5340 M 531.9899,402.3929 h 4.5340 M 531.9899,389.5123 h 4.5340 M 531.9899,376.6316 h 4.5340 M 531.9899,363.7509 h 4.5340 M 531.9899,350.8702 h 4.5340 M 531.9899,337.9895 h 4.5340 M 531.9899,325.1088 h 4.5340 M 531.9899,312.2281 h 4.5340 M 531.9899,299.3474 h 4.5340 M 531.9899,286.4667 h 4.5340 M 531.9899,273.5860 h 4.5340 M 531.9899,260.7053 h 4.5340 M 531.9899,247.8246 h 4.5340 M 531.9899,234.9439 h 4.5340 M 531.9899,222.0632 h 4.5340 M 531.9899,209.1825 h 4.5340 M 531.9899,196.3018 h 4.5340 M 531.9899,183.4211 h 4.5340 M 531.9899,170.5404 h 4.5340 M 531.9899,157.6597 h 4.5340 M 531.9899,144.7790 h 4.5340 M 531.9899,131.8983 h 4.5340 M 531.9899,119.0176 h 4.5340 M 531.9899,106.1369 h 4.5340 M 531.9899,93.2562 h 4.5340 "/></g><g stroke-width="0.4"><path d="M 531.9899,544.0806 h 7.5567 M 531.9899,492.5578 h 7.5567 M 531.9899,441.0350 h 7.5567 M 531.9899,389.5123 h 7.5567 M 531.9899,337.9895 h 7.5567 M 531.9899,286.4667 h 7.5567 M 531.9899,234.9439 h 7.5567 M 531.9899,183.4211 h 7.5567 M 531.9899,131.8983 h 7.5567 "/></g><g stroke-width="0.4"><path d="M 74.0554,531.1999 h 4.5340 M 74.0554,518.3192 h 4.5340 M 74.0554,505.4385 h 4.5340 M 74.0554,492.5578 h 4.5340 M 74.0554,479.6771 h 4.5340 M 74.0554,466.7964 h 4.5340 M 74.0554,453.9157 h 4.5340 M 74.0554,441.0350 h 4.5340 M 74.0554,428.1543 h 4.5340 M 74.0554,415.2736 h 4.5340 M 74.0554,402.3929 h 4.5340 M 74.0554,389.5123 h 4.5340 M 74.0554,376.6316 h 4.5340 M 74.0554,363.7509 h 4.5340 M 74.0554,350.8702 h 4.5340 M 74.0554,337.9895 h 4.5340 M 74.0554,325.1088 h 4.5340 M 74.0554,312.2281 h 4.5340 M 74.0554,299.3474 h 4.5340 M 74.0554,286.4667 h 4.5340 M 74.0554,273.5860 h 4.5340 M 74.0554,260.7053 h 4.5340 M 74.0554,247.8246 h 4.5340 M 74.0554,234.9439 h 4.5340 M 74.0554,222.0632 h 4.5340 M 74.0554,209.1825 h 4.5340 M 74.0554,196.3018 h 4.5340 M 74.0554,183.4211 h 4.5340 M 74.0554,170.5404 h 4.5340 M 74.0554,157.6597 h 4.5340 M 74.0554,144.7790 h 4.5340 M 74.0554,131.8983 h 4.5340 M 74.0554,119.0176 h 4.5340 M 74.0554,106.1369 h 4.5340 M 74.0554,93.2562 h 4.5340 "/></g><g stroke-width="0.4"><path d="M 71.0327,544.0806 h 7.5567 M 71.0327,492.5578 h 7.5567 M 71.0327,441.0350 h 7.5567 M 71.0327,389.5123 h 7.5567 M 71.0327,337.9895 h 7.5567 M 71.0327,286.4667 h 7.5567 M 71.0327,234.9439 h 7.5567 M 71.0327,183.4211 h 7.5567 M 71.0327,131.8983 h 7.5567 "/></g><g fill-opacity="1.0" font-size="11.0px" fill="rgb(0,0,0)"><text dominant-baseline="middle" transform="matrix(1.0000,0.0000,0.0000,1.0000,60.4534,131.8983)" stroke="none" text-anchor="end">0.2</text></g><g fill-opacity="1.0" font-size="11.0px" fill="rgb(0,0,0)"><text dominant-baseline="middle" transform="matrix(1.0000,0.0000,0.0000,1.0000,60.4534,183.4211)" stroke="none" text-anchor="end">0.175</text></g><g fill-opacity="1.0" font-size="11.0px" fill="rgb(0,0,0)"><text dominant-baseline="middle" transform="matrix(1.0000,0.0000,0.0000,1.0000,60.4534,234.9439)" stroke="none" text-anchor="end">0.15</text></g><g fill-opacity="1.0" font-size="11.0px" fill="rgb(0,0,0)"><text dominant-baseline="middle" transform="matrix(1.0000,0.0000,0.0000,1.0000,60.4534,286.4667)" stroke="none" text-anchor="end">0.125</text></g><g fill-opacity="1.0" font-size="11.0px" fill="rgb(0,0,0)"><text dominant-baseline="middle" transform="matrix(1.0000,0.0000,0.0000,1.0000,60.4534,337.9895)" stroke="none" text-anchor="end">0.1</text></g><g fill-opacity="1.0" font-size="11.0px" fill="rgb(0,0,0)"><text dominant-baseline="middle" transform="matrix(1.0000,0.0000,0.0000,1.0000,60.4534,389.5123)" stroke="none" text-anchor="end">7.5e-2</text></g><g fill-opacity="1.0" font-size="11.0px" fill="rgb(0,0,0)"><text dominant-baseline="middle" transform="matrix(1.0000,0.0000,0.0000,1.0000,60.4534,441.0350)" stroke="none" text-anchor="end">5.0e-2</text></g><g fill-opacity="1.0" font-size="11.0px" fill="rgb(0,0,0)"><text dominant-baseline="middle" transform="matrix(1.0000,0.0000,0.0000,1.0000,60.4534,492.5578)" stroke="none" text-anchor="end">2.5e-2</text></g><g fill-opacity="1.0" font-size="11.0px" fill="rgb(0,0,0)"><text dominant-baseline="middle" transform="matrix(1.0000,0.0000,0.0000,1.0000,60.4534,544.0806)" stroke="none" text-anchor="end">0.0</text></g><g stroke-width="0.1"><path d="M 106.9270,544.0806 v -453.4005 M 201.3854,544.0806 v -453.4005 M 295.8438,544.0806 v -453.4005 M 390.3023,544.0806 v -453.4005 M 484.7607,544.0806 v -453.4005 "/></g><g stroke-linecap="square"><path d="M 78.5894,544.0806 h 453.4005 M 78.5894,90.6801 h 453.4005 "/></g><g stroke-width="0.4"><path d="M 83.3123,90.6801 v -4.5340 M 130.5416,90.6801 v -4.5340 M 154.1562,90.6801 v -4.5340 M 177.7708,90.6801 v -4.5340 M 225.0000,90.6801 v -4.5340 M 248.6146,90.6801 v -4.5340 M 272.2292,90.6801 v -4.5340 M 319.4584,90.6801 v -4.5340 M 343.0730,90.6801 v -4.5340 M 366.6877,90.6801 v -4.5340 M 413.9169,90.6801 v -4.5340 M 437.5315,90.6801 v -4.5340 M 461.1461,90.6801 v -4.5340 M 508.3753,90.6801 v -4.5340 "/></g><g stroke-width="0.4"><path d="M 106.9270,90.6801 v -7.5567 M 201.3854,90.6801 v -7.5567 M 295.8438,90.6801 v -7.5567 M 390.3023,90.6801 v -7.5567 M 484.7607,90.6801 v -7.5567 "/></g><g stroke-width="0.4"><path d="M 83.3123,548.6146 v -4.5340 M 130.5416,548.6146 v -4.5340 M 154.1562,548.6146 v -4.5340 M 177.7708,548.6146 v -4.5340 M 225.0000,548.6146 v -4.5340 M 248.6146,548.6146 v -4.5340 M 272.2292,548.6146 v -4.5340 M 319.4584,548.6146 v -4.5340 M 343.0730,548.6146 v -4.5340 M 366.6877,548.6146 v -4.5340 M 413.9169,548.6146 v -4.5340 M 437.5315,548.6146 v -4.5340 M 461.1461,548.6146 v -4.5340 M 508.3753,548.6146 v -4.5340 "/></g><g stroke-width="0.4"><path d="M 106.9270,551.6373 v -7.5567 M 201.3854,551.6373 v -7.5567 M 295.8438,551.6373 v -7.5567 M 390.3023,551.6373 v -7.5567 M 484.7607,551.6373 v -7.5567 "/></g><g fill-opacity="1.0" font-size="11.0px" fill="rgb(0,0,0)"><text dominant-baseline="text-before-edge" transform="matrix(1.0000,0.0000,0.0000,1.0000,484.7607,562.2166)" stroke="none" text-anchor="middle">8.0</text></g><g fill-opacity="1.0" font-size="11.0px" fill="rgb(0,0,0)"><text dominant-baseline="text-before-edge" transform="matrix(1.0000,0.0000,0.0000,1.0000,390.3023,562.2166)" stroke="none" text-anchor="middle">7.0</text></g><g fill-opacity="1.0" font-size="11.0px" fill="rgb(0,0,0)"><text dominant-baseline="text-before-edge" transform="matrix(1.0000,0.0000,0.0000,1.0000,295.8438,562.2166)" stroke="none" text-anchor="middle">6.0</text></g><g fill-opacity="1.0" font-size="11.0px" fill="rgb(0,0,0)"><text dominant-baseline="text-before-edge" transform="matrix(1.0000,0.0000,0.0000,1.0000,201.3854,562.2166)" stroke="none" text-anchor="middle">5.0</text></g><g fill-opacity="1.0" font-size="11.0px" fill="rgb(0,0,0)"><text dominant-baseline="text-before-edge" transform="matrix(1.0000,0.0000,0.0000,1.0000,106.9270,562.2166)" stroke="none" text-anchor="middle">4.0</text></g><g fill-opacity="1.0" font-size="16.0px" fill="rgb(0,0,0)"><text dominant-baseline="text-after-edge" transform="matrix(1.0000,0.0000,0.0000,1.0000,305.2897,60.4534)" stroke="none" text-anchor="middle"></text></g></svg>