<svg xmlns="http://www.w3.org/2000/svg" height="74.5984" stroke-opacity="1" viewBox="0 0 600 75" font-size="1" width="600.0000" xmlns:xlink="http://www.w3.org/1999/xlink" stroke="rgb(0,0,0)" version="1.1"><defs></defs><g stroke-opacity="1.0" stroke="rgb(153,153,153)" stroke-width="3.0"><path d="M 549.0031,37.2992 h 23.5565 "/></g><g stroke-opacity="1.0" fill-opacity="1.0" stroke="rgb(153,153,153)" stroke-width="1.0" fill="rgb(167,167,167)"><path d="M 551.3587,28.2678 l 9.4226,-28.2678 l 9.4226,28.2678 l 29.7961,0.2262 l -23.9726,17.6967 l 8.9924,28.4076 l -24.2385,-17.3307 l -24.2385,17.3307 l 8.9924,-28.4076 l -23.9726,-17.6967 Z"/></g><g stroke-opacity="1.0" stroke="rgb(247,129,191)" stroke-width="3.0"><path d="M 469.7383,37.2992 h 23.5565 "/></g><g stroke-opacity="1.0" fill-opacity="1.0" stroke="rgb(247,129,191)" stroke-width="1.0" fill="rgb(248,148,199)"><path d="M 493.2948,25.5209 l -0.0000,-23.5565 h -23.5565 l -0.0000,23.5565 l -23.5565,0.0000 l -0.0000,23.5565 l 23.5565,0.0000 l -0.0000,23.5565 l 23.5565,0.0000 l 0.0000,-23.5565 l 23.5565,0.0000 l 0.0000,-23.5565 Z"/></g><g stroke-opacity="1.0" stroke="rgb(166,86,40)" stroke-width="3.0"><path d="M 396.3782,37.2992 h 23.5565 "/></g><g stroke-opacity="1.0" fill-opacity="1.0" stroke="rgb(166,86,40)" stroke-width="1.0" fill="rgb(178,119,97)"><path d="M 408.1564,20.6422 l -16.6570,-16.6570 l -16.6570,16.6570 l 16.6570,16.6570 l -16.6570,16.6570 l 16.6570,16.6570 l 16.6570,-16.6570 l 16.6570,16.6570 l 16.6570,-16.6570 l -16.6570,-16.6570 l 16.6570,-16.6570 l -16.6570,-16.6570 Z"/></g><g stroke-opacity="1.0" stroke="rgb(255,127,0)" stroke-width="3.0"><path d="M 324.0491,37.2992 h 23.5565 "/></g><g stroke-opacity="1.0" fill-opacity="1.0" stroke="rgb(255,127,0)" stroke-width="1.0" fill="rgb(255,147,89)"><path d="M 357.0283,69.9240 l 13.1029,-40.3265 l -34.3037,-24.9231 l -34.3037,24.9231 l 13.1029,40.3265 Z"/></g><g stroke-opacity="1.0" stroke="rgb(152,78,163)" stroke-width="3.0"><path d="M 249.6993,37.2992 h 23.5565 "/></g><g stroke-opacity="1.0" fill-opacity="1.0" stroke="rgb(152,78,163)" stroke-width="1.0" fill="rgb(166,114,175)"><path d="M 296.8124,37.2992 l -35.3348,-35.3348 l -35.3348,35.3348 l 35.3348,35.3348 Z"/></g><g stroke-opacity="1.0" stroke="rgb(77,175,74)" stroke-width="3.0"><path d="M 174.3184,37.2992 h 23.5565 "/></g><g stroke-opacity="1.0" fill-opacity="1.0" stroke="rgb(77,175,74)" stroke-width="1.0" fill="rgb(114,185,112)"><path d="M 221.4314,67.9000 l -35.3348,-61.2017 l -35.3348,61.2017 Z"/></g><g stroke-opacity="1.0" stroke="rgb(55,126,184)" stroke-width="3.0"><path d="M 98.9375,37.2992 h 23.5565 "/></g><g stroke-opacity="1.0" fill-opacity="1.0" stroke="rgb(55,126,184)" stroke-width="1.0" fill="rgb(103,146,193)"><path d="M 146.0505,72.6340 l -0.0000,-70.6696 h -70.6696 l -0.0000,70.6696 Z"/></g><g stroke-opacity="1.0" stroke="rgb(228,26,28)" stroke-width="3.0"><path d="M 23.5565,37.2992 h 23.5565 "/></g><g stroke-opacity="1.0" fill-opacity="1.0" stroke="rgb(228,26,28)" stroke-width="1.0" fill="rgb(231,93,93)"><path d="M 70.6696,37.2992 c 0.0000,-19.5149 -15.8199,-35.3348 -35.3348 -35.3348c -19.5149,-0.0000 -35.3348,15.8199 -35.3348 35.3348c -0.0000,19.5149 15.8199,35.3348 35.3348 35.3348c 19.5149,0.0000 35.3348,-15.8199 35.3348 -35.3348Z"/></g></svg>