<svg xmlns="http://www.w3.org/2000/svg" height="600.0000" stroke-opacity="1" viewBox="0 0 600 600" font-size="1" width="600.0000" xmlns:xlink="http://www.w3.org/1999/xlink" stroke="rgb(0,0,0)" version="1.1"><defs></defs><g stroke-opacity="1.0" fill-opacity="1.0" stroke="rgb(228,26,28)" stroke-width="1.0" fill="rgb(231,93,93)"><path d="M 449.7555,521.4106 h 44.4510 v -103.0456 h -44.4510 Z"/></g><g stroke-opacity="1.0" fill-opacity="1.0" stroke="rgb(228,26,28)" stroke-width="1.0" fill="rgb(231,93,93)"><path d="M 338.6279,521.4106 h 44.4510 v -309.1367 h -44.4510 Z"/></g><g stroke-opacity="1.0" fill-opacity="1.0" stroke="rgb(228,26,28)" stroke-width="1.0" fill="rgb(231,93,93)"><path d="M 227.5004,521.4106 h 44.4510 v -171.7426 h -44.4510 Z"/></g><g stroke-opacity="1.0" fill-opacity="1.0" stroke="rgb(228,26,28)" stroke-width="1.0" fill="rgb(231,93,93)"><path d="M 116.3728,521.4106 h 44.4510 v -412.1823 h -44.4510 Z"/></g><g stroke-width="0.1"><path d="M 78.5894,521.4106 h 453.4005 M 78.5894,452.7135 h 453.4005 M 78.5894,384.0165 h 453.4005 M 78.5894,315.3194 h 453.4005 M 78.5894,246.6224 h 453.4005 M 78.5894,177.9253 h 453.4005 M 78.5894,109.2283 h 453.4005 "/></g><g stroke-linecap="square"><path d="M 78.5894,521.4106 v -453.4005 M 531.9899,521.4106 v -453.4005 "/></g><g stroke-width="0.4"><path d="M 531.9899,504.2363 h 4.5340 M 531.9899,487.0621 h 4.5340 M 531.9899,469.8878 h 4.5340 M 531.9899,435.5393 h 4.5340 M 531.9899,418.3650 h 4.5340 M 531.9899,401.1907 h 4.5340 M 531.9899,366.8422 h 4.5340 M 531.9899,349.6680 h 4.5340 M 531.9899,332.4937 h 4.5340 M 531.9899,298.1452 h 4.5340 M 531.9899,280.9709 h 4.5340 M 531.9899,263.7967 h 4.5340 M 531.9899,229.4481 h 4.5340 M 531.9899,212.2739 h 4.5340 M 531.9899,195.0996 h 4.5340 M 531.9899,160.7511 h 4.5340 M 531.9899,143.5768 h 4.5340 M 531.9899,126.4026 h 4.5340 M 531.9899,92.0540 h 4.5340 M 531.9899,74.8798 h 4.5340 "/></g><g stroke-width="0.4"><path d="M 531.9899,521.4106 h 7.5567 M 531.9899,452.7135 h 7.5567 M 531.9899,384.0165 h 7.5567 M 531.9899,315.3194 h 7.5567 M 531.9899,246.6224 h 7.5567 M 531.9899,177.9253 h 7.5567 M 531.9899,109.2283 h 7.5567 "/></g><g stroke-width="0.4"><path d="M 74.0554,504.2363 h 4.5340 M 74.0554,487.0621 h 4.5340 M 74.0554,469.8878 h 4.5340 M 74.0554,435.5393 h 4.5340 M 74.0554,418.3650 h 4.5340 M 74.0554,401.1907 h 4.5340 M 74.0554,366.8422 h 4.5340 M 74.0554,349.6680 h 4.5340 M 74.0554,332.4937 h 4.5340 M 74.0554,298.1452 h 4.5340 M 74.0554,280.9709 h 4.5340 M 74.0554,263.7967 h 4.5340 M 74.0554,229.4481 h 4.5340 M 74.0554,212.2739 h 4.5340 M 74.0554,195.0996 h 4.5340 M 74.0554,160.7511 h 4.5340 M 74.0554,143.5768 h 4.5340 M 74.0554,126.4026 h 4.5340 M 74.0554,92.0540 h 4.5340 M 74.0554,74.8798 h 4.5340 "/></g><g stroke-width="0.4"><path d="M 71.0327,521.4106 h 7.5567 M 71.0327,452.7135 h 7.5567 M 71.0327,384.0165 h 7.5567 M 71.0327,315.3194 h 7.5567 M 71.0327,246.6224 h 7.5567 M 71.0327,177.9253 h 7.5567 M 71.0327,109.2283 h 7.5567 "/></g><g fill-opacity="1.0" font-size="11.0px" fill="rgb(0,0,0)"><text dominant-baseline="middle" transform="matrix(1.0000,0.0000,0.0000,1.0000,60.4534,109.2283)" stroke="none" text-anchor="end">12.0</text></g><g fill-opacity="1.0" font-size="11.0px" fill="rgb(0,0,0)"><text dominant-baseline="middle" transform="matrix(1.0000,0.0000,0.0000,1.0000,60.4534,177.9253)" stroke="none" text-anchor="end">10.0</text></g><g fill-opacity="1.0" font-size="11.0px" fill="rgb(0,0,0)"><text dominant-baseline="middle" transform="matrix(1.0000,0.0000,0.0000,1.0000,60.4534,246.6224)" stroke="none" text-anchor="end">8.0</text></g><g fill-opacity="1.0" font-size="11.0px" fill="rgb(0,0,0)"><text dominant-baseline="middle" transform="matrix(1.0000,0.0000,0.0000,1.0000,60.4534,315.3194)" stroke="none" text-anchor="end">6.0</text></g><g fill-opacity="1.0" font-size="11.0px" fill="rgb(0,0,0)"><text dominant-baseline="middle" transform="matrix(1.0000,0.0000,0.0000,1.0000,60.4534,384.0165)" stroke="none" text-anchor="end">4.0</text></g><g fill-opacity="1.0" font-size="11.0px" fill="rgb(0,0,0)"><text dominant-baseline="middle" transform="matrix(1.0000,0.0000,0.0000,1.0000,60.4534,452.7135)" stroke="none" text-anchor="end">2.0</text></g><g fill-opacity="1.0" font-size="11.0px" fill="rgb(0,0,0)"><text dominant-baseline="middle" transform="matrix(1.0000,0.0000,0.0000,1.0000,60.4534,521.4106)" stroke="none" text-anchor="end">0.0</text></g><g stroke-width="0.1"><path d="M 138.5983,521.4106 v -453.4005 M 249.7259,521.4106 v -453.4005 M 360.8535,521.4106 v -453.4005 M 471.9810,521.4106 v -453.4005 "/></g><g stroke-linecap="square"><path d="M 78.5894,521.4106 h 453.4005 M 78.5894,68.0101 h 453.4005 "/></g><g stroke-width="0.4"><path d="M 138.5983,68.0101 v -7.5567 M 249.7259,68.0101 v -7.5567 M 360.8535,68.0101 v -7.5567 M 471.9810,68.0101 v -7.5567 "/></g><g stroke-width="0.4"><path d="M 138.5983,528.9673 v -7.5567 M 249.7259,528.9673 v -7.5567 M 360.8535,528.9673 v -7.5567 M 471.9810,528.9673 v -7.5567 "/></g><g fill-opacity="1.0" font-size="11.0px" fill="rgb(0,0,0)"><text dominant-baseline="text-before-edge" transform="matrix(1.0000,0.0000,0.0000,1.0000,471.9810,539.5466)" stroke="none" text-anchor="middle">beans</text></g><g fill-opacity="1.0" font-size="11.0px" fill="rgb(0,0,0)"><text dominant-baseline="text-before-edge" transform="matrix(1.0000,0.0000,0.0000,1.0000,360.8535,539.5466)" stroke="none" text-anchor="middle">sausage</text></g><g fill-opacity="1.0" font-size="11.0px" fill="rgb(0,0,0)"><text dominant-baseline="text-before-edge" transform="matrix(1.0000,0.0000,0.0000,1.0000,249.7259,539.5466)" stroke="none" text-anchor="middle">bacon</text></g><g fill-opacity="1.0" font-size="11.0px" fill="rgb(0,0,0)"><text dominant-baseline="text-before-edge" transform="matrix(1.0000,0.0000,0.0000,1.0000,138.5983,539.5466)" stroke="none" text-anchor="middle">eggs</text></g></svg>