<svg xmlns="http://www.w3.org/2000/svg" height="600.0000" stroke-opacity="1" viewBox="0 0 600 600" font-size="1" width="600.0000" xmlns:xlink="http://www.w3.org/1999/xlink" stroke="rgb(0,0,0)" version="1.1"><defs></defs><g stroke-opacity="1.0" fill-opacity="1.0" stroke="rgb(228,26,28)" stroke-width="1.0" fill="rgb(231,93,93)"><path d="M 116.3728,184.1705 v -74.9422 h 94.4584 v 74.9422 Z"/></g><g stroke-opacity="1.0" fill-opacity="1.0" stroke="rgb(228,26,28)" stroke-width="1.0" fill="rgb(231,93,93)"><path d="M 116.3728,277.8483 v -74.9422 h 283.3753 v 74.9422 Z"/></g><g stroke-opacity="1.0" fill-opacity="1.0" stroke="rgb(228,26,28)" stroke-width="1.0" fill="rgb(231,93,93)"><path d="M 116.3728,371.5261 v -74.9422 h 157.4307 v 74.9422 Z"/></g><g stroke-opacity="1.0" fill-opacity="1.0" stroke="rgb(228,26,28)" stroke-width="1.0" fill="rgb(231,93,93)"><path d="M 116.3728,465.2039 v -74.9422 h 377.8338 v 74.9422 Z"/></g><g stroke-width="0.1"><path d="M 78.5894,427.7328 h 453.4005 M 78.5894,334.0550 h 453.4005 M 78.5894,240.3772 h 453.4005 M 78.5894,146.6994 h 453.4005 "/></g><g stroke-linecap="square"><path d="M 78.5894,521.4106 v -453.4005 M 531.9899,521.4106 v -453.4005 "/></g><g stroke-width="0.4"><path d="M 531.9899,427.7328 h 7.5567 M 531.9899,334.0550 h 7.5567 M 531.9899,240.3772 h 7.5567 M 531.9899,146.6994 h 7.5567 "/></g><g stroke-width="0.4"><path d="M 71.0327,427.7328 h 7.5567 M 71.0327,334.0550 h 7.5567 M 71.0327,240.3772 h 7.5567 M 71.0327,146.6994 h 7.5567 "/></g><g fill-opacity="1.0" font-size="11.0px" fill="rgb(0,0,0)"><text dominant-baseline="middle" transform="matrix(1.0000,0.0000,0.0000,1.0000,60.4534,146.6994)" stroke="none" text-anchor="end">beans</text></g><g fill-opacity="1.0" font-size="11.0px" fill="rgb(0,0,0)"><text dominant-baseline="middle" transform="matrix(1.0000,0.0000,0.0000,1.0000,60.4534,240.3772)" stroke="none" text-anchor="end">sausage</text></g><g fill-opacity="1.0" font-size="11.0px" fill="rgb(0,0,0)"><text dominant-baseline="middle" transform="matrix(1.0000,0.0000,0.0000,1.0000,60.4534,334.0550)" stroke="none" text-anchor="end">bacon</text></g><g fill-opacity="1.0" font-size="11.0px" fill="rgb(0,0,0)"><text dominant-baseline="middle" transform="matrix(1.0000,0.0000,0.0000,1.0000,60.4534,427.7328)" stroke="none" text-anchor="end">eggs</text></g><g stroke-width="0.1"><path d="M 116.3728,521.4106 v -453.4005 M 195.0882,521.4106 v -453.4005 M 273.8035,521.4106 v -453.4005 M 352.5189,521.4106 v -453.4005 M 431.2343,521.4106 v -453.4005 M 509.9496,521.4106 v -453.4005 "/></g><g stroke-linecap="square"><path d="M 78.5894,521.4106 h 453.4005 M 78.5894,68.0101 h 453.4005 "/></g><g stroke-width="0.4"><path d="M 96.6940,68.0101 v -4.5340 M 136.0516,68.0101 v -4.5340 M 155.7305,68.0101 v -4.5340 M 175.4093,68.0101 v -4.5340 M 214.7670,68.0101 v -4.5340 M 234.4458,68.0101 v -4.5340 M 254.1247,68.0101 v -4.5340 M 293.4824,68.0101 v -4.5340 M 313.1612,68.0101 v -4.5340 M 332.8401,68.0101 v -4.5340 M 372.1977,68.0101 v -4.5340 M 391.8766,68.0101 v -4.5340 M 411.5554,68.0101 v -4.5340 M 450.9131,68.0101 v -4.5340 M 470.5919,68.0101 v -4.5340 M 490.2708,68.0101 v -4.5340 M 529.6285,68.0101 v -4.5340 "/></g><g stroke-width="0.4"><path d="M 116.3728,68.0101 v -7.5567 M 195.0882,68.0101 v -7.5567 M 273.8035,68.0101 v -7.5567 M 352.5189,68.0101 v -7.5567 M 431.2343,68.0101 v -7.5567 M 509.9496,68.0101 v -7.5567 "/></g><g stroke-width="0.4"><path d="M 96.6940,525.9446 v -4.5340 M 136.0516,525.9446 v -4.5340 M 155.7305,525.9446 v -4.5340 M 175.4093,525.9446 v -4.5340 M 214.7670,525.9446 v -4.5340 M 234.4458,525.9446 v -4.5340 M 254.1247,525.9446 v -4.5340 M 293.4824,525.9446 v -4.5340 M 313.1612,525.9446 v -4.5340 M 332.8401,525.9446 v -4.5340 M 372.1977,525.9446 v -4.5340 M 391.8766,525.9446 v -4.5340 M 411.5554,525.9446 v -4.5340 M 450.9131,525.9446 v -4.5340 M 470.5919,525.9446 v -4.5340 M 490.2708,525.9446 v -4.5340 M 529.6285,525.9446 v -4.5340 "/></g><g stroke-width="0.4"><path d="M 116.3728,528.9673 v -7.5567 M 195.0882,528.9673 v -7.5567 M 273.8035,528.9673 v -7.5567 M 352.5189,528.9673 v -7.5567 M 431.2343,528.9673 v -7.5567 M 509.9496,528.9673 v -7.5567 "/></g><g fill-opacity="1.0" font-size="11.0px" fill="rgb(0,0,0)"><text dominant-baseline="text-before-edge" transform="matrix(1.0000,0.0000,0.0000,1.0000,509.9496,539.5466)" stroke="none" text-anchor="middle">12.5</text></g><g fill-opacity="1.0" font-size="11.0px" fill="rgb(0,0,0)"><text dominant-baseline="text-before-edge" transform="matrix(1.0000,0.0000,0.0000,1.0000,431.2343,539.5466)" stroke="none" text-anchor="middle">10.0</text></g><g fill-opacity="1.0" font-size="11.0px" fill="rgb(0,0,0)"><text dominant-baseline="text-before-edge" transform="matrix(1.0000,0.0000,0.0000,1.0000,352.5189,539.5466)" stroke="none" text-anchor="middle">7.5</text></g><g fill-opacity="1.0" font-size="11.0px" fill="rgb(0,0,0)"><text dominant-baseline="text-before-edge" transform="matrix(1.0000,0.0000,0.0000,1.0000,273.8035,539.5466)" stroke="none" text-anchor="middle">5.0</text></g><g fill-opacity="1.0" font-size="11.0px" fill="rgb(0,0,0)"><text dominant-baseline="text-before-edge" transform="matrix(1.0000,0.0000,0.0000,1.0000,195.0882,539.5466)" stroke="none" text-anchor="middle">2.5</text></g><g fill-opacity="1.0" font-size="11.0px" fill="rgb(0,0,0)"><text dominant-baseline="text-before-edge" transform="matrix(1.0000,0.0000,0.0000,1.0000,116.3728,539.5466)" stroke="none" text-anchor="middle">0.0</text></g></svg>