<svg xmlns="http://www.w3.org/2000/svg" height="499.3939" stroke-opacity="1" viewBox="0 0 600 499" font-size="1" width="600.0000" xmlns:xlink="http://www.w3.org/1999/xlink" stroke="rgb(0,0,0)" version="1.1"><defs></defs><g stroke-opacity="1.0" fill-opacity="1.0" stroke="rgb(77,175,74)" stroke-width="1.0" fill="rgb(114,185,112)"><path d="M 515.7576,198.7933 l -0.6061,-1.0497 l -0.6061,1.0497 Z"/></g><g stroke-opacity="1.0" fill-opacity="1.0" stroke="rgb(77,175,74)" stroke-width="1.0" fill="rgb(114,185,112)"><path d="M 485.4545,406.5855 l -0.6061,-1.0497 l -0.6061,1.0497 Z"/></g><g stroke-opacity="1.0" fill-opacity="1.0" stroke="rgb(77,175,74)" stroke-width="1.0" fill="rgb(114,185,112)"><path d="M 364.2424,190.1353 l -0.6061,-1.0497 l -0.6061,1.0497 Z"/></g><g stroke-opacity="1.0" fill-opacity="1.0" stroke="rgb(77,175,74)" stroke-width="1.0" fill="rgb(114,185,112)"><path d="M 283.4343,397.9275 l -0.6061,-1.0497 l -0.6061,1.0497 Z"/></g><g stroke-opacity="1.0" fill-opacity="1.0" stroke="rgb(55,126,184)" stroke-width="1.0" fill="rgb(103,146,193)"><path d="M 338.9899,103.6364 l -0.0000,-1.2121 h -1.2121 l -0.0000,1.2121 Z"/></g><g stroke-opacity="1.0" fill-opacity="1.0" stroke="rgb(55,126,184)" stroke-width="1.0" fill="rgb(103,146,193)"><path d="M 323.8384,112.2944 l -0.0000,-1.2121 h -1.2121 l -0.0000,1.2121 Z"/></g><g stroke-opacity="1.0" fill-opacity="1.0" stroke="rgb(55,126,184)" stroke-width="1.0" fill="rgb(103,146,193)"><path d="M 263.2323,155.5844 l -0.0000,-1.2121 h -1.2121 l -0.0000,1.2121 Z"/></g><g stroke-opacity="1.0" fill-opacity="1.0" stroke="rgb(55,126,184)" stroke-width="1.0" fill="rgb(103,146,193)"><path d="M 212.7273,372.0346 l -0.0000,-1.2121 h -1.2121 l -0.0000,1.2121 Z"/></g><g stroke-opacity="1.0" fill-opacity="1.0" stroke="rgb(228,26,28)" stroke-width="1.0" fill="rgb(231,93,93)"><path d="M 515.7576,103.0303 c 0.0000,-0.3347 -0.2713,-0.6061 -0.6061 -0.6061c -0.3347,-0.0000 -0.6061,0.2713 -0.6061 0.6061c -0.0000,0.3347 0.2713,0.6061 0.6061 0.6061c 0.3347,0.0000 0.6061,-0.2713 0.6061 -0.6061Z"/></g><g stroke-opacity="1.0" fill-opacity="1.0" stroke="rgb(228,26,28)" stroke-width="1.0" fill="rgb(231,93,93)"><path d="M 485.4545,111.6883 c 0.0000,-0.3347 -0.2713,-0.6061 -0.6061 -0.6061c -0.3347,-0.0000 -0.6061,0.2713 -0.6061 0.6061c -0.0000,0.3347 0.2713,0.6061 0.6061 0.6061c 0.3347,0.0000 0.6061,-0.2713 0.6061 -0.6061Z"/></g><g stroke-opacity="1.0" fill-opacity="1.0" stroke="rgb(228,26,28)" stroke-width="1.0" fill="rgb(231,93,93)"><path d="M 364.2424,154.9784 c 0.0000,-0.3347 -0.2713,-0.6061 -0.6061 -0.6061c -0.3347,-0.0000 -0.6061,0.2713 -0.6061 0.6061c -0.0000,0.3347 0.2713,0.6061 0.6061 0.6061c 0.3347,0.0000 0.6061,-0.2713 0.6061 -0.6061Z"/></g><g stroke-opacity="1.0" fill-opacity="1.0" stroke="rgb(228,26,28)" stroke-width="1.0" fill="rgb(231,93,93)"><path d="M 263.2323,371.4286 c 0.0000,-0.3347 -0.2713,-0.6061 -0.6061 -0.6061c -0.3347,-0.0000 -0.6061,0.2713 -0.6061 0.6061c -0.0000,0.3347 0.2713,0.6061 0.6061 0.6061c 0.3347,0.0000 0.6061,-0.2713 0.6061 -0.6061Z"/></g><g stroke-width="0.1"><path d="M 181.8182,414.7186 h 363.6364 M 181.8182,371.4286 h 363.6364 M 181.8182,328.1385 h 363.6364 M 181.8182,284.8485 h 363.6364 M 181.8182,241.5584 h 363.6364 M 181.8182,198.2684 h 363.6364 M 181.8182,154.9784 h 363.6364 M 181.8182,111.6883 h 363.6364 "/></g><g stroke-linecap="square"><path d="M 181.8182,436.3636 v -363.6364 M 545.4545,436.3636 v -363.6364 "/></g><g stroke-width="0.4"><path d="M 545.4545,425.5411 h 3.6364 M 545.4545,403.8961 h 3.6364 M 545.4545,393.0736 h 3.6364 M 545.4545,382.2511 h 3.6364 M 545.4545,360.6061 h 3.6364 M 545.4545,349.7835 h 3.6364 M 545.4545,338.9610 h 3.6364 M 545.4545,317.3160 h 3.6364 M 545.4545,306.4935 h 3.6364 M 545.4545,295.6710 h 3.6364 M 545.4545,274.0260 h 3.6364 M 545.4545,263.2035 h 3.6364 M 545.4545,252.3810 h 3.6364 M 545.4545,230.7359 h 3.6364 M 545.4545,219.9134 h 3.6364 M 545.4545,209.0909 h 3.6364 M 545.4545,187.4459 h 3.6364 M 545.4545,176.6234 h 3.6364 M 545.4545,165.8009 h 3.6364 M 545.4545,144.1558 h 3.6364 M 545.4545,133.3333 h 3.6364 M 545.4545,122.5108 h 3.6364 M 545.4545,100.8658 h 3.6364 M 545.4545,90.0433 h 3.6364 M 545.4545,79.2208 h 3.6364 "/></g><g stroke-width="0.4"><path d="M 545.4545,414.7186 h 6.0606 M 545.4545,371.4286 h 6.0606 M 545.4545,328.1385 h 6.0606 M 545.4545,284.8485 h 6.0606 M 545.4545,241.5584 h 6.0606 M 545.4545,198.2684 h 6.0606 M 545.4545,154.9784 h 6.0606 M 545.4545,111.6883 h 6.0606 "/></g><g stroke-width="0.4"><path d="M 178.1818,425.5411 h 3.6364 M 178.1818,403.8961 h 3.6364 M 178.1818,393.0736 h 3.6364 M 178.1818,382.2511 h 3.6364 M 178.1818,360.6061 h 3.6364 M 178.1818,349.7835 h 3.6364 M 178.1818,338.9610 h 3.6364 M 178.1818,317.3160 h 3.6364 M 178.1818,306.4935 h 3.6364 M 178.1818,295.6710 h 3.6364 M 178.1818,274.0260 h 3.6364 M 178.1818,263.2035 h 3.6364 M 178.1818,252.3810 h 3.6364 M 178.1818,230.7359 h 3.6364 M 178.1818,219.9134 h 3.6364 M 178.1818,209.0909 h 3.6364 M 178.1818,187.4459 h 3.6364 M 178.1818,176.6234 h 3.6364 M 178.1818,165.8009 h 3.6364 M 178.1818,144.1558 h 3.6364 M 178.1818,133.3333 h 3.6364 M 178.1818,122.5108 h 3.6364 M 178.1818,100.8658 h 3.6364 M 178.1818,90.0433 h 3.6364 M 178.1818,79.2208 h 3.6364 "/></g><g stroke-width="0.4"><path d="M 175.7576,414.7186 h 6.0606 M 175.7576,371.4286 h 6.0606 M 175.7576,328.1385 h 6.0606 M 175.7576,284.8485 h 6.0606 M 175.7576,241.5584 h 6.0606 M 175.7576,198.2684 h 6.0606 M 175.7576,154.9784 h 6.0606 M 175.7576,111.6883 h 6.0606 "/></g><g fill-opacity="1.0" font-size="11.0px" fill="rgb(0,0,0)"><text dominant-baseline="middle" transform="matrix(1.0000,0.0000,0.0000,1.0000,167.2727,111.6883)" stroke="none" text-anchor="end">6.0</text></g><g fill-opacity="1.0" font-size="11.0px" fill="rgb(0,0,0)"><text dominant-baseline="middle" transform="matrix(1.0000,0.0000,0.0000,1.0000,167.2727,154.9784)" stroke="none" text-anchor="end">5.5</text></g><g fill-opacity="1.0" font-size="11.0px" fill="rgb(0,0,0)"><text dominant-baseline="middle" transform="matrix(1.0000,0.0000,0.0000,1.0000,167.2727,198.2684)" stroke="none" text-anchor="end">5.0</text></g><g fill-opacity="1.0" font-size="11.0px" fill="rgb(0,0,0)"><text dominant-baseline="middle" transform="matrix(1.0000,0.0000,0.0000,1.0000,167.2727,241.5584)" stroke="none" text-anchor="end">4.5</text></g><g fill-opacity="1.0" font-size="11.0px" fill="rgb(0,0,0)"><text dominant-baseline="middle" transform="matrix(1.0000,0.0000,0.0000,1.0000,167.2727,284.8485)" stroke="none" text-anchor="end">4.0</text></g><g fill-opacity="1.0" font-size="11.0px" fill="rgb(0,0,0)"><text dominant-baseline="middle" transform="matrix(1.0000,0.0000,0.0000,1.0000,167.2727,328.1385)" stroke="none" text-anchor="end">3.5</text></g><g fill-opacity="1.0" font-size="11.0px" fill="rgb(0,0,0)"><text dominant-baseline="middle" transform="matrix(1.0000,0.0000,0.0000,1.0000,167.2727,371.4286)" stroke="none" text-anchor="end">3.0</text></g><g fill-opacity="1.0" font-size="11.0px" fill="rgb(0,0,0)"><text dominant-baseline="middle" transform="matrix(1.0000,0.0000,0.0000,1.0000,167.2727,414.7186)" stroke="none" text-anchor="end">2.5</text></g><g stroke-width="0.1"><path d="M 212.1212,436.3636 v -363.6364 M 262.6263,436.3636 v -363.6364 M 313.1313,436.3636 v -363.6364 M 363.6364,436.3636 v -363.6364 M 414.1414,436.3636 v -363.6364 M 464.6465,436.3636 v -363.6364 M 515.1515,436.3636 v -363.6364 "/></g><g stroke-linecap="square"><path d="M 181.8182,436.3636 h 363.6364 M 181.8182,72.7273 h 363.6364 "/></g><g stroke-width="0.4"><path d="M 186.8687,72.7273 v -3.6364 M 199.4949,72.7273 v -3.6364 M 224.7475,72.7273 v -3.6364 M 237.3737,72.7273 v -3.6364 M 250.0000,72.7273 v -3.6364 M 275.2525,72.7273 v -3.6364 M 287.8788,72.7273 v -3.6364 M 300.5051,72.7273 v -3.6364 M 325.7576,72.7273 v -3.6364 M 338.3838,72.7273 v -3.6364 M 351.0101,72.7273 v -3.6364 M 376.2626,72.7273 v -3.6364 M 388.8889,72.7273 v -3.6364 M 401.5152,72.7273 v -3.6364 M 426.7677,72.7273 v -3.6364 M 439.3939,72.7273 v -3.6364 M 452.0202,72.7273 v -3.6364 M 477.2727,72.7273 v -3.6364 M 489.8990,72.7273 v -3.6364 M 502.5253,72.7273 v -3.6364 M 527.7778,72.7273 v -3.6364 M 540.4040,72.7273 v -3.6364 "/></g><g stroke-width="0.4"><path d="M 212.1212,72.7273 v -6.0606 M 262.6263,72.7273 v -6.0606 M 313.1313,72.7273 v -6.0606 M 363.6364,72.7273 v -6.0606 M 414.1414,72.7273 v -6.0606 M 464.6465,72.7273 v -6.0606 M 515.1515,72.7273 v -6.0606 "/></g><g stroke-width="0.4"><path d="M 186.8687,440.0000 v -3.6364 M 199.4949,440.0000 v -3.6364 M 224.7475,440.0000 v -3.6364 M 237.3737,440.0000 v -3.6364 M 250.0000,440.0000 v -3.6364 M 275.2525,440.0000 v -3.6364 M 287.8788,440.0000 v -3.6364 M 300.5051,440.0000 v -3.6364 M 325.7576,440.0000 v -3.6364 M 338.3838,440.0000 v -3.6364 M 351.0101,440.0000 v -3.6364 M 376.2626,440.0000 v -3.6364 M 388.8889,440.0000 v -3.6364 M 401.5152,440.0000 v -3.6364 M 426.7677,440.0000 v -3.6364 M 439.3939,440.0000 v -3.6364 M 452.0202,440.0000 v -3.6364 M 477.2727,440.0000 v -3.6364 M 489.8990,440.0000 v -3.6364 M 502.5253,440.0000 v -3.6364 M 527.7778,440.0000 v -3.6364 M 540.4040,440.0000 v -3.6364 "/></g><g stroke-width="0.4"><path d="M 212.1212,442.4242 v -6.0606 M 262.6263,442.4242 v -6.0606 M 313.1313,442.4242 v -6.0606 M 363.6364,442.4242 v -6.0606 M 414.1414,442.4242 v -6.0606 M 464.6465,442.4242 v -6.0606 M 515.1515,442.4242 v -6.0606 "/></g><g fill-opacity="1.0" font-size="11.0px" fill="rgb(0,0,0)"><text dominant-baseline="text-before-edge" transform="matrix(1.0000,0.0000,0.0000,1.0000,515.1515,450.9091)" stroke="none" text-anchor="middle">3.5</text></g><g fill-opacity="1.0" font-size="11.0px" fill="rgb(0,0,0)"><text dominant-baseline="text-before-edge" transform="matrix(1.0000,0.0000,0.0000,1.0000,464.6465,450.9091)" stroke="none" text-anchor="middle">3.0</text></g><g fill-opacity="1.0" font-size="11.0px" fill="rgb(0,0,0)"><text dominant-baseline="text-before-edge" transform="matrix(1.0000,0.0000,0.0000,1.0000,414.1414,450.9091)" stroke="none" text-anchor="middle">2.5</text></g><g fill-opacity="1.0" font-size="11.0px" fill="rgb(0,0,0)"><text dominant-baseline="text-before-edge" transform="matrix(1.0000,0.0000,0.0000,1.0000,363.6364,450.9091)" stroke="none" text-anchor="middle">2.0</text></g><g fill-opacity="1.0" font-size="11.0px" fill="rgb(0,0,0)"><text dominant-baseline="text-before-edge" transform="matrix(1.0000,0.0000,0.0000,1.0000,313.1313,450.9091)" stroke="none" text-anchor="middle">1.5</text></g><g fill-opacity="1.0" font-size="11.0px" fill="rgb(0,0,0)"><text dominant-baseline="text-before-edge" transform="matrix(1.0000,0.0000,0.0000,1.0000,262.6263,450.9091)" stroke="none" text-anchor="middle">1.0</text></g><g fill-opacity="1.0" font-size="11.0px" fill="rgb(0,0,0)"><text dominant-baseline="text-before-edge" transform="matrix(1.0000,0.0000,0.0000,1.0000,212.1212,450.9091)" stroke="none" text-anchor="middle">0.5</text></g><g fill-opacity="1.0" font-size="16.0px" fill="rgb(0,0,0)"><text dominant-baseline="text-after-edge" transform="matrix(1.0000,0.0000,0.0000,1.0000,363.6364,48.4848)" stroke="none" text-anchor="middle"></text></g><g><path d="M 151.5152,145.4545 l -0.0000,-72.7273 h -103.0303 l -0.0000,72.7273 Z"/></g><g fill-opacity="1.0" font-size="8.0px" fill="rgb(0,0,0)"><text dominant-baseline="middle" transform="matrix(1.0000,0.0000,0.0000,1.0000,84.8485,133.3333)" stroke="none" text-anchor="start">data 3</text></g><g stroke-opacity="1.0" fill-opacity="1.0" stroke="rgb(77,175,74)" stroke-width="1.0" fill="rgb(114,185,112)"><path d="M 67.2727,133.8582 l -0.6061,-1.0497 l -0.6061,1.0497 Z"/></g><g fill-opacity="1.0" font-size="8.0px" fill="rgb(0,0,0)"><text dominant-baseline="middle" transform="matrix(1.0000,0.0000,0.0000,1.0000,84.8485,109.0909)" stroke="none" text-anchor="start">data 2</text></g><g stroke-opacity="1.0" fill-opacity="1.0" stroke="rgb(55,126,184)" stroke-width="1.0" fill="rgb(103,146,193)"><path d="M 67.2727,109.6970 l -0.0000,-1.2121 h -1.2121 l -0.0000,1.2121 Z"/></g><g fill-opacity="1.0" font-size="8.0px" fill="rgb(0,0,0)"><text dominant-baseline="middle" transform="matrix(1.0000,0.0000,0.0000,1.0000,84.8485,84.8485)" stroke="none" text-anchor="start">data 1</text></g><g stroke-opacity="1.0" fill-opacity="1.0" stroke="rgb(228,26,28)" stroke-width="1.0" fill="rgb(231,93,93)"><path d="M 67.2727,84.8485 c 0.0000,-0.3347 -0.2713,-0.6061 -0.6061 -0.6061c -0.3347,-0.0000 -0.6061,0.2713 -0.6061 0.6061c -0.0000,0.3347 0.2713,0.6061 0.6061 0.6061c 0.3347,0.0000 0.6061,-0.2713 0.6061 -0.6061Z"/></g></svg>