<svg xmlns="http://www.w3.org/2000/svg" height="499.3939" stroke-opacity="1" viewBox="0 0 600 499" font-size="1" width="600.0000" xmlns:xlink="http://www.w3.org/1999/xlink" stroke="rgb(0,0,0)" version="1.1"><defs></defs><g stroke-opacity="1.0" fill-opacity="1.0" opacity="0.5" stroke="rgb(0,0,255)" stroke-width="1.0" fill="rgb(89,89,255)"><path d="M 484.8485,406.0606 h 30.3030 v -50.5051 h -30.3030 Z"/></g><g stroke-opacity="1.0" fill-opacity="1.0" opacity="0.5" stroke="rgb(0,0,255)" stroke-width="1.0" fill="rgb(89,89,255)"><path d="M 454.5455,406.0606 h 30.3030 v -20.2020 h -30.3030 Z"/></g><g stroke-opacity="1.0" fill-opacity="1.0" opacity="0.5" stroke="rgb(0,0,255)" stroke-width="1.0" fill="rgb(89,89,255)"><path d="M 424.2424,406.0606 h 30.3030 v -101.0101 h -30.3030 Z"/></g><g stroke-opacity="1.0" fill-opacity="1.0" opacity="0.5" stroke="rgb(0,0,255)" stroke-width="1.0" fill="rgb(89,89,255)"><path d="M 393.9394,406.0606 h 30.3030 v -181.8182 h -30.3030 Z"/></g><g stroke-opacity="1.0" fill-opacity="1.0" opacity="0.5" stroke="rgb(0,0,255)" stroke-width="1.0" fill="rgb(89,89,255)"><path d="M 363.6364,406.0606 h 30.3030 v -202.0202 h -30.3030 Z"/></g><g stroke-opacity="1.0" fill-opacity="1.0" opacity="0.5" stroke="rgb(0,0,255)" stroke-width="1.0" fill="rgb(89,89,255)"><path d="M 333.3333,406.0606 h 30.3030 v -303.0303 h -30.3030 Z"/></g><g stroke-opacity="1.0" fill-opacity="1.0" opacity="0.5" stroke="rgb(0,0,255)" stroke-width="1.0" fill="rgb(89,89,255)"><path d="M 303.0303,406.0606 h 30.3030 v -202.0202 h -30.3030 Z"/></g><g stroke-opacity="1.0" fill-opacity="1.0" opacity="0.5" stroke="rgb(0,0,255)" stroke-width="1.0" fill="rgb(89,89,255)"><path d="M 272.7273,406.0606 h 30.3030 v -292.9293 h -30.3030 Z"/></g><g stroke-opacity="1.0" fill-opacity="1.0" opacity="0.5" stroke="rgb(0,0,255)" stroke-width="1.0" fill="rgb(89,89,255)"><path d="M 242.4242,406.0606 h 30.3030 v -121.2121 h -30.3030 Z"/></g><g stroke-opacity="1.0" fill-opacity="1.0" opacity="0.5" stroke="rgb(0,0,255)" stroke-width="1.0" fill="rgb(89,89,255)"><path d="M 212.1212,406.0606 h 30.3030 v -40.4040 h -30.3030 Z"/></g><g stroke-width="0.1"><path d="M 181.8182,406.0606 h 363.6364 M 181.8182,355.5556 h 363.6364 M 181.8182,305.0505 h 363.6364 M 181.8182,254.5455 h 363.6364 M 181.8182,204.0404 h 363.6364 M 181.8182,153.5354 h 363.6364 M 181.8182,103.0303 h 363.6364 "/></g><g stroke-linecap="square"><path d="M 181.8182,436.3636 v -363.6364 M 545.4545,436.3636 v -363.6364 "/></g><g stroke-width="0.4"><path d="M 545.4545,431.3131 h 3.6364 M 545.4545,418.6869 h 3.6364 M 545.4545,393.4343 h 3.6364 M 545.4545,380.8081 h 3.6364 M 545.4545,368.1818 h 3.6364 M 545.4545,342.9293 h 3.6364 M 545.4545,330.3030 h 3.6364 M 545.4545,317.6768 h 3.6364 M 545.4545,292.4242 h 3.6364 M 545.4545,279.7980 h 3.6364 M 545.4545,267.1717 h 3.6364 M 545.4545,241.9192 h 3.6364 M 545.4545,229.2929 h 3.6364 M 545.4545,216.6667 h 3.6364 M 545.4545,191.4141 h 3.6364 M 545.4545,178.7879 h 3.6364 M 545.4545,166.1616 h 3.6364 M 545.4545,140.9091 h 3.6364 M 545.4545,128.2828 h 3.6364 M 545.4545,115.6566 h 3.6364 M 545.4545,90.4040 h 3.6364 M 545.4545,77.7778 h 3.6364 "/></g><g stroke-width="0.4"><path d="M 545.4545,406.0606 h 6.0606 M 545.4545,355.5556 h 6.0606 M 545.4545,305.0505 h 6.0606 M 545.4545,254.5455 h 6.0606 M 545.4545,204.0404 h 6.0606 M 545.4545,153.5354 h 6.0606 M 545.4545,103.0303 h 6.0606 "/></g><g stroke-width="0.4"><path d="M 178.1818,431.3131 h 3.6364 M 178.1818,418.6869 h 3.6364 M 178.1818,393.4343 h 3.6364 M 178.1818,380.8081 h 3.6364 M 178.1818,368.1818 h 3.6364 M 178.1818,342.9293 h 3.6364 M 178.1818,330.3030 h 3.6364 M 178.1818,317.6768 h 3.6364 M 178.1818,292.4242 h 3.6364 M 178.1818,279.7980 h 3.6364 M 178.1818,267.1717 h 3.6364 M 178.1818,241.9192 h 3.6364 M 178.1818,229.2929 h 3.6364 M 178.1818,216.6667 h 3.6364 M 178.1818,191.4141 h 3.6364 M 178.1818,178.7879 h 3.6364 M 178.1818,166.1616 h 3.6364 M 178.1818,140.9091 h 3.6364 M 178.1818,128.2828 h 3.6364 M 178.1818,115.6566 h 3.6364 M 178.1818,90.4040 h 3.6364 M 178.1818,77.7778 h 3.6364 "/></g><g stroke-width="0.4"><path d="M 175.7576,406.0606 h 6.0606 M 175.7576,355.5556 h 6.0606 M 175.7576,305.0505 h 6.0606 M 175.7576,254.5455 h 6.0606 M 175.7576,204.0404 h 6.0606 M 175.7576,153.5354 h 6.0606 M 175.7576,103.0303 h 6.0606 "/></g><g fill-opacity="1.0" font-size="11.0px" fill="rgb(0,0,0)"><text dominant-baseline="middle" transform="matrix(1.0000,0.0000,0.0000,1.0000,167.2727,103.0303)" stroke="none" text-anchor="end">30.0</text></g><g fill-opacity="1.0" font-size="11.0px" fill="rgb(0,0,0)"><text dominant-baseline="middle" transform="matrix(1.0000,0.0000,0.0000,1.0000,167.2727,153.5354)" stroke="none" text-anchor="end">25.0</text></g><g fill-opacity="1.0" font-size="11.0px" fill="rgb(0,0,0)"><text dominant-baseline="middle" transform="matrix(1.0000,0.0000,0.0000,1.0000,167.2727,204.0404)" stroke="none" text-anchor="end">20.0</text></g><g fill-opacity="1.0" font-size="11.0px" fill="rgb(0,0,0)"><text dominant-baseline="middle" transform="matrix(1.0000,0.0000,0.0000,1.0000,167.2727,254.5455)" stroke="none" text-anchor="end">15.0</text></g><g fill-opacity="1.0" font-size="11.0px" fill="rgb(0,0,0)"><text dominant-baseline="middle" transform="matrix(1.0000,0.0000,0.0000,1.0000,167.2727,305.0505)" stroke="none" text-anchor="end">10.0</text></g><g fill-opacity="1.0" font-size="11.0px" fill="rgb(0,0,0)"><text dominant-baseline="middle" transform="matrix(1.0000,0.0000,0.0000,1.0000,167.2727,355.5556)" stroke="none" text-anchor="end">5.0</text></g><g fill-opacity="1.0" font-size="11.0px" fill="rgb(0,0,0)"><text dominant-baseline="middle" transform="matrix(1.0000,0.0000,0.0000,1.0000,167.2727,406.0606)" stroke="none" text-anchor="end">0.0</text></g><g stroke-width="0.1"><path d="M 204.5455,436.3636 v -363.6364 M 280.3030,436.3636 v -363.6364 M 356.0606,436.3636 v -363.6364 M 431.8182,436.3636 v -363.6364 M 507.5758,436.3636 v -363.6364 "/></g><g stroke-linecap="square"><path d="M 181.8182,436.3636 h 363.6364 M 181.8182,72.7273 h 363.6364 "/></g><g stroke-width="0.4"><path d="M 185.6061,72.7273 v -3.6364 M 223.4848,72.7273 v -3.6364 M 242.4242,72.7273 v -3.6364 M 261.3636,72.7273 v -3.6364 M 299.2424,72.7273 v -3.6364 M 318.1818,72.7273 v -3.6364 M 337.1212,72.7273 v -3.6364 M 375.0000,72.7273 v -3.6364 M 393.9394,72.7273 v -3.6364 M 412.8788,72.7273 v -3.6364 M 450.7576,72.7273 v -3.6364 M 469.6970,72.7273 v -3.6364 M 488.6364,72.7273 v -3.6364 M 526.5152,72.7273 v -3.6364 "/></g><g stroke-width="0.4"><path d="M 204.5455,72.7273 v -6.0606 M 280.3030,72.7273 v -6.0606 M 356.0606,72.7273 v -6.0606 M 431.8182,72.7273 v -6.0606 M 507.5758,72.7273 v -6.0606 "/></g><g stroke-width="0.4"><path d="M 185.6061,440.0000 v -3.6364 M 223.4848,440.0000 v -3.6364 M 242.4242,440.0000 v -3.6364 M 261.3636,440.0000 v -3.6364 M 299.2424,440.0000 v -3.6364 M 318.1818,440.0000 v -3.6364 M 337.1212,440.0000 v -3.6364 M 375.0000,440.0000 v -3.6364 M 393.9394,440.0000 v -3.6364 M 412.8788,440.0000 v -3.6364 M 450.7576,440.0000 v -3.6364 M 469.6970,440.0000 v -3.6364 M 488.6364,440.0000 v -3.6364 M 526.5152,440.0000 v -3.6364 "/></g><g stroke-width="0.4"><path d="M 204.5455,442.4242 v -6.0606 M 280.3030,442.4242 v -6.0606 M 356.0606,442.4242 v -6.0606 M 431.8182,442.4242 v -6.0606 M 507.5758,442.4242 v -6.0606 "/></g><g fill-opacity="1.0" font-size="11.0px" fill="rgb(0,0,0)"><text dominant-baseline="text-before-edge" transform="matrix(1.0000,0.0000,0.0000,1.0000,507.5758,450.9091)" stroke="none" text-anchor="middle">8.0</text></g><g fill-opacity="1.0" font-size="11.0px" fill="rgb(0,0,0)"><text dominant-baseline="text-before-edge" transform="matrix(1.0000,0.0000,0.0000,1.0000,431.8182,450.9091)" stroke="none" text-anchor="middle">7.0</text></g><g fill-opacity="1.0" font-size="11.0px" fill="rgb(0,0,0)"><text dominant-baseline="text-before-edge" transform="matrix(1.0000,0.0000,0.0000,1.0000,356.0606,450.9091)" stroke="none" text-anchor="middle">6.0</text></g><g fill-opacity="1.0" font-size="11.0px" fill="rgb(0,0,0)"><text dominant-baseline="text-before-edge" transform="matrix(1.0000,0.0000,0.0000,1.0000,280.3030,450.9091)" stroke="none" text-anchor="middle">5.0</text></g><g fill-opacity="1.0" font-size="11.0px" fill="rgb(0,0,0)"><text dominant-baseline="text-before-edge" transform="matrix(1.0000,0.0000,0.0000,1.0000,204.5455,450.9091)" stroke="none" text-anchor="middle">4.0</text></g><g fill-opacity="1.0" font-size="16.0px" fill="rgb(0,0,0)"><text dominant-baseline="text-after-edge" transform="matrix(1.0000,0.0000,0.0000,1.0000,363.6364,48.4848)" stroke="none" text-anchor="middle"></text></g><g><path d="M 151.5152,96.9697 l -0.0000,-24.2424 h -103.0303 l -0.0000,24.2424 Z"/></g><g fill-opacity="1.0" font-size="8.0px" fill="rgb(0,0,0)"><text dominant-baseline="middle" transform="matrix(1.0000,0.0000,0.0000,1.0000,84.8485,84.8485)" stroke="none" text-anchor="start">histogram</text></g><g stroke-opacity="1.0" fill-opacity="1.0" opacity="0.5" stroke="rgb(0,0,255)" stroke-width="0.96969696969697" fill="rgb(89,89,255)"><path d="M 73.9394,90.9091 l -0.0000,-7.2727 h -4.8485 l -0.0000,7.2727 Z"/></g><g stroke-opacity="1.0" fill-opacity="1.0" opacity="0.5" stroke="rgb(0,0,255)" stroke-width="0.96969696969697" fill="rgb(89,89,255)"><path d="M 69.0909,90.9091 l -0.0000,-12.1212 h -4.8485 l -0.0000,12.1212 Z"/></g><g stroke-opacity="1.0" fill-opacity="1.0" opacity="0.5" stroke="rgb(0,0,255)" stroke-width="0.96969696969697" fill="rgb(89,89,255)"><path d="M 64.2424,90.9091 l -0.0000,-8.4848 h -4.8485 l -0.0000,8.4848 Z"/></g></svg>